<svg xmlns="http://www.w3.org/2000/svg" viewBox="0 0 250 250">
  <g>
    <path style="fill:black;" d="M69.58,94.24A249.86,249.86,0,0,1,40.26,81.58C17.63,69.7,9.89,38.07,29,17.41,45.58-.56,71.12-3,89.8,13.81c8,7.24,11.1,17.41,14.55,27.19a348.87,348.87,0,0,1,11.06,40.32c.32,1.44.8,2.84,1.22,4.32,9.6-4.46,19.44-6.88,30-5.39.85.12,1.61.47,2.17-.4,4-6.34,12-7.84,16.65-13.65,2.25-2.81,6.34-2.66,9.46-.31,3.29,2.47,4.24,5.87,2.38,9.66-1.78,3.59-5.35,5.44-8.67,4-4.94-2.2-7.22.92-11,3.42,11.59,4.27,19.71,11.78,26.73,21.73,4.22-7.23,12.33-9.17,17.89-14.55,2.68-2.59,6.38-2.3,9.47.06a7.14,7.14,0,0,1,2.29,9c-1.36,3.11-4.36,6-7.94,4.48-8.13-3.44-11.4,2.79-15.72,7-1.57,1.54-1.85,3.26-1.14,5.77,2.21,7.8,3.47,15.8,1.13,23.91,11.35,1.83,22.57,2.74,33.2,6.48,14.37,5.07,24.3,20.14,25.09,35.4A40.68,40.68,0,0,1,214,224.38c-16.24,2.49-29.4-3.77-39.19-17.09-6.44-8.76-12-18.07-18-28.29-2,7.63-3.41,14.56-6.48,20.95-11.86,24.7-31.09,39.47-58.32,43.87-15.25,2.47-29.52-.28-43.43-6.49-5.31-2.36-10.32,1-15.36,1.91-10.15,1.92-20.15,4.59-30.93,7.13,2.3-7.24,6.47-12.71,9.17-18.88a128.42,128.42,0,0,1,7-13.42c1.32-2.24-.3-3.35-1.12-4.73-14.8-25.12-16.09-50.78-2.2-76.53C26.7,111.46,45.07,99,69.58,94.24Zm71.36,27.62,4.89,7.13c.21-3.1-1.26-5.28-2.65-7.5-6-10.25-13.15-19.37-24.05-24.63,1.25,3-.15,6.62,3.39,8.6C129.8,109.54,135.54,115.56,140.94,121.86ZM21,228.61c5.67-1,10.85-2.23,16.11-2.79,4.64-.5,9.17-2.57,14.07.13A60.74,60.74,0,0,0,93,232.55a64.1,64.1,0,0,0,51.87-72c-4.54-33.68-36-58.74-71-55.05-29.22,3.07-55.09,29.41-56.53,58.85-.77,15.88,3,30.28,12.4,43.07,2.09,2.84,1.81,4.78,0,7.46C26.78,219.27,23.35,223.36,21,228.61ZM28.33,46.05c.33,11.65,6,21.44,17.7,27.49C64.91,83.27,85.2,89.15,105.4,95.31c2.09.64,3.28.32,2.68-2.22-4.93-20.87-9.26-41.92-18-61.67A31.61,31.61,0,0,0,54.22,13C39.5,16,28.47,29.51,28.33,46.05ZM153.18,149.17c10.17,19.72,19.58,39.39,33.75,56.18,8.07,9.57,22.69,11.8,34.57,5.76s18.8-19.64,16.41-31.75c-3-15.19-12.92-22.69-27.41-25.67-10.93-2.25-22-2.86-33.08-3.62C169.57,149.53,161.68,148.35,153.18,149.17Zm8.22-54.1c16.26,10.84,21.78,26.18,20.61,44.68,5.38-14.39-1.23-33.59-13.94-43.18C166,95,164.17,94.31,161.4,95.07Z"/>
    <path style="fill:yellow;" d="M21,228.61c2.39-5.25,5.82-9.34,8.78-13.73,1.81-2.68,2.09-4.62,0-7.46-9.4-12.79-13.17-27.19-12.4-43.07,1.44-29.44,27.31-55.78,56.53-58.85,35.06-3.69,66.49,21.37,71,55.05a64.1,64.1,0,0,1-51.87,72A60.74,60.74,0,0,1,51.14,226c-4.9-2.7-9.43-.63-14.07-.13C31.81,226.38,26.63,227.6,21,228.61Zm60.11-58.33h40a29.05,29.05,0,0,0,4.48-.24,4.13,4.13,0,0,0-.16-8.19,21.44,21.44,0,0,0-3-.08H39.9a15.69,15.69,0,0,0-3,.1,4,4,0,0,0-3.49,4.19,3.65,3.65,0,0,0,3.2,3.87,23.74,23.74,0,0,0,4.46.33Q61.08,170.29,81.07,170.28Zm.19,20.3c10.47,0,20.94,0,31.41,0,3.11,0,6-.53,5.89-4.34-.12-3.61-2.91-4.35-6.06-4.35q-31.43,0-62.84,0c-3.12,0-6,.88-5.93,4.49s3,4.2,6.11,4.19C60.31,190.55,70.79,190.58,81.26,190.58Zm-.11-40.67h9q11.24,0,22.45,0c2.86,0,5-1,5.1-4.18s-2.13-4.23-4.9-4.42c-1.32-.09-2.66-.06-4-.06q-23.94,0-47.89,0c-3.65,0-7.27-.5-10.94.13-2.92.5-5.45,1.59-5.24,4.76.23,3.37,3.13,3.79,6,3.78C60.86,149.89,71,149.91,81.15,149.91Z"/>
    <path style="fill:white;" d="M28.33,46.05C28.47,29.51,39.5,16,54.22,13a31.61,31.61,0,0,1,35.9,18.43c8.7,19.75,13,40.8,18,61.67.6,2.54-.59,2.86-2.68,2.22C85.2,89.15,64.91,83.27,46,73.54,34.29,67.49,28.66,57.7,28.33,46.05Z"/>
    <path style="fill:white;" d="M153.18,149.17c8.5-.82,16.39.36,24.24.9,11.06.76,22.15,1.37,33.08,3.62,14.49,3,24.41,10.48,27.41,25.67,2.39,12.11-4.56,25.73-16.41,31.75s-26.5,3.81-34.57-5.76C172.76,188.56,163.35,168.89,153.18,149.17Z"/>
    <path style="fill:white;" d="M161.4,95.07c2.77-.76,4.63,0,6.67,1.5,12.71,9.59,19.32,28.79,13.94,43.18C183.18,121.25,177.66,105.91,161.4,95.07Z"/>
    <path style="fill:white;" d="M143.18,121.48c-6-10.24-13.15-19.36-24.05-24.62,1.25,3-.15,6.62,3.39,8.6,7.28,4.08,13,10.1,18.42,16.4l4.89,7.13C146,125.89,144.57,123.71,143.18,121.48Z"/>
    <path style="fill:black;" d="M81.07,170.28q-20,0-40,0a23.74,23.74,0,0,1-4.46-.33,3.65,3.65,0,0,1-3.2-3.87,4,4,0,0,1,3.49-4.19,15.69,15.69,0,0,1,3-.1h82.47a21.44,21.44,0,0,1,3,.08,4.13,4.13,0,0,1,.16,8.19,29.05,29.05,0,0,1-4.48.24Z"/>
    <path style="fill:black;" d="M81.26,190.58c-10.47,0-21,0-31.42,0-3.11,0-6.05-.52-6.11-4.19s2.81-4.49,5.93-4.49q31.43,0,62.84,0c3.15,0,5.94.74,6.06,4.35.13,3.81-2.78,4.35-5.89,4.34C102.2,190.56,91.73,190.58,81.26,190.58Z"/>
    <path style="fill:black;" d="M81.15,149.91c-10.14,0-20.29,0-30.43,0-2.87,0-5.77-.41-6-3.78C44.51,143,47,141.88,50,141.38c3.67-.63,7.29-.12,10.94-.13q23.94,0,47.89,0c1.33,0,2.67,0,4,.06,2.77.19,5,1.21,4.9,4.42s-2.24,4.18-5.1,4.18q-11.22,0-22.45,0Z"/>
  </g>
</svg>