<?xml version="1.0" standalone="no"?>
<!DOCTYPE svg PUBLIC "-//W3C//DTD SVG 1.1//EN" "http://www.w3.org/Graphics/SVG/1.1/DTD/svg11.dtd" >
<svg xmlns="http://www.w3.org/2000/svg">
<metadata>
Created by Font 20130207 at Sat May 18 17:00:51 2013
 By Yann Gouffon
_null_name_substitute_
</metadata>
<defs>
<font id="jvgdbkdiug" >
  <font-face 
    font-family="Social-Regular"
    font-weight="400"
    font-stretch="normal"
    units-per-em="1000"
    panose-1="0 0 5 0 0 0 0 0 0 0"
    ascent="800"
    descent="-200"
    x-height="594"
    cap-height="575"
    bbox="0 -71 600 698"
    underline-thickness="50"
    underline-position="-50"
    unicode-range="U+0020-007A"
  />
<missing-glyph 
d="M66 33h199v600h-199v-600zM33 0v666h265v-666h-265z" />
    <glyph glyph-name=".notdef" 
d="M66 33h199v600h-199v-600zM33 0v666h265v-666h-265z" />
    <glyph glyph-name=".null" horiz-adv-x="0" 
 />
    <glyph glyph-name="nonmarkingreturn" 
 />
    <glyph glyph-name="space" unicode=" " 
 />
    <glyph glyph-name="A" unicode="A" 
d="M223 230l-37 76q-30 -20 -42 -45t-8 -39l4 -15zM210 426l26 -53q2 1 44 7t102 2t118 -29q58 -24 88 -61l12 -15l-249 -72l-58 118q39 6 77 -1l25 -46l84 23q-34 34 -105 43q-70 8 -121 -6l69 -140l-250 -72q-43 102 20 178q26 32 72 50l-32 65z" />
    <glyph glyph-name="B" unicode="B" 
d="M226 211q0 42 -61 47h-91v-99h90q62 0 62 52zM525 259q-1 58 -61 58q-26 0 -43 -17q-16 -17 -19 -41h123zM472 85q-62 -1 -103 33t-41 108t38 112t86 38q88 0 123 -54q25 -34 25 -111h-200q3 -68 68 -68q35 0 55 31h73q-3 -23 -33 -56q-29 -33 -91 -33zM164 319
q54 0 54 41t-63 41h-81v-82h90zM383 402v46h159v-46h-159zM247 293q57 -22 57 -82q0 -61 -43 -93q-31 -24 -94 -24h-167v371h179q69 -3 91 -33t22 -63t-12 -49t-33 -27z" />
    <glyph glyph-name="C" unicode="C" 
 />
    <glyph glyph-name="D" unicode="D" 
d="M300 19q52 0 100 20q-16 94 -55 195l-1 -1q-106 -37 -174 -119q-16 -18 -21 -30l-6 -11l-6 4q71 -58 163 -58zM443 62q93 63 110 172q-20 9 -71 14t-89 -2q32 -87 50 -184zM44 283v-8q0 -98 65 -171q48 80 134 134q36 22 75 35l10 3q-7 15 -21 43q-122 -36 -263 -36z
M556 278q0 89 -58 160l-1 -1q-47 -62 -142 -101q12 -24 17 -37l6 -13q81 10 167 -6zM191 507q-115 -55 -142 -179q121 0 237 31q-33 61 -64 104q-30 43 -31 44zM300 531q-33 0 -60 -7q0 -2 6 -10q48 -63 89 -140q82 31 122 77q12 14 12 16q-72 64 -169 64zM0 291
q0 79 50 151q93 133 250 133q124 0 212 -88t88 -214q0 -93 -50 -165q-93 -133 -250 -133q-124 0 -212 88t-88 228z" />
    <glyph glyph-name="E" unicode="E" 
d="M403 302q5 -3 31 -1t37 -5q1 20 -15 30t-34 2t-19 -26zM48 461l92 98q14 -2 9 -41q-6 -40 -2 -57h-99zM348 528q166 24 202 -55q24 -63 22 -160t-24 -192t-46 -112q-25 -17 -60 -23q-71 -12 -125 24t-11 115q15 11 41 16q50 11 50 -23q5 -23 -27 -20q-31 3 -28 -22
q5 -24 44 -26t60 7q47 95 -62 122q-28 7 -72 13q-9 21 -6 61q-12 -7 -14 -45t-11 -47q-14 1 -86 -1t-110 26q-17 12 -35 66q-45 133 -8 185q19 11 63 9t60 9q8 8 3 36q-4 27 0 49t48 34t86 0t46 -46z" />
    <glyph glyph-name="F" unicode="F" 
d="M350 478h125l-23 -128h-102v-348h-153v348h-72v128h72v67q0 101 78 138q32 15 76 15h112v-126h-80q-33 0 -33 -35v-59z" />
    <glyph glyph-name="G" unicode="G" 
d="M189 4q135 0 135 97q0 39 -44 68q-4 3 -18 13t-28 14q-14 6 -52 6t-76 -30q-39 -30 -39 -70t35 -69t87 -29zM142 361q30 -29 66 -31t54 26t13 76t-33 80q-28 34 -64 35t-57 -31t-15 -78t36 -77zM518 486h82v-42h-82v-81h-40v81h-82v42h82v81h40v-81zM40 434q0 56 49 99
q49 42 116 42h177l-40 -41h-46q50 -30 50 -92t-44 -96q-44 -35 -44 -55t25 -39q25 -20 47 -36q49 -36 49 -98q-1 -63 -53 -103t-134 -40q-82 -1 -137 29t-55 81t50 94t125 43h32q-26 26 -26 45t10 36l-17 -1q-62 0 -98 38t-36 94z" />
    <glyph glyph-name="H" unicode="H" 
 />
    <glyph glyph-name="I" unicode="I" 
 />
    <glyph glyph-name="J" unicode="J" 
 />
    <glyph glyph-name="K" unicode="K" 
d="M600 275q0 -55 -39 -94t-94 -39t-94 39t-39 94t39 94t94 39t94 -39t39 -94zM266 275q0 -55 -39 -94t-94 -39t-94 39t-39 94t39 94t94 39t94 -39t39 -94z" />
    <glyph glyph-name="L" unicode="L" 
d="M8 -12v387h128v-387h-128zM472 -12v207q0 88 -66 88q-48 0 -66 -47q-4 -12 -4 -32v-216h-129v387h129v-55q40 64 112 64t112 -44t40 -130v-222h-128zM71 428q-31 0 -51 20t-20 48t20 47t52 19t52 -19t20 -48t-19 -48q-20 -19 -53 -19h-1z" />
    <glyph glyph-name="M" unicode="M" 
 />
    <glyph glyph-name="N" unicode="N" 
 />
    <glyph glyph-name="O" unicode="O" 
d="M112 293q0 44 30 76q-14 36 3 78q31 4 81 -30q34 10 74 10t74 -10q56 38 81 30q17 -42 3 -78q30 -33 30 -95q0 -115 -137 -130q24 -16 24 -53v-60q78 26 128 93q50 68 50 162t-74 168t-179 74t-179 -74t-74 -168t50 -162q50 -67 128 -93v48q-28 -9 -50 0q-23 9 -29 18
t-14 28t-25 27q-19 10 -3 14q2 0 5 1q26 -1 40 -26q27 -45 78 -21q4 16 23 24q-100 10 -126 76q-12 29 -12 73zM600 275q0 -125 -88 -213t-212 -87q-124 -1 -212 87t-88 213t88 213t212 87q124 1 212 -87t88 -213z" />
    <glyph glyph-name="P" unicode="P" 
 />
    <glyph glyph-name="Q" unicode="Q" 
 />
    <glyph glyph-name="R" unicode="R" 
d="M80 -26q-32 0 -56 24t-24 56t24 56t56 24t56 -24t24 -56t-24 -56t-56 -24zM0 372q164 0 280 -117t116 -282h-116q0 117 -82 200t-198 83v116zM0 577q163 0 301 -81q139 -81 219 -220t80 -303h-115q0 133 -65 245t-177 178t-243 65v116z" />
    <glyph glyph-name="S" unicode="S" 
 />
    <glyph glyph-name="T" unicode="T" 
d="M539 382q1 -128 -89 -236q-94 -115 -272 -115q-92 0 -178 55q10 -1 29 -1q87 0 153 52q-40 1 -72 25t-43 61q17 -2 29 -2t27 4q-43 9 -71 43t-28 78v1q25 -13 56 -15q-55 37 -55 102q0 34 17 62q98 -120 253 -128q-3 14 -3 28q0 51 36 87t88 36t89 -39q44 9 78 30
q-14 -45 -54 -68q40 5 71 19q-25 -38 -61 -63v-16z" />
    <glyph glyph-name="U" unicode="U" 
 />
    <glyph glyph-name="V" unicode="V" 
d="M315 190q24 0 79 103q26 47 4 77t-71 1q12 75 78 112q65 37 121 13t44 -99q-23 -136 -117 -239q-93 -103 -134 -130t-77 -16t-58 58q-8 18 -48 148t-52 142t-48 -12l-13 -9l-23 31q38 45 88 84q50 40 78 46t43 -6q16 -11 25 -35q9 -23 14 -47q4 -24 10 -58t10 -49
q28 -115 47 -115z" />
    <glyph glyph-name="W" unicode="W" 
 />
    <glyph glyph-name="X" unicode="X" 
 />
    <glyph glyph-name="Y" unicode="Y" 
d="M447 156q-1 17 13 17t14 -17v-16h-27v16zM358 174q10 0 10 -16v-78q0 -14 -9 -14t-16 7v95q5 6 15 6zM203 69q0 -27 20 -27t36 19v-17h31v152h-31v-115q-11 -11 -19 -11t-7 10v116h-30v-127zM474 88q0 -21 -14 -21t-13 21v29h58v38q0 45 -43 45q-20 0 -34 -12
q-12 -14 -12 -33v-68q0 -47 44 -47t45 47v8h-31v-7zM370 198q-15 0 -27 -14v66h-31v-206h31v12q12 -14 29 -14q28 0 28 34v84q0 38 -30 38zM154 220h36v30h-105v-30h35v-176h34v176zM109 289h381q46 0 78 -32t32 -78v-88q0 -45 -32 -77t-78 -32h-381q-45 0 -77 32t-32 77v88
q0 46 32 78t77 32zM281 381q1 -15 15 -15t14 15v91q0 12 -14 12t-15 -12v-91zM407 381q1 -11 9 -11t20 12v127h34v-167h-34v18q-20 -21 -42 -21t-22 30v140h35v-128zM246 471q0 42 50 42q22 0 36 -12t13 -31v-87q-1 -21 -15 -33t-35 -13q-49 0 -49 47v87zM198 342h-39v89
l-45 137h38l26 -90h2l24 90h39l-45 -132v-94z" />
    <glyph glyph-name="Z" unicode="Z" 
 />
    <glyph glyph-name="a" unicode="a" 
 />
    <glyph glyph-name="b" unicode="b" 
d="M515 134q11 0 11 -12v-2q-19 -99 -21 -112q-7 -34 -66 -56t-139 -23q-80 1 -139 23t-66 56q-2 13 -21 112v2q0 12 11 12l32 -20q15 -10 69 -26t114 -16t112 14t73 30l22 14q4 4 8 4zM300 335q20 0 34 -14q14 -13 14 -33t-14 -34t-34 -14t-34 14t-14 34t14 34t34 13z
M300 192q40 0 68 28t27 68q1 40 -27 67q-28 28 -68 28t-68 -28q-28 -27 -27 -67q-1 -40 27 -68t68 -28zM300 491q80 0 136 12q56 13 56 29t-56 28t-136 12t-136 -11q-56 -12 -56 -29t56 -29t136 -12zM300 621q124 0 212 -29t88 -70q0 -12 -50 -305q-6 -32 -77 -62t-173 -30
t-173 30t-77 62q-50 293 -50 305q0 41 88 70t212 29z" />
    <glyph glyph-name="c" unicode="c" 
d="M191 275q0 43 32 77q34 32 77 32t77 -32q32 -34 32 -77t-32 -77q-34 -32 -77 -32t-77 32q-32 34 -32 77zM600 275q0 -123 -86 -211t-210 -89l122 212q27 37 27 95t-45 103h171q21 -53 21 -110zM0 258q0 96 39 165l122 -214q17 -39 55 -63t74 -24t51 5l-85 -148
q-110 17 -183 101q-73 82 -73 178zM300 575q82 1 150 -39t108 -109h-245q-4 1 -13 1q-55 0 -95 -32t-54 -82l-85 149q90 112 234 112z" />
    <glyph glyph-name="d" unicode="d" 
 />
    <glyph glyph-name="e" unicode="e" 
d="M189 31q-83 51 -116 142q-56 -108 -18 -146t134 4zM328 413q-46 0 -78 -31q-33 -31 -35 -76h228q-3 46 -36 76t-79 31zM430 517q78 -31 126 -104q27 78 -4 110t-122 -6zM334 114q72 0 105 62h147q-28 -80 -98 -132t-146 -51q-76 0 -136 28q-129 -61 -186 -6
q-20 20 -20 64t17 97q39 122 147 230q34 34 40 39q-74 -35 -139 -115q23 91 96 149q75 58 169 58q7 0 19 -2q66 30 125 34t82 -18q47 -48 8 -150q36 -63 36 -136q0 -22 -1 -31h-384v-1q-1 -68 57 -102q28 -17 62 -17z" />
    <glyph glyph-name="f" unicode="f" 
d="M403 170q28 24 38 40q10 14 13 17q2 0 -6 -31l-3 -17q21 15 29 55t1 76q14 -6 20 -22l2 -2q6 18 8 56t-7 61q16 -5 28 -30q-10 60 -49 87q-40 27 -52 30q-13 4 -15 5t-8 2t-7 1t-2 1q30 8 59 8q-5 11 -35 19l-23 6q-11 2 -25 6q32 9 89 -9t88 -67q2 -3 4 -9l3 -9v5
q3 16 -10 44q8 0 24 -41t25 -119l7 44q1 -3 1 -21q0 -148 -70 -242q-20 -29 -72 -65t-136 -41q-2 0 -15 -2t-36 1q-146 12 -222 143q-36 63 -40 118q-4 -22 -4 -28q-4 65 10 109q-11 -18 -15 -33q12 72 39 109v4q-3 32 6 59q9 28 15 34l9 9q1 -28 29 -54q4 -1 22 1t52 -3
q20 23 58 32h22q-33 -19 -41 -57q13 -27 34 -27h26q20 0 21 -4v-2q2 -1 0 -3v-3q-3 -19 -11 -19q-3 -3 -25 -16t-23 -19v-1h-1q10 -26 6 -30v-11q-12 7 -27 10q-17 -7 -21 -25q0 -23 22 -36t39 -14t33 6t20 7q34 10 57 -16q7 -7 3 -13t-12 -4q-4 -2 -6 -2t-10 -3l-13 -7
l-3 -2l-4 -4l-9 -5q-13 -10 -40 -15t-44 0q14 -11 22 -15l27 -15q26 -16 65 -16q38 0 66 24z" />
    <glyph glyph-name="g" unicode="g" 
 />
    <glyph glyph-name="h" unicode="h" 
 />
    <glyph glyph-name="i" unicode="i" 
 />
    <glyph glyph-name="j" unicode="j" 
 />
    <glyph glyph-name="k" unicode="k" 
 />
    <glyph glyph-name="l" unicode="l" 
 />
    <glyph glyph-name="m" unicode="m" 
 />
    <glyph glyph-name="n" unicode="n" 
 />
    <glyph glyph-name="o" unicode="o" 
d="M298 525q-34 0 -63 -25q-28 -25 -36 -100q-9 -76 -9 -152t17 -134t42 -72q24 -14 62 -14t63 43q24 44 29 82q4 37 6 75l1 56q0 176 -54 222q-24 20 -58 19zM600 284q0 -136 -85 -232t-215 -96t-216 96q-84 96 -84 232t84 223t214 87q132 0 217 -88t85 -222z" />
    <glyph glyph-name="p" unicode="p" 
 />
    <glyph glyph-name="q" unicode="q" 
 />
    <glyph glyph-name="r" unicode="r" 
 />
    <glyph glyph-name="s" unicode="s" 
d="M300 195q40 0 55 36q11 26 0 48l-34 -45l-45 -34q4 -3 16 -5h8zM300 315q-32 0 -50 -27t-5 -57l34 45l45 34q-4 3 -16 5h-8zM362 287l76 -3l-68 -31q0 -15 -6 -28l28 -30l-39 14q-9 -10 -22 -16l-2 -76l-31 68q-18 2 -31 8l-122 -93l93 123v1l-76 2l68 32q0 14 6 27
l-28 30l39 -14q8 9 22 17l2 75l31 -68q17 -2 31 -7l122 92l-93 -122v-1zM300 483q-15 0 -30 -3l-7 -50l-27 44q-58 -17 -97 -58q-67 -67 -67 -161q0 -15 3 -30l50 -7l-44 -27q17 -58 58 -97q67 -67 161 -67q15 0 30 3l7 50l27 -44q58 17 97 58q67 69 67 161q0 15 -3 30
l-50 8l44 26q-17 58 -58 97q-69 67 -161 67zM242 585q-12 1 -18 -1t-12 -8q-15 -15 8 -21q4 7 13 9t16 -3q8 7 7 14q-3 10 -14 10zM300 555q124 0 212 -88t88 -212t-88 -212t-212 -88t-212 88t-88 201t61 193q62 80 157 107v1q-18 5 -19 18q-3 9 5 19q14 13 36 13t25 -19
q3 -12 -10 -22q0 -2 11 0t34 1z" />
    <glyph glyph-name="t" unicode="t" 
 />
    <glyph glyph-name="u" unicode="u" 
 />
    <glyph glyph-name="v" unicode="v" 
 />
    <glyph glyph-name="w" unicode="w" 
 />
    <glyph glyph-name="x" unicode="x" 
 />
    <glyph glyph-name="y" unicode="y" 
 />
    <glyph glyph-name="z" unicode="z" 
 />
  </font>
</defs>
</svg>
