<?xml version="1.0" encoding="utf-8"?>
<!-- Generator: Adobe Illustrator 23.0.4, SVG Export Plug-In . SVG Version: 6.00 Build 0)  -->
<svg version="1.0" id="Layer_1" xmlns="http://www.w3.org/2000/svg" xmlns:xlink="http://www.w3.org/1999/xlink" x="0px" y="0px"
	 viewBox="0 0 245 298" style="enable-background:new 0 0 245 298;" xml:space="preserve">
<style type="text/css">
	.st0{fill:#004684;}
	.st1{fill:#FDB927;}
	.st2{fill:#FFFFFF;}
</style>
<g>
	<path class="st0" d="M51.3,295.1c0-19.2,0.1-35.8,0.1-44.6c3.3,0,14.7-0.4,17.3-0.4c0-1.5,0-9.6-0.1-11.5c-28.3,0-50.4,0-66.4,0
		c-0.1-3.7,0-36.6,0-41c4.2-1.1,11.7-2.7,15.4-3.4c1.2-2.8,16.1-39.3,18.8-46.5c-3.2-0.4-24.3-4.6-30.5-5.8
		c4.4-20.5,9.1-42.7,13.5-63.1c0.6-2.9,3.7-15.9,4.2-19C43.3,59.9,62.3,60,69,60c1.6-5.1,3.5-10.1,5.4-15.3
		c-0.1-4.5-0.2-37-0.3-41.6c4.4,0,102.4,0.1,104.1,0.1c0,14.6,0,30.1,0,44.7c1.5,4.4,3.1,9.1,4.1,12c2.2,0,15.4,0.3,17,0.3
		c4.2,20.6,8.4,41.8,12.5,62.5c1.2,6.1,2.7,13.1,3.9,19.2c-1.8,0.7-4.1,1.1-5.5,1.3c7.7,22.5,14.9,44,17.6,51.2
		c4,0.5,11.7,1.2,14.8,1.6c0,5.3,0,39.6,0,43c-28.8,0.1-74.6-0.2-89.4-0.2c0,4.2,0,7.6,0,11.6c2.9,0,13,0.1,17.3,0.1
		c0,29.3,0,45,0,45C119.6,295.3,69.3,295.1,51.3,295.1"/>
	<path class="st1" d="M70.9,269.8c17.1,0.5,17.4-12.8,17.4-18.7c0-5,0.1-75.2,0.1-78.1c17.8-0.6,31.3,3.3,45.2,12.2
		c0.1,23.4,0,58.8,0,65c0,15.2,6.6,19.8,17.2,19.5c0,2.4-0.1,3.9-0.1,5.6H70.9V269.8z M21.8,218.8c16.3,0.1,32.3,0.1,48.5,0.2v-5.7
		c-7.6-0.5-11.1-3.7-9.8-13.3c0.8-6.3,5.8-18.8,9.5-30.4c41.6-10.7,72.5,8.4,89,31.6c-0.4,9.3-7.3,12.3-12.1,11.9v5.9
		c23.2,0,76,0,76,0c0.1-1.7,0-3.9,0.1-5.6c-7.7,0-12.2-8.6-14.7-14.7c-7.3-21.6-14.6-42.9-21.9-64.5c-0.7,0.2-1.5,0.3-2.8,0.4
		c-5-14.9-11.7-33.2-43.6-32.4c0.2,13.7-0.1,26.3,0.1,40c1.7,5,3.7,11.4,5.4,16.4c-18.7-10.9-40.7-16.9-66.8-13.8
		c0.9-2.7,2.2-5.6,3.1-8.3c0-13.2,0.1-30.8,0.1-34.1c-2.3,0-5.5,0-7.6,0c-9.9,26.8-20.1,54.3-30,81c-4.4,11.7-8.8,26.9-22.4,29.9
		C22,216,21.8,217.3,21.8,218.8 M33.9,127.2c7.5-27.6,28.6-33.1,54.3-31.3v41.4c20.8-0.9,38.3,4.8,45.4,8.1c0-12.1-0.1-33,0-49.5
		c39.4-3,48.5,17.4,54.3,31.3c1.5-0.3,2.9-0.5,4.4-0.8c0-0.3,0-0.5-0.1-0.8c-3.3-16.5-6.6-33-9.9-49.5c-2.9,4.1-11.4,3.7-19.7,3.7
		c-26.3,0-76-0.1-102.3-0.1c-9.9,0-17.4,1.7-20.2-3.7c-1.2,6.1-7.7,36-10.7,50.4C31.7,126.8,32.7,127,33.9,127.2 M94.2,28.2
		c5.2,0.7,5.5,5.3,4.3,9c-2,6.1-11.4,30.5-13.3,35.9c2.1,0,16.5,0.1,18.7,0.1c1.7-5.1,3.7-10.5,5.4-15.6c0.3-0.8,1.7-5.1,2.2-4.6
		c2.2,6.7,4.4,13.4,6.5,20.1c2.6,0,44.3,0,48,0c-1.7-4.9-7.7-24-11.2-34.6c-2.6-7.3-1-9.5,3.7-10.2v-5.4c-4,0-59.5-0.1-64.3-0.1
		C94.2,24.8,94.2,26.6,94.2,28.2"/>
	<path class="st2" d="M100.7,41.8c1.3-4.6,4.2-11.4-1.5-15.2H153c-1.5,1-2.6,2.6-3,4.1h-46.2c3.5,1.7,4.4,7.6,2.3,13.1
		c-0.5,1.4-8.3,22-11.2,29.4c-1,0-4.6,0-5.9,0C90.4,69.5,96.3,53.5,100.7,41.8 M116.8,40.7c-0.4,1-2.3,6.6-3,8.4
		c2.6,7.8,5.3,16.2,7.9,24c1.2,0,4.1-0.1,5.7-0.1C125.8,67.9,118.4,46.1,116.8,40.7 M77.4,153.6c36-5.7,64.6,10.2,84.2,25.4
		c-8.5-26.7-18-56.5-21.5-65.7c-0.1,2.9,0,11,0,16.9c3.8,11.4,10,30.4,12,36.4c-27-17.4-44.6-20.8-73-18.7
		C78.4,150.2,77.8,152,77.4,153.6 M92.1,95.6c0,13.6,0.1,34.8,0.1,41.6c1.5,0,2.9,0.1,4.3,0V95.6H92.1 M45.6,190.2
		c-4.8,14.5-11.6,22-18.2,25.1h11c5.9-5.7,9.5-14.8,13.6-25.6c8.7-23.4,29.1-78.8,29.9-81v-6.3c-0.7,0-2.3,0-3.9,0
		C72.5,118.5,46.8,186.8,45.6,190.2 M162.6,200.1c0.3,6.3-2.9,12.1-8.4,15c2.9,0,8.4,0,9.8,0c2.2-3,3.3-5.9,3.2-11
		c-1.5-1.8-6.6-8.6-8.8-10.8c-0.1,0.2-0.4,0.4-0.5,0.6C158.9,195.3,161.2,198.1,162.6,200.1 M92.1,249.1c0,8.7-1.8,18.7-10.5,22.6
		c2.1,0.1,7.8,0.1,9.9,0c5.7-6.2,4.9-17.6,4.9-26.6c0-19.7,0-76.6,0-71.9c-1.4-0.1-3,0-4.4,0V249.1z M43.2,104.3
		c1.5-7.3,3-15.1,3.5-17.1c1.7,0.8,6.2,0.5,8.7,0.5h116c1.8,0,6.2,0.3,9.3-0.6c-0.4-1.6-0.8-4.1-1.1-5.1c-4.1,1.8-11.6,1.4-14,1.5
		c-2.4,0.1-108.6,0-111.1,0s-8.1,0.4-12.1-1.2c0,0.1-5,22.7-6.7,30.5C38,109.5,40.4,106.5,43.2,104.3"/>
</g>
</svg>
