<?xml version="1.0" encoding="utf-8"?>
<!-- Generator: Adobe Illustrator 23.0.4, SVG Export Plug-In . SVG Version: 6.00 Build 0)  -->
<svg version="1.1" id="Layer_1" xmlns="http://www.w3.org/2000/svg" xmlns:xlink="http://www.w3.org/1999/xlink" x="0px" y="0px"
	 viewBox="0 0 525 360.7" style="enable-background:new 0 0 525 360.7;" xml:space="preserve">
<style type="text/css">
	.st0{fill:#FFF1E4;stroke:#808080;stroke-width:0.5;stroke-opacity:0.25;}
	.st1{fill:#FEE8D7;stroke:#808080;stroke-width:0.5;stroke-opacity:0.25;}
	.st2{fill:#FFF1E5;stroke:#808080;stroke-width:0.5;stroke-opacity:0.25;}
	.st3{fill:#FFF5EB;stroke:#808080;stroke-width:0.5;stroke-opacity:0.25;}
	.st4{fill:#FEF0E3;stroke:#808080;stroke-width:0.5;stroke-opacity:0.25;}
	.st5{fill:#FAC5A2;stroke:#808080;stroke-width:0.5;stroke-opacity:0.25;}
	.st6{fill:#FCD3B7;stroke:#808080;stroke-width:0.5;stroke-opacity:0.25;}
	.st7{fill:#FCD7BC;stroke:#808080;stroke-width:0.5;stroke-opacity:0.25;}
	.st8{fill:#FFF3E8;stroke:#808080;stroke-width:0.5;stroke-opacity:0.25;}
	.st9{fill:#FEECDE;stroke:#808080;stroke-width:0.5;stroke-opacity:0.25;}
	.st10{fill:#FEEBDB;stroke:#808080;stroke-width:0.5;stroke-opacity:0.25;}
	.st11{fill:#FEE7D5;stroke:#808080;stroke-width:0.5;stroke-opacity:0.25;}
	.st12{fill:#F9B98F;stroke:#808080;stroke-width:0.5;stroke-opacity:0.25;}
	.st13{fill:#FFF2E6;stroke:#808080;stroke-width:0.5;stroke-opacity:0.25;}
	.st14{fill:#FFF5EA;stroke:#808080;stroke-width:0.5;stroke-opacity:0.25;}
	.st15{fill:#FFF3E9;stroke:#808080;stroke-width:0.5;stroke-opacity:0.25;}
	.st16{fill:#FEECDD;stroke:#808080;stroke-width:0.5;stroke-opacity:0.25;}
	.st17{fill:#FDE5D2;stroke:#808080;stroke-width:0.5;stroke-opacity:0.25;}
	.st18{fill:#FCD8BE;stroke:#808080;stroke-width:0.5;stroke-opacity:0.25;}
	.st19{fill:#FBCEAF;stroke:#808080;stroke-width:0.5;stroke-opacity:0.25;}
	.st20{fill:#FFF4EA;stroke:#808080;stroke-width:0.5;stroke-opacity:0.25;}
	.st21{fill:#FEEDDE;stroke:#808080;stroke-width:0.5;stroke-opacity:0.25;}
	.st22{fill:#FFF2E7;stroke:#808080;stroke-width:0.5;stroke-opacity:0.25;}
	.st23{fill:#FEEBDC;stroke:#808080;stroke-width:0.5;stroke-opacity:0.25;}
	.st24{fill:#FFF4E9;stroke:#808080;stroke-width:0.5;stroke-opacity:0.25;}
	.st25{fill:#FEEDDF;stroke:#808080;stroke-width:0.5;stroke-opacity:0.25;}
	.st26{fill:#FCD9BF;stroke:#808080;stroke-width:0.5;stroke-opacity:0.25;}
	.st27{fill:#F8AC7A;stroke:#808080;stroke-width:0.5;stroke-opacity:0.25;}
	.st28{fill:#6CF4F0;stroke:#636363;stroke-width:0.75;}
</style>
<path class="st0" d="M499.1,96.1l-1.6-1.9l-1.6-0.9l-4.8-15.7l-2.6-7.7l1.9,0.4l0.9-2.3l-0.1-2.8l1.8-2.1l0.5-2.2l-1-2l0-3.4l1-1.4
	l-0.4-3.5l3.7-10.9l1.7,0.2L499,42l1.4,0.4l2.2-2l2.7-1.5l4.5,2.2l4.2,13.3l0.8,3.2l3.5,0.2l1.7,4.9l2.6-0.2l2.3,3.3l-1.2,2.5
	l-1.1,0.2l-1.7,2.2l-2.4,0.8l-0.9,2.8l-2.7,1.8l-5,0.7l-0.8,4.6l-2.1,0.7l-1.2,2.6l-1.8,0.7l-1.8-0.2l-1.2,2.2l0.9,1.3l-2.2,3.6
	L499.1,96.1z"/>
<path class="st1" d="M477.6,105.7l7.2-1.5l10.3-2.3l1-1.9l2.6-1.4l1,1.9l1.4,1.2l-1.8,0.9l-0.6,1.7l0.5,1.9l2-0.3l1.7,1.6l2.6,3.5
	l2,0.1l2.5-2l0.5,1.7l-3.7,1.5l-2.1,1.8l-0.6-1.8l-2.2,1.7l-1.3,1.8l-1.2-2l-0.4-0.4l-1.1-0.6l-1.2-2.8l-3.7,1.1l-0.1-0.2l-15.1,3.4
	l-0.3-0.4L477.6,105.7z"/>
<path class="st2" d="M346.9,97.7l-1.4-1.1l0.7-1.8l-2-0.2l0.5-3.8l-2.8-1.2l-0.2-1.7l-5.9-0.7l-2.8-1.3l-9-1.9l-0.9-2l-1.8-0.7
	l3.3-1.5l1.4-1.6l3.5-0.8l7-5.6l1.2-1.6l1.9-1.2l3.2-0.5l0,1.1l-3.2,2.4l-1.7,3.1l4.7,0.4l2.4,1l2.4,3.4l1.2,0.3l2-0.8l1.3,1.1
	l3.1-1.4l2.9-2.1l5.6-0.7l1.8-1.1l2,0.5l0,2.1l2.3,0.7l1.4-0.6L375,77l-0.2,1.1l1.1,3.9l-0.2,1.4l-2.2,0.9l-2.6-1.2l-0.5,2.8
	l-2.5-1.8l-3-0.7l-1.6,0.2l-1.1,1.7l-2.2,0.7l-2.4-0.1l-1.2,2.3l-3.7-0.5l-0.3,1.8l-2.8,1L346.9,97.7z M388.4,135.3l-12.3,2
	l-0.1-0.8l-9,1l-9.5,1l1.7-1.8l1.9-4.7l0.7-2.9l0.1-3l-0.9-4.5l-3.2-6.4l0.7-2.6l-1-2.9l1.8-3.8l-0.1-4.5l1.3-0.9l-0.1-1.7l2.2-0.8
	l0.4-1.3l1.6-0.1l-0.5,2.2l1.2,1.4l0.9-2.4l-0.3-4.2l1.3-1.2l1.5-0.2l-1-2.5l1.5-2.4l1.1-0.6l2.9,1.4l2.2,0l1.1,1.5l6.3,1.9l0.4,4.2
	l1.2,0.7l0.7,2l0.1,4.7l-1.7,1.7l0,2.1l-2.1,1.1l-0.6,1.2l0.4,2.8l2.3,0.7l1.8-2.4l1.2-2.8l2.9-1.6l1.7,0.8l1.2,1.8l1.5,4.7l0.5,2.6
	l1.4,2.9l-0.3,4.7l-1.3,0.8l-1.2-1l-0.4,3.3l-1.9,2.3l0,2.8l-1.3,1.3L388.4,135.3z M380.7,83.7l-2,0l-0.7-1.1l2.2-1.1L380.7,83.7z"
	/>
<path class="st3" d="M202.6,99.1l-19.3-1.8l-17.5-2.2l-7.2-1l-13.9-1.9l-3-0.6l-1,6.5l-1.3-1.6l-0.6-1.9l-2.6,1.6l-4.6-0.2l-1.5-0.9
	l-1.8,0.8l-4.7-0.5l-0.4-4.1l-2.6-1.6l0.5-2.4l-0.9-1l-1.3-5.2l0.4-0.9l-1.3-1.5l-1.6,1.6l-1.9,0.9l-1.6-1.9l0.4-2.3l1.8-1l-0.5-2.2
	l2.8-6.6l-2.4-0.8l-0.1-1.2l-2.1-1.7l-0.3-1.8l-2-4l-1.5-0.9l-1.2-3.4l0.6-1.7l-2-4l2.6-12.3l6.8,1.4l12.3,2.4l12.6,2.2l9.3,1.6
	l16.4,2.4l10.6,1.4l13.6,1.6l16.5,1.6l-1,12.6l-1.2,14l-0.9,10.9L202.6,99.1z"/>
<path class="st4" d="M96.8,185.5l-1.9,9.9l-1.5,1.9l-1.8-1.9l-3.6-0.2l-0.5,3.7l0.1,2.5l-0.5,1.4l0.2,4.5l-0.9,1.6l-8.8-13.2
	l-6.1-9.1l-6.3-9.5l-6.5-9.8l-5.1-7.7L46,148.3l3-11.6l3.8-14.9l2.5-9.8l11.6,2.9l14.9,3.4l5.9,1.4l12,2.5l8.9,1.8l-1.8,9.5
	l-2.9,15.1l-3.6,18.4L96.8,185.5z"/>
<path class="st5" d="M466,147.7l0.6-1.6l2.2-1.5l0-1l2.4-2.7l0.2-1.2l-3.2-1.9l-1.7-1.7l-0.3-2.5l0.8-1.4l-0.2-2.1l1-3.3l1.1-1.3
	l8.2,2.7l-0.3,3.8l-1.4,1.3l-0.1,2.2l2.6,0.1l0.5,1.3l0.4,6.8l-1.8,5.6l-1.5,1.9l-1,3.5l-1.3-1.8l-2.8-0.3l-4-2l-0.6-1.7l-0.1-0.3
	L466,147.7z"/>
<path class="st6" d="M479.3,128l4.1,0l1.5-1.1l4-1.5l1.6-2.2l2.8,1.1l-2.3,2.2l-6.6,4.7l-3.2,1.5l-3.4,0.8l-1.1-1.5l0.3-3.8
	l-8.2-2.7l-2-0.6l-1.9-1.9l-1.2-2.6l-1.4,0l-1.2-1.4l-8.8,1.9l-13.4,2.7l-9.4,1.8l-8,1.4l-0.6-3.3l4.9-4.5l0.6-1.8l1.5-1.5l-2-3.2
	l-1-2.3l4.9-2.3l4.5-0.8l2,0l1.8,0.8l1.6-0.7l3.9-0.7l2.1-1.4l2.1-2.7l1.7-1l-0.8-2.8l0.6-1.3l-2.6-2l0.2-1.3l3-2.8l0.9-2.1l3.6-5.3
	l2-1.9l7-1.7l6.8-1.9l0.8,4.9l1.2,1.5l0.5,2.5l-0.4,3l3.2,5.9l2.2,9.5l-0.2,8.5l0.3,0.4l1.6,9.3l0.9,0.9l-1.9,1.9L479.3,128z"/>
<path class="st1" d="M402.1,175.3l-2.7-1.8l-0.7-1.9l-2.1,2l-1.4,0.5l-2.3-1l-1.3,1.1l-2-1.4l-3.4-0.2l-1.2-2.4l-2.1-0.8l-3,0.2
	l-1-8.8l-1.3-12.3l-1.4-11.1l12.3-2l3.8,1.2l1.3,0.8l1.9-0.3l2.4,1.4l4.1-2.3l2.5,0l2.4-2.7l3.6-2.9l4.2-2.2l2.7,16.6l-0.4,2.1
	l0.3,2l-0.6,2.2l0,2.3l-0.7,2.9l0.1,1.7l-2.8,3.4l-2.2,0.1l-2.4,3.3l0.2,2.7l-2.5-0.4l-1.3,3.1l0.6,2.5l-1,2L402.1,175.3z"/>
<path class="st7" d="M466.5,146.1l-2,0l-1.3,1.7l-15.6,3.2l-18.7,3.5l-9.7,1.7l-1.9-11.4l-2.7-16.6l6.2-4.8l0.6,3.3l8-1.4l9.4-1.8
	l13.4-2.7l8.8-1.9l1.2,1.4l1.4,0l1.2,2.6l1.9,1.9l2,0.6l-1.1,1.3l-1,3.3l0.2,2.1l-0.8,1.4l0.3,2.5l1.7,1.7l3.2,1.9l-0.2,1.2
	l-2.4,2.7l0,1L466.5,146.1z"/>
<path class="st8" d="M500.5,115.9l-1.7,0.7l0.4-2.7L500.5,115.9z M498.9,113.6l-1.5,1l0.5,2.3l-0.7,1.4l-2.8,1.5l0.3-1.3l-1.9-7.2
	l3.7-1.1l1.2,2.8L498.9,113.6z"/>
<path class="st9" d="M414.3,196.8l0.1,1.5l-1.8,2.4l-0.9,2.4l-2.6,0.2l-2.3,2.5l-1-1.1l-1.4,1.2l-1.7,2.9l-2.4,0.9l-2.3,2.4
	l-2.7,0.4l-2.2,2.3l-0.5,2l-1.9,0.5l0,3l-12.9,1.5l-12.6,1.2l-13.5,1.2l-12.4,1l-8.8,0.5l1.3-1.6l0.2-4.1l2.1-2.3l0.8-1.8l0.6-3.1
	l1.3-1.7l-0.3-2.3l0.6-2.4l0.5,0l0.7-0.1l13.5-1l-0.4-2.2l2.2,0.4l14.9-1.6l5-0.2l6.3-0.7l6.4-0.4l8.4-0.9l0.1-0.2l7.7-0.9
	L414.3,196.8z"/>
<path class="st10" d="M162.7,261.5l-1-1.1l0.4-1.6l12.4,1.3l9.4,0.9l15.3,1.3l0.9-12.5l1.1-12.5l1.2-15.6l1.2-15.6l0.4,0l18.9,1.2
	l10.7,0.5l-0.7,16.5l-0.3,7.8l1.1,0.2l1.9,2.2l1.2-0.4l3.2,0.3l0.7,2.4l4.3,1.1l4.1-0.1l2,0.6l2,2.9l1.4,0.3l1.7-1.6l3,2.2l1.7-1.2
	l0.4,2.2l2.6-2.8l0.6,1.3l2-0.7l2.6,1.7l2.8-0.8l3.3,0l2.7-1.2l2.8,0.7l1.7-0.8l3.1,2.4l3.6,1.2l0.9,1l2.4-0.5l1.2,0.4l0.1,6.7
	l0.3,12.7l2.4,2.8l0.1,2.7l1,0.6l2.4,5.9l-0.3,2.5l-1.8,3.2l-0.3,2.3l0.7,2.9l-0.2,1.2l-2.1,3l0.9,1.6l-3.2,0.6l-5,2.3l-1.6-0.7
	l0.5-2.5l-3.3,0.8l1.1,2l0.2,2.3l-1.4,2l-3.5,3.1l-5,2.9l-4.2,1l-1.2-0.7l-1.9,0.9l0.8,1.6l-3,1.3l-4.2,3.8l-1.6,2.4l-2.3-0.6
	l0.3,1.6l1.3,0.6l-1.7,4.5l-0.9,4.1l-1,1.9l1,1l0.6,3.9l1.5,4.5l1.4,1.6l-4.2,0.8l-1.4-1.7l-2.7-0.6l-4.1-0.2l-2.4-1.9l-2.3-0.2
	l-1.7-1.7l-3.2-0.8l-1.6-5.2l-1.9-2.3l0.3-1.9l-0.8-2l0.3-1.8l-1.3-2l-1.1-0.2l-1.8-1.9l-0.1-1.2l-2-3.1l-2.2-1.8l-0.4-1.8l-1.7-3
	l-1.5-3.6l-0.2-2l-1.2-1.9l-2.2-1.6l-0.5-1.1l-2.1-1.1l-2.1-3.2l-2.6,0l-4.3-0.6l-2.4-1.1l-3.7,1.4l-1.6,2.6l-0.5,2l-1.4,2.2
	l-3.7,2.1l-2.8-2.4l-2.9-1.8l-2.1-0.7l-4.7-4.4l-1.5-3.7l0.2-3.2l-1.6-2.8l-0.2-2.3l-2.9-3.1l-2.1-1l-1.9-3l-1.7-1.2l-1.6-2.7
	l-2.5-1.5l-1.5-3.5L162.7,261.5z"/>
<path class="st11" d="M96.8,185.5l3.6-18.5l3.6-18.4l2.9-15.1l1.8-9.5l16.9,3l10.2,1.6l-2,12.4l5,0.8l13.4,1.9l-1.9,14l-1.3,9.3
	l-1.5,10.6l0,1.4l-2,14.5l-13.9-2l-9.1-1.5l-15.1-2.6L96.8,185.5z"/>
<path class="st8" d="M93.8,69.9l-17.4-4.2L75,66.3l-4.3-0.7l-3.1,0.2l-2.4,0.7l-2.6-0.3l-0.9-0.8l-4.1,0.2l-3.5-2l-2.4-0.4l-4.2,0.9
	l-3.9-2.5l0.6-3.7L44,56l-1.4-1.7l-1.5,0.1l-1.8-2L38,51.4l-1.7,0.2l-1-1.4l0.8-1.5l1.3-0.6L37,43.7l1.2-1.1l-1.1-1.8l-0.2-3.5
	l0.5-4.9l-1-2.2l0.5-3.7l1.6-2.1l4.1,4.1l2.2,0.6l5.6,2.6l1.7-0.1l0.2,3.6l1,0.1L52.2,40l-1,2.5l1.8-0.2l0.2-3.9l0.8-1.7l2-2.3
	L55.4,33l0.3-2.5l-1-1.6l1.8-1.7l-0.3-2.3L54.6,23l0.6-1.3l8,2.3l14,3.7l16,3.9l7.8,1.8l-3.2,13.9L95,59.6l-1.4,5.8l0.6,2.4
	L93.8,69.9z"/>
<path class="st8" d="M322,131.8l-0.8-1.6l-3.1-1l-1-2.1l-0.4-2.7l1-1.6l-1.4-1.1l-0.2-1.9l-0.4-3.4l-1.9-2.7l-1.3-0.3l-2.7-2
	l-0.5-1.6l-2.6-1.2l-1.2-1.4l-1.5-0.2l-2.6-2.1l0.4-2.3l-0.2-4.4l0.9-1.9l-2.1-3.4l1.3-2.2l3.5-2.4l-0.3-7.3l2.3-0.6l1.7,0.1l2.6-1
	l5.6-2.8l-0.3,2.5l1.2,1.3l2.9,0.8l1.8,0.7l0.9,2l9,1.9l2.8,1.3l5.9,0.7l0.2,1.7l2.8,1.2l-0.5,3.8l2,0.2l-0.7,1.8l1.4,1.1l-0.2,1.5
	l-1.6,0.5l-1.2,3l0,2.3l2-1.5l1.2-2.6l1.7-1l1.2-3.4l1.7,0.8l-1.1,1.6l-2.1,5.9l-0.3,2.4l0.4,1.7l-1,1l-0.6,2.9l0.5,2.5l-1.4,5.5
	l0.5,3.1l1.4,2.6l-0.1,3.6l-9,0.7L322,131.8z"/>
<path class="st8" d="M0,0"/>
<path class="st12" d="M469.1,169.3L467,169l0.1-1.3l-3-1.6l-1.5-0.1l-1.2-2l1.4-2.2l-2.1-1.3l1-3.1l-1.5-1.6l0.5-2.5l1.5-1.8
	l-0.2-1.4l-3.5,5.4l0.9,2.2l-0.8,2.1l0.9,4.1l1.6,1.5l1.1,4l-2.6-1.4l-3.3-0.3l-1.3-1.7l-1.6,1.4l-0.9-1.4l1-2.2l0.5-2.1l-1.1-1.6
	l-4.3-1.8l-0.8-1.9l-1.5,0.1l-2.1-2.7l-3-1.1l-2.2,1.3l-0.2,1.3l-3.3-0.5l-1.1,2l-1.3,0.3l-3.1,3.8l-1-6.4l18.7-3.5l15.6-3.2
	l4.2,15.3l6.1-1.2l-0.7,5.6l-3.5,1.2L469.1,169.3z"/>
<path class="st13" d="M389.8,270.7l-16,1.8l-11.4,1l-0.2,1.7l2.6,2.2l0.1,3.4l-0.8,1.6l-1.4,0.5l-2.8-1.8l-0.6-3.1l-1.6,2l0.1,1.7
	l-3.1,0.3l-2.3-18.9l0.3-14.8l0.3-12l0.3-10.9l-1.1-1.2l13.5-1.2l12.6-1.2l2.3,8l5,17.9l1.6,3.4l2.3,3.7l-1.6,1.9l-0.4,3.5l0.4,2
	l1.1,1.8l-0.4,3.5L389.8,270.7z"/>
<path class="st14" d="M21,340.6l1.2,0.5l0.1,0.7l-1.2,0.4l-0.2,0.4l-1,0.1l-1.9,0.5l-0.5-0.4l1.1-0.3l1-0.1l0.3-0.8l-0.1-0.6
	l0.4-0.4L21,340.6z M16.6,343l-0.9,0.8l-0.6-0.3l0.1-0.5l0.9-0.2l0.2-0.6l1.2-0.4l0.5,0.4l-0.3,0.5L16.6,343z M-30.7,327.4l0.1-0.8
	l1.1,0.6l0.4,1l-1.4-0.3L-30.7,327.4z M93.2,320.1l0.8-0.1l0.3-0.5l1,0.4l0.8,0l0.6,0.3l-0.1,0.5l0.9,1.5l-0.5,0.3l-1.4-0.5l0.3,0.9
	l-0.7,0.4l-1.5-1.5l-0.6-0.3l-0.1-0.6L93.2,320.1z M97.1,319.2l0.9-0.2l1.1,1.3l-0.4,0.5l0.5,0.3l0.5,1l-0.5,0.4l0.1,0.4l-0.5,1
	l-0.6-0.7l0.1-0.3l-0.4-0.9l-0.5-0.8l-0.6-1.5L97.1,319.2z M49.4,335.3l0.4,0.1l-0.2,0.9l-0.6-0.1l-0.1-0.4L49.4,335.3z M37.2,337.1
	l0.1,0.7l-0.9-0.1l0.4-0.8L37.2,337.1z M107.9,328.9l0.5,0.2l0.3,0.6l-0.6,0.1L107.9,328.9z M104.1,329.5l-1.1-0.6l0.4-0.9l-0.7-0.4
	l-1,0.2l0.4-0.9l-0.5-0.8l1.1-0.2l0.5,0.7l1.2,0.5l0.6,0.4l1.5,1.8l0.3,0l0.8,1.9l-0.3,0.6l-1.5-0.8l0-0.6l-1-0.3l-0.9,0.1
	L104.1,329.5z M57,327.1l-0.1,0.9l0.3,0.8l-1.4,0.7l0.1,0.6l-1.5,0.6l-0.4,0.6l-0.6,0.5l-0.3-0.4l-1.1-0.7l0-0.9l-0.4-0.4l0.2-1
	l0.9-0.7l0.6,0.1l0.1-0.7l1.1-0.7l2.1,0.2L57,327.1z M103.8,324.2l-0.5,0.7l-0.7,0.1l-1.2,0.7l-0.6-1.5l-0.4,0l-0.4-1l1.3,0l0.6-0.2
	l0.6,0.6L103.8,324.2z M103,325.2l0.5-0.3l0.4,0.7l-0.4,0.3l-0.6-0.2L103,325.2z M95.8,322.6l0.2-0.3l1,0.4l0.5-0.1l0.2,0.7l1.1,2
	L99,326l0.4,1.1l-0.4,0.2l-1.4-1.6l-0.7-0.4l-0.1-1l-1.2-1.1L95.8,322.6z M100.9,327.6l-0.7-0.8l0-0.5l-1-1.7l0.6-0.6l1.3,1.1
	l-0.3,0.6l0.4,1.1L100.9,327.6z M23.9,299.6l1.1,0.5l-0.5,0.5l-1-0.2l-0.9,0.6l-0.1-0.5l-0.8-1.1l-0.8-0.8l-0.4-0.2l-0.8,0.3
	l-0.4-0.4l-0.1-0.6l0.4-0.7l1.5,0.8l0.9-0.3l0.6,0.5l0,0.5L23.9,299.6z M67,314.4l-0.2,1.9l-0.4-0.3l0.2-1.1L67,314.4z M28.2,314.6
	l0.1,1.2l-1,0l-0.2,0.4l-1.1-0.5l-1.4-1.3l0.2-0.7l0.8,0.3l0.5-0.4l1.3-0.2l0.1,0.4l0.8,0.2L28.2,314.6z M65.2,317.3l-0.7,0.2
	l-1-0.6l-0.2,0.7l-0.7,0.4l-0.2,0.6l-1,1.4l-0.7-0.1l-0.4,0.9l-0.5,0.2l-0.6-0.2l-0.7,0.4l-0.5-0.4l0.2-0.7l0.9-0.3l0.4-0.4
	l-1.3-0.9l0.3-1.1l0.6-0.8l0.3-1.5l-0.3-0.8l0.7-0.3l1.4-1.2l0.7,0.5l0.6-0.5l-0.7-0.5l0.3-0.5l-1.6,0.1l-0.6,0.3l-0.3,0.6l-0.7,0.2
	l-0.6,0.7l-0.1,0.5l-1,1l0.2,0.5l-0.8,0.8l0.1,0.6l-0.3,0.7l-0.6,0.1l-0.1,0.9l-1.1,0.3l-0.5,0.4l0.1,0.5l-0.7,0.2l-0.4,1l0.3,0.3
	l0.8,0l0.8,0.7l-0.1,0.8l-0.6,0.6l-0.5,0l-0.2,1l-0.8,1.2l-1.6,0.4l-0.2,0.6l-1,0.3l-0.4,0.7l-1.5,0.9l0,1l-0.5,0.6l-0.5,0.1
	l-1.1,1.1l-0.4-0.4l-0.5,0.7l-0.7,0.6l-1.2,0.3l-0.4,0.4l0.6,0.5l-0.1,0.3l-0.9,0.6l-0.2,0.4l-2.1,0.3l-0.1,0.8l-0.6-0.9l-0.9,0.8
	l-1.8,0.4l-1,0.6l-0.7-0.1l0.5-1l-0.6-0.1l-0.3,0.9l-0.8,1.2l-0.7,0.3l-0.6-0.2l-0.8,0.4l-0.7-0.1l-1.6,1.2l-1.2-0.2l-0.8,0.6
	l-0.8,0.2l-0.5-0.2l-0.1-0.7l0.7-0.3l0.6-0.9l0.5,0.1l1.2-0.5l0.9,0.1l2.7-1.1l-0.1-0.4l0.9-0.9l1.2-0.7l1.3-0.3l0.5,0.2l0.3,0.6
	l1-0.4l-0.1-0.3l0.6-1.1l1.4-1l1.2-0.4l0.9-0.7l0.7,0.3l0.1-1.2l0.7-0.8l0.9-0.5l0.8-0.7l0-0.7l0.8-3.4l0.9-0.8l-0.1-0.7l-2.4,1
	l-1.3-1.2l-0.2,1l0.2,0.6l-0.8,0.2l-0.6-1.5l-0.4-0.6l-0.8,0.5l-0.7-0.6l-0.2-0.7l-1.1,0.8l-1.2,0.3l-0.1,0.3l-0.7,0.4l-0.5-0.5
	l0.5-0.7l-0.1-1l-0.4-0.9l0.9-0.9l-0.6-2.1l-0.6-1.2l-0.2,0.8l-1.5,0.5l-0.9,0.1l-1.2-0.3l0-0.8l-0.4-0.3l-0.5-1.1l-0.5-0.3
	l-0.7-0.9l0.8-0.7l0.2-0.9l-1-1.1l0.1-0.7l-0.5-0.3l0.4-0.7l-0.7-0.7l1.3-0.8l-0.2-0.6l0.3-0.5l1.5-1.5l0.6-0.1l-0.1-0.9l0.7-1.3
	l0.5-0.4l0.6-0.1l0.8,0.3l0.7,0.9l0.6,0l0.8-0.6l0.9-1l1.4,0.3l0.8-0.1l0.8-1.1l-0.2-2l-0.7-0.9l1.2-0.7l-0.2-0.9l-0.5-0.3l-0.4,0.4
	l-0.5-0.1l-1,0.4l-0.8,0.6l-1.4,0.1l-0.6-0.5l-1.5-0.2l-1.2,0.3l-2.1-1l-0.3-0.7l0.2-0.6l-0.4-0.6l0.2-0.5l0.7-0.6l-0.2-0.3
	l-1.7-0.7l-0.9-0.9l0-0.5l1.1-0.4l1.4-0.7l2-0.9l2-0.6l1.1,0l0.6,0.3l-0.5,1.5l0.2,0.6l1.8,0.1l0.6,0.3l1,0.1l0.6-0.9l0.6,0.2
	l0.2-0.5l-0.7-0.3l-0.7,0.1l0.2-0.7l-0.4-0.8l-0.5-0.3l-0.1-0.5l0.6-0.3l0.4,0.8l-0.2,0.5l0.7,1l0.4-0.1l-0.8-1.1l0.5-1.1l-0.2-0.4
	l-1.1,0.1l-1.1-0.4l-1-0.5l0.1-0.5l-0.3-1.5l-2-2.4l-0.6-0.3l-0.3-0.6l-0.8-0.8l0.6-0.1l0.3-0.6l0.3-1.3l1.4,0.3l1.7,0l1.3-0.7
	l0.8-0.9l0.5-1.3l-0.1-0.3l0.9-0.8l1-1.2l1,0.3l0.8-0.4l1.8-1.6l1.4,0.1l0.9-0.1l0.8-0.5l1.1-1.4l0.4,0l1.3,0.6l0,0.5l-0.7,0.7
	l0.7,0.2l0.4-0.9l0.3-0.3l0.7,0.7l-0.1,0.5l0.7,0.4l0.4-0.5l0.9-0.2l1.4,0.3l-0.2,1l0.9,0.2l0.4,0.5l1.2-0.3l1,0.2l0.3-0.4l1.9,0.2
	l1.2,0.5l0.2,0.3l2.8-0.1l1,0.5l0.9,0l1-0.8l0.6-0.1l1.2,0.2l2.2,1.1l0.7,0.1l1,4.8l2.2,11.3l3.1,15.9l0.4,1.9l1.2,5.9l1.1,0.2
	l0.1-0.4l1.1,0.3l0.5-0.8l1.3-0.4l0,1.2l1.2,0.5l0.3,0.6l2.7,1.7l0.7,1.3l1.1-1.4l0.5-0.2l0.1-0.6l-0.2-0.8l0.3-0.8l0.6-0.4l0.8-0.8
	l1.2,0.7l0.1,0.6l0.4,0.5l0.6,0l0.6,0.4l0.8,1l1,0.3l1.4,0.9l-0.1,0.2l0.9,0.8l2.2,2.2l1.1,1l-0.1,0.6l0.8-0.1l0.1,0.8l0.5,0
	l0.5,0.9l0.6-0.2l1.4,0.5l0.7-0.1l0.9,0.3l0.2,0.4l0.8-0.2l0.5,0.8l-0.1,0.7l0.3,0.7l0.8,1.1l-0.3,1.8l-0.5,1.1l-0.8-0.2l-0.4-1
	l-0.4-0.4l-1.2,0l-0.9-0.4l0.2-0.7l-0.5-0.2l-0.1,0.8l-0.6-0.2l-0.3-0.4l0.2-1.3l-0.6-0.3l0,0.7l-1.4-0.9l0.3-0.6l0.4-0.2l-0.4-1
	l-0.7-0.5l-0.6-0.2l-0.6-0.5l-1.6-0.3l-0.1-0.8l-0.4-0.9l-2.2-2.1l-1.1,0.1l-0.2-0.5l-0.9-0.8l-0.7-0.8l-0.3-0.7l-0.4,0.2l1,1.3
	l0.6,1.2l-0.4,0.5l-1-0.6l-0.6,0.4l-0.6-1.3l-1.4-0.2l1.1,0.7l0.6,0.9l-1,1l-1.3-0.4l-1.6-0.7l-0.7-0.5l-0.1-0.4l-1-0.6l-0.8-0.1
	l-0.7-0.4l-1.2-0.3l-0.8-0.4l0.4-1l-0.8-0.4l-0.9,0.8l-1.4,0.1l-1.2-0.4l-0.1-0.6l-0.7,0.3l-1.8-0.2l-0.8,0.1l-1.6,0.5l-0.4,0.2
	l-0.5-0.4l-1.2-0.3l-0.5-1l-0.4,0l-0.6,0.6l-1.1-0.7l-0.2-0.4l-0.8-0.4l-0.6-0.1l-0.6-0.7l-0.8,0l-0.5,0.5l-1.6,0.4l-0.5,0.5
	l0.7,0.5l0.3,0.7l-0.5,0.4l0.4,0.8l-0.1,0.5L65.2,317.3z M-0.1,343l0.7-0.3l0.1,0.5l-0.6,0.6l-0.5-0.1L-0.1,343z M-9.7,342l-0.3,0.3
	l-0.6-1.1l0.8,0L-9.7,342z M-6.9,342.6l1.2,0.4l-0.2,0.5l-1.5-0.3L-6.9,342.6z M57.4,325.2l-1.2,1.1l-0.4,0l-1-0.4l0.8-1l0.5-0.3
	l0.4-0.8l0.4,0.6l0.7,0.3L57.4,325.2z M66.7,318l-0.1-0.4L67,317l0.6,0.5L66.7,318z M106,332.4l-0.4,0l-0.9-0.8l-0.5-0.8l0.6,0
	l0.6,0.8l0.5,0.2L106,332.4z"/>
<path class="st15" d="M145.4,193.5l-1.9,13.9l-2.3,16.9l-2.5,18l-1.7,12.1l-1.3,9.4l-8.2-1.2l-13-2l-12.9-7.5l-7-4.1l-16.1-9.7
	l1.5-2.6l2.1-0.1l0.8-1l0-2.2l-1.9-1.4l1.6-3.9l2-3l0.2-2.9l1.6-2l1.8-0.5l1.5-1.4l-1.7-2.2l-0.7-3.5l-1.2-2.2l0.3-1.7l0.9-1.6
	l-0.2-4.5l0.5-1.4l-0.1-2.5l0.5-3.7l3.6,0.2l1.8,1.9l1.5-1.9l1.9-9.9l10.5,2l15.1,2.6l9.1,1.5L145.4,193.5z"/>
<path class="st13" d="M335.7,212.8l-0.6,3.1l-0.8,1.8l-2.1,2.3l-0.2,4.1l-1.3,1.6l-0.9,2.1l-1.7,5.6l-4.5,5.5l0.2,4l-1.4,1.2
	l1.7,4.2l-0.7,2.8l-16.9,0.6l-12.9,0.3l-0.1-6.7l-1.2-0.4l-2.4,0.5l-0.9-1l0.1-12.6l0.1-9.4l-2.1-13.8l14.8-0.3l17-0.7l12.4-0.7
	l0.9,2.8l-1.3,1.2l-1.4,2.5L335.7,212.8z"/>
<path class="st16" d="M18.3,101.5l7.6,2.3l8.6,2.4l11.8,3.5l9.2,2.4l-2.5,9.8l-3.8,14.9l-3,11.6l7.6,11.4l5.1,7.7l6.5,9.8l6.3,9.5
	l6.1,9.1l8.8,13.2l-0.3,1.7l1.2,2.2l0.7,3.5l1.7,2.2l-1.5,1.4l-1.8,0.5l-1.6,2l-0.2,2.9l-2,3l-1.6,3.9l1.9,1.4l0,2.2l-0.8,1
	l-2.1,0.1l-13.8-1.6l-11.2-1.3l-0.9-2.3l0.5-2.1l-0.1-3.2l-1.2-3l-4.7-6.2l-3.2-0.9l0.5-1.2l-0.7-2.6l-2.9-0.4l-3.6-2.8l-0.2-1.4
	l-2.4-2.7l-3.1-0.7l-2.4-1.5l-3.3-0.5l-1.3-2.1l1.2-3.1l0.5-2.7l-0.3-1.5l-1.7-1.4l0.8-1.8l-1.1-1l-1-2.5l-0.9-0.7l-2.5-7.6l-1.3-2
	l0.8-3.9l1.9-1.7l-0.3-1.7l-2.2-0.9l-2-3.7l0.6-2l-0.5-2.3l0.9-3.1l1.1-0.1l-0.3,2.8l2,1.7l0.1-2.1l-1.2-1.8l1.5-3l-1.9-1.4
	l-1.1,3.4l-3.3-3.7l0.5-2.6l-0.8-2.9l-1.5-1.9l-0.5-1.9l-1.8-3.4l0.8-1.6l-0.1-4.1l1.2-2l0.2-3.6l-1.3-4l-1.7-2.6l0.2-2.3l3.9-4.6
	l0.7-2.1l2.2-4.4l0.3-3.4l-0.7-1.2L18.3,101.5z"/>
<path class="st4" d="M213.9,200.5l-9.4-0.7l-13.1-1l-6.5-0.6l-18.3-1.9l-13.5-1.7l-7.8-1l2-14.5l0-1.4l1.5-10.6l1.3-9.3l1.9-14
	l13.1,1.7l13,1.6l12.6,1.3l7.4,0.6l11,0.9l7.6,0.5l-0.8,12.5l-0.9,14.9l-0.6,9.6L213.9,200.5z"/>
<path class="st17" d="M479.3,128l-1-1.3l1.9-1.9l-0.9-0.9l-1.6-9.3l15.1-3.4l0.1,0.2l1.9,7.2l-0.3,1.3l-0.8,0l-3.7,1.9l-4.8,0.9
	l-1.6,2.1l-2.1,1.1L479.3,128z"/>
<path class="st4" d="M466,147.7l-0.1,2.9l1.8,1.5l1.1,3l2.6,2.7l1.1,0.2l1.2,3.9l-6.1,1.2l-4.2-15.3l1.3-1.7l2,0L466,147.7z"/>
<path class="st4" d="M0,0"/>
<path class="st18" d="M364,282.3l0.8-1.6l-0.1-3.4l-2.6-2.2l0.2-1.7l11.4-1l16-1.8l1.9,3.4l18.5-1.2l9.8-0.7l0.9,2.5l1.3-0.2l0-2.9
	l-0.6-1.9l0.8-1.1l5.5,0.6l1.4,5.3l2.3,5.8l4.3,7.3l5.3,6.2l0.3,4.1l0.7,1.9l2.7,4l2.2,4.2l2.5,4.1l1.1,2.6l0.4,2.8l0.2,6l0.4,3.9
	l-1.2,0.9l-0.6,2.8l-0.1,3.1l-2.8,1.3l-4.6,1.6l-1.2-1.1l0.4-1.7l-1.9-2.9l-2.5-2.8l-2.5,0l-2.1-2.1l-0.7-2.5l-1.1-1.5l-2.9-2.2
	l0.6-1.4l-0.5-2.6l-1.8,2.4l-4.2-5.8l-1.6-1.6l2.6-5.3l-2.1,0.6l-1.2,1.6l-1.5-1.3l0-5l0.5-4.7l-2.8-6.7l-1.9,0l-2.1-1.1l-0.7-1.5
	l-2.1-0.9l-0.4-1.8l-1.4-0.5l-1.3-1.9l-4.5-2.2l-3.5,1l0.4,1.9l-2.1,0.1l-2.9,2.2l-4.6,1.5l-1.9-3l-5.4-2.9l-4.7-1.4l-3.6-0.1
	L364,282.3z"/>
<path class="st19" d="M427.8,269.2l-5.5-0.6l-0.8,1.1l0.6,1.9l0,2.9l-1.3,0.2l-0.9-2.5l-9.8,0.7l-18.5,1.2l-1.9-3.4l-1.5-3.1
	l0.4-3.5l-1.1-1.8l-0.4-2l0.4-3.5l1.6-1.9l-2.3-3.7l-1.6-3.4l-5-17.9l-2.3-8l12.9-1.5l7-0.9l5.1-0.9l-1.8,2.9l0,1.4l3.7,2.1l1-0.3
	l2,2.5l0.5,1.4l2,2.3l3.4,1.9l0.8,1.5l3.2,1.9l-0.2,1l2.9,2.7l2.4,1l1,2l0.5,2.7l1.5,0.6l2.2,3.1l0.4,2.1l2.6,0.6l-1.9,4.3l-0.1,2.6
	l-1.6,6.6L427.8,269.2z"/>
<path class="st8" d="M128.4,303.3l1.6,1.3l-0.5,1.9l-1.3,1.1l-3.6-1.4l0.3-2l1.7-1L128.4,303.3z M144.2,310.6l1.1-0.8l3.7,5.1
	l-5.4,0l-1.6-3.5L144.2,310.6z M153.7,315.7l4.5,0.8l-0.1,1.4l-2.4-0.7l-2.7,0L153.7,315.7z M156.6,319.4l2.3,1.5l-1.9,0.9
	L156.6,319.4z M161.2,318.2l1.6,1.6l1.8-0.7l3.8,1.9l-0.6,1.7l-3.8,1l-1-2.5l-2-0.5l-0.8-1.2L161.2,318.2z M171,327.8l2.3,1.5
	l3.7,1.3l2.2,2l1.2,2.6l2,1.4l-1.9,2.3l-1.8,0.9l-1.9,0.1l-2.4,1.6l-1.9,2.7l-2.5-1.5l-0.5-1l0.4-2.7l-1-3.1l-1.1-1.8l2.8-3.8
	l-0.9-2.5L171,327.8z"/>
<path class="st20" d="M135.8,128.6l-10.2-1.6l-16.9-3l-8.9-1.8l-12-2.5l-5.9-1.4l2.8-12.5L87,96l2-3.7l-2.3-3.6l2.7-3.8l1-0.3
	l1.4-2.7l1.3-1.2l1-2.1l2.6-3.2L96,73.1l-1.5-0.9l-0.7-2.3l0.4-2.1l-0.6-2.4l1.4-5.8l2.7-12.2l3.2-13.9l7.9,1.7l-2.6,12.3l2,4
	l-0.6,1.7l1.2,3.4l1.5,0.9l2,4l0.3,1.8l2.1,1.7l0.1,1.2l2.4,0.8l-2.8,6.6l0.5,2.2l-1.8,1l-0.4,2.3l1.6,1.9l1.9-0.9l1.6-1.6l1.3,1.5
	l-0.4,0.9l1.3,5.2l0.9,1l-0.5,2.4l2.6,1.6l0.4,4.1l4.7,0.5l1.8-0.8l1.5,0.9l4.6,0.2l2.6-1.6l0.6,1.9l1.3,1.6l-2.2,14.3L135.8,128.6z
	"/>
<path class="st21" d="M350.7,189l-1.1,1.8l0.9,2.4l-3.7,1.4l-0.3,1.3l1,1.6l-1.1,1.1l-3.8-1.7l-1.1,0.2l-1.3,2.3l0.5,0.7l-1.6,0
	l-2.5-3.5l0.8-1.5l-1-1.7l-0.1-1.9L333,189l-0.5,0.5l-4.6-4l-0.1-2.1l1.4-2.9l-0.3-1.4l0.8-1.8l-3.3-1.3l-2,0.7l-0.9-4.1l-3.3-2.6
	l-3.1-3.2l-1.4-3.8l-0.2-2.5l0.7-1.8l0.5-2.9l2.1-0.8l0.2-1.8l1.2-1.5l0-2.2l-1.6-1.7l0.5-2.2l3.6-0.8l2.8-1.7l0.1-1.8l1.1-0.9
	l0-3.9l-2.2-1.2l-0.9-1.9l-1.6-1.5l16.9-0.9l9-0.7l-0.1,2.4l1.6,2.7l1.9,4.5l1.4,15.6l1.2,13.9l-0.8,2.4l1.5,2.5l0.2,3.2l-1.1,2.4
	l-2.8,4.1L350.7,189z"/>
<path class="st22" d="M350.7,189l0-5.2l2.8-4.1l1.1-2.4l-0.2-3.2l-1.5-2.5l0.8-2.4l-1.2-13.9l-1.4-15.6l2.4,0.9l4-2.1l9.5-1l9-1
	l0.1,0.8l1.4,11.1l1.3,12.3l1,8.8l0.5,3.9l-1.6,0.4l-1.9,1.4l-2.5,0l0.4,2.3l-1.7,1.5l-2.4,3.6l-0.2,2l-2.2,0.2l-2-1.3l-1.3,1.2
	l-0.6,2.3l-2.1-1.3l-2.2,1.3l-0.2,1.3l-3.1-1.4l-4.3,1.1L350.7,189z"/>
<path class="st20" d="M275.5,157.3l-1.2-1.8l0.7-1.9l-1.1-3.9l-0.1-3.4l-1.4-0.9l0.2-3.4l-0.8-1.2l-2.6-7.4l-1.8-3.1l1.8-4.7l-1-1.4
	l0.9-3.4l8.4,0l13.9-0.2l10.6-0.3l14.1-0.6l0.2,1.9l1.4,1.1l-1,1.6l0.4,2.7l1,2.1l3.1,1l0.8,1.6l1.6,1.5l0.9,1.9l2.2,1.2l0,3.9
	l-1.1,0.9l-0.1,1.8l-2.8,1.7l-3.6,0.8l-0.5,2.2l1.6,1.7l0,2.2l-1.2,1.5l-0.2,1.8l-2.1,0.8l-0.5,2.9l-1-0.4l-2-2.5l-14.3,0.9
	l-11.5,0.4L275.5,157.3z"/>
<path class="st20" d="M286.8,202.2l-18.5,0.1l-18.2-0.3l-12.7-0.4l-10.7-0.5l-12.8-0.7l0.8-13.2l0.6-9.6l0.9-14.9l14.9,0.8l14.5,0.6
	l17.8,0.4l16.4,0l2.2,1.7l1.8,0.3l-2,3.8l1.7,1.9l1,2.2l2.1,1.1l0.1,16.9L286.8,202.2z"/>
<path class="st8" d="M394.8,199.4l-0.1,0.2l-8.4,0.9l-6.4,0.4l-6.3,0.7l-5,0.2l-14.9,1.6l-2.2-0.4l0.4,2.2l-13.5,1l1.8-1l0.8-4.1
	l-0.2-1.2l-0.5-0.7l1.3-2.3l1.1-0.2l3.8,1.7l1.1-1.1l-1-1.6l0.3-1.3l3.7-1.4l-0.9-2.4l1.1-1.8l1.8-1.1l4.3-1.1l3.1,1.4l0.2-1.3
	l2.2-1.3l2.1,1.3l0.6-2.3l1.3-1.2l2,1.3l2.2-0.2l0.2-2l2.4-3.6l1.7-1.5l-0.4-2.3l2.5,0l1.9-1.4l1.6-0.4l-0.5-3.9l3-0.2l2.1,0.8
	l1.2,2.4l3.4,0.2l2,1.4l1.3-1.1l2.3,1l1.4-0.5l2.1-2l0.7,1.9l2.7,1.8l1,4.3l3.1,4.4l1.9,1.4l1.5,0l-3.2,3.9l-3.3,2.3l-1.1,3.1
	l-1.8,0.7l-1,1.6L394.8,199.4z"/>
<path class="st23" d="M296.6,293.5l-0.9-1.6l2.1-3l0.2-1.2l-0.7-2.9l0.3-2.3l1.8-3.2l0.3-2.5l-2.4-5.9l-1-0.6l-0.1-2.7l-2.4-2.8
	l-0.3-12.7l12.9-0.3l16.9-0.6l0.4,4.5l0.7,2.2l2,1.8l-2.5,1.5l1,2.2l-2.6,2.2l-0.5,2.6l-1.2,1.5l0.1,3.2l-1,2l0.1,1.5l13.2-0.7
	l6.7-0.4l-0.7,4.2l1.9,2.6l0.9,2.7l1,0.5l-3.4,2.4l1.9,1.6l2-2.3l2,1.3l-1.2,2.8l-1.8,0.7l-0.7,1.9l2.1,1.4l3.4,0.2l2,1.4l-1.1,2.2
	l-2.8-0.7l-1-1.2l-2.7-0.9l-1.5-2.1l-1.9,0.8l-0.6,3.5l-1.2,0.9l-1.3-2.3l-2.5,0l-0.8,1.4l-2.1,1.5l-1.3-1.3l-3.5-0.7l0-2.8
	l-2.8-0.6l-1.2-2.5l-3.7-0.9l-1.9,1.7l0.4,0.9l-2.1,1.2l-3.7-0.5l-3.5-1.4l-2.7-0.7l-5.5,0.7L296.6,293.5z"/>
<path class="st13" d="M269.2,120.8l0.1-12l0-10.4l-2-1.4l-1.5-2.4l2.4-2.7l0.2-1.4l-0.3-4.9l-1.2-1.8l-0.5-2.3L266.1,70l-2.4-7.2
	l-0.1-4.6l0.6-1.8l-1-3.9l17.1,0.1l0-4.7l2.7,1.1l1.2,5l0.8,2l2.9,0.7l3.3,0.2l0.4,1.4l2.7-0.4l1-1l3-0.1l5.9,3.2l2.4,0.2l2.5,2.4
	l2.4,0.7l4.8-2.6l0.7,1.7l5.2-0.5l2.3,1.4l-0.7,2l-4.6,1.9l-1.6,1.1l-3.5,3.4l-2.5,3.1l-5.1,4.4l0.7,1l-2.3,0.6l0.3,7.3l-3.5,2.4
	l-1.3,2.2l2.1,3.4l-0.9,1.9l0.2,4.4l-0.4,2.3l2.6,2.1l1.5,0.2l1.2,1.4l2.6,1.2l0.5,1.6l2.7,2l1.3,0.3l1.9,2.7l0.4,3.4l-14.1,0.6
	l-10.6,0.3l-13.9,0.2L269.2,120.8z"/>
<path class="st20" d="M354.6,282l-0.6,0.5l-6.1-0.2l-4.2,1.9l-1.1,1l-1-0.5l-0.9-2.7l-1.9-2.6l0.7-4.2l-6.7,0.4l-13.2,0.7l-0.1-1.5
	l1-2l-0.1-3.2l1.2-1.5l0.5-2.6l2.6-2.2l-1-2.2l2.5-1.5l-2-1.8l-0.7-2.2l-0.4-4.5l0.7-2.8l-1.7-4.2l1.4-1.2l-0.2-4l4.5-5.5l1.7-5.6
	l0.9-2.1l8.8-0.5l12.4-1l1.1,1.2l-0.3,10.9l-0.3,12l-0.3,14.8L354.6,282z"/>
<path class="st8" d="M337.2,206.4l-0.6,2.4l0.3,2.3l-1.3,1.7l-6.4,0.5l1.4-2.5l1.3-1.2l-0.9-2.8l-12.4,0.7l-17,0.7l-14.8,0.3
	l-0.1-6.3l-0.1-9.7l-0.1-16.9l-2.1-1.1l-1-2.2l-1.7-1.9l2-3.8l-1.8-0.3l-2.2-1.7l-1.1-0.7l-0.5-2.1l-1.3-1.1l-1.5-3.4l11.9,0.1
	l11.5-0.4l14.3-0.9l2,2.5l1,0.4l-0.7,1.8l0.2,2.5l1.4,3.8l3.1,3.2l3.3,2.6l0.9,4.1l2-0.7l3.3,1.3l-0.8,1.8l0.3,1.4l-1.4,2.9l0.1,2.1
	l4.6,4l0.5-0.5l3.4,2.5l0.1,1.9l1,1.7l-0.8,1.5l2.5,3.5l1.6,0l0.2,1.2l-0.8,4.1l-1.8,1l-0.7,0.1L337.2,206.4z"/>
<path class="st24" d="M275.5,157.3l1.5,3.4l1.3,1.1l0.5,2.1l1.1,0.7l-16.4,0l-17.8-0.4l-14.5-0.6l-14.9-0.8l0.8-12.5l-7.6-0.5
	l-11-0.9l0.9-11l1.2-13.9l8.3,0.7l13.6,1l9,0.5l10.5,0.4l8.8,0.3l0.3,0.6l4.6,2.3l1-1.2l1.4,0.3l3.4-0.3l5.6,2.7l2.2,2.1l2.6,7.4
	l0.8,1.2l-0.2,3.4l1.4,0.9l0.1,3.4l1.1,3.9l-0.7,1.9L275.5,157.3z"/>
<path class="st13" d="M484.8,104.1l-1-0.8l0.2-2.7l-0.5-1.6l-0.6-5.4l0.9-3.1l0.5-3.6l-0.7-2.9l1.8-1l1.4-2l0-1.8l-1-1.2l0.6-2.3
	l-0.4-1.2l0.2-2.7l0.7-1.3l1.7-0.5l2.6,7.7l4.8,15.7l1.6,0.9l1.6,1.9l-0.4,2.5l-2.6,1.4l-1,1.9L484.8,104.1z"/>
<path class="st20" d="M135.6,263.8l1.3-9.4l1.7-12.1l2.5-18l2.3-16.9l1.9-13.9l7.8,1l13.5,1.7l18.3,1.9l6.5,0.6l13.1,1L204,206
	l-0.4,0l-1.2,15.6l-1.2,15.6l-1.1,12.5l-0.9,12.5l-15.3-1.3l-9.4-0.9l-12.4-1.3l-0.4,1.6l1,1.1l-17.5-2.1l-0.7,5.6L135.6,263.8z"/>
<path class="st3" d="M268.4,90.5l-10.6-0.1l-12.7-0.4l-7.9-0.3L226.4,89l-13-0.9l-9.7-0.8l0.9-10.9l1.2-14l1-12.6L222,51l9,0.5
	l10,0.5l8.6,0.3l13.5,0.3l1,3.9l-0.6,1.8l0.1,4.6l2.4,7.2l0.4,11.4l0.5,2.3l1.2,1.8L268.4,90.5z"/>
<path class="st25" d="M286.9,208.5l2.1,13.8l-0.1,9.4l-0.1,12.6l-3.6-1.2l-3.1-2.4l-1.7,0.8l-2.8-0.7L275,242l-3.3,0l-2.8,0.8
	l-2.6-1.7l-2,0.7l-0.6-1.3l-2.6,2.8l-0.4-2.2l-1.7,1.2l-3-2.2l-1.7,1.6l-1.4-0.3l-2-2.9l-2-0.6l-4.1,0.1l-4.3-1.1l-0.7-2.4l-3.2-0.3
	l-1.2,0.4l-1.9-2.2l-1.1-0.2l0.3-7.8l0.7-16.5l-10.7-0.5L204,206l0.5-6.3l9.4,0.7l12.8,0.7l10.7,0.5l12.7,0.4l18.2,0.3l18.5-0.1
	L286.9,208.5z"/>
<path class="st24" d="M82,118.3L67,114.9L55.4,112l-9.2-2.4l-11.8-3.5l-8.6-2.4l-7.6-2.3l-0.8-1.8l0.5-4.1l0.9-1.5l-0.4-3.6l1.4-1.7
	l1.6-3l2.3-3l1.5-2.8l4-9.9l0.6-2.1l1.9-3.5l2.2-6.1l0.6-3l1.8-2.7l2.9-0.4l1.8,2l1.5-0.1L44,56l0.3,1.7l-0.6,3.7l3.9,2.5l4.2-0.9
	l2.4,0.4l3.5,2l4.1-0.2l0.9,0.8l2.6,0.3l2.4-0.7l3.1-0.2l4.3,0.7l1.4-0.5l17.4,4.2l0.7,2.3l1.5,0.9l0.7,2.2l-2.6,3.2l-1,2.1
	l-1.3,1.2l-1.4,2.7l-1,0.3l-2.7,3.8l2.3,3.6L87,96l-2.2,9.8L82,118.3z"/>
<path class="st26" d="M451.2,225.4l-1.6,1l-1.9,2.4l-1.5,3.6l0,2.6l-2.6,2.7l-3.4,4.6l-4.2,3.3l-1.1,2.2l-1.7,1.1l-2,3.2l-2.6-0.6
	l-0.4-2.1l-2.2-3.1l-1.5-0.6l-0.5-2.7l-1-2l-2.4-1l-2.9-2.7l0.2-1l-3.2-1.9l-0.8-1.5l-3.4-1.9l-2-2.3l-0.5-1.4l-2-2.5l-1,0.3
	l-3.7-2.1l0-1.4l1.8-2.9l6.2-3.1l1.8-0.5l12.4-1.2l1.2,0.4l1.9,1.9l0.1,1.5l11.2-1.7L451.2,225.4z"/>
<path class="st2" d="M269.2,133.4l-2.2-2.1l-5.6-2.7l-3.4,0.3l-1.4-0.3l-1,1.2l-4.6-2.3l-0.3-0.6l-8.8-0.3l-10.5-0.4l-9-0.5l-13.6-1
	l-8.3-0.7l0.9-10.6l1.2-14.2l1.1-11.7l9.7,0.8l13,0.9l10.8,0.6l7.9,0.3l12.7,0.4l10.6,0.1l-0.2,1.4l-2.4,2.7l1.5,2.4l2,1.4l0,10.4
	l-0.1,12l-0.9,3.4l1,1.4l-1.8,4.7L269.2,133.4z"/>
<path class="st8" d="M484.8,104.1l-7.2,1.5l-2.2-9.5l-3.2-5.9l0.4-3l-0.5-2.5l-1.2-1.5l-0.8-4.9l8.8-2.1l6.8-1.9l0.4,1.2l-0.6,2.3
	l1,1.2l0,1.8l-1.4,2l-1.8,1l0.7,2.9l-0.5,3.6l-0.9,3.1l0.6,5.4l0.5,1.6l-0.2,2.7L484.8,104.1z"/>
<path class="st27" d="M473,167.5l-0.5,1.8l-1.5,1.5l-0.1,3l-1,5l-2.1,0.3l-0.3-1.6l0.2-3.8l1.5-3.4l0-1.1l0.3-0.6L473,167.5z
	 M409.7,185.4l0.7,2.1l2.7,1.6l1.1-0.2l1.7-1.9l1.5,1.1l2.6-1.2l3.5-2.8l2.4-0.8l-0.3-2.3l0.9-2.5l1.3-1.7l0.6-2.6l0.9-1.2l0.6-4.2
	l1.9,1.4l1.7,0.3l0.8-1.2l1.3-4.8l3.4-2.1l1.4-2.8l-0.2-3.8l5.6,3.2l0.6-2.5l1.5-0.1l0.8,1.9l4.3,1.8l1.1,1.6l-0.5,2.1l-1.4,2.7
	l1.1,1.3l2-0.2l2.2,1.5l2.2-0.3l1.2,1.3l3,1.1l-0.5,1.1l0.7,3.1l1,2l-1,1.5l1.6,2.2l-1.2,1.7l4.3-0.3l2.2,4.3l-10.1,2.2l-15.5,3
	l-9.7,1.8l-7.7,1.3l-13.6,1.6l-11.9,1.7l-7.7,0.9l4.5-2.4l1-1.6l1.8-0.7l1.1-3.1l3.3-2.3L409.7,185.4z"/>
<path class="st15" d="M409.7,185.4l-1.5,0l-1.9-1.4l-3.1-4.4l-1-4.3l2.5-0.7l1-2l-0.6-2.5l1.3-3.1l2.5,0.4l-0.2-2.7l2.4-3.3l2.2-0.1
	l2.8-3.4l-0.1-1.7l0.7-2.9l0-2.3l0.6-2.2l-0.3-2l0.4-2.1l1.9,11.4l9.7-1.7l1,6.4l3.1-3.8l1.3-0.3l1.1-2l3.3,0.5l0.2-1.3l2.2-1.3
	l3,1.1l2.1,2.7l-0.6,2.5l-5.6-3.2l0.2,3.8l-1.4,2.8l-3.4,2.1l-1.3,4.8l-0.8,1.2l-1.7-0.3l-1.9-1.4l-0.6,4.2l-0.9,1.2l-0.6,2.6
	l-1.3,1.7l-0.9,2.5l0.3,2.3l-2.4,0.8l-3.5,2.8l-2.6,1.2L416,187l-1.7,1.9l-1.1,0.2l-2.7-1.6L409.7,185.4z"/>
<path class="st3" d="M152.2,143.8l-13.4-1.9l-5-0.8l2-12.4l2.6-16.2l2.2-14.3l1-6.5l3,0.6l13.9,1.9l7.2,1l17.5,2.2l19.3,1.8
	l-1.2,14.2l-0.9,10.6l-1.2,13.9l-0.9,11l-7.4-0.6l-12.6-1.3l-13-1.6L152.2,143.8z"/>
<path class="st28" d="M414.3,196.8l13.6-1.6l7.7-1.3l9.7-1.8l15.5-3l10.1-2.2l-1,1.6l1.5,2.6l-1.4,1.2l-3.1,1.5l0.8,1.6l2.8-1.2
	l2.9,0.1l1.3,3.7l-1.5,1l-1.8,3.5l-4.6,0.2l1.5,1.3l-0.6,2.2l3.5,0.5l-2,4.5l-2.5,0.3l-4.1,2l-3.2,3.3l-1.9,3.4l-0.6,3.3l-4.4,1
	l-1.5,0.9l-13.5-9.7l-11.2,1.7l-0.1-1.5l-1.9-1.9l-1.2-0.4l-12.4,1.2l-1.8,0.5l-6.2,3.1l-5.1,0.9l-7,0.9l0-3l1.9-0.5l0.5-2l2.2-2.3
	l2.7-0.4l2.3-2.4l2.4-0.9l1.7-2.9l1.4-1.2l1,1.1l2.3-2.5l2.6-0.2l0.9-2.4l1.8-2.4L414.3,196.8z"/>
</svg>
