<?xml version="1.0" encoding="utf-8"?>
<!-- Generator: Adobe Illustrator 22.0.1, SVG Export Plug-In . SVG Version: 6.00 Build 0)  -->
<svg version="1.1" id="Layer_1" xmlns="http://www.w3.org/2000/svg" xmlns:xlink="http://www.w3.org/1999/xlink" x="0px" y="0px"
	 width="300.1px" height="66.45px" viewBox="0 0 300.1 66.45" enable-background="new 0 0 300.1 66.45" xml:space="preserve">
<g>
	<g>
		<path fill="#004684" d="M11.22,66.41c0.01-4.36,0.03-8.14,0.03-10.14c0.74,0,3.35-0.08,3.93-0.08c0-0.33,0-2.18-0.02-2.61
			c-6.44,0-11.45,0-15.1,0c-0.02-0.83,0-8.31,0-9.32c0.95-0.25,2.66-0.61,3.49-0.78c0.27-0.64,3.67-8.94,4.27-10.56
			c-0.73-0.1-5.52-1.05-6.94-1.31c1-4.65,2.06-9.7,3.06-14.35c0.14-0.67,0.83-3.61,0.95-4.32c4.52,0,8.83,0.02,10.35,0.02
			c0.36-1.16,0.8-2.3,1.23-3.48c-0.02-1.03-0.04-8.42-0.06-9.45c1.01,0,23.28,0.03,23.65,0.03c0,3.32,0,6.85,0,10.16
			c0.33,0.99,0.7,2.07,0.93,2.72c0.49,0,3.5,0.07,3.87,0.07c0.95,4.69,1.9,9.51,2.85,14.2c0.28,1.38,0.61,2.98,0.89,4.36
			c-0.42,0.15-0.94,0.24-1.25,0.3c1.75,5.11,3.38,10,3.99,11.63c0.92,0.11,2.66,0.28,3.37,0.36c0,1.2-0.01,9-0.01,9.77
			c-6.55,0.02-16.96-0.05-20.32-0.05c0,0.96,0.01,1.72,0.01,2.64c0.67,0,2.96,0.03,3.94,0.03c0,6.67,0,10.23,0,10.23
			C26.74,66.45,15.31,66.41,11.22,66.41"/>
		<path fill="#FDB927" d="M15.68,60.65c3.89,0.12,3.95-2.9,3.95-4.25c0-1.14,0.03-17.1,0.03-17.74c4.04-0.14,7.11,0.76,10.28,2.78
			c0.03,5.31,0.01,13.36,0.01,14.78c0,3.46,1.49,4.51,3.91,4.44c0,0.55-0.02,0.88-0.02,1.28H15.68V60.65z M4.52,49.06
			c3.7,0.02,7.33,0.02,11.03,0.04V47.8c-1.73-0.12-2.53-0.85-2.23-3.02c0.19-1.44,1.31-4.27,2.15-6.92
			c9.46-2.43,16.48,1.92,20.23,7.18c-0.09,2.12-1.67,2.79-2.74,2.7v1.34c5.27,0.01,17.27,0,17.27,0c0.02-0.39,0-0.88,0.02-1.27
			c-1.74,0-2.77-1.96-3.35-3.33c-1.66-4.9-3.31-9.76-4.97-14.66c-0.16,0.04-0.35,0.06-0.64,0.1c-1.13-3.39-2.65-7.55-9.92-7.37
			c0.04,3.11-0.02,5.97,0.02,9.08c0.39,1.13,0.84,2.59,1.23,3.72c-4.24-2.48-9.24-3.84-15.19-3.13c0.21-0.62,0.49-1.28,0.7-1.89
			c0-3.01,0.03-7,0.03-7.75c-0.52,0-1.24,0.01-1.72,0.01c-2.26,6.09-4.56,12.33-6.82,18.42c-0.99,2.66-1.99,6.11-5.08,6.79
			C4.57,48.42,4.52,48.73,4.52,49.06 M7.28,28.25c1.71-6.27,6.51-7.53,12.35-7.12v9.41c4.73-0.2,8.7,1.08,10.31,1.83
			c0-2.76-0.02-7.51,0-11.26c8.95-0.69,11.02,3.96,12.35,7.12c0.33-0.06,0.66-0.12,0.99-0.19c-0.01-0.06-0.01-0.12-0.02-0.18
			c-0.75-3.75-1.51-7.49-2.26-11.24c-0.65,0.93-2.59,0.83-4.48,0.83c-5.97,0-17.28-0.03-23.25-0.03c-2.25,0-3.96,0.38-4.6-0.83
			c-0.28,1.39-1.74,8.18-2.44,11.45C6.77,28.16,6.99,28.19,7.28,28.25 M20.98,5.75c1.18,0.17,1.25,1.2,0.97,2.04
			c-0.46,1.39-2.6,6.93-3.03,8.15c0.47,0,3.74,0.02,4.24,0.02c0.39-1.15,0.84-2.39,1.22-3.55c0.07-0.18,0.39-1.16,0.51-1.05
			c0.49,1.52,0.99,3.05,1.48,4.57c0.6,0,10.07,0.01,10.9,0.01c-0.39-1.12-1.75-5.46-2.54-7.86c-0.58-1.65-0.23-2.15,0.84-2.31V4.54
			c-0.91,0-13.53-0.02-14.61-0.02C20.97,4.97,20.98,5.39,20.98,5.75"/>
		<path fill="#FFFFFF" d="M22.45,8.83c0.3-1.04,0.95-2.6-0.34-3.45h12.22c-0.35,0.23-0.58,0.6-0.68,0.93h-10.5
			c0.8,0.39,1.01,1.72,0.53,2.97c-0.12,0.32-1.88,4.99-2.55,6.69c-0.23,0-1.04,0.01-1.35,0.01C20.12,15.14,21.45,11.49,22.45,8.83
			 M26.11,8.59c-0.08,0.22-0.53,1.5-0.68,1.91c0.58,1.77,1.21,3.68,1.79,5.45c0.27,0,0.94-0.03,1.3-0.02
			C28.15,14.76,26.47,9.81,26.11,8.59 M17.16,34.25c8.18-1.3,14.68,2.31,19.13,5.78c-1.94-6.07-4.1-12.84-4.89-14.93
			c-0.02,0.66,0,2.51,0,3.85c0.87,2.59,2.27,6.9,2.72,8.27c-6.14-3.95-10.13-4.73-16.59-4.24C17.38,33.47,17.25,33.87,17.16,34.25
			 M20.5,21.07c0,3.1,0.02,7.92,0.02,9.45c0.33,0,0.66,0.02,0.97,0v-9.45H20.5 M9.94,42.56c-1.1,3.29-2.64,4.99-4.14,5.7h2.49
			c1.33-1.3,2.17-3.36,3.08-5.82c1.97-5.32,6.62-17.91,6.8-18.4V22.6c-0.16,0-0.52,0.01-0.88,0.01
			C16.04,26.27,10.2,41.78,9.94,42.56 M36.53,44.82c0.06,1.44-0.67,2.74-1.91,3.42c0.66,0,1.9-0.01,2.22-0.01
			c0.49-0.69,0.74-1.35,0.72-2.5c-0.34-0.42-1.5-1.95-2-2.45c-0.02,0.04-0.1,0.1-0.12,0.14C35.67,43.71,36.2,44.35,36.53,44.82
			 M20.5,55.95c0,1.97-0.4,4.26-2.38,5.13c0.47,0.02,1.78,0.02,2.25,0c1.3-1.41,1.12-3.99,1.12-6.05c0-4.47,0.01-17.42,0.01-16.35
			c-0.31-0.02-0.69,0.01-1-0.01V55.95z M9.38,23.04c0.35-1.65,0.68-3.43,0.8-3.89c0.39,0.18,1.42,0.12,1.98,0.12h26.37
			c0.41,0,1.41,0.06,2.12-0.14c-0.08-0.37-0.19-0.94-0.24-1.17c-0.94,0.4-2.64,0.31-3.18,0.33c-0.54,0.02-24.68-0.01-25.26-0.01
			c-0.58,0-1.83,0.09-2.74-0.27c0,0.02-1.13,5.15-1.52,6.94C8.21,24.22,8.74,23.54,9.38,23.04"/>
	</g>
	<path fill="#004684" d="M67.22,22.67h1.06v-8.05h-1.45v-1.66h3.3l4.79,6.02c0.5,0.63,0.81,1.09,0.96,1.53h0.03v-5.89h-1.04v-1.66
		h4.11v1.66h-1.12v9.71H76.1l-5.41-6.79c-0.28-0.34-0.5-0.71-0.54-0.88h-0.03v6.01h1.1v1.66h-4.01V22.67z M84.18,15.22
		c-2.69,0-4.58,1.67-4.58,4.66c0,2.99,1.88,4.66,4.58,4.66c2.69,0,4.58-1.67,4.58-4.66C88.76,16.89,86.87,15.22,84.18,15.22
		 M84.18,22.79c-1.12,0-2.21-0.76-2.21-2.91c0-2.14,1.09-2.91,2.21-2.91c1.14,0,2.21,0.76,2.21,2.91
		C86.39,22.02,85.32,22.79,84.18,22.79 M90.57,22.77H89.6v1.56h3.8v-1.56h-0.65v-2.05c0.55,0,0.76,0.03,1.01,0.49l1.22,2.24
		c0.36,0.65,0.65,0.88,1.38,0.88h1.54v-1.66c-0.1,0.05-0.19,0.1-0.29,0.1c-0.19,0-0.45-0.13-0.52-0.23l-0.96-1.46
		c-0.37-0.55-0.73-0.83-1.62-0.91v-0.03c1.75-0.28,2.29-1.33,2.29-2.34c0-1.43-0.89-2.37-2.69-2.37h-4.5v1.56h0.97V22.77z
		 M93.3,16.99c0.91,0,1.32,0.21,1.32,1.02c0,0.75-0.44,1.15-1.32,1.15h-0.55v-2.18H93.3z M100.99,22.77h-1.02v1.56h4.22v-1.56h-1.02
		v-5.78h1.35l0.11,1.14h1.66l-0.11-2.7h-8.18l-0.11,2.7h1.66l0.11-1.14h1.35V22.77z M108.06,22.77h-0.97v1.56h4.12v-1.56h-0.97
		v-2.14h3.25v2.14h-0.97v1.56h4.12v-1.56h-0.97v-5.78h0.97v-1.56h-4.12v1.56h0.97v2.08h-3.25v-2.08h0.97v-1.56h-4.12v1.56h0.97
		V22.77z M130.35,22.51c-0.41,0.13-1.01,0.16-1.33,0.16c-3.08,0-3.83-2.37-3.83-4.09c0-2.08,0.97-4.06,3.7-4.06
		c0.59,0,1.04,0.06,1.61,0.26v1.82h2.05v-3.16c-1.1-0.39-2.31-0.67-3.75-0.67c-4.19,0-6.17,2.87-6.17,5.96
		c0,3.54,2.27,5.79,6.07,5.79c1.36,0,2.47-0.15,3.7-0.57l0.1-3.51h-2.05L130.35,22.51z M134.08,22.77h-0.76v1.56h3.8v-1.56h-0.76
		l0.44-1.33h2.92l0.47,1.33h-0.76v1.56h4.12v-1.56h-0.8l-3.02-7.34h-2.47L134.08,22.77z M137.31,19.88l0.97-2.69h0.03l0.91,2.69
		H137.31z M145.34,22.77h-0.97v1.56h3.8v-1.56h-0.65v-2.05c0.55,0,0.76,0.03,1.01,0.49l1.22,2.24c0.36,0.65,0.65,0.88,1.38,0.88
		h1.54v-1.66c-0.1,0.05-0.19,0.1-0.29,0.1c-0.19,0-0.45-0.13-0.52-0.23l-0.96-1.46c-0.37-0.55-0.73-0.83-1.62-0.91v-0.03
		c1.75-0.28,2.29-1.33,2.29-2.34c0-1.43-0.89-2.37-2.69-2.37h-4.5v1.56h0.97V22.77z M148.07,16.99c0.91,0,1.31,0.21,1.31,1.02
		c0,0.75-0.44,1.15-1.31,1.15h-0.55v-2.18H148.07z M157.69,15.22c-2.69,0-4.58,1.67-4.58,4.66c0,2.99,1.88,4.66,4.58,4.66
		c2.69,0,4.58-1.67,4.58-4.66C162.27,16.89,160.38,15.22,157.69,15.22 M157.69,22.79c-1.12,0-2.21-0.76-2.21-2.91
		c0-2.14,1.09-2.91,2.21-2.91c1.14,0,2.21,0.76,2.21,2.91C159.9,22.02,158.82,22.79,157.69,22.79 M164.08,22.77h-0.97v1.56h6.93
		l0.21-2.89h-1.75l-0.19,1.33h-2.05v-5.78h0.98v-1.56h-4.12v1.56h0.97V22.77z M172.09,22.77h-0.97v1.56h4.12v-1.56h-0.97v-5.78h0.97
		v-1.56h-4.12v1.56h0.97V22.77z M177.16,22.77h-0.88v1.56h3.8v-1.56h-0.97v-4.09h0.03l4.19,5.65h1.88v-7.34h0.88v-1.56h-3.8v1.56
		h0.97v3.77h-0.03l-3.96-5.32h-3.09v1.56h0.97V22.77z M187.13,22.77h-0.76v1.56h3.8v-1.56h-0.76l0.44-1.33h2.92l0.47,1.33h-0.76
		v1.56h4.12v-1.56h-0.8l-3.02-7.34h-2.47L187.13,22.77z M190.36,19.88l0.97-2.69h0.03l0.91,2.69H190.36z M75.42,37.11H74.5v1.66
		h4.51v-1.66H78.1l-3.75-9.71h-2.61l-3.99,9.71h-0.91v1.66h4.22v-1.66h-1.09l0.81-2.18h3.91L75.42,37.11z M74.09,33.18h-2.65
		l0.88-2.37c0.19-0.52,0.37-1.06,0.5-1.66h0.03c0.08,0.6,0.24,1.15,0.42,1.66L74.09,33.18z M85.65,37.07
		c-0.36,0.07-0.71,0.15-1.23,0.15c-1.4,0-2.48-0.97-2.48-2.92c0-1.8,0.99-2.89,2.78-2.89c0.37,0,0.75,0.06,1.2,0.19v1.04h1.75v-2.47
		c-0.99-0.36-1.92-0.52-2.95-0.52c-2.83,0-5.15,1.49-5.15,4.9c0,2.81,1.83,4.41,4.69,4.41c1.07,0,2.19-0.19,3.31-0.52v-2.74h0.84
		v-1.56h-3.7v1.56h0.94V37.07z M90.27,37.2H89.3v1.56h3.8V37.2h-0.65v-2.04c0.55,0,0.76,0.03,1.01,0.49l1.22,2.24
		c0.36,0.65,0.65,0.88,1.38,0.88h1.54v-1.66c-0.1,0.05-0.2,0.1-0.29,0.1c-0.19,0-0.45-0.13-0.52-0.23l-0.96-1.46
		c-0.37-0.55-0.73-0.83-1.62-0.91v-0.03c1.75-0.28,2.29-1.33,2.29-2.34c0-1.43-0.89-2.37-2.69-2.37h-4.5v1.56h0.97V37.2z M93,31.42
		c0.91,0,1.32,0.21,1.32,1.02c0,0.75-0.44,1.15-1.32,1.15h-0.55v-2.18H93z M99.36,37.2h-0.97v1.56h4.12V37.2h-0.98v-5.78h0.98v-1.56
		h-4.12v1.56h0.97V37.2z M109.53,37.11c-0.31,0.07-0.63,0.11-1.04,0.11c-1.54,0-2.79-0.55-2.79-2.95c0-1.92,0.93-2.86,2.63-2.86
		c0.42,0,0.83,0.1,1.2,0.18v1.06h1.75v-2.47c-0.86-0.32-1.82-0.52-2.83-0.52c-2.83,0-5.13,1.38-5.13,4.95
		c0,2.97,1.88,4.37,4.87,4.37c0.99,0,2.21-0.26,3.09-0.52v-2.57h-1.66L109.53,37.11z M113.17,36.31c0,1.72,1.62,2.66,3.88,2.66
		c3.1,0,3.85-1.74,3.85-3.93v-3.62h0.91v-1.56h-3.9v1.56h0.91v4.11c0,0.81-0.31,1.69-1.66,1.69c-1.28,0-1.82-0.63-1.82-1.51v-4.29
		h0.97v-1.56h-4.12v1.56h0.97V36.31z M123.76,37.2h-0.97v1.56h6.93l0.21-2.89h-1.75l-0.19,1.33h-2.05v-5.78h0.97v-1.56h-4.12v1.56
		h0.97V37.2z M132.67,37.2h-1.02v1.56h4.22V37.2h-1.02v-5.78h1.35l0.11,1.14h1.66l-0.11-2.7h-8.18l-0.11,2.7h1.66l0.11-1.14h1.35
		V37.2z M139.65,36.31c0,1.72,1.62,2.66,3.88,2.66c3.1,0,3.85-1.74,3.85-3.93v-3.62h0.91v-1.56h-3.9v1.56h0.91v4.11
		c0,0.81-0.31,1.69-1.66,1.69c-1.28,0-1.82-0.63-1.82-1.51v-4.29h0.98v-1.56h-4.12v1.56h0.97V36.31z M150.23,37.2h-0.97v1.56h3.8
		V37.2h-0.65v-2.04c0.55,0,0.76,0.03,1.01,0.49l1.22,2.24c0.36,0.65,0.65,0.88,1.38,0.88h1.54v-1.66c-0.1,0.05-0.2,0.1-0.29,0.1
		c-0.19,0-0.45-0.13-0.52-0.23l-0.96-1.46c-0.37-0.55-0.73-0.83-1.62-0.91v-0.03c1.75-0.28,2.29-1.33,2.29-2.34
		c0-1.43-0.89-2.37-2.69-2.37h-4.5v1.56h0.97V37.2z M152.96,31.42c0.91,0,1.32,0.21,1.32,1.02c0,0.75-0.44,1.15-1.32,1.15h-0.55
		v-2.18H152.96z M158.87,37.2h-0.76v1.56h3.8V37.2h-0.76l0.44-1.33h2.92l0.47,1.33h-0.76v1.56h4.12V37.2h-0.8l-3.02-7.34h-2.47
		L158.87,37.2z M162.1,34.31l0.97-2.7h0.03l0.91,2.7H162.1z M170.13,37.2h-0.97v1.56h6.93l0.21-2.89h-1.75l-0.19,1.33h-2.05v-5.78
		h0.97v-1.56h-4.12v1.56h0.97V37.2z M182.36,37.2h-0.76v1.56h3.8V37.2h-0.76l0.44-1.33h2.92l0.47,1.33h-0.76v1.56h4.12V37.2h-0.8
		l-3.02-7.34h-2.47L182.36,37.2z M185.59,34.31l0.98-2.7h0.03l0.91,2.7H185.59z M193.48,37.2h-0.88v1.56h3.8V37.2h-0.97v-4.09h0.03
		l4.19,5.65h1.88v-7.34h0.88v-1.56h-3.8v1.56h0.98v3.77h-0.03l-3.96-5.32h-3.09v1.56h0.97V37.2z M204.36,37.2h-0.97v1.56h4.58
		c2.87,0,4.48-2.06,4.48-4.45c0-3.18-1.87-4.45-4.56-4.45h-4.5v1.56h0.97V37.2z M206.53,31.42h1.04c1.54,0,2.5,0.83,2.5,2.89
		c0,1.75-0.96,2.89-2.5,2.89h-1.04V31.42z M226.66,30.61h1.95l-0.1-3.21h-10.36l-0.1,3.21h1.95l0.1-1.56h2.04v8.05h-1.02v1.66h4.42
		v-1.66h-1.02v-8.05h2.04L226.66,30.61z M230.48,37.2h-0.88v1.56h6.92l0.24-2.89h-1.75l-0.16,1.33h-2.19v-2.14h2.34V33.5h-2.34
		v-2.08h2.19l0.16,1.14h1.66l-0.16-2.7h-7v1.56h0.97V37.2z M243.87,37.11c-0.31,0.07-0.63,0.11-1.04,0.11
		c-1.54,0-2.79-0.55-2.79-2.95c0-1.92,0.93-2.86,2.63-2.86c0.42,0,0.83,0.1,1.2,0.18v1.06h1.75v-2.47
		c-0.86-0.32-1.82-0.52-2.83-0.52c-2.83,0-5.13,1.38-5.13,4.95c0,2.97,1.88,4.37,4.87,4.37c0.99,0,2.21-0.26,3.09-0.52v-2.57h-1.66
		L243.87,37.11z M247.77,37.2h-0.97v1.56h4.12V37.2h-0.97v-2.14h3.25v2.14h-0.97v1.56h4.12V37.2h-0.97v-5.78h0.97v-1.56h-4.12v1.56
		h0.97v2.08h-3.25v-2.08h0.97v-1.56h-4.12v1.56h0.97V37.2z M258.29,37.2h-0.88v1.56h3.8V37.2h-0.97v-4.09h0.03l4.19,5.65h1.88v-7.34
		h0.88v-1.56h-3.8v1.56h0.97v3.77h-0.03l-3.96-5.32h-3.08v1.56h0.97V37.2z M269.16,37.2h-0.97v1.56h4.12V37.2h-0.97v-5.78h0.97
		v-1.56h-4.12v1.56h0.97V37.2z M279.34,37.11c-0.31,0.07-0.63,0.11-1.04,0.11c-1.54,0-2.79-0.55-2.79-2.95
		c0-1.92,0.93-2.86,2.63-2.86c0.42,0,0.83,0.1,1.2,0.18v1.06h1.75v-2.47c-0.86-0.32-1.82-0.52-2.83-0.52
		c-2.83,0-5.13,1.38-5.13,4.95c0,2.97,1.88,4.37,4.87,4.37c0.99,0,2.21-0.26,3.09-0.52v-2.57h-1.66L279.34,37.11z M282.62,37.2
		h-0.76v1.56h3.8V37.2h-0.76l0.44-1.33h2.92l0.47,1.33h-0.76v1.56h4.12V37.2h-0.79l-3.02-7.34h-2.47L282.62,37.2z M285.85,34.31
		l0.97-2.7h0.03l0.91,2.7H285.85z M293.88,37.2h-0.97v1.56h6.93l0.21-2.89h-1.75l-0.19,1.33h-2.05v-5.78h0.97v-1.56h-4.12v1.56h0.97
		V37.2z M73.47,44.95h2.14v-2.71c-0.97-0.37-2.35-0.6-3.73-0.6c-3.21,0-4.48,1.59-4.48,3.39c0,1.75,0.8,2.66,3.13,3.26l1.25,0.32
		c1.53,0.39,1.85,0.81,1.85,1.4c0,0.86-0.62,1.53-2.01,1.53c-0.67,0-1.32-0.05-1.92-0.29v-1.49h-2.37v3
		c1.53,0.5,2.83,0.63,4.07,0.63c3.23,0,4.69-1.57,4.69-3.73c0-2.35-1.85-2.91-3.52-3.33l-1.36-0.34c-0.75-0.18-1.35-0.42-1.35-1.25
		c0-0.63,0.5-1.44,2.08-1.44c0.55,0,1.1,0.13,1.53,0.28V44.95z M79.8,51.64h-1.02v1.56H83v-1.56h-1.02v-5.78h1.35l0.11,1.14h1.66
		l-0.11-2.7h-8.18l-0.11,2.7h1.66l0.11-1.14h1.35V51.64z M85.34,51.64h-0.76v1.56h3.8v-1.56h-0.76l0.44-1.33h2.92l0.47,1.33h-0.76
		v1.56h4.12v-1.56H94l-3.02-7.34h-2.47L85.34,51.64z M88.57,48.75l0.97-2.7h0.03l0.91,2.7H88.57z M97.42,51.64h-1.02v1.56h4.22
		v-1.56h-1.02v-5.78h1.35l0.11,1.14h1.66l-0.11-2.7h-8.18l-0.11,2.7h1.66l0.11-1.14h1.35V51.64z M104.48,51.64h-0.88v1.56h6.92
		l0.24-2.89h-1.75l-0.16,1.33h-2.19v-2.14h2.34v-1.56h-2.34v-2.08h2.19l0.16,1.14h1.66l-0.16-2.7h-7v1.56h0.97V51.64z M123.56,43.49
		h1.25v5.34c0,2.18-1.04,2.71-2.55,2.71c-1.82,0-2.3-1.06-2.3-2.71v-5.34h1.02v-1.66h-4.42v1.66h1.02v5.75
		c0,2.5,0.81,4.16,4.55,4.16c3.33,0,4.82-1.17,4.82-4.71v-5.2h1.02v-1.66h-4.42V43.49z M129.38,51.64h-0.88v1.56h3.8v-1.56h-0.97
		v-4.09h0.03l4.19,5.65h1.88v-7.34h0.88V44.3h-3.8v1.56h0.97v3.77h-0.03l-3.96-5.32h-3.08v1.56h0.97V51.64z M140.25,51.64h-0.97
		v1.56h4.12v-1.56h-0.97v-5.78h0.97V44.3h-4.12v1.56h0.97V51.64z M148.15,53.19h2.27l3.23-7.34h0.78V44.3h-3.9v1.56h0.85l-1.95,5.29
		h-0.03l-1.85-5.29h0.78V44.3h-4.12v1.56h0.78L148.15,53.19z M156.23,51.64h-0.88v1.56h6.92l0.24-2.89h-1.75l-0.16,1.33h-2.19v-2.14
		h2.34v-1.56h-2.34v-2.08h2.19l0.16,1.14h1.66l-0.16-2.7h-7v1.56h0.97V51.64z M164.52,51.64h-0.97v1.56h3.8v-1.56h-0.65v-2.04
		c0.55,0,0.76,0.03,1.01,0.49l1.22,2.24c0.36,0.65,0.65,0.88,1.38,0.88h1.54v-1.66c-0.1,0.05-0.19,0.1-0.29,0.1
		c-0.19,0-0.45-0.13-0.52-0.23l-0.96-1.46c-0.37-0.55-0.73-0.83-1.62-0.91v-0.03c1.75-0.28,2.29-1.33,2.29-2.34
		c0-1.43-0.89-2.37-2.69-2.37h-4.5v1.56h0.97V51.64z M167.25,45.86c0.91,0,1.31,0.21,1.31,1.02c0,0.75-0.44,1.15-1.31,1.15h-0.55
		v-2.18H167.25z M179.13,46.73v-2.18c-1.01-0.31-1.82-0.47-2.74-0.47c-2.61,0-3.82,1.33-3.82,2.95c0,3.36,4.77,2.01,4.77,3.7
		c0,0.52-0.54,1.1-1.41,1.1c-0.47,0-1.02-0.08-1.41-0.29l-0.1-1.07h-1.85l0.1,2.47c0.96,0.31,2.04,0.45,3,0.45
		c2.03,0,3.94-0.83,3.94-2.99c0-3.46-4.77-2.22-4.77-3.78c0-0.5,0.28-0.99,1.25-0.99c0.39,0,0.94,0.05,1.28,0.24v0.84H179.13z
		 M181.51,51.64h-0.97v1.56h4.12v-1.56h-0.97v-5.78h0.97V44.3h-4.12v1.56h0.97V51.64z M188.57,51.64h-1.02v1.56h4.22v-1.56h-1.02
		v-5.78h1.35l0.11,1.14h1.66l-0.11-2.7h-8.18l-0.11,2.7h1.66l0.11-1.14h1.35V51.64z M194.45,45.86h0.67l3.05,3.86v1.92h-1.02v1.56
		h4.22v-1.56h-1.02v-1.92l2.97-3.86h0.66V44.3h-3.9v1.56h0.86l-1.51,2.26l-1.56-2.26h0.8V44.3h-4.22V45.86z"/>
</g>
</svg>
