<svg id="Layer_1" data-name="Layer 1" xmlns="http://www.w3.org/2000/svg" viewBox="0 0 600 209"><defs><style>.cls-1{fill:#fff;}</style></defs><title>logo</title><path class="cls-1" d="M590,101V290H10V101H590m10-10H0V300H600V91Z" transform="translate(0 -91)"/><path class="cls-1" d="M340.57,169.6c0,9.72-5.55,14.88-15.49,14.88-7.12,0-13.32-.6-13.32-.6l3.61-10.8s5.25.6,8.14.6c3.25,0,5.73-2,5.73-7V134.08h11.33Z" transform="translate(0 -91)"/><path class="cls-1" d="M372.84,133.18c14,0,25,11.7,25,25.62s-11,25.68-25,25.68-25.07-11.76-25.07-25.68S358.86,133.18,372.84,133.18Zm0,39.78A14.13,14.13,0,1,0,359,158.8,14,14,0,0,0,372.84,173Z" transform="translate(0 -91)"/><path class="cls-1" d="M406,183.58v-49.5l31.1,25.5.12-25.5h11.33v49.5l-31.22-25.44v25.44Z" transform="translate(0 -91)"/><path class="cls-1" d="M495.33,171l2.41,11.1s-3.56,2.4-14.34,2.4c-14,0-26.95-11.4-26.95-25.56s12.84-25.74,26.95-25.74c10.78,0,14.34,2.4,14.34,2.4l-2.41,11.1a23.38,23.38,0,0,0-10.19-2.4c-11.39,0-16.39,7.92-16.39,14.52s5,14.58,16.39,14.58A23.38,23.38,0,0,0,495.33,171Z" transform="translate(0 -91)"/><path class="cls-1" d="M554.51,183.58H542.34l-3.74-9.9H519.67l-3.61,9.9H503.88l20-49.5h10.49Zm-25.43-34.2-5.55,14.4h11.21Z" transform="translate(0 -91)"/><path class="cls-1" d="M445.16,237.7s-1.51,2-7.05,6.78l10.73,11.1H434.55L430.27,251a26.44,26.44,0,0,1-16.63,5.46c-7.35,0-17.3-2.94-17.3-13.92,0-8.22,13.8-11.82,12.05-14,0,0-4.94-6.54-4.94-10.44,0-7.68,5.55-12.9,15.85-12.9,9.95,0,14.72,6.72,14.77,12.9.06,7.28-11.52,10.41-9.76,12.72C437.38,243.7,440.76,238.3,445.16,237.7Zm-30.8-2.46s-5.18,1.86-5.18,6.42c0,2.88,2.95,4.14,5.6,4.14a13.17,13.17,0,0,0,7.48-2.82Zm.6-17.16c0,2.88,3.62,6.06,3.62,6.06,2.53-1.38,5.54-3.42,5.54-6.06s-1.14-4.92-4.82-4.92C416.23,213.16,415,215.44,415,218.08Z" transform="translate(0 -91)"/><path class="cls-1" d="M494.13,243l2.41,11.1s-3.56,2.4-14.35,2.4c-14,0-26.94-11.4-26.94-25.56s12.84-25.74,26.94-25.74c10.79,0,14.35,2.4,14.35,2.4l-2.41,11.1a23.38,23.38,0,0,0-10.19-2.4c-11.39,0-16.39,7.92-16.39,14.52s5,14.58,16.39,14.58A23.38,23.38,0,0,0,494.13,243Z" transform="translate(0 -91)"/><path class="cls-1" d="M528.63,205.18c14,0,25,11.7,25,25.62s-11,25.68-25,25.68-25.08-11.76-25.08-25.68S514.64,205.18,528.63,205.18Zm0,39.78a14.13,14.13,0,1,0-13.81-14.16A14,14,0,0,0,528.63,245Z" transform="translate(0 -91)"/></svg>