<?xml version="1.0" encoding="utf-8"?>
<!-- Generator: Adobe Illustrator 22.0.1, SVG Export Plug-In . SVG Version: 6.00 Build 0)  -->
<svg version="1.1" id="Layer_1" xmlns="http://www.w3.org/2000/svg" xmlns:xlink="http://www.w3.org/1999/xlink" x="0px" y="0px"
	 viewBox="0 0 1280 1024" style="enable-background:new 0 0 1280 1024;" xml:space="preserve">
<style type="text/css">
	.st0{fill-rule:evenodd;clip-rule:evenodd;fill:#FFD7B7;}
	.st1{fill-rule:evenodd;clip-rule:evenodd;fill:#35324D;}
	.st2{fill-rule:evenodd;clip-rule:evenodd;fill:#FFF2E8;}
	.st3{fill-rule:evenodd;clip-rule:evenodd;fill:#FFFFFF;}
	.st4{fill-rule:evenodd;clip-rule:evenodd;fill:#CCCED1;}
	.st5{fill:#F6F6F6;}
	.st6{fill-rule:evenodd;clip-rule:evenodd;fill:#DEB99B;}
</style>
<g>
	<path class="st0" d="M791.6,448.2L791.6,448.2c10.8,13.6,8.4,33.5-5.1,44.4L540.3,693.7c-13.5,11-33.6,8.6-44.5-5
		c-10.8-13.6-8.4-33.4,5.1-44.4l246.3-201.1C760.7,432.1,780.8,434.6,791.6,448.2"/>
	<polygon class="st0" points="355.5,811.2 522.5,862.9 563.2,731.7 701.8,571.5 453.6,494.6 	"/>
	<path class="st0" d="M777.7,548.9L777.7,548.9c10.8,13.6,8.4,33.5-5,44.4L526.4,794.5c-13.5,11-33.6,8.6-44.4-5
		c-10.8-13.6-8.4-33.4,5-44.4l246.3-201.1C746.7,532.9,766.9,535.3,777.7,548.9"/>
	<path class="st0" d="M825.8,326.5L825.8,326.5c10.8,13.6,8.4,33.5-5,44.4L583.5,564.4c-13.5,11-33.6,8.6-44.4-5
		c-10.8-13.6-8.4-33.4,5-44.4l237.2-193.5C794.9,310.5,815,312.9,825.8,326.5"/>
	<path class="st0" d="M800.8,530.5L800.8,530.5c10.8,13.6,8.5,33.6-5,44.4l-46.1,36.9c-13.6,10.8-33.6,8.6-44.4-5
		c-10.8-13.6-8.5-33.6,5.1-44.4l46.1-36.9C769.9,514.6,789.9,516.9,800.8,530.5"/>
	<path class="st0" d="M817.9,427.1L817.9,427.1c10.8,13.6,8.5,33.6-5,44.4L773.6,503c-13.6,10.9-33.6,8.6-44.4-5
		c-10.8-13.6-8.5-33.6,5-44.4l39.3-31.4C787.1,411.2,807.1,413.5,817.9,427.1"/>
	<polygon class="st1" points="459.5,1024.9 560.1,820.3 345.4,758.2 224.2,1024.9 	"/>
	<path class="st2" d="M739.2,458.9l10.8-8.3c19.5,5.2,28.9,18.4,29.7,38.2l-10.1,8.1C741.9,518.9,715.9,476.3,739.2,458.9"/>
	<path class="st2" d="M715.9,567l10.8-8.3c19.5,5.2,28.9,18.4,29.7,38.2l-10.1,8.1C718.6,627,692.6,584.4,715.9,567"/>
	<polygon class="st3" points="355.5,761.2 371.3,726.5 563.4,796.2 551.4,817.8 	"/>
	<path class="st3" d="M504,853.7c0,6.2-5,11.2-11.2,11.2c-6.2,0-11.2-5-11.2-11.2c0-6.2,5-11.2,11.2-11.2
		C499,842.5,504,847.5,504,853.7z"/>
</g>
<g>
	<path class="st1" d="M539.7,97.5h176.2c34.1,0,62.1,27.9,62.1,62.1v467.9c0,34.1-27.9,62-62.1,62H539.7c-34.1,0-62-27.9-62-62
		V159.5C477.6,125.4,505.5,97.5,539.7,97.5"/>
	<path class="st4" d="M511.4,147.1h232.8c4,0,7.3,3.3,7.3,7.3v473.1c0,4-3.3,7.3-7.3,7.3H511.4c-4,0-7.3-3.3-7.3-7.3V154.5
		C504,150.4,507.3,147.1,511.4,147.1"/>
	<path class="st3" d="M582.2,112.1h91.1c2.5,0,4.5,2,4.5,4.5v0c0,2.5-2,4.5-4.5,4.5h-91.1c-2.5,0-4.5-2-4.5-4.5v0
		C577.8,114.2,579.8,112.1,582.2,112.1"/>
	<path class="st3" d="M661.9,658c0,6.2-5,11.1-11.1,11.1h-50.6c-6.1,0-11.1-5-11.1-11.1l0,0c0-6.2,5-11.1,11.1-11.1h50.6
		C656.9,646.9,661.9,651.9,661.9,658L661.9,658z"/>
	<path class="st4" d="M744.2,147.1H511.4c-4,0-7.3,3.3-7.3,7.3v7l243.2,472.6c2.5-1.2,4.3-3.7,4.3-6.6V154.5
		C751.5,150.4,748.2,147.1,744.2,147.1z"/>
</g>
<g>
	<path class="st0" d="M406.6,691l34.5-72.9l23.1,15.3l105.4-214.1c23.6-39.8,1-79.9-22.8-96.9L412.8,548.5
		c-11.3,19-49,169.4-32.1,181.5"/>
	<path class="st2" d="M555.1,328.6c-2.7-2.2-5.4-4.3-8.2-6.3l-27,45.5C537.6,373.5,548.4,346.4,555.1,328.6"/>
</g>
<g>
	<g>
		<path class="st5" d="M630.1,436.2c-32.2,0-58.4,26.1-58.4,58.4c0,32.2,26.1,58.4,58.4,58.4c32.2,0,58.4-26.1,58.4-58.4
			C688.5,462.4,662.4,436.2,630.1,436.2z M630.1,548.8c-29.9,0-54.2-24.3-54.2-54.2c0-29.9,24.2-54.2,54.2-54.2
			c29.9,0,54.2,24.2,54.2,54.2C684.3,524.5,660,548.8,630.1,548.8z"/>
		
			<ellipse transform="matrix(6.346387e-03 -1 1 6.346387e-03 131.5309 1121.5969)" class="st5" cx="630.1" cy="494.6" rx="40.8" ry="40.8"/>
	</g>
	<g>
		<g>
			<g>
				<polygon class="st0" points="801.7,876.7 856,1013.9 1028.3,1013.9 965.1,846.5 				"/>
				<path class="st6" d="M654.8,735.5l79.7,116.5c10.3,15,63.6,61.4,78.9,52.1c15.3-9.3-6.3-60.6-16.9-75.3l-61.1-78.9
					C700.4,704.6,670.2,723.5,654.8,735.5"/>
				<path class="st0" d="M679.4,504l64.2,151c5.1-27.3,45.6-31.5,60.2-5.7c1.5-28.8,39.3-35.9,57-15.2c5.6-26.3,46.2-28.8,58.2-0.9
					l55,128c15.4,35.9,16.4,90.8,9.4,115.9c-20.8,74.5-116.3,76.8-150,53.9c-26.2-17.8-46.9-27.6-55.4-46.7L620.6,529.8
					C600.7,485,663.9,466.7,679.4,504"/>
				<path class="st6" d="M882,678.1c0,0-10.4-25.6-19.8-48.3c-0.6,1.4-1,2.8-1.3,4.3c-1.6-1.8-3.3-3.4-5.1-4.8
					C867.4,651.4,882,678.1,882,678.1 M743.8,654.2c0.5-2.4,1.3-4.6,2.4-6.7c10.4,25.5,27.2,69.5,27.2,69.5s-21.4-43.3-29.7-62
					C743.7,655.3,743.8,655,743.8,654.2 M796.1,640c3,2.5,5.7,5.6,7.8,9.3c0.1-1.9,0.4-3.7,0.8-5.4c10.5,25,23.5,56.1,23.5,56.1
					S808,663.1,796.1,640"/>
				<polygon class="st3" points="838.4,990.7 830.4,968.3 1008,903.6 1014,928.6 				"/>
				<polygon class="st1" points="1015.8,918.5 1051.4,1013.3 1056.4,1025.5 846.8,1025.5 832.8,991.3 				"/>
				<path class="st3" d="M1014,955.4c0-4.6-3.7-8.3-8.3-8.3c-4.6,0-8.3,3.7-8.3,8.3c0,4.6,3.7,8.3,8.3,8.3
					C1010.3,963.7,1014,960,1014,955.4z"/>
			</g>
			<path class="st2" d="M671.4,505.5l5.5,13c-10,18.4-25.2,24.5-44.8,20.3l-5.5-12.3C611.8,493.1,660,477.7,671.4,505.5"/>
		</g>
	</g>
</g>
</svg>
