<?xml version="1.0" encoding="utf-8"?>
<!-- Generator: Adobe Illustrator 22.0.1, SVG Export Plug-In . SVG Version: 6.00 Build 0)  -->
<svg version="1.1" xmlns="http://www.w3.org/2000/svg" xmlns:xlink="http://www.w3.org/1999/xlink" x="0px" y="0px"
	 viewBox="0 0 839 1000" style="enable-background:new 0 0 839 1000;" xml:space="preserve">
<style type="text/css">
	.st0{display:none;}
	.st1{display:inline;}
	.st2{font-family:'Santana-Black';}
	.st3{font-size:66.7845px;}
	.st4{font-size:34.5708px;}
	.st5{fill:#031B23;}
	.st6{fill:#FDCF9D;}
	.st7{fill:#FFFFFF;}
	.st8{fill:#2F4962;}
	.st9{fill:#FCFFF6;}
	.st10{fill:#303435;}
	.st11{fill:#3A3F42;}
	.st12{fill:#3F4447;}
	.st13{display:inline;fill:#FFFFFF;}
	.st14{fill:#F6E8D0;}
	.st15{opacity:0.2;fill:#031B23;}
	.st16{opacity:0.4;fill:#031B23;}
	.st17{font-size:66.6182px;}
	.st18{font-size:34.4847px;}
</style>
<g id="Layer_1" class="st0">
	<text transform="matrix(1 0 0 1 237.7027 241.2427)" class="st1"><tspan x="0" y="0" class="st2 st3">Time for</tspan><tspan x="17.5" y="66.8" class="st2 st3">a VOTE</tspan></text>
	<text transform="matrix(1 0 0 1 108.7588 106.1025)" class="st1"><tspan x="0" y="0" class="st2 st4">Grab your</tspan><tspan x="-8.2" y="41.5" class="st2 st4">cellphones</tspan></text>
</g>
<g id="Layer_2">
	<path class="st5" d="M167.5,763.4l-22.8-66.3c-3.6-5.8-18.7,5.1-24.6,2.7l-26.5,44.5l50.5,82.7L167.5,763.4z"/>
	<path class="st5" d="M280.6,498.5c11.1,2.7,17.9,13.9,15.3,25l-35.8,148.1c-2.7,11.1-13.9,17.9-25,15.2l0,0
		c-11.1-2.7-17.9-13.9-15.3-25l35.8-148.1C258.3,502.7,269.5,495.8,280.6,498.5L280.6,498.5z"/>
	<path class="st5" d="M137.4,783.9c-7,28.9,10.8,57.9,39.6,64.9l84.9,20.5c28.8,7,57.9-10.8,64.9-39.6l20.5-84.9
		c7-28.9-10.8-57.9-39.6-64.9l-84.9-20.5c-28.9-7-57.9,10.8-64.9,39.6L137.4,783.9z"/>
	<path class="st5" d="M359.6,606c11.1,2.7,17.5,15.6,14.3,29l-27.5,113.6c-3.2,13.3-14.8,21.9-25.9,19.2l0,0
		c-11.1-2.7-17.5-15.7-14.3-29l27.5-113.6C336.9,612,348.5,603.3,359.6,606L359.6,606z"/>
	<path class="st5" d="M319.3,556.9c11.1,2.7,17.9,13.9,15.3,25L298.8,730c-2.7,11.1-13.9,18-25,15.3l0,0
		c-11.1-2.7-17.9-13.9-15.2-25l35.8-148.1C297.1,561.1,308.2,554.2,319.3,556.9L319.3,556.9z"/>
	<path class="st5" d="M220.9,527c11.1,2.7,17.9,13.9,15.2,25l-33.3,137.9c-2.7,11.1-13.9,17.9-25,15.3l0,0
		c-11.1-2.7-17.9-13.9-15.2-25l33.3-137.9C198.6,531.2,209.8,524.3,220.9,527L220.9,527z"/>
	<g>
		
			<rect x="163.4" y="800" transform="matrix(0.235 -0.972 0.972 0.235 -704.9961 884.1242)" class="st5" width="91.6" height="179.9"/>
		<polygon class="st5" points="255,1111.8 307.4,895 119.4,849.5 56,1111.8 		"/>
		<path class="st5" d="M273.2,941.1c-1.3,5.2-6.5,8.4-11.7,7.2l0,0c-5.2-1.3-8.4-6.5-7.2-11.7l2-8.1c1.3-5.2,6.5-8.4,11.7-7.2l0,0
			c5.2,1.3,8.4,6.5,7.2,11.7L273.2,941.1z"/>
		<path class="st5" d="M262.1,987c-1.3,5.2-6.5,8.4-11.7,7.2l0,0c-5.2-1.3-8.4-6.5-7.2-11.7l2-8.1c1.3-5.2,6.5-8.4,11.7-7.2l0,0
			c5.2,1.3,8.4,6.5,7.2,11.7L262.1,987z"/>
	</g>
	<g>
		<path class="st5" d="M418.8,805.6c0,13.6-11.6,24.7-25.9,24.7l-198.2-0.1c-14.3,0-25.8-11.1-25.8-24.7l0.2-381.5
			c0-13.6,11.6-24.7,25.9-24.7l198.2,0.1c14.3,0,25.8,11.1,25.8,24.7L418.8,805.6z"/>
		<rect x="169" y="440.1" class="st5" width="249.9" height="341.8"/>
		<g>
			<polygon class="st5" points="330.8,440.1 354.6,440.1 168.9,761.7 168.9,725.8 			"/>
			<polygon class="st5" points="369.8,440.1 419,440.1 419,516.7 267.4,781.8 171.1,781.8 			"/>
			<polygon class="st5" points="418.9,554.1 286.3,781.9 339.3,781.9 418.9,645 			"/>
		</g>
		<path class="st5" d="M330.7,809.2c0,4.2-3.4,7.7-7.7,7.7l-58.4,0c-4.2,0-7.7-3.4-7.7-7.7l0,0c0-4.2,3.4-7.7,7.7-7.7l58.4,0
			C327.3,801.5,330.7,804.9,330.7,809.2L330.7,809.2z"/>
		<path class="st5" d="M312.1,418.4c0,1-0.8,1.8-1.8,1.8l-32.6,0c-1,0-1.8-0.8-1.8-1.8l0,0c0-1,0.8-1.8,1.8-1.8l32.6,0
			C311.3,416.6,312.1,417.4,312.1,418.4L312.1,418.4z"/>
		<g>
			<g>
				<path class="st5" d="M239.1,464.4c1.5,0,3,0,4.6,0c2.6,0,4.8-2.2,4.8-4.8c0-2.6-2.2-4.8-4.8-4.8c-1.5,0-3,0-4.6,0
					c-2.6,0-4.8,2.2-4.8,4.8C234.3,462.3,236.5,464.4,239.1,464.4L239.1,464.4z"/>
			</g>
			<g>
				<path class="st5" d="M208,464.4c5.9,0,11.7,0,17.6,0c6.2,0,6.2-9.6,0-9.6c-5.8,0-11.7,0-17.5,0
					C201.8,454.8,201.8,464.4,208,464.4L208,464.4z"/>
			</g>
		</g>
		<g>
			<g>
				<path class="st5" d="M391.4,470.3c1.5,0,3,0,4.6,0c2.6,0,4.8-2.2,4.8-4.8c0-2.6-2.2-4.8-4.8-4.8c-1.5,0-3,0-4.6,0
					c-2.6,0-4.8,2.2-4.8,4.8C386.6,468.1,388.8,470.3,391.4,470.3L391.4,470.3z"/>
			</g>
			<g>
				<path class="st5" d="M360.2,470.2c5.9,0,11.7,0,17.6,0c6.2,0,6.2-9.6,0-9.6c-5.9,0-11.7,0-17.5,0
					C354,460.7,354,470.2,360.2,470.2L360.2,470.2z"/>
			</g>
		</g>
	</g>
	<g>
		<rect x="217" y="633.9" class="st5" width="159.5" height="4.4"/>
		<rect x="217" y="617.3" class="st5" width="159.5" height="4.4"/>
		<rect x="217" y="600.8" class="st5" width="159.5" height="4.4"/>
		<rect x="217" y="584.2" class="st5" width="95" height="4.4"/>
		<path class="st5" d="M360.1,585.8c-2.2-1.2-5.1-2-8.3-2.2v-6.7c4.4,0,8.3,0.3,11.6,0.7C362.6,580.6,361.5,583.4,360.1,585.8z
			 M340.8,540.9c-0.8,0.3-1.6,0.7-2.4,1.1c0.2,0.3,0.5,0.6,0.8,0.9C339.8,542.1,340.3,541.5,340.8,540.9z M364.1,557.5
			c-3.9,0.4-8.2,0.7-12.2,0.7v6.3h13C364.8,562.2,364.5,559.8,364.1,557.5z M364.8,567.6h-13v6.3c4.1,0.1,8.4,0.3,12.2,0.7
			C364.5,572.4,364.8,570,364.8,567.6z M333.7,557.1c-3.3-0.5-6.1-1.2-7.8-2.1c-1.4,3-2.2,6.3-2.4,9.6h9.4
			C333,562,333.2,559.5,333.7,557.1z M337.7,545.3c-0.8-0.6-1.4-1.2-1.9-1.9c-1.6,1-3.1,2.2-4.5,3.6c-1.6,1.6-3,3.4-4.1,5.3
			c1.2,0.7,3.7,1.3,7.1,1.9C335.1,550.9,336.3,548,337.7,545.3z M362,541.4c-0.8-0.4-1.6-0.7-2.4-1c0.5,0.6,1.1,1.2,1.5,1.9
			C361.5,542,361.8,541.7,362,541.4z M367.8,564.6h9.4c-0.2-3.3-1-6.6-2.3-9.6c-1.8,0.9-4.6,1.6-7.8,2.1
			C367.5,559.5,367.8,562,367.8,564.6z M373.6,552.4c-1.1-1.9-2.5-3.7-4.1-5.3c-1.6-1.7-3.5-3.1-5.4-4.2c-0.3,0.6-0.8,1.2-1.4,1.8
			c1.6,2.7,2.9,6,3.8,9.6C369.8,553.7,372.3,553,373.6,552.4z M357.1,542.3c-1.7-1.7-3.4-2.7-5.3-3v6.3c2.7-0.2,4.9-0.9,6.6-1.7
			C358.1,543.3,357.6,542.8,357.1,542.3z M360.2,546.4c-2.2,1.2-5.1,2-8.3,2.2v6.7c4.4,0,8.3-0.3,11.6-0.7
			C362.7,551.5,361.5,548.7,360.2,546.4z M332.9,567.6h-9.4c0.2,3.4,1,6.6,2.4,9.6c1.7-0.9,4.5-1.6,7.8-2.2
			C333.2,572.6,333,570.1,332.9,567.6z M367.1,575c3.3,0.5,6.1,1.2,7.8,2.1c1.3-2.9,2.1-6.1,2.3-9.5h-9.4
			C367.8,570.1,367.5,572.6,367.1,575z M351.9,592.8c2.4-0.5,4.6-2.1,6.6-4.6c-1.7-0.8-3.9-1.5-6.6-1.7V592.8z M337.3,554.6
			c3.3,0.4,7.2,0.6,11.6,0.7v-6.6c-3.3-0.1-6.2-0.7-8.6-1.8C339,549.1,338,551.7,337.3,554.6z M341.9,544.3c1.8,0.7,4.2,1.3,7,1.4
			v-6.3c-1.8,0.4-3.6,1.4-5.3,3C343,542.9,342.5,543.6,341.9,544.3z M359.6,592.1c0.8-0.3,1.6-0.7,2.4-1c-0.2-0.3-0.5-0.6-0.9-0.9
			C360.7,590.9,360.2,591.5,359.6,592.1z M362.6,587.5c0.6,0.5,1,1.1,1.3,1.8c3.9-2.3,7.2-5.6,9.6-9.5c-1.3-0.7-3.7-1.3-7.1-1.8
			C365.5,581.5,364.2,584.8,362.6,587.5z M338.5,590.5c0.8,0.4,1.6,0.7,2.4,1c-0.5-0.6-1-1.2-1.5-1.9
			C339,589.9,338.7,590.2,338.5,590.5z M327.2,579.8c1.1,1.9,2.5,3.7,4.1,5.3c1.4,1.4,2.9,2.6,4.5,3.6c0.5-0.7,1.1-1.4,1.9-2
			c-1.4-2.6-2.6-5.6-3.4-8.8C330.9,578.5,328.5,579.2,327.2,579.8z M335.9,564.6h13v-6.3c-4.1,0-8.4-0.3-12.2-0.7
			C336.2,559.8,336,562.1,335.9,564.6z M343.6,589.8c1.7,1.7,3.4,2.7,5.3,3v-6.3c-2.7,0.1-5.1,0.6-6.9,1.3
			C342.5,588.6,343,589.2,343.6,589.8z M340.3,585.3c2.3-1.1,5.3-1.7,8.6-1.8v-6.6c-4.3,0-8.3,0.3-11.6,0.7
			C338,580.4,339,583,340.3,585.3z M336.6,574.6c3.8-0.5,8.1-0.7,12.2-0.7v-6.3h-13C336,570,336.2,572.4,336.6,574.6z"/>
	</g>
	<g>
		<g>
			<path class="st5" d="M368,548.6c-11.1,5.2-15.8,18.4-10.6,29.5l82.7,175.6c5.2,11.1,18.4,15.8,29.5,10.6l0.4-0.2
				c11.1-5.2,15.8-18.4,10.6-29.5l-82.7-175.6c-5.2-11.1-18.4-15.8-29.5-10.6L368,548.6z"/>
			<path class="st5" d="M444.6,609.9c-11.1,5.2-15.8,18.4-10.6,29.5l45.2,96c5.2,11.1,18.4,15.8,29.5,10.6l0.4-0.2
				c11.1-5.2,15.8-18.4,10.6-29.5l-45.2-96c-5.2-11.1-18.4-15.8-29.5-10.6L444.6,609.9z"/>
			<path class="st5" d="M492,605.4c-11.1,5.2-15.8,18.4-10.6,29.5l35.6,75.7c5.2,11.1,18.4,15.8,29.5,10.6l0.4-0.2
				c11.1-5.2,15.8-18.4,10.6-29.5l-35.7-75.7c-5.2-11.1-18.4-15.8-29.5-10.6L492,605.4z"/>
			<path class="st5" d="M540.9,604c-11.1,5.2-15.8,18.4-10.6,29.5l30.9,65.6c5.2,11.1,18.4,15.8,29.5,10.6l0.4-0.2
				c11.1-5.2,15.8-18.4,10.6-29.5l-30.9-65.6c-5.2-11.1-18.4-15.8-29.5-10.6L540.9,604z"/>
			<path class="st5" d="M519.2,634.9c27.7-13.1,60.8-1.2,73.8,26.6l33.9,72c13.1,27.7,1.2,60.8-26.5,73.8l-60.4,28.4
				c-27.7,13.1-60.8,1.2-73.8-26.6l-33.9-72c-13.1-27.7-1.2-60.8,26.5-73.8L519.2,634.9z"/>
			<g>
				<path class="st5" d="M384,735.2c-5.4-4.2-12.5-4-18.2-1c-0.2-4.7,1.1-9.2,4-13.4c7-10,20.9-12.3,30.9-5.3l109.4,77.8
					c10.1,7,12.5,20.9,5.5,30.9c-7,10.1-21.3,12.2-31.3,5.2l-97.3-71.5h0C392.8,751.6,391.5,741,384,735.2z"/>
				<path class="st5" d="M365.9,734.9c5.7-2.9,12.8-4.5,18.2-0.3c7.5,5.8,8.7,17.6,2.9,22l0,0l-11.8-6.6
					C369.3,746,366.2,741.5,365.9,734.9z"/>
			</g>
			<path class="st5" d="M363.9,577.4c3.9,8.2,13.7,11.8,22,7.9c8.2-3.9,11.8-13.7,7.9-22c-3.9-8.2-13.7-11.8-21.9-7.9
				C363.5,559.4,360,569.2,363.9,577.4z"/>
		</g>
		<g>
			
				<rect x="503.3" y="795.7" transform="matrix(0.8471 -0.5314 0.5314 0.8471 -356.4881 443.8817)" class="st5" width="179.9" height="91.6"/>
			<polygon class="st5" points="620.2,1066.4 501.6,877.5 665.5,774.7 808.9,1003.3 			"/>
			<path class="st5" d="M548.8,910.4c2.9,4.5,8.8,5.9,13.4,3.1l0,0c4.5-2.9,5.9-8.8,3.1-13.4l-4.4-7.1c-2.9-4.5-8.8-5.9-13.4-3.1
				l0,0c-4.5,2.9-5.9,8.8-3.1,13.4L548.8,910.4z"/>
			<path class="st5" d="M573.8,950.3c2.9,4.5,8.8,5.9,13.4,3.1l0,0c4.5-2.9,5.9-8.8,3.1-13.4l-4.4-7.1c-2.9-4.5-8.8-5.9-13.4-3.1
				l0,0c-4.5,2.8-5.9,8.8-3.1,13.4L573.8,950.3z"/>
		</g>
	</g>
	<g>
		<path class="st5" d="M209.1,651.3c-2-2.5-4.5-4.6-7.1-6.2c1.1,9.5-3,20.4-11.7,28.7c-13.2,12.5-31.9,14.2-41.8,3.8
			c-2.4-2.5-4-5.5-5-8.7l-44.9,36c-12.2,9.8-14.4,27.2-5,39c9.4,11.8,27,13.4,39.2,3.6l71.4-57.2C216.3,680.5,218.5,663,209.1,651.3
			z"/>
		<path class="st5" d="M148.5,677.6c9.9,10.4,28.6,8.7,41.8-3.8c8.7-8.3,12.8-19.2,11.7-28.7c-9.6-5.8-22.5-5.1-32.1,2.5l-26.4,21.2
			C144.5,672.1,146.1,675.1,148.5,677.6z"/>
	</g>
	<path class="st6" d="M185.3,763.4l-22.8-66.3c-3.6-5.8-18.7,5.1-24.6,2.7l-26.5,44.5l50.5,82.7L185.3,763.4z"/>
	<path class="st6" d="M298.4,498.5c11.1,2.7,17.9,13.9,15.3,25l-35.8,148.1c-2.7,11.1-13.9,17.9-25,15.2l0,0
		c-11.1-2.7-17.9-13.9-15.3-25l35.8-148.1C276.1,502.7,287.3,495.8,298.4,498.5L298.4,498.5z"/>
	<path class="st6" d="M155.1,783.9c-7,28.9,10.8,57.9,39.6,64.9l84.9,20.5c28.8,7,57.9-10.8,64.9-39.6l20.5-84.9
		c7-28.9-10.8-57.9-39.6-64.9l-84.9-20.5c-28.9-7-57.9,10.8-64.9,39.6L155.1,783.9z"/>
	<path class="st6" d="M377.3,606c11.1,2.7,17.5,15.6,14.3,29l-27.5,113.6c-3.2,13.3-14.8,21.9-25.9,19.2l0,0
		c-11.1-2.7-17.5-15.7-14.3-29l27.5-113.6C354.6,612,366.2,603.3,377.3,606L377.3,606z"/>
	<path class="st6" d="M337.1,556.9c11.1,2.7,17.9,13.9,15.3,25L316.5,730c-2.7,11.1-13.9,18-25,15.3l0,0
		c-11.1-2.7-17.9-13.9-15.2-25l35.8-148.1C314.8,561.1,326,554.2,337.1,556.9L337.1,556.9z"/>
	<path class="st6" d="M238.6,527c11.1,2.7,17.9,13.9,15.2,25l-33.3,137.9c-2.7,11.1-13.9,17.9-25,15.3l0,0
		c-11.1-2.7-17.9-13.9-15.2-25l33.3-137.9C216.3,531.2,227.5,524.3,238.6,527L238.6,527z"/>
	<g>
		
			<rect x="181.1" y="800" transform="matrix(0.235 -0.972 0.972 0.235 -691.4168 901.3766)" class="st7" width="91.6" height="179.9"/>
		<polygon class="st8" points="272.8,1111.8 325.2,895 137.2,849.5 73.8,1111.8 		"/>
		<path class="st7" d="M290.9,941.1c-1.3,5.2-6.5,8.4-11.7,7.2l0,0c-5.2-1.3-8.4-6.5-7.2-11.7l2-8.1c1.3-5.2,6.5-8.4,11.7-7.2l0,0
			c5.2,1.3,8.4,6.5,7.2,11.7L290.9,941.1z"/>
		<path class="st7" d="M279.9,987c-1.3,5.2-6.5,8.4-11.7,7.2l0,0c-5.2-1.3-8.4-6.5-7.2-11.7l2-8.1c1.3-5.2,6.5-8.4,11.7-7.2l0,0
			c5.2,1.3,8.4,6.5,7.2,11.7L279.9,987z"/>
	</g>
	<g>
		<path class="st9" d="M436.6,805.6c0,13.6-11.6,24.7-25.9,24.7l-198.2-0.1c-14.3,0-25.8-11.1-25.8-24.7l0.2-381.5
			c0-13.6,11.6-24.7,25.9-24.7l198.2,0.1c14.3,0,25.8,11.1,25.8,24.7L436.6,805.6z"/>
		<rect x="186.8" y="440.1" class="st10" width="249.9" height="341.8"/>
		<g>
			<polygon class="st11" points="348.6,440.1 372.4,440.1 186.7,761.7 186.7,725.8 			"/>
			<polygon class="st11" points="387.5,440.1 436.8,440.1 436.7,516.7 285.1,781.8 188.8,781.8 			"/>
			<polygon class="st11" points="436.7,554.1 304,781.9 357.1,781.9 436.6,645 			"/>
		</g>
		<path class="st11" d="M348.5,809.2c0,4.2-3.4,7.7-7.7,7.7l-58.4,0c-4.2,0-7.7-3.4-7.7-7.7l0,0c0-4.2,3.4-7.7,7.7-7.7l58.4,0
			C345,801.5,348.5,804.9,348.5,809.2L348.5,809.2z"/>
		<path class="st11" d="M329.9,418.4c0,1-0.8,1.8-1.8,1.8l-32.6,0c-1,0-1.8-0.8-1.8-1.8l0,0c0-1,0.8-1.8,1.8-1.8l32.6,0
			C329.1,416.6,329.9,417.4,329.9,418.4L329.9,418.4z"/>
		<g>
			<g>
				<path class="st11" d="M256.9,464.4c1.5,0,3,0,4.6,0c2.6,0,4.8-2.2,4.8-4.8c0-2.6-2.2-4.8-4.8-4.8c-1.5,0-3,0-4.6,0
					c-2.6,0-4.8,2.2-4.8,4.8C252.1,462.3,254.3,464.4,256.9,464.4L256.9,464.4z"/>
			</g>
			<g>
				<path class="st11" d="M225.7,464.4c5.9,0,11.7,0,17.6,0c6.2,0,6.2-9.6,0-9.6c-5.8,0-11.7,0-17.5,0
					C219.5,454.8,219.5,464.4,225.7,464.4L225.7,464.4z"/>
			</g>
		</g>
		<g>
			<g>
				<path class="st12" d="M409.1,470.3c1.5,0,3,0,4.6,0c2.6,0,4.8-2.2,4.8-4.8c0-2.6-2.2-4.8-4.8-4.8c-1.5,0-3,0-4.6,0
					c-2.6,0-4.8,2.2-4.8,4.8C404.3,468.1,406.5,470.3,409.1,470.3L409.1,470.3z"/>
			</g>
			<g>
				<path class="st12" d="M377.9,470.2c5.9,0,11.7,0,17.6,0c6.2,0,6.2-9.6,0-9.6c-5.9,0-11.7,0-17.6,0
					C371.8,460.7,371.8,470.2,377.9,470.2L377.9,470.2z"/>
			</g>
		</g>
	</g>
	<g>
		<rect x="234.7" y="633.9" class="st7" width="159.5" height="4.4"/>
		<rect x="234.7" y="617.3" class="st7" width="159.5" height="4.4"/>
		<rect x="234.7" y="600.8" class="st7" width="159.5" height="4.4"/>
		<rect x="234.7" y="584.2" class="st7" width="95" height="4.4"/>
		<g class="st0">
			<polygon class="st13" points="239.6,550.5 246.2,571.7 251.7,571.7 251.7,542.5 246.9,542.5 246.9,560 241.5,542.5 234.7,542.5 
				234.7,571.7 239.6,571.7 			"/>
			<polygon class="st13" points="272.5,567.5 263.3,567.5 263.3,559 270.6,559 270.6,554.8 263.3,554.8 263.3,546.6 272.5,546.6 
				272.5,542.5 257.9,542.5 257.9,571.7 272.5,571.7 			"/>
			<polygon class="st13" points="288.1,571.7 290.1,556.1 292,571.7 299.1,571.7 302.9,542.5 298.2,542.5 295.5,565.7 292.8,542.5 
				287.6,542.5 285.1,565.5 282.2,542.5 277,542.5 280.8,571.7 			"/>
			<path class="st13" d="M315.1,572c5.2,0,7.9-2.7,7.9-7.3c0-8.4-10.4-9.5-10.4-15.5c0-2.1,1-2.9,2.7-2.9c1.7,0,2.7,0.8,2.7,2.9v1.2
				h5v-0.9c0-4.7-2.7-7.3-7.8-7.3c-5.2,0-7.9,2.7-7.9,7.3c0,8.4,10.4,9.5,10.4,15.5c0,2.1-1.1,2.9-2.8,2.9c-1.7,0-2.8-0.8-2.8-2.9
				v-2.1h-5v1.8C307.1,569.4,309.9,572,315.1,572z"/>
		</g>
		<path class="st7" d="M377.9,585.8c-2.2-1.2-5.1-2-8.3-2.2v-6.7c4.4,0,8.3,0.3,11.6,0.7C380.4,580.6,379.2,583.4,377.9,585.8z
			 M358.6,540.9c-0.8,0.3-1.6,0.7-2.4,1.1c0.2,0.3,0.5,0.6,0.8,0.9C357.6,542.1,358.1,541.5,358.6,540.9z M381.9,557.5
			c-3.9,0.4-8.2,0.7-12.2,0.7v6.3h13C382.5,562.2,382.3,559.8,381.9,557.5z M382.6,567.6h-13v6.3c4.1,0.1,8.4,0.3,12.2,0.7
			C382.2,572.4,382.5,570,382.6,567.6z M351.4,557.1c-3.3-0.5-6.1-1.2-7.8-2.1c-1.4,3-2.2,6.3-2.4,9.6h9.4
			C350.7,562,351,559.5,351.4,557.1z M355.4,545.3c-0.8-0.6-1.4-1.2-1.9-1.9c-1.6,1-3.1,2.2-4.5,3.6c-1.6,1.6-3,3.4-4.1,5.3
			c1.2,0.7,3.7,1.3,7.1,1.9C352.9,550.9,354,548,355.4,545.3z M379.8,541.4c-0.8-0.4-1.6-0.7-2.4-1c0.5,0.6,1.1,1.2,1.5,1.9
			C379.2,542,379.5,541.7,379.8,541.4z M385.6,564.6h9.4c-0.2-3.3-1-6.6-2.3-9.6c-1.8,0.9-4.6,1.6-7.8,2.1
			C385.2,559.5,385.5,562,385.6,564.6z M391.3,552.4c-1.1-1.9-2.5-3.7-4.1-5.3c-1.6-1.7-3.5-3.1-5.4-4.2c-0.3,0.6-0.8,1.2-1.4,1.8
			c1.6,2.7,2.9,6,3.8,9.6C387.6,553.7,390,553,391.3,552.4z M374.9,542.3c-1.7-1.7-3.4-2.7-5.3-3v6.3c2.7-0.2,4.9-0.9,6.6-1.7
			C375.8,543.3,375.4,542.8,374.9,542.3z M377.9,546.4c-2.2,1.2-5.1,2-8.3,2.2v6.7c4.4,0,8.3-0.3,11.6-0.7
			C380.4,551.5,379.3,548.7,377.9,546.4z M350.7,567.6h-9.4c0.2,3.4,1,6.6,2.4,9.6c1.7-0.9,4.5-1.6,7.8-2.2
			C351,572.6,350.7,570.1,350.7,567.6z M384.8,575c3.3,0.5,6.1,1.2,7.8,2.1c1.3-2.9,2.1-6.1,2.3-9.5h-9.4
			C385.5,570.1,385.2,572.6,384.8,575z M369.6,592.8c2.4-0.5,4.6-2.1,6.6-4.6c-1.7-0.8-3.9-1.5-6.6-1.7V592.8z M355,554.6
			c3.3,0.4,7.2,0.6,11.6,0.7v-6.6c-3.3-0.1-6.2-0.7-8.6-1.8C356.8,549.1,355.8,551.7,355,554.6z M359.7,544.3c1.8,0.7,4.2,1.3,7,1.4
			v-6.3c-1.8,0.4-3.6,1.4-5.3,3C360.8,542.9,360.2,543.6,359.7,544.3z M377.4,592.1c0.8-0.3,1.6-0.7,2.4-1c-0.2-0.3-0.5-0.6-0.9-0.9
			C378.4,590.9,377.9,591.5,377.4,592.1z M380.4,587.5c0.6,0.5,1,1.1,1.3,1.8c3.9-2.3,7.2-5.6,9.6-9.5c-1.3-0.7-3.7-1.3-7.1-1.8
			C383.3,581.5,382,584.8,380.4,587.5z M356.2,590.5c0.8,0.4,1.6,0.7,2.4,1c-0.5-0.6-1-1.2-1.5-1.9
			C356.7,589.9,356.4,590.2,356.2,590.5z M345,579.8c1.1,1.9,2.5,3.7,4.1,5.3c1.4,1.4,2.9,2.6,4.5,3.6c0.5-0.7,1.1-1.4,1.9-2
			c-1.4-2.6-2.6-5.6-3.4-8.8C348.7,578.5,346.2,579.2,345,579.8z M353.7,564.6h13v-6.3c-4.1,0-8.4-0.3-12.2-0.7
			C354,559.8,353.7,562.1,353.7,564.6z M361.4,589.8c1.7,1.7,3.4,2.7,5.3,3v-6.3c-2.7,0.1-5.1,0.6-6.9,1.3
			C360.2,588.6,360.8,589.2,361.4,589.8z M358,585.3c2.3-1.1,5.3-1.7,8.6-1.8v-6.6c-4.3,0-8.3,0.3-11.6,0.7
			C355.8,580.4,356.8,583,358,585.3z M354.4,574.6c3.8-0.5,8.1-0.7,12.2-0.7v-6.3h-13C353.7,570,354,572.4,354.4,574.6z"/>
	</g>
	<g>
		<g>
			<path class="st6" d="M385.7,548.6c-11.1,5.2-15.8,18.4-10.6,29.5l82.7,175.6c5.2,11.1,18.4,15.8,29.5,10.6l0.4-0.2
				c11.1-5.2,15.8-18.4,10.6-29.5l-82.7-175.6c-5.2-11.1-18.4-15.8-29.5-10.6L385.7,548.6z"/>
			<path class="st6" d="M462.3,609.9c-11.1,5.2-15.8,18.4-10.6,29.5l45.2,96c5.2,11.1,18.4,15.8,29.5,10.6l0.4-0.2
				c11.1-5.2,15.8-18.4,10.6-29.5l-45.2-96c-5.2-11.1-18.4-15.8-29.5-10.6L462.3,609.9z"/>
			<path class="st6" d="M509.8,605.4c-11.1,5.2-15.8,18.4-10.6,29.5l35.6,75.7c5.2,11.1,18.4,15.8,29.5,10.6l0.4-0.2
				c11.1-5.2,15.8-18.4,10.6-29.5l-35.7-75.7c-5.2-11.1-18.4-15.8-29.5-10.6L509.8,605.4z"/>
			<path class="st6" d="M558.6,604c-11.1,5.2-15.8,18.4-10.6,29.5l30.9,65.6c5.2,11.1,18.4,15.8,29.5,10.6l0.4-0.2
				c11.1-5.2,15.8-18.4,10.6-29.5l-30.9-65.6c-5.2-11.1-18.4-15.8-29.5-10.6L558.6,604z"/>
			<path class="st6" d="M536.9,634.9c27.7-13.1,60.8-1.2,73.8,26.6l33.9,72c13.1,27.7,1.2,60.8-26.5,73.8l-60.4,28.4
				c-27.7,13.1-60.8,1.2-73.8-26.6l-33.9-72c-13.1-27.7-1.2-60.8,26.5-73.8L536.9,634.9z"/>
			<g>
				<path class="st6" d="M401.8,735.2c-5.4-4.2-12.5-4-18.2-1c-0.2-4.7,1.1-9.2,4-13.4c7-10,20.9-12.3,30.9-5.3l109.4,77.8
					c10.1,7,12.5,20.9,5.5,30.9c-7,10.1-21.3,12.2-31.3,5.2l-97.3-71.5h0C410.5,751.6,409.3,741,401.8,735.2z"/>
				<path class="st14" d="M383.6,734.9c5.7-2.9,12.8-4.5,18.2-0.3c7.5,5.8,8.7,17.6,2.9,22l0,0l-11.8-6.6
					C387,746,383.9,741.5,383.6,734.9z"/>
			</g>
			<path class="st14" d="M381.6,577.4c3.9,8.2,13.7,11.8,22,7.9c8.2-3.9,11.8-13.7,7.9-22c-3.9-8.2-13.7-11.8-21.9-7.9
				C381.3,559.4,377.7,569.2,381.6,577.4z"/>
		</g>
		<g>
			
				<rect x="521" y="795.7" transform="matrix(0.8471 -0.5314 0.5314 0.8471 -353.7745 453.3145)" class="st7" width="179.9" height="91.6"/>
			<polygon class="st8" points="637.9,1066.4 519.4,877.5 683.2,774.7 826.6,1003.3 			"/>
			<path class="st7" d="M566.5,910.4c2.9,4.5,8.8,5.9,13.4,3.1l0,0c4.5-2.9,5.9-8.8,3.1-13.4l-4.4-7.1c-2.9-4.5-8.8-5.9-13.4-3.1
				l0,0c-4.5,2.9-5.9,8.8-3.1,13.4L566.5,910.4z"/>
			<path class="st7" d="M591.6,950.3c2.9,4.5,8.8,5.9,13.4,3.1l0,0c4.5-2.9,5.9-8.8,3.1-13.4l-4.4-7.1c-2.9-4.5-8.8-5.9-13.4-3.1
				l0,0c-4.5,2.8-5.9,8.8-3.1,13.4L591.6,950.3z"/>
		</g>
	</g>
	<g>
		<path class="st6" d="M226.9,651.3c-2-2.5-4.5-4.6-7.1-6.2c1.1,9.5-3,20.4-11.7,28.7c-13.2,12.5-31.9,14.2-41.8,3.8
			c-2.4-2.5-4-5.5-5-8.7l-44.9,36c-12.2,9.8-14.4,27.2-5,39c9.4,11.8,27,13.4,39.2,3.6l71.4-57.2C234.1,680.5,236.3,663,226.9,651.3
			z"/>
		<path class="st14" d="M166.2,677.6c9.9,10.4,28.6,8.7,41.8-3.8c8.7-8.3,12.8-19.2,11.7-28.7c-9.6-5.8-22.5-5.1-32.1,2.5
			l-26.4,21.2C162.2,672.1,163.9,675.1,166.2,677.6z"/>
	</g>
	<g>
		<g>
			<g>
				<path class="st7" d="M41.9,91.4l0.8,0.5c1-1.7,2.1-3.2,3.4-4.7l-0.7-0.6C44.1,88,42.9,89.7,41.9,91.4z"/>
				<path class="st7" d="M38,102.6l0.9,0.1c0.2-1.9,0.7-3.8,1.3-5.7l-0.9-0.3C38.7,98.7,38.3,100.7,38,102.6z"/>
			</g>
			<g>
				<path class="st7" d="M36.3,112.5l-0.3-0.9c0.7-0.2,1.5-0.4,2.2-0.6c-0.1-0.8-0.2-1.6-0.3-2.3l0.9-0.1c0.1,0.9,0.2,1.8,0.4,2.7
					l0.1,0.4l-0.4,0.1C38,112,37.1,112.2,36.3,112.5z"/>
			</g>
			<g>
				<path class="st7" d="M44.7,178.6c-1.8-0.1-3.5-0.3-5.3-0.7l0.2-0.9c1.7,0.3,3.4,0.6,5.1,0.7L44.7,178.6z M50,178.5l-0.1-0.9
					c1.7-0.2,3.4-0.5,5.1-0.9l0.2,0.9C53.5,178,51.7,178.3,50,178.5z M34.4,176.4c-1.6-0.6-3.3-1.4-4.8-2.2l0.4-0.8
					c1.5,0.8,3.1,1.6,4.7,2.2L34.4,176.4z M25.2,171.2c-1.4-1.1-2.7-2.3-3.9-3.6l0.7-0.6c1.2,1.3,2.4,2.4,3.8,3.5L25.2,171.2z
					 M18,163.5c-1-1.5-1.9-3-2.6-4.6l0.8-0.4c0.7,1.6,1.6,3.1,2.5,4.5L18,163.5z M13.5,153.9c-0.5-1.7-0.9-3.4-1.1-5.2l0.9-0.1
					c0.2,1.7,0.6,3.4,1.1,5L13.5,153.9z M13,143.5l-0.9,0c0-1.8,0.2-3.5,0.5-5.3l0.9,0.2C13.3,140,13.1,141.7,13,143.5z M14.9,133.3
					L14,133c0.6-1.7,1.3-3.3,2.1-4.9l0.8,0.4C16.1,130.1,15.4,131.7,14.9,133.3z M19.7,124.3l-0.7-0.5c1.1-1.4,2.2-2.7,3.5-4
					l0.6,0.6C21.9,121.6,20.7,122.9,19.7,124.3z M27.1,117.1l-0.5-0.7c1.4-1,3-1.9,4.5-2.7l0.4,0.8C30,115.2,28.5,116.1,27.1,117.1z
					"/>
			</g>
			<g>
				<path class="st7" d="M62.7,176.9c-0.2-0.7-0.3-1.4-0.5-2.1c-0.6,0.3-1.3,0.6-1.9,0.9l-0.4-0.8c0.8-0.4,1.6-0.8,2.4-1.2l0.6-0.3
					l0.1,0.6c0.1,0.9,0.3,1.8,0.6,2.6L62.7,176.9z"/>
			</g>
			<g>
				<path class="st7" d="M70.7,190.3c1.3,1.2,2.7,2.3,4.2,3.2l0.5-0.8c-1.4-0.9-2.8-2-4-3.1L70.7,190.3z"/>
				<path class="st7" d="M90,197.1h-0.2l0,0.9H90c1.7,0,3.4-0.2,5.1-0.5l-0.2-0.9C93.3,196.9,91.7,197.1,90,197.1z"/>
				<path class="st7" d="M64.5,181.9c0.8,1.6,1.7,3.1,2.7,4.5l0.7-0.5c-1-1.4-1.9-2.8-2.6-4.4L64.5,181.9z"/>
				<path class="st7" d="M79.5,196c1.6,0.7,3.3,1.2,5.1,1.5l0.2-0.9c-1.7-0.3-3.3-0.8-4.9-1.4L79.5,196z"/>
			</g>
		</g>
		<g>
			<path class="st7" d="M429.2,367.8c-1.6-0.9-3.1-1.9-4.5-3l-0.5,0.7c1.5,1.1,3,2.1,4.6,3L429.2,367.8z"/>
			<path class="st7" d="M512.5,351.2l0.3,0.9c1.7-0.6,3.4-1.4,5-2.2l-0.4-0.8C515.9,349.9,514.2,350.6,512.5,351.2z"/>
			<path class="st7" d="M522.1,346.4l0.5,0.8c1.5-1,3-2.1,4.4-3.3l-0.6-0.7C525.1,344.3,523.6,345.4,522.1,346.4z"/>
			<path class="st7" d="M484.8,352.3l-0.2,0.3c-0.7,1.3-1.6,2.6-2.5,3.8l0.7,0.5c0.8-1.1,1.6-2.3,2.3-3.5c0.2,0,0.4,0.1,0.5,0.1
				l0.2-0.9c-0.3-0.1-0.6-0.1-0.9-0.2L484.8,352.3z"/>
			<path class="st7" d="M530.3,339.4l0.7,0.6c1.2-1.3,2.4-2.8,3.5-4.3l-0.7-0.5C532.7,336.6,531.5,338,530.3,339.4z"/>
			<path class="st7" d="M474.7,364.1l0.6,0.7c1.4-1.1,2.8-2.4,4.1-3.7l-0.7-0.6C477.5,361.8,476.1,363,474.7,364.1z"/>
			<path class="st7" d="M502.1,353.7l0.1,0.9c1.8-0.2,3.6-0.5,5.4-0.9l-0.2-0.9C505.6,353.2,503.9,353.5,502.1,353.7z"/>
			<path class="st7" d="M491.2,354.5c1.8,0.2,3.7,0.3,5.5,0.4l0-0.9c-1.8,0-3.6-0.1-5.4-0.3L491.2,354.5z"/>
			<path class="st7" d="M562.5,277.7l0.8,0.4c0.7-1.7,1.3-3.5,1.7-5.2l-0.9-0.2C563.8,274.3,563.2,276.1,562.5,277.7z"/>
			<path class="st7" d="M564,254.7c-0.6-1.7-1.4-3.4-2.3-5l-0.8,0.4c0.9,1.6,1.6,3.2,2.2,4.9L564,254.7z"/>
			<path class="st7" d="M556.7,286.7l0.7,0.6c1.2-1.4,2.4-2.8,3.4-4.4l-0.8-0.5C559.1,283.9,558,285.4,556.7,286.7z"/>
			<path class="st7" d="M558.6,245.1c-1.2-1.4-2.5-2.8-3.8-4l-0.6,0.7c1.3,1.2,2.6,2.5,3.7,3.8L558.6,245.1z"/>
			<path class="st7" d="M548.3,293.2l0.4,0.8c1.6-0.9,3.2-1.9,4.6-3l-0.6-0.7C551.4,291.4,549.9,292.4,548.3,293.2z"/>
			<path class="st7" d="M536.6,330.6l0.8,0.4c0.9-1.6,1.7-3.3,2.4-4.9l-0.8-0.3C538.3,327.5,537.5,329.1,536.6,330.6z"/>
			<path class="st7" d="M565.4,260l-0.9,0.2c0.3,1.8,0.5,3.5,0.5,5.3c0,0.6,0,1.2-0.1,1.8l0.9,0.1c0-0.6,0.1-1.2,0.1-1.8
				C565.9,263.7,565.7,261.8,565.4,260z"/>
			<path class="st7" d="M540.7,320.7l0.9,0.2c0.5-1.8,0.9-3.6,1.1-5.4l-0.9-0.1C541.5,317.2,541.2,319,540.7,320.7z"/>
			<path class="st7" d="M545.1,236.1l-0.1,0.2c1.7,0.6,3.3,1.4,4.8,2.4l0.5-0.8c-1.4-0.9-3-1.6-4.5-2.3
				C545.6,235.8,545.4,236,545.1,236.1z"/>
			<path class="st7" d="M541,295.9l-0.5,0.1l0.1,0.5c0.3,0.9,0.5,1.9,0.7,2.8l0.9-0.2c-0.2-0.8-0.4-1.6-0.6-2.5
				c0.7-0.2,1.3-0.4,2-0.6l-0.3-0.9C542.6,295.5,541.8,295.8,541,295.9z"/>
			<path class="st7" d="M542.1,304.7c0.1,1.3,0.2,2.6,0.2,3.9c0,0.5,0,1,0,1.5l0.9,0c0-0.5,0-1,0-1.5c0-1.3-0.1-2.7-0.2-4
				L542.1,304.7z"/>
			<path class="st7" d="M465.5,369.7l0.4,0.8c1.7-0.7,3.3-1.6,4.9-2.5l-0.5-0.8C468.8,368.1,467.2,369,465.5,369.7z"/>
			<path class="st7" d="M449.3,373c-1.6,0-3.2-0.1-4.8-0.3l-0.1,0.9c1.6,0.2,3.3,0.3,4.9,0.3l0.6,0l0-0.9L449.3,373z"/>
			<path class="st7" d="M455.2,372.6l0.1,0.9c1.8-0.3,3.6-0.7,5.4-1.2l-0.2-0.9C458.8,372,457,372.4,455.2,372.6z"/>
			<path class="st7" d="M433.7,370.9c1.7,0.7,3.5,1.3,5.2,1.7l0.2-0.9c-1.7-0.4-3.5-1-5.1-1.7L433.7,370.9z"/>
		</g>
	</g>
	<g>
		<path class="st15" d="M303.4,130.4c0-14.9-12.1-26.9-26.9-26.9c-2.6,0-5.1,0.4-7.4,1c3-5.5,4.7-11.9,4.7-18.6
			c0-21.5-17.5-39-39-39c-10.9,0-20.7,4.4-27.8,11.6c-3.4-5.9-9.7-9.8-17-9.8c-5.9,0-11.2,2.6-14.9,6.8c-5.1-13-17.8-22.2-32.6-22.2
			c-19.4,0-35.1,15.7-35.1,35.1c0,1.5,0.1,3,0.3,4.5c-2.6-0.8-5.3-1.2-8.2-1.2c-15.9,0-28.7,12.9-28.7,28.7c0,1.8,0.2,3.5,0.5,5.1
			c-15,3.5-26.2,16.9-26.2,33c0,18.7,15.2,33.9,33.9,33.9c5.8,0,11.3-1.5,16.1-4.1c2.1,13.3,13.6,23.4,27.5,23.4
			c8.2,0,15.6-3.6,20.7-9.2c5.3,9.8,15.7,16.5,27.7,16.5c6.5,0,12.5-2,17.5-5.3c7.2,6.7,16.9,10.8,27.5,10.8
			c11.5,0,21.9-4.8,29.2-12.5c5.2,4.4,11.9,7,19.2,7c16.4,0,29.6-13.3,29.6-29.6c0-5.7-1.6-11-4.4-15.5
			C297.8,149.3,303.4,140.5,303.4,130.4z"/>
		<path class="st7" d="M303.8,123.5c0-14.9-12.1-26.9-26.9-26.9c-2.6,0-5.1,0.4-7.4,1c3-5.5,4.7-11.9,4.7-18.6c0-21.5-17.5-39-39-39
			c-10.9,0-20.7,4.4-27.8,11.6c-3.4-5.9-9.7-9.8-17-9.8c-5.9,0-11.2,2.6-14.9,6.8c-5.1-13-17.8-22.2-32.6-22.2
			c-19.4,0-35.1,15.7-35.1,35.1c0,1.5,0.1,3,0.3,4.5c-2.6-0.8-5.3-1.2-8.2-1.2c-15.9,0-28.7,12.9-28.7,28.7c0,1.8,0.2,3.5,0.5,5.1
			c-15,3.5-26.2,16.9-26.2,33c0,18.7,15.2,33.9,33.9,33.9c5.8,0,11.3-1.5,16.1-4.1c2.1,13.3,13.6,23.4,27.5,23.4
			c8.2,0,15.6-3.6,20.7-9.2c5.3,9.8,15.7,16.5,27.7,16.5c6.5,0,12.5-2,17.5-5.3c7.2,6.7,16.9,10.8,27.5,10.8
			c11.5,0,21.9-4.8,29.2-12.5c5.2,4.4,11.9,7,19.2,7c16.4,0,29.6-13.3,29.6-29.6c0-5.7-1.6-11-4.4-15.5
			C298.2,142.4,303.8,133.6,303.8,123.5z"/>
	</g>
	<g>
		<g>
			<path class="st16" d="M284.5,424.3C284.5,424.3,284.5,424.4,284.5,424.3C284.5,424.4,284.5,424.4,284.5,424.3z"/>
			<path class="st16" d="M549.5,244.9c0-17.5-14.2-31.8-31.8-31.8c-0.7,0-1.4,0-2.1,0.1c-3.8-22.2-23.2-39.1-46.4-39.1
				c-9.3,0-17.9,2.7-25.2,7.3c-5.3-7.7-14.2-12.8-24.3-12.8c-8.5,0-16.2,3.6-21.6,9.4c-6.1-13.3-19.5-22.6-35.1-22.6
				c-15.4,0-28.7,9.1-34.9,22.1c-3.4-1.4-7.1-2.2-10.9-2.2c-8.3,0-15.7,3.5-20.9,9.1c-8.1-9.6-20.2-15.6-33.7-15.6
				c-20.1,0-37,13.4-42.4,31.7c-30.5,2.8-54.4,28.4-54.4,59.6c0,26.6,17.3,49.1,41.2,56.9c4.6,26.5,27.8,46.7,55.6,46.7
				c6.6,0,13-1.2,18.9-3.3c1.4,27.7,3.1,62,3,63.6c0.3-1.7,19.5-37.1,34.7-65c2.8,1.1,5.8,1.8,8.9,1.8c7.8,0,14.7-3.8,19-9.6
				c6.5,3,13.7,4.7,21.4,4.7c14.1,0,26.8-5.7,36.1-14.9c7.4,7.2,17.6,11.7,28.8,11.7c15.3,0,28.6-8.3,35.7-20.6
				c3.8,1,7.8,1.6,11.9,1.6c25.3,0,45.8-20.5,45.8-45.8c0-4.2-0.6-8.3-1.7-12.2C539.2,272.4,549.5,259.9,549.5,244.9z M318.4,315.8
				c0,0,0,0.1,0,0.1c0,0,0,0-0.1,0C318.4,315.9,318.4,315.9,318.4,315.8z"/>
		</g>
		<path class="st7" d="M550.3,235.7c0-17.5-14.2-31.8-31.8-31.8c-0.7,0-1.4,0-2.1,0.1c-3.8-22.2-23.2-39.1-46.4-39.1
			c-9.3,0-17.9,2.7-25.2,7.3c-5.3-7.7-14.2-12.8-24.3-12.8c-8.5,0-16.2,3.6-21.6,9.4c-6.1-13.3-19.5-22.6-35.1-22.6
			c-15.4,0-28.7,9.1-34.9,22.1c-3.4-1.4-7.1-2.2-10.9-2.2c-8.3,0-15.7,3.5-20.9,9.1c-8.1-9.6-20.2-15.6-33.7-15.6
			c-20.1,0-37,13.4-42.4,31.7c-30.5,2.8-54.4,28.4-54.4,59.6c0,26.6,17.3,49.1,41.2,56.9c4.6,26.5,27.8,46.7,55.6,46.7
			c17.2,0,32.6-7.7,42.9-19.8c2.9,9.8,11.9,16.9,22.6,16.9c7.8,0,14.7-3.8,19-9.7c6.5,3,13.7,4.7,21.4,4.7
			c14.1,0,26.8-5.7,36.1-14.9c7.4,7.2,17.6,11.7,28.8,11.7c15.3,0,28.6-8.3,35.7-20.6c3.8,1,7.8,1.6,11.9,1.6
			c25.3,0,45.8-20.5,45.8-45.8c0-4.2-0.6-8.3-1.7-12.2C539.9,263.2,550.3,250.7,550.3,235.7z M319.2,306.6c0,0,0,0.1,0,0.1
			c0,0,0,0-0.1,0C319.2,306.7,319.2,306.6,319.2,306.6z"/>
		<path class="st7" d="M288,325.8c0,0,5.1,100.1,4.8,98.6c-0.3-1.5,53.1-98.6,53.1-98.6H288z"/>
	</g>
	<text transform="matrix(1 0 0 1 215.6709 243.0625)"><tspan x="0" y="0" class="st2 st17">Time for</tspan><tspan x="17.5" y="66.6" class="st2 st17">a VOTE</tspan></text>
	<text transform="matrix(1 0 0 1 87.0484 108.2593)"><tspan x="0" y="0" class="st2 st18">Grab your</tspan><tspan x="-8.2" y="41.4" class="st2 st18">cellphones</tspan></text>
</g>
</svg>
