<svg xmlns="http://www.w3.org/2000/svg" viewBox="0 0 759 954"><defs><style>.cls-1{fill:#3e0d4b;}.cls-2{fill:#fefefe;}.cls-3{fill:#ececec;}.cls-4{fill:#c9976f;}.cls-5{fill:#1f0429;}.cls-6{fill:#050306;}.cls-7{fill:#925044;}.cls-8{fill:#ae6e5f;}.cls-9{fill:#c39e8c;}.cls-10{fill:#0c0606;}.cls-11{fill:#27002b;stroke:#b3b3b3;stroke-miterlimit:10;stroke-width:6px;}</style></defs><title>prince</title><g id="Layer_1" data-name="Layer 1"><path class="cls-1" d="M149.9,952.16c11.14-19.6,25.19-37.23,38-55.68q34-48.91,68.63-97.43a24.15,24.15,0,0,0,4.55-14.94c-.1-41.11.13-82.21.26-123.32.86-2.83,1.54-5.5-3.08-3.42-2.13,3.26-2.16,7-2.18,10.64q-.18,24.56,0,49.12c0,3.34.1,6.7,1.77,9.74,1,18.67,0,37.35.37,56,.08-3.23,0-6.46,0-9.69,0-14.5,0-29,0-43.48-1.63-6.7-7.36-4.73-11.55-5-20.54-1.33-35.32-11.17-45.2-29.07a37,37,0,0,1-4.27-21.38c.78-9.84-2.46-17.32-10.35-23.61a55.56,55.56,0,0,1-17.38-24.29c-1-2.62-1.14-6.22-5.23-6.46-.5,4.67-4.69,5.29-7.82,7-20.69,11.18-42.68,19.5-64.08,29.13-27.08,12.2-54,24.71-81.13,36.84C6.53,695,6,696.65,8.79,701c13.4,21.1,27.22,42,39.34,63.82,8,14.36,16.74,28.21,25,42.36,16.61,28.5,34.11,56.5,51.72,84.4,8.2,13,14.64,27.13,24.67,39,3.27,3.86,3.51,8.06.61,12-2.21,3-2.3,6.21-2.24,9.58Z"/><path class="cls-1" d="M165.94,616c.6-10.66-1.28-21.54,3.61-31.82,1.64-3.44.29-6.59-2.45-10-9.39-11.47-12.75-24.12-5.19-38.19,1.88-3.5,3.73-7.75-.75-10.86-15.83-11-27-25.8-35.54-42.84.2,4.16-.59,7.71-3.79,11C100.05,515.62,78,537.66,57,560.66c-13.76,15.06-29.52,28.28-41.52,44.94-1.32,1.83-3.92,3.27-2,6,1.52,2.17,3.65.56,5.55.57,44.83.16,89.66-1.09,134.49.54C158.08,612.88,162,614.3,165.94,616Z"/><path class="cls-2" d="M613.27,952.16H501.9c-3.26-3.63-2.88-8.14-2.84-12.48.36-40.76-.88-81.53.65-122.28.13-3.62.57-7.41-2.08-11.74-31.92,32.91-70,52-116.31,52.14S298,837.25,265.77,803.88c.08,22,.05,43,.05,64,0,23.58,0,47.17,0,70.75,0,4.66.66,9.54-2.84,13.49H151.57c-2-5.34,1.66-8.83,4.24-12.56,32-46.26,64.59-92.07,97.25-137.84a36.21,36.21,0,0,0,7.26-22.43c-.29-35,0-70.05,0-105.07,0-4.34-.65-8.8,1.52-12.89,4.84-3.15,6.62,1.28,8.51,3.9,14,19.38,30.08,37.14,43.73,56.82,19.73,28.44,48.74,32.7,80.61,30.57,27.77-1.85,46.95-15.76,61.75-38.2,11.51-17.43,26-32.66,38.56-49.32,1.73-2.3,3.26-6.53,7.82-4,2.51,4,1.75,8.5,1.76,12.82.06,35.4.17,70.8-.07,106.2a33.18,33.18,0,0,0,6.59,20.61c31.65,44.08,62.69,88.6,93.78,133.08C608.66,939.24,614.68,944.14,613.27,952.16Z"/><path class="cls-1" d="M613.27,952.16c-11.14-19.6-25.19-37.23-38-55.68q-34-48.91-68.62-97.43a24.09,24.09,0,0,1-4.55-14.94c.09-41.11-.14-82.21-.27-123.32-.85-2.83-1.53-5.5,3.08-3.42,2.13,3.26,2.16,7,2.19,10.64q.17,24.56,0,49.12c0,3.34-.1,6.7-1.77,9.74-1,18.67,0,37.35-.37,56-.08-3.23,0-6.46,0-9.69q0-21.75,0-43.48c1.62-6.7,7.35-4.73,11.55-5,20.54-1.33,35.31-11.17,45.2-29.07A37,37,0,0,0,566,674.27c-.77-9.84,2.46-17.32,10.35-23.61a55.56,55.56,0,0,0,17.38-24.29c1-2.62,1.14-6.22,5.23-6.46.51,4.67,4.69,5.29,7.82,7,20.69,11.18,42.69,19.5,64.08,29.13,27.08,12.2,54,24.71,81.14,36.84,4.67,2.09,5.19,3.79,2.42,8.16-13.4,21.1-27.23,42-39.35,63.82-8,14.36-16.73,28.21-25,42.36-16.61,28.5-34.11,56.5-51.72,84.4-8.21,13-14.65,27.13-24.68,39-3.27,3.86-3.51,8.06-.61,12,2.21,3,2.31,6.21,2.25,9.58Z"/><path class="cls-3" d="M263,952.16V796.06c32.21,36.63,70,58.85,118.26,58.84,48.11,0,86.86-20.62,120.69-58.61V952.16Z"/><path d="M504.29,727.18l-.62-70.55c-1.43-4,.88-7.22,2.71-10.35a394,394,0,0,0,49.18-138.35c1.3-8.15,5-13.19,12.58-16.68,13-5.93,19.49-18,17.57-30.06-1.26-7.89-4.65-13.28-13.84-12.65-3.67.25-7.45.27-10.91-1.48-3.93-2.83-4.27-7.38-5.57-11.5-9.25-29.24-28.82-47.79-58.32-55.84-4.37-1.19-8.37-2.46-10.65-6.74-2.37-8.25-1.19-16.57-.81-24.38-28.34,3-54.59-2.92-77.24-21.36-6.07-4.94-8.41-5.42-11.15,3-8.05,24.7-23,44.7-44.07,60-4.93,2.64-9,7.47-15.54,6-8.72-5.65-17.05-11.77-27.26-15-11.88-3.73-23.73-3.77-35.8-2.3-38.32,4.74-67.25,37.94-67.83,76.85-.24,16.05,3,30.77,12.29,43.79,4.5,6.31,3.28,13.55,5.05,20.26a38.76,38.76,0,0,0,4.33,11c9,15.63,22.56,22.51,40.42,21.11,3-.23,6.76-1.58,8.25,1.72,1.6,3.55-1.38,6.29-4,8.52-14,12-29.87,14.75-48.71,8.28,4.28,13.68,8.76,26.14,14.57,38.05,6.5,13.34,12.65,26.87,20.19,39.68,1.51,2.56,3.45,5.13,2.07,8.44-.13,21.51-.34,43-.31,64.52,0,4.79-.69,6.41-6.52,6.32-26-.42-44.91-11.11-55.84-35.3-3.89-8.61-5.32-17.33-3.68-26.43.77-4.23,0-7.06-3.45-9.52-13.26-9.5-21.93-22.09-25.27-38.18a6,6,0,0,1-2.8-3.35,14.85,14.85,0,0,1-1.13-4.35c.83-8.32.83-16.76,3.73-24.79,1.49-4.1.47-7.83-2.12-11.34C155.5,563,152.33,551,158.15,537.45c2.71-6.29,1.66-11.79-4.28-15.89-11.89-8.22-18-21.44-27.42-31.79-.74-3.85-1.41-7.69.44-11.44q-2.62-13.23-5.26-26.45c-.84-9.47-.3-18.8,3.07-27.8,1.9-5.09.27-8.5-3.74-12.26-28.34-26.48-29.41-61.1-2.26-88.87,5.45-5.58,1.74-7.88-.81-11.51-38.42-54.47-30.15-127,19.61-170,12.05-10.43,25.33-19.32,40.88-23.48,8.58-2.29,12-6.67,14.18-15.3C205,53,236.42,21.28,286.43,10.22c38.47-8.5,73.59.93,103.78,26.61,5.23,4.45,8.72,5.62,15.47,1.79A96,96,0,0,1,530.94,66.33c4,5.52,8.37,7.77,14.64,9,51.7,10.09,86.08,62.37,74.76,114-1.5,6.82-.31,11,4.53,15.92,23.43,23.93,26.67,59.1,8.32,87.25-3.16,4.85-4.23,7.35,1.32,12,28.69,24.15,31.49,62.25,7,90.59-3.87,4.48-4.74,8-2.21,13.39a81.18,81.18,0,0,1,6.79,25.27c-.38,16.44.48,33-6.53,48.57-3.25,17.29-14.88,29-27.42,39.7-5.94,5.07-8.29,9.32-4.73,17.11,5.17,11.31,2.69,22.64-4.26,32.47-4.34,6.13-5,11.69-3,18.8,2.38,8.39,3.26,17.2-.89,25.58l-.33,3.89c-4.55,14.8-12.51,27.24-25,36.57-3.42,2.54-5,5.82-5.15,10.34-2,43.3-18.52,59.19-62.72,60.65C505.26,728.43,504.69,728.33,504.29,727.18Z"/><path class="cls-1" d="M599.26,616c-.6-10.66,1.28-21.54-3.61-31.82-1.64-3.44-.29-6.59,2.45-10,9.39-11.47,12.75-24.12,5.19-38.19-1.88-3.5-3.73-7.75.75-10.86,15.83-11,27-25.8,35.54-42.84-.2,4.16.59,7.71,3.79,11,21.78,22.28,43.84,44.32,64.84,67.32,13.76,15.06,29.52,28.28,41.52,44.94,1.32,1.83,3.92,3.27,2,6-1.52,2.17-3.65.56-5.55.57-44.83.16-89.67-1.09-134.49.54C607.12,612.88,603.24,614.3,599.26,616Z"/><path class="cls-4" d="M561.53,445.66c3.35.1,6.71.22,10.06.3,12.86.29,16.15,3.4,17.21,16.29,1.2,14.52-7.4,27.77-21.66,32.69-4.34,1.5-7.46,2.73-8.24,8.29-7.65,55-26.37,106-55.23,153.4l-1.86,4.16c-14.9,19-30.59,37.43-44.49,57.13-15.51,22-34.71,35.81-62.31,37.42-32.74,1.92-62.74-2.15-83.28-31.79-5.17-7.46-10.6-14.76-16.2-21.91C284.8,688,273.87,674.44,263,660.86c-.61-1.38-1.22-2.77-1.82-4.15-16.95-28.16-31-57.63-40.87-89.66,28.19,8,46.3,3.56,55.77-13.12-24.35,3.38-41.41-4.28-49.79-22.37a21.09,21.09,0,0,1-1.51-6.87c-.37-6,2.25-8.23,8-5.76a23.57,23.57,0,0,1,8.39,5.53c7.47,8.38,18.09,8.87,27.74,12.24,17.93,6.26,34.5.13,50.43-5.37,15.25-5.27,26.11-17.41,35.37-31.17,16.11-23.91,11.63-49.08,7.47-74.67-1.19-7.3-6.44-11.73-10.42-16.87-7.79-10.07-8.2-10.85.07-20,23.4-18.89,40.27-42.09,47-73.35,16.87,16.75,35.64,27.11,58,30.4a104.26,104.26,0,0,0,24.13.58c4.82-.42,7.3,0,6.76,6-.61,6.65.09,13.42.21,20.13,2,4.73-1,6.14-4.71,7.12C463,381,443.79,385.68,428,399.7a19.45,19.45,0,0,1-7,3.74c-12.66,2.81-13.72,14.74-17.32,23.72-8.27,20.7-5.41,41.83,1,62.59,1.43,4.66,4.74,8,8.89,10.52a24.25,24.25,0,0,1,9.41,12.52c2.62,11.23,12,15.85,21.19,18.93,8.64,2.9,18.14,3.85,27.28,5.4,14.51,2.45,27.75-.28,40.59-5,14.44-5.35,25-16.39,34-28.74,2.19-3,1.52-6.43,1.86-9.73,4.44-14.54,8-29.24,8.6-44.53C557.47,446.92,558.2,444.34,561.53,445.66Z"/><path class="cls-5" d="M504.29,727.18c.57.12,1.14.22,1.72.29v58.34h-1.72Z"/><path class="cls-4" d="M351.88,388.61c-9.08,10.5,0,18.26,5.92,23.45,8.65,7.59,8.62,17.23,10.13,26.35s.35,18.79.35,28.22c0,12.23-3.9,22.4-10,33.55s-15.39,17-23.13,25.26C326.41,534.72,314,536.79,302,539c-4.19.77-8.39,0-12.3,3.09-2.87,2.29-7.51,2-10.71.46-9.07-4.23-19-4.87-28.43-7.31-5.71-1.47-7.09-6.91-11.51-9.24-3.72-2-7.1-7.21-11-5.58s-.91,7.36-1.82,11.17c-2.92-2.86-3.87-6.5-4.17-10.41-1.34-4.35-.42-8.8-.62-13.2,5.75-3.76,8.19,1.94,11.08,4.48,11.92,10.48,25.23,17.69,41,20.58,32.3,5.94,69.49-15.2,81.89-45.88,9.38-23.19,7.27-45.36-3-67.42-1.66-6.08-6.53-9.94-10.21-14.62-2.11-2.49-4.42-4.86-5.3-8.16a3.16,3.16,0,0,1,1.11-2.46C344.29,396.24,346.6,389,351.88,388.61Z"/><path class="cls-6" d="M314.88,656.31c-3.33,1.68-6.89,2.92-7.22-2.58-.7-11.79-1.19-23.42,7.69-33.33,11.35-12.66,24-23.57,38.66-32.15,7.9-4.62,15.72-4.56,22.58,1.12,4.63,3.82,7.44,3.32,11.84-.18,7-5.6,14.82-5.4,22.63-.83,13.18,7.72,24.65,17.43,35.3,28.36,9.8,10,12.33,21.85,11.19,35.23-.51,6-2.83,7-7.74,4.36-4.14-3-2.5-7.41-2.46-11.2.07-6.08-2.42-10.23-7.5-13.26a150.59,150.59,0,0,0-32.25-14.23,20.79,20.79,0,0,0-17.53,2c-5.07,3.06-10,3.19-15.2,0-6.53-4.05-13.46-3.49-20.43-1.13-10.87,3.69-21.05,8.91-31.34,13.91-4.25,2.07-5.63,5.17-5.57,9.71C317.6,646.92,318.56,652.09,314.88,656.31Z"/><path class="cls-7" d="M325.64,636.45l-2.22-2.2c-.44-3.34,2.43-3.51,4.38-4.53,8.32-4.39,16.94-8.11,25.66-11.67,7.39-3,14.69-3.13,21.11,1.53,5.87,4.26,11,4,16.56.07,7.1-5,14.64-4.73,21.92-.78,8.89,4.81,20.13,5.45,26.52,14.75-1.55,3.38-4.59,4.89-7.85,5.84Q378.22,655,325.64,636.45Z"/><path class="cls-8" d="M325.64,636.45c15.08-2,28.86,5,43.47,6.72,13,1.56,25.33-.1,37.85-1.44,8.58-.92,17-3.64,25.47-5.28,2.8-.54,5.27-1,6.51-3.9,2.22-1.41,3.45-.07,4.18,1.75.62,1.53-.51,2.09-1.86,2.25l-20.7,17.29c-4.67,3.91-9.78,7-16,7.77-15,1.8-30.3,2.48-45,0S335.26,647.2,325.64,636.45Z"/><path class="cls-9" d="M441.26,636.55c2.11-3-.55-3.25-2.32-4-8.58-3.81-17.27-7.38-25.7-11.5-7.21-3.53-13.93-4.3-20.73.78-6.29,4.69-12.44,5.21-19.17.08-6.38-4.88-13.58-4.87-20.9-1.27-9.59,4.7-19.34,9.09-29,13.62-4.4,2.26-3.76,6.37-3.81,10.25-.06,4.54.34,9.28-4.74,11.81-3.86-18.73,5.87-28.4,22.31-33.89,6.35-2.12,12.4-5.14,18.69-7.49,6.62-2.48,13.33-2.6,19.18,1.86,5,3.81,9.23,4.28,14.41.19,5.71-4.51,12.41-4.67,19.12-2.09s13,5.36,19.67,7.72c16,5.67,25.6,15.28,21.55,33.7-4.31.08-5-2.89-4.5-6C446.13,645,443.57,640.83,441.26,636.55Z"/><path class="cls-10" d="M382.59,669c3.69,0,7.39-.13,11.08,0,4.51.19,10.6-1.09,10.83,5.7.19,5.7-3.56,11-9.18,11.66a98.31,98.31,0,0,1-26.1,0c-5.34-.79-9.09-6.29-8.85-12,.25-6.16,5.88-5.21,10.13-5.33C374.52,669,378.56,669,382.59,669Z"/></g><g id="Layer_2" data-name="Layer 2"><circle class="cls-11" cx="280.88" cy="457.76" r="80.55"/><circle class="cls-11" cx="478.38" cy="457.26" r="80.55"/></g></svg>