<svg id="svg2" xmlns="http://www.w3.org/2000/svg" viewBox="0 0 480 480">
  <defs>
    <style>
      .cls-1, .cls-2 {
        fill: #fff;
      }

      .cls-1 {
        fill-rule: evenodd;
      }
    </style>
  </defs>
  <title>2</title>
  <g id="layer1">
    <path id="path3295" class="cls-1" d="M250,10C117.52,10,10,117.52,10,250S117.52,490,250,490,490,382.48,490,250,382.48,10,250,10Zm0,45c107.64,0,195,87.36,195,195S357.64,445,250,445,55,357.64,55,250,142.36,55,250,55Z" transform="translate(-10 -10)"/>
  </g>
  <path class="cls-2" d="M243.1,189.15a24.74,24.74,0,0,0-14.63,4.5,46,46,0,0,0-10.8,10.58,71.45,71.45,0,0,0-6.82,11.1q-2.4,5-2.7,5.92L159,198.45a48.61,48.61,0,0,1,2.85-8.78,76.62,76.62,0,0,1,8.25-14.84,78.72,78.72,0,0,1,39-29.25q14.25-5.19,34-5.18,24.3,0,39.6,7t23.63,17.78a65.12,65.12,0,0,1,11.55,22.12,75,75,0,0,1,3.22,20,63.48,63.48,0,0,1-4.65,24.37,86.66,86.66,0,0,1-12,20.71A121.84,121.84,0,0,1,288.78,269,168.38,168.38,0,0,1,273,281.4a137.07,137.07,0,0,1-12.45,7.72c-3.3,1.76-5.1,2.68-5.4,2.78h64.35V342H168.55V296.4q.6-.3,7.57-4.8t17.71-11.93q10.71-7.43,22.64-16.72T239,243.6A129.16,129.16,0,0,0,256.22,224q6.67-9.6,6.68-17.55,0-9.3-5.18-13.28T243.1,189.15Z" transform="translate(-10 -10)"/>
</svg>
