<svg id="Layer_3" data-name="Layer 3" xmlns="http://www.w3.org/2000/svg" viewBox="0 0 179.76 141.37">
  <defs>
    <style>
      .cls-1, .cls-2 {
        fill-rule: evenodd;
      }

      .cls-2 {
        fill: #fff;
      }
    </style>
  </defs>
  <title>bubbleboom</title>
  <g>
    <path class="cls-1" d="M167.65,84.09A17.09,17.09,0,0,0,155.84,67.7C154.2,53,142,41.52,127.25,41.52a28.1,28.1,0,0,0-16,4.95,24.09,24.09,0,0,0-46.6-5A29.84,29.84,0,0,0,59.57,41c-17,0-30.8,14.18-30.8,31.67a31.78,31.78,0,0,0,16.17,27.87c0,.23,0,.46,0,.69,0,12.33,9.72,22.32,21.71,22.32a21.29,21.29,0,0,0,13.57-4.89A12.91,12.91,0,0,0,89.88,123a13.1,13.1,0,0,0,11.73-7.44,13.55,13.55,0,0,0,15.67.53,17.05,17.05,0,0,0,10.73,3.8,17.28,17.28,0,0,0,14.55-8.07,11.52,11.52,0,0,0,10.66-10.78A17,17,0,0,0,167.65,84.09Z" transform="translate(-5.34 -4.57)"/>
    <path class="cls-2" d="M161.7,83.22a15.44,15.44,0,0,0-10.95-14.78A26.68,26.68,0,0,0,109.47,49.3a22.47,22.47,0,0,0-43.19-4.54A28.56,28.56,0,0,0,48,98.05c0,.21,0,.41,0,.62a20.14,20.14,0,0,0,32.7,15.72,12.17,12.17,0,0,0,19.84-2.77,12.89,12.89,0,0,0,14.53.48,16.14,16.14,0,0,0,23.43-3.86,10.51,10.51,0,0,0,9.88-9.71A15.45,15.45,0,0,0,161.7,83.22Z" transform="translate(-5.34 -4.57)"/>
    <polygon class="cls-1" points="57.58 30.9 48.22 9.36 44.47 9.83 57.58 30.9"/>
    <polygon class="cls-1" points="56.64 33.7 39.79 6.55 37.45 9.83 56.64 33.7"/>
    <polygon class="cls-1" points="52.9 33.7 38.39 15.92 36.98 19.19 52.9 33.7"/>
    <polygon class="cls-1" points="107.2 31.83 113.29 0 116.56 0 107.2 31.83"/>
    <polygon class="cls-1" points="107.2 35.58 118.44 3.75 121.71 5.15 107.2 35.58"/>
    <polygon class="cls-1" points="109.54 36.51 127.33 13.58 129.67 14.98 109.54 36.51"/>
    <polygon class="cls-1" points="137.16 113.29 151.21 126.39 148.86 128.27 137.16 113.29"/>
    <polygon class="cls-1" points="134.35 111.88 146.99 132.48 142.78 135.29 134.35 111.88"/>
    <polygon class="cls-1" points="133.42 116.1 140.44 141.37 137.16 141.37 133.42 116.1"/>
    <polygon class="cls-1" points="153.54 58.05 178.36 48.22 176.48 44.47 153.54 58.05"/>
    <polygon class="cls-1" points="152.14 55.24 179.76 38.39 175.55 36.51 152.14 55.24"/>
    <polygon class="cls-1" points="151.21 52.9 164.31 40.26 159.63 40.73 151.21 52.9"/>
    <polygon class="cls-1" points="31.36 96.9 0 109.07 0.47 111.41 31.36 96.9"/>
    <polygon class="cls-1" points="35.11 97.84 3.28 115.63 6.73 120.78 35.11 97.84"/>
    <polygon class="cls-1" points="36.05 100.65 16.39 118.9 22.47 119.84 36.05 100.65"/>
    <path d="M124.28,49.58a18.42,18.42,0,0,1,18.28,25.51,17.66,17.66,0,0,0-24.39-24A18.22,18.22,0,0,1,124.28,49.58Z" transform="translate(-5.34 -4.57)"/>
    <path d="M62.45,106.68a22.76,22.76,0,0,1-4.21-38.51,21.8,21.8,0,0,0,11.69,40.6A22.36,22.36,0,0,1,62.45,106.68Z" transform="translate(-5.34 -4.57)"/>
    <path d="M61.7,69.73A7.61,7.61,0,0,1,57.23,62a6.38,6.38,0,0,0,6.34,8.34A7.56,7.56,0,0,1,61.7,69.73Z" transform="translate(-5.34 -4.57)"/>
  </g>
</svg>
