<svg id="Layer_1" data-name="Layer 1" xmlns="http://www.w3.org/2000/svg" viewBox="0 0 577.78 319.93">
  <defs>
    <style>
      .cls-1 {
        fill: #231f20;
      }

      .cls-2 {
        fill: #fff;
      }
    </style>
  </defs>
  <title>cloud_suqare-right_top</title>
  <g>
    <path class="cls-1" d="M95.51,11.17h384.3a92.07,92.07,0,0,1,92.08,92.08v37.81a92.07,92.07,0,0,1-92.08,92.07H306.54c-13.21,36.68-42.22,72.51-102.49,89.41a199.8,199.8,0,0,0,43.07-89.41H95.49A92.07,92.07,0,0,1,3.4,141.06V103.25A92.09,92.09,0,0,1,95.51,11.17Z" transform="translate(0.37 -2.61)"/>
    <path class="cls-2" d="M120.56,17.39H474.89a84.93,84.93,0,0,1,84.89,85v34.9a84.93,84.93,0,0,1-84.89,84.95l-171.07,2.11c-12.18,33.84-27.44,69.77-83,85.36,22.38-26.59,34-60.43,39.53-87.47H120.56a84.94,84.94,0,0,1-84.9-84.95v-34.9A84.93,84.93,0,0,1,120.56,17.39Z" transform="translate(0.37 -2.61)"/>
    <path class="cls-1" d="M577.41,58.53a24.74,24.74,0,0,0-.44-3.9c-.24-1.21-.54-2.71-1-4.38A43.68,43.68,0,0,0,574,44.68a52.41,52.41,0,0,0-2.95-6.32,55.8,55.8,0,0,0-4.24-6.55c-.84-1.09-1.68-2.17-2.52-3.3s-1.91-2.07-2.92-3.09c-1.88-2.18-4.28-3.88-6.44-5.82-2.31-1.75-4.82-3.25-7.18-4.84-2.53-1.34-5.08-2.53-7.52-3.72-2.54-.94-5-1.77-7.36-2.55s-4.68-1.09-6.76-1.56a34.56,34.56,0,0,0-5.76-.88c-1.72-.15-3.23-.22-4.47-.31C513.43,5.62,512,5.6,512,5.6s1.35.47,3.71,1.19L520,8a44.88,44.88,0,0,1,5.37,1.82c1.95.77,4.09,1.41,6.26,2.34s4.36,2.06,6.72,3.06c2.23,1.24,4.47,2.63,6.84,3.86,2.16,1.54,4.46,3,6.57,4.65a68.32,68.32,0,0,1,6.1,5.26c.94.93,1.87,1.85,2.81,2.74l2.56,2.91a31.88,31.88,0,0,1,2.37,2.92c.74.95,1.48,1.92,2.18,2.85,1.24,2,2.6,3.77,3.59,5.58A80,80,0,0,1,576,54.94c.47,1.13.88,2,1.11,2.63A9.15,9.15,0,0,1,577.41,58.53Z" transform="translate(0.37 -2.61)"/>
    <polygon class="cls-1" points="223.36 0 222.58 4.57 184.87 4.2 223.36 0"/>
    <polygon class="cls-1" points="417.43 239 373.64 236.95 375.68 241.19 417.43 239"/>
    <path class="cls-1" d="M51.92,239.24s-1.25-.34-3.35-1.08c-1-.31-2.29-.87-3.72-1.37s-3-1.2-4.72-2c-.83-.41-1.71-.82-2.61-1.25L34.79,232c-1.9-.93-3.69-2.31-5.65-3.44a67.78,67.78,0,0,1-5.54-4.32c-.9-.77-1.82-1.56-2.71-2.34l-2.46-2.66a47.41,47.41,0,0,1-4.53-5.6c-1.41-1.91-2.48-4-3.7-5.92s-1.9-4.09-2.84-6c-.22-.48-.43-.94-.66-1.42s-.29-1-.45-1.45l-1-2.74a44.22,44.22,0,0,1-1.52-4.88c-.34-1.5-.69-2.79-1-3.87-.56-2.17-.93-3.42-.93-3.42s-.08,1.27-.1,3.52c0,1.13,0,2.5,0,4.09a29,29,0,0,0,.58,5.27l.49,3q.14.78.3,1.59c.16.53.33,1.05.5,1.59A62.53,62.53,0,0,0,6,209.79c.56,1.11,1.13,2.25,1.72,3.39a18.07,18.07,0,0,0,1.93,3.35,50,50,0,0,0,4.88,6.29l2.76,2.86,3.06,2.55,1.5,1.22c.54.39,1.09.71,1.63,1.06,1.07.68,2.14,1.37,3.19,2a54.74,54.74,0,0,0,6.42,3.06c1.06.41,2.08.79,3.07,1.15s2,.59,2.94.85a43.48,43.48,0,0,0,5.2,1.14c1.57.21,2.93.41,4,.45a23.49,23.49,0,0,0,2.63.07Z" transform="translate(0.37 -2.61)"/>
    <path class="cls-1" d="M19.44,238s-1.31-1.82-3.32-4.16L9,225.42c-.61-.75-1.2-1.51-1.8-2.26S6,221.69,5.54,220.94,4.45,219.5,4,218.8s-1-1.35-1.34-2-.75-1.21-1.1-1.76l-.8-1.44C.3,212.78,0,212.3,0,212.3a14.42,14.42,0,0,0-.25,1.5,13.92,13.92,0,0,0,.09,4,15.53,15.53,0,0,0,.59,2.65,17,17,0,0,0,1.09,2.8A19.76,19.76,0,0,0,3,226.1c.57.94,1.28,1.78,1.93,2.68a31.14,31.14,0,0,0,4.62,4.45,26,26,0,0,0,4.7,3A18.73,18.73,0,0,0,19.44,238Z" transform="translate(0.37 -2.61)"/>
  </g>
</svg>
