<svg id="Layer_6" data-name="Layer 6" xmlns="http://www.w3.org/2000/svg" viewBox="0 0 183 136.43">
  <defs>
    <style>
      .cls-1, .cls-3 {
        fill: #fff;
      }

      .cls-2, .cls-3 {
        fill-rule: evenodd;
      }
    </style>
  </defs>
  <title>cloud3right</title>
  <g>
    <path d="M93.22,6.79c-24.83,0-47.35,6.09-64,16.2S1.72,47.56,1.72,64s10.9,30.92,27.51,41,39.16,16.2,64,16.2,47.39-6.09,64-16.2,27.51-24.6,27.51-41-10.93-30.9-27.54-41-39.13-16.2-64-16.2Z" transform="translate(-1.72 -6.79)"/>
    <path class="cls-1" d="M181.1,66.8c0,28.61-36.83,51.82-82.21,51.82S16.69,95.41,16.69,66.8,53.52,15,98.89,15,181.1,38.2,181.1,66.8Z" transform="translate(-1.72 -6.79)"/>
    <path d="M13.71,66.68c0-28.31,36.92-51.34,82.32-51.34s82.31,23,82.31,51.34S141.41,118,96,118,13.71,95,13.71,66.68Zm-3,0c0,29.15,38.27,52.87,85.3,52.87s85.29-23.72,85.29-52.87S143.06,13.81,96,13.81,10.73,37.53,10.73,66.68Z" transform="translate(-1.72 -6.79)"/>
    <path class="cls-2" d="M154.53,82.21c17.76,21.51,10.22,41.14,5.88,61-3.3-15.53-9.92-28.32-23.31-35.58" transform="translate(-1.72 -6.79)"/>
    <path class="cls-3" d="M148.83,71.51c12,15.75,14.33,35.72,10.26,58-4.13-14.9-21.27-24.22-31-24.28l20.78-33.67Z" transform="translate(-1.72 -6.79)"/>
  </g>
</svg>
