<svg id="Layer_4" data-name="Layer 4" xmlns="http://www.w3.org/2000/svg" viewBox="0 0 167.91 143.16">
  <defs>
    <style>
      .cls-1 {
        fill: #fff;
      }
    </style>
  </defs>
  <title>cloud2right</title>
  <g>
    <path d="M14.44,70.7a20.72,20.72,0,0,1,13.5-19.21,20,20,0,0,1,17.62,1.94,24.55,24.55,0,0,1,4.81-22.52C57.24,22.72,69,20.5,78.54,24.7A27.05,27.05,0,0,1,129.18,20a16,16,0,1,1,28.33,14,24.38,24.38,0,0,1,23.4,15.87c4.1,10.91-.89,23.37-10.77,29.09a22,22,0,0,1-30.46,28,25.58,25.58,0,0,1-22,19.35c-10.61,1.25-20.68-4.85-25.3-14.16a19,19,0,0,1-19.24,8.65c-7.38-1.18-13-7-14.82-14A15.83,15.83,0,0,1,32.25,90.92,20.66,20.66,0,0,1,14.44,70.7Z" transform="translate(-14.44 -4.48)"/>
    <path class="cls-1" d="M152.65,102.66s7.74,10.79,10,20.06a102.9,102.9,0,0,1,2.73,14.73s-9.16-18.87-16.8-25.85-10.9-7.42-10.9-7.42,6.65,1.64,9,1.64S152.65,102.66,152.65,102.66Z" transform="translate(-14.44 -4.48)"/>
    <path class="cls-1" d="M19.47,70.49a18.09,18.09,0,0,1,33.36-9.7l0-.07A21.61,21.61,0,0,1,80.4,28.55a24.49,24.49,0,0,1,48.27.65l.29,0a14.14,14.14,0,0,1-.31-2.93A13.93,13.93,0,1,1,151.3,37.16a22,22,0,0,1,4.4-.45,21.62,21.62,0,0,1,9.55,41A19.69,19.69,0,0,1,136.9,102.9a22.73,22.73,0,0,1-44.1,3.8A16.49,16.49,0,0,1,61,101.8,13.76,13.76,0,0,1,37,88.57,18.09,18.09,0,0,1,19.47,70.49Z" transform="translate(-14.44 -4.48)"/>
    <path d="M144.76,96.31s14.08,9.48,18.92,35.92c0,0-5.29-19.13-26.25-29.71S101,94.37,101,94.37s20.43,1,30.35,7,17.33,10.47,25.45,23.27,10.41,23,10.41,23,0-15.13-2.81-25-6.4-15.75-10.33-20A30,30,0,0,0,144.76,96.31Z" transform="translate(-14.44 -4.48)"/>
  </g>
</svg>
