<svg id="Layer_1" data-name="Layer 1" xmlns="http://www.w3.org/2000/svg" viewBox="0 0 100 114">
  <defs>
    <style>
      .cls-1 {
        fill: #fff;
      }

      .cls-2 {
        fill: #1a171b;
      }
    </style>
  </defs>
  <title>cloud-tail-thought</title>
  <g>
    <path class="cls-1" d="M66,47c-15.6,0-28.27-9.8-28.27-21.85S50.37,3.27,66,3.27s28.27,9.79,28.27,21.84S81.56,47,66,47Z"/>
    <path class="cls-2" d="M66,.69c17,0,30.85,10.93,30.85,24.42S83,49.53,66,49.53,35.12,38.61,35.12,25.11,48.93.69,66,.69m0,5.14c-14.17,0-25.71,8.66-25.71,19.28S51.8,44.39,66,44.39s25.71-8.65,25.71-19.28S80.14,5.83,66,5.83Z"/>
  </g>
  <g>
    <path class="cls-1" d="M44.12,87.3C33.57,87.3,25,80.73,25,72.67S33.57,58,44.12,58,63.27,64.6,63.27,72.67,54.67,87.3,44.12,87.3Z"/>
    <path class="cls-2" d="M44.12,55.47c12,0,21.71,7.71,21.71,17.2S56.11,89.86,44.12,89.86,22.4,82.17,22.4,72.67s9.72-17.2,21.72-17.2m0,5.15c-9,0-16.58,5.52-16.58,12.05s7.6,12,16.58,12,16.57-5.51,16.57-12S53.1,60.62,44.12,60.62Z"/>
  </g>
  <g>
    <path class="cls-1" d="M15.85,110.43c-6.08,0-11-3.68-11-8.2s5-8.2,11-8.2,11,3.68,11,8.2-4.95,8.2-11,8.2Z"/>
    <path class="cls-2" d="M15.84,91.46c7.51,0,13.6,4.82,13.6,10.77S23.35,113,15.84,113,2.25,108.18,2.25,102.23,8.34,91.46,15.84,91.46m0,5.15c-4.5,0-8.45,2.63-8.45,5.62s4,5.62,8.45,5.62,8.46-2.62,8.46-5.62-3.95-5.62-8.46-5.62Z"/>
  </g>
</svg>
