<?xml version="1.0" encoding="utf-8"?>
<!-- Generator: Adobe Illustrator 23.0.4, SVG Export Plug-In . SVG Version: 6.00 Build 0)  -->
<svg version="1.1" xmlns="http://www.w3.org/2000/svg" xmlns:xlink="http://www.w3.org/1999/xlink" x="0px" y="0px"
	 viewBox="0 0 186.4 150" style="enable-background:new 0 0 186.4 150;" xml:space="preserve">
<style type="text/css">
	.st0{display:none;}
	.st1{display:inline;fill:#FFFFFF;stroke:#231F20;stroke-width:4;}
	.st2{display:inline;}
	.st3{fill-rule:evenodd;clip-rule:evenodd;fill:#FFFFFF;}
	.st4{fill-rule:evenodd;clip-rule:evenodd;}
	.st5{fill:#FFFFFF;}
	.st6{display:inline;fill:#FFFFFF;}
	.st7{display:inline;fill-rule:evenodd;clip-rule:evenodd;}
	.st8{display:inline;fill-rule:evenodd;clip-rule:evenodd;fill:#FFFFFF;}
	.st9{fill:#231F20;}
</style>
<g id="Layer_1" class="st0">
	<path class="st1" d="M-22.3,18.3c11,5,33.3,3.3,37-11.3c11.7,8.7,40,11.3,54.7,0c7.3,10,36.7,13.3,46,0c0.3,8,29,16.7,39.3,11.7
		C147.3,27,157,40.7,174,42c-11.7,6-7.7,28.3,0,32.7c-11,1-14.3,12.3-14.3,12.3l34.7,25.3l-12.7,2.3l36.7,21L165.5,123l6.2-6.4
		l-28.3-16.3c0,0-14.7,14-14.3,19.3c-10-5-36,3.7-44.3,13.3c-9.7-13.7-40.3-12.7-56-2c-7-10.3-37.7-11.7-48.7-10.7
		c7.2-9.7-9.3-31.7-27-35c14-5,19.7-34.3,6.7-40.7C-24.7,43.3-15.3,28-22.3,18.3z"/>
</g>
<g id="Layer_2" class="st0">
	<g class="st2">
		<path class="st3" d="M156.8,84.3c1.8-0.7,3.2-2.1,4.1-3.8l13.6-0.3l-3.7,4.8l15.6-3.1l-10.3-0.3l3.1-3.9l-17.4-1.1
			c0-0.9-0.2-1.7-0.5-2.5c13.9-8.8,5-32.1-11.4-28.6c-4.8-14.7-20.3-14.2-25.2-10.5c0.3-5.3-1.9-9.9-5.5-12.8l9.4-11.3l-4-0.4
			l5.6-6.3l-10.5,7.5l4.9,0.5l-8.1,8.3c-2.1-1-4.4-1.5-7-1.5c-6.7,0-12.5,4.2-14.8,10.1c-0.9-4.3-4.7-7.5-9.2-7.5
			c-2.2,0-4.3,0.8-5.9,2.1c-2.3-4.3-6.8-7.2-12-7.2c-7.5,0-13.5,6-13.5,13.5c-0.7-0.1-1.4-0.2-2.2-0.2c-2.9,0-5.6,1-7.8,2.6l-11-12
			l6.7-0.4L25.6,9l7.3,8.8l-5.5,0.3l13.5,17.4c-0.8,1.2-1.4,2.6-1.7,4.1c-3-1.3-6.3-1.9-9.8-1.9c-14,0-25.4,12.2-25.4,25.4
			c0,13.2,8.9,22.6,20.6,24.9c1.2,0.2,1.7,0.3,2.2,0.4c-0.3,7.8,4.3,14.5,10.8,17.8l-4.9,8.7l-1.5-3.9l-3.7,10.4l3.8-6.1l1.2,3.2
			l7.7-11.3c4.6,1.6,9.7,1.6,14.4-0.7c1.9,12.5,12.7,22.2,25.7,22.2c11.2,0,20.7-7.1,24.4-16.9c3,2,6.3,2.9,9.5,2.9l10.2,19.9
			l5.2-5.1l8,16.8l-4.5-28.7l-4.5,3.8l-2.9-11.4c1.9-1.9,3.3-4.4,4.2-7.3c11.3,7.2,27.1-1.5,27.1-15.2
			C157.1,86.4,157,85.3,156.8,84.3L156.8,84.3z"/>
		<path class="st4" d="M156.8,84.3c1.8-0.7,3.2-2.1,4.1-3.8l13.6-0.3l-3.7,4.8l15.6-3.1l-10.3-0.3l3.1-3.9l-17.4-1.1
			c0-0.9-0.2-1.7-0.5-2.5c13.9-8.8,5-32.1-11.4-28.6c-4.8-14.7-20.3-14.2-25.2-10.5c0.3-5.3-1.9-9.9-5.5-12.8l9.4-11.3l-4-0.4
			l5.6-6.3l-10.5,7.5l4.9,0.5l-8.1,8.3c-2.1-1-4.4-1.5-7-1.5c-6.7,0-12.5,4.2-14.8,10.1c-0.9-4.3-4.7-7.5-9.2-7.5
			c-2.2,0-4.3,0.8-5.9,2.1c-2.3-4.3-6.8-7.2-12-7.2c-7.5,0-13.5,6-13.5,13.5c-0.7-0.1-1.4-0.2-2.2-0.2c-2.9,0-5.6,1-7.8,2.6l-11-12
			l6.7-0.4L25.6,9l7.3,8.8l-5.5,0.3l13.5,17.4c-0.8,1.2-1.4,2.6-1.7,4.1c-3-1.3-6.3-1.9-9.8-1.9c-14,0-25.4,12.2-25.4,25.4
			c0,13.2,8.9,22.6,20.6,24.9c1.2,0.2,1.7,0.3,2.2,0.4c-0.3,7.8,4.3,14.5,10.8,17.8l-4.9,8.7l-1.5-3.9l-3.7,10.4l3.8-6.1l1.2,3.2
			l7.7-11.3c4.6,1.6,9.7,1.6,14.4-0.7c1.9,12.5,12.7,22.2,25.7,22.2c11.2,0,20.7-7.1,24.4-16.9c3,2,6.3,2.9,9.5,2.9l10.2,19.9
			l5.2-5.1l8,16.8l-4.5-28.7l-4.5,3.8l-2.9-11.4c1.9-1.9,3.3-4.4,4.2-7.3c11.3,7.2,27.1-1.5,27.1-15.2
			C157.1,86.4,157,85.3,156.8,84.3L156.8,84.3z M127.5,126.8l4.6-5l2.9,15.9l-4.2-12.3l-5.1,4.7l-8.8-19.2
			c-4.3,1.3-9.2,0.8-13.4-1.9c-3.4,9.2-12.3,15.8-22.7,15.8c-13.2,0-24.2-10.7-24.2-23.9c0-8,3.9-15.1,9.8-19.6
			c-7.2,4.2-12.1,12.1-12.1,21.1c0,0.9,0.1,1.8,0.2,2.7c-11.3,3.6-23.1-4.5-23.5-16.5c2.2-0.6,3.2-0.9,6.3-2.6
			c-3.9,1.2-6.4,1.1-8.4,0.7C18,84.7,9.7,75.8,9.7,63.5c0-12.3,10.6-23.6,23.6-23.6c3.2,0,6.3,0.6,9.1,1.8c1.2-5.4,6-9.4,11.7-9.4
			c0.6,3.9,2.9,7.3,6.1,9.3c-1.7-1.5-4.1-6.5-4.1-9.2c0-7.5,6.7-12.6,12.6-12.6s9,2.7,11.1,6.7c1.5-1.2,3.4-1.9,5.5-1.9
			c4.2,0,7.8,3,8.6,7c2.2-5.5,7.5-9.4,13.8-9.4c8.5,0,15.2,7.1,14.8,15.6c10-4.7,21.4,0.3,23.1,10.3c0.7-0.2,1.3-0.3,2.5-0.3
			c13.6-0.8,20.1,18,7.9,25.8c0.3,0.8,0.5,1.7,0.5,2.6c0,3.1-1.9,5.8-4.6,7c2.6,13.4-11.7,23.4-23.2,17.2c-4.1-2.2-7-6.3-7.8-11
			c0.4,5,3,8.5,6.4,11.3c-1.1,3.1-3,5.7-5.4,7.5L127.5,126.8L127.5,126.8z"/>
	</g>
</g>
<g id="Layer_3" class="st0">
	<g class="st2">
		<path class="st4" d="M167.7,84.1c0-7.7-5-14.3-11.8-16.4C154.2,53,142,41.5,127.2,41.5c-5.9,0-11.4,1.8-15.9,5
			c-1.8-11.9-11.8-21-23.9-21c-10.3,0-19.2,6.7-22.6,16C63,41.2,61.3,41,59.6,41c-17,0-30.8,14.2-30.8,31.7c0,12,6.5,22.5,16.2,27.9
			c0,0.2,0,0.5,0,0.7c0,12.3,9.7,22.3,21.7,22.3c5.1,0,9.8-1.8,13.6-4.9c2.4,2.7,5.8,4.4,9.7,4.4c5.1,0,9.6-3,11.7-7.4
			c2.3,1.7,5.1,2.8,8.2,2.8c2.7,0,5.3-0.8,7.5-2.2c3,2.4,6.7,3.8,10.7,3.8c6.1,0,11.4-3.2,14.6-8.1c5.7-0.3,10.2-5,10.7-10.8
			C161.4,99.9,167.7,92.8,167.7,84.1z"/>
		<path class="st3" d="M161.7,83.2c0-7-4.6-12.9-10.9-14.8c-1.5-13.3-12.8-23.6-26.5-23.6c-5.5,0-10.6,1.6-14.8,4.5
			c-1.7-10.8-11-19-22.2-19c-9.6,0-17.8,6-21,14.4c-1.5-0.3-3.1-0.4-4.8-0.4C45.7,44.4,33,57.1,33,72.9c0,10.9,6.1,20.3,15,25.1
			c0,0.2,0,0.4,0,0.6c0,11.1,9,20.1,20.1,20.1c4.8,0,9.1-1.7,12.6-4.4c2.2,2.4,5.4,3.9,9,3.9c4.8,0,8.9-2.7,10.9-6.7
			c2.1,1.6,4.8,2.5,7.6,2.5c2.5,0,4.9-0.7,6.9-2c2.7,2.1,6.2,3.4,9.9,3.4c5.6,0,10.6-2.9,13.5-7.3c5.3-0.3,9.5-4.5,9.9-9.7
			C155.9,97.5,161.7,91,161.7,83.2z"/>
		<polygon class="st4" points="62.9,35.5 53.6,13.9 49.8,14.4 		"/>
		<polygon class="st4" points="62,38.3 45.1,11.1 42.8,14.4 		"/>
		<polygon class="st4" points="58.2,38.3 43.7,20.5 42.3,23.8 		"/>
		<polygon class="st4" points="112.5,36.4 118.6,4.6 121.9,4.6 		"/>
		<polygon class="st4" points="112.5,40.1 123.8,8.3 127.1,9.7 		"/>
		<polygon class="st4" points="114.9,41.1 132.7,18.1 135,19.6 		"/>
		<polygon class="st4" points="142.5,117.9 156.5,131 154.2,132.8 		"/>
		<polygon class="st4" points="139.7,116.5 152.3,137.1 148.1,139.9 		"/>
		<polygon class="st4" points="138.8,120.7 145.8,145.9 142.5,145.9 		"/>
		<polygon class="st4" points="158.9,62.6 183.7,52.8 181.8,49 		"/>
		<polygon class="st4" points="157.5,59.8 185.1,43 180.9,41.1 		"/>
		<polygon class="st4" points="156.5,57.5 169.7,44.8 165,45.3 		"/>
		<polygon class="st4" points="36.7,101.5 5.3,113.6 5.8,116 		"/>
		<polygon class="st4" points="40.5,102.4 8.6,120.2 12.1,125.3 		"/>
		<polygon class="st4" points="41.4,105.2 21.7,123.5 27.8,124.4 		"/>
		<path d="M124.3,49.6c10.1-0.7,19,6.9,19.7,17.1c0.2,3-0.3,5.8-1.4,8.4c1.7-3,2.6-6.5,2.4-10.2c-0.7-9.7-9.1-17.1-18.8-16.4
			c-2.9,0.2-5.6,1.1-7.9,2.5C120.1,50.3,122.1,49.7,124.3,49.6z"/>
		<path d="M62.4,106.7c-11.3-5.4-16.2-18.9-10.8-30.3c1.6-3.3,3.9-6.1,6.6-8.2c-3.7,2.1-6.7,5.4-8.7,9.5c-5.2,10.9-0.5,23.9,10.3,29
			c3.2,1.5,6.7,2.2,10,2.1C67.4,108.5,64.9,107.8,62.4,106.7z"/>
		<path d="M61.7,69.7c-3.1-1.4-4.8-4.6-4.5-7.8c-1,3.1,0.5,6.5,3.5,7.8c0.9,0.4,1.9,0.6,2.9,0.5C62.9,70.2,62.3,70,61.7,69.7z"/>
	</g>
</g>
<g id="Layer_4" class="st0">
	<g class="st2">
		<path d="M14.4,70.7c0.1-8.6,5.5-16.2,13.5-19.2c6-2.3,12.4-1.3,17.6,1.9c-2.2-7.7-0.5-16.2,4.8-22.5c6.9-8.2,18.6-10.4,28.2-6.2
			c3.2-11.9,14.2-20.3,26.6-20.2c10.4,0.1,19.6,6.5,24,15.5c0.8-2.8,2.3-5.3,4.6-7.3c4.2-3.9,10.3-5.1,15.7-3.4
			c5.2,1.6,9.2,6,10.6,11.2c1.3,4.7,0.2,9.7-2.6,13.6c10.3-0.2,19.7,5.9,23.4,15.9c4.1,10.9-0.9,23.4-10.8,29.1
			c3.3,8.5,1.3,18.1-5.4,24.5c-6.7,6.4-16.9,7.6-25.1,3.5c-2.5,10.4-11.3,18.1-22,19.4c-10.6,1.2-20.7-4.9-25.3-14.2
			c-4,6.4-11.5,9.9-19.2,8.6c-7.4-1.2-13-7-14.8-14c-5,4.5-12.4,5.6-18.6,2.3c-6.4-3.5-9.3-11.2-7.5-18.1
			C22.2,89.5,14.6,81,14.4,70.7z"/>
		<path class="st5" d="M152.6,102.7c0,0,7.7,10.8,10,20.1c2.3,9.3,2.7,14.7,2.7,14.7s-9.2-18.9-16.8-25.8c-7.6-7-10.9-7.4-10.9-7.4
			s6.7,1.6,9.1,1.6C149.2,105.8,152.6,102.7,152.6,102.7z"/>
		<path class="st5" d="M19.5,70.5c0-10,8.1-18.1,18.1-18.1c6.4,0,12.1,3.3,15.3,8.4c0,0,0,0,0-0.1c-2.9-3.7-4.6-8.3-4.6-13.3
			c0-11.9,9.7-21.6,21.6-21.6c3.8,0,7.4,1,10.5,2.7c2.1-11.4,12.1-20,24.1-20c12.2,0,22.4,9,24.2,20.7c0.1,0,0.2,0,0.3,0
			c-0.2-0.9-0.3-1.9-0.3-2.9c0-7.7,6.2-13.9,13.9-13.9c7.7,0,13.9,6.2,13.9,13.9c0,4.4-2,8.3-5.2,10.9c1.4-0.3,2.9-0.5,4.4-0.5
			c11.9,0,21.6,9.7,21.6,21.6c0,8.5-4.9,15.9-12.1,19.4c1.3,2.6,2,5.5,2,8.6c0,10.9-8.8,19.7-19.7,19.7c-3.9,0-7.6-1.2-10.6-3.1
			c-1.6,11-11.1,19.5-22.5,19.5c-10.1,0-18.6-6.6-21.6-15.7c-2.4,6.2-8.4,10.5-15.4,10.5c-8.8,0-15.9-6.8-16.5-15.4
			c-2.5,3.5-6.6,5.8-11.2,5.8c-7.6,0-13.8-6.2-13.8-13.8c0-1.9,0.4-3.7,1.1-5.3C27.3,88.3,19.5,80.3,19.5,70.5z"/>
		<path d="M144.8,96.3c0,0,14.1,9.5,18.9,35.9c0,0-5.3-19.1-26.2-29.7c-21-10.6-36.5-8.1-36.5-8.1s20.4,1.1,30.4,7
			c9.9,6,17.3,10.5,25.4,23.3c8.1,12.8,10.4,23,10.4,23s0-15.1-2.8-25c-2.8-9.8-6.4-15.7-10.3-20C150.1,98.5,144.8,96.3,144.8,96.3z
			"/>
	</g>
</g>
<g id="Layer_5" class="st0">
	<path class="st2" d="M93.1,3.3c24.8,0,47.4,6.1,64,16.2c16.6,10.1,27.5,24.6,27.5,41c0,16.4-10.9,30.9-27.5,41
		c-16.6,10.1-39.2,16.2-64,16.2c-24.8,0-47.4-6.1-64-16.2C12.5,91.4,1.6,76.9,1.6,60.5c0-16.4,10.9-30.9,27.5-41
		C45.7,9.4,68.2,3.3,93.1,3.3L93.1,3.3z"/>
	<path class="st6" d="M5.2,63.3c0,28.6,36.8,51.8,82.2,51.8c45.4,0,82.2-23.2,82.2-51.8c0-28.6-36.8-51.8-82.2-51.8
		C42,11.5,5.2,34.7,5.2,63.3L5.2,63.3z"/>
	<path class="st2" d="M90.3,114.5C44.9,114.5,8,91.5,8,63.2c0-28.3,36.9-51.3,82.3-51.3c45.4,0,82.3,23,82.3,51.3
		C172.6,91.5,135.7,114.5,90.3,114.5z M90.3,10.3C43.2,10.3,5,34,5,63.2C5,92.3,43.2,116,90.3,116c47,0,85.3-23.7,85.3-52.9
		C175.6,34,137.3,10.3,90.3,10.3z"/>
	<path class="st7" d="M81.8,114c10.7,25.8,31.5,28.3,51.1,33.8c-12.2-10.2-20.4-22-20.5-37.3"/>
	<path class="st8" d="M75,103.9c8.2,18,24.8,29.4,46.4,36.3c-11.2-10.7-11.4-30.2-6.9-38.8L75,103.9L75,103.9z"/>
</g>
<g id="Layer_6" class="st0">
	<g class="st2">
		<path d="M93.2,6.8c-24.8,0-47.4,6.1-64,16.2C12.7,33.1,1.7,47.6,1.7,64c0,16.4,10.9,30.9,27.5,41c16.6,10.1,39.2,16.2,64,16.2
			c24.8,0,47.4-6.1,64-16.2c16.6-10.1,27.5-24.6,27.5-41c0-16.4-10.9-30.9-27.5-41C140.6,12.9,118.1,6.8,93.2,6.8L93.2,6.8z"/>
		<path class="st5" d="M181.1,66.8c0,28.6-36.8,51.8-82.2,51.8c-45.4,0-82.2-23.2-82.2-51.8S53.5,15,98.9,15
			C144.3,15,181.1,38.2,181.1,66.8L181.1,66.8z"/>
		<path d="M13.7,66.7c0-28.3,36.9-51.3,82.3-51.3c45.4,0,82.3,23,82.3,51.3C178.3,95,141.4,118,96,118C50.6,118,13.7,95,13.7,66.7z
			 M10.7,66.7c0,29.2,38.3,52.9,85.3,52.9s85.3-23.7,85.3-52.9S143.1,13.8,96,13.8S10.7,37.5,10.7,66.7z"/>
		<path class="st4" d="M154.5,82.2c17.8,21.5,10.2,41.1,5.9,61c-3.3-15.5-9.9-28.3-23.3-35.6"/>
		<path class="st3" d="M148.8,71.5c12,15.7,14.3,35.7,10.3,58c-4.1-14.9-21.3-24.2-31-24.3L148.8,71.5L148.8,71.5z"/>
	</g>
</g>
<g id="Layer_7" class="st0">
	<g class="st2">
		<path class="st3" d="M95.4,7.6c49.2,3.2,87.4,31.2,85.9,61.7c-0.5,10.5-4.6,18.1-14.4,26.2c4.7,14.9,8.6,34.6,8.6,52.9
			c-7.4-15.5-17.7-32.1-26.8-40.1c-16,7.3-41.7,13.4-63.8,12c-49.2-3.2-83-32.1-81.6-62.5C4.7,27.3,46.1,4.4,95.4,7.6L95.4,7.6z"/>
		<path class="st4" d="M97,18c43.7,0,79.1,21.9,79.1,48.8c0,10-4.9,19.3-13.3,27.1c3.8,13.3,6.2,27,7.3,36.1
			c-7.8-12.1-13.3-19.5-21.7-26.1c-13.8,7.3-31.8,11.8-51.5,11.8c-43.7,0-79.1-21.9-79.1-48.9C17.9,39.9,53.4,18,97,18L97,18z
			 M95.4,7.6c49.2,3.2,87.4,31.2,85.9,61.7c-0.5,10.5-4.6,18.1-14.4,26.2c4.7,14.9,8.6,34.6,8.6,52.9c-7.4-15.5-17.7-32.1-26.8-40.1
			c-16,7.3-41.7,13.4-63.8,12c-49.2-3.2-83-32.1-81.6-62.5C4.7,27.3,46.1,4.4,95.4,7.6L95.4,7.6z"/>
	</g>
</g>
<g id="Layer_8" class="st0">
	<g class="st2">
		<g>
			<g>
				<g>
					<g>
						<g>
							<g>
								<g>
									<path d="M167.2,86.9c5.1-5.8,8.4-12.6,9.5-20c4.2-29.6-29.4-58.8-75-65.2c-45.6-6.4-86,12.4-90.1,42
										c-4.2,29.6,29.4,58.8,75,65.2c14.2,2,27.9,1.5,40.1-0.9c14.6,8.9,37.7,23.6,39.1,41C165.8,148.9,173.2,117.7,167.2,86.9z"
										/>
								</g>
							</g>
						</g>
					</g>
				</g>
			</g>
		</g>
		<g>
			<g>
				<g>
					<g>
						<g>
							<g>
								<g>
									<path class="st5" d="M164.1,82.1c4.8-5.4,8-11.5,8.9-18.4c3.8-27.2-28.2-54.2-71.6-60.3C58-2.6,19.8,14.5,16,41.7
										C12.1,68.9,44.2,95.9,87.6,102c13.5,1.9,26.5,1.5,38.2-0.7c13.9,8.2,39.2,21.4,40.5,37.4
										C166.2,138.7,169.9,110.5,164.1,82.1z"/>
								</g>
							</g>
						</g>
					</g>
				</g>
			</g>
		</g>
	</g>
</g>
<g id="Layer_9" class="st0">
</g>
<g id="Layer_10">
	<path d="M81.6,16.5c22.4-5.6,44-4.6,61.1,1.6c17.1,6.2,29.9,18.1,33.3,34.3c3.4,16.2-3.5,33-16.4,46.8
		c-12.9,13.7-32,24.8-54.5,30.4c-22.4,5.6-44.1,4.7-61.1-1.6c-17.1-6.3-29.9-18.1-33.3-34.4c-3.4-16.2,3.5-33,16.4-46.7
		C40.1,33.1,59.2,22.1,81.6,16.5L81.6,16.5z"/>
	<path class="st5" d="M14.6,95.6c5.9,28.3,43.9,42.9,84.9,32.7c41-10.2,69.5-41.5,63.6-69.7c-5.9-28.3-43.9-42.9-84.9-32.7
		C37.2,36.1,8.7,67.3,14.6,95.6L14.6,95.6z"/>
	<path d="M102,127c-41,10.2-79.1-4.2-84.9-32.2c-5.8-28,22.8-59.1,63.8-69.3c41-10.2,79.1,4.2,84.9,32.2
		C171.6,85.7,143,116.8,102,127z M80.5,24C38,34.6,8.4,66.7,14.4,95.5c6,28.8,45.4,43.6,87.9,33c42.5-10.6,72.2-42.6,66.2-71.5
		C162.5,28.3,123,13.4,80.5,24z"/>
	<path class="st4" d="M83.3,127c14.8,23.1,34.2,21.1,53,22.2c-13.1-7.4-22.8-17.3-26-32.3"/>
	<path class="st3" d="M75.1,118.6c11.1,16,28.4,23.6,49.2,25.6c-12.3-8.1-16.4-27.3-14-36.9L75.1,118.6L75.1,118.6z"/>
	<path class="st9" d="M127.9,6.8c0,0,0.1-0.1,0.4-0.2c0.3-0.1,0.7-0.3,1.2-0.5c0.5-0.2,1.2-0.4,2-0.6c0.8-0.1,1.7-0.4,2.6-0.5
		c0.5-0.1,1-0.1,1.5-0.2c0.5,0,1.1-0.1,1.6-0.1c1.1-0.1,2.3,0,3.5,0c0.6,0.1,1.2,0.1,1.9,0.2c0.6,0.1,1.3,0.1,1.9,0.3
		c0.6,0.1,1.3,0.3,1.9,0.4c0.6,0.1,1.3,0.4,1.9,0.6c0.6,0.2,1.3,0.4,1.9,0.7c0.6,0.3,1.2,0.5,1.8,0.8c1.2,0.5,2.3,1.3,3.4,1.9
		c1.1,0.6,2,1.5,2.9,2.2c0.4,0.4,0.9,0.7,1.3,1.1c0.4,0.4,0.7,0.8,1.1,1.2c0.7,0.8,1.4,1.4,1.9,2.1c0.5,0.7,0.9,1.3,1.3,1.8
		c0.7,1,1.1,1.6,1.1,1.6s-0.5-0.5-1.4-1.3c-0.4-0.4-0.9-0.9-1.5-1.5c-0.3-0.3-0.6-0.6-1-0.8c-0.4-0.3-0.7-0.6-1.1-0.9
		c-0.4-0.3-0.8-0.6-1.2-1c-0.4-0.3-0.9-0.6-1.3-0.9c-0.9-0.6-1.9-1.3-2.9-1.8c-1.1-0.6-2.1-1.2-3.3-1.6c-0.6-0.2-1.1-0.5-1.7-0.7
		c-0.6-0.2-1.2-0.4-1.8-0.6c-0.6-0.2-1.2-0.4-1.8-0.6c-0.6-0.1-1.2-0.3-1.8-0.4c-1.2-0.3-2.4-0.4-3.6-0.7c-1.2-0.1-2.3-0.3-3.4-0.3
		c-0.5,0-1.1,0-1.6-0.1c-0.5,0-1,0-1.5,0c-1,0-1.8,0.1-2.6,0.1c-0.8,0.1-1.5,0.1-2,0.2c-0.6,0.1-1,0.1-1.3,0.1
		C128,6.8,127.9,6.8,127.9,6.8z"/>
	<path class="st9" d="M142.4,3c0,0,0.9-0.3,2.3-0.4c0.7-0.1,1.5-0.1,2.3,0c0.9,0,1.8,0.2,2.7,0.4c0.5,0.1,0.9,0.3,1.3,0.4
		c0.4,0.2,0.8,0.4,1.3,0.5c0.4,0.2,0.8,0.4,1.1,0.7c0.3,0.2,0.6,0.5,0.9,0.7c0.3,0.3,0.5,0.5,0.7,0.7c0.2,0.2,0.3,0.5,0.5,0.6
		c0.2,0.4,0.3,0.6,0.3,0.6s-0.2-0.1-0.5-0.4c-0.2-0.1-0.3-0.3-0.6-0.5c-0.2-0.2-0.5-0.3-0.8-0.5c-0.3-0.2-0.6-0.3-0.9-0.5
		c-0.3-0.2-0.7-0.3-1.1-0.5c-0.8-0.3-1.6-0.6-2.5-0.8c-0.9-0.2-1.7-0.4-2.5-0.5c-0.8-0.1-1.6-0.2-2.3-0.3C143.3,3.1,142.4,3,142.4,3
		z"/>
	<path class="st9" d="M179.9,58c0,0,0.1,0.3,0.3,0.7c0.1,0.5,0.3,1.2,0.5,2c0.2,0.9,0.3,1.9,0.3,3c0.1,1.1,0,2.3-0.1,3.5
		c-0.1,0.6-0.2,1.2-0.3,1.7c-0.1,0.6-0.3,1.1-0.5,1.6c-0.2,0.5-0.4,1-0.6,1.5c-0.2,0.4-0.4,0.9-0.7,1.2c-0.2,0.4-0.5,0.7-0.7,1
		c-0.2,0.3-0.4,0.5-0.6,0.6c-0.3,0.4-0.5,0.5-0.5,0.5s0.1-0.3,0.4-0.7c0.1-0.2,0.3-0.5,0.5-0.8c0.1-0.3,0.3-0.7,0.5-1
		c0.2-0.4,0.3-0.8,0.5-1.2c0.2-0.4,0.3-0.9,0.5-1.4c0.2-0.5,0.3-1,0.4-1.6c0.1-0.5,0.2-1.1,0.3-1.6c0.1-0.5,0.1-1.1,0.2-1.7
		c0-0.6,0.1-1.1,0.1-1.6c0-1.1,0-2.1,0-2.9c0-0.9-0.1-1.6-0.1-2.1C179.9,58.3,179.9,58,179.9,58z"/>
	<path class="st9" d="M183.2,62.7c0,0,0.3,0.8,0.4,2c0.1,0.6,0.1,1.3,0,2.1c0,0.8-0.2,1.6-0.3,2.3c-0.2,0.8-0.4,1.6-0.8,2.2
		c-0.2,0.3-0.3,0.7-0.5,1c-0.2,0.3-0.3,0.6-0.5,0.8c-0.4,0.5-0.7,0.8-1,1c-0.3,0.2-0.4,0.3-0.4,0.3s0.1-0.2,0.3-0.5
		c0.1-0.1,0.2-0.3,0.3-0.5c0.1-0.2,0.2-0.4,0.4-0.7c0.1-0.2,0.2-0.5,0.4-0.8c0.1-0.3,0.2-0.6,0.4-0.9c0.1-0.3,0.2-0.7,0.3-1
		c0.1-0.3,0.2-0.7,0.3-1.1c0.3-1.5,0.5-3,0.7-4.2C183.1,63.5,183.2,62.7,183.2,62.7z"/>
	<path class="st9" d="M3.8,102.4c0,0,0.5,1,1.2,2.4c0.4,0.7,0.8,1.6,1.2,2.4c0.2,0.4,0.5,0.9,0.7,1.3c0.2,0.5,0.5,0.9,0.8,1.4
		c0.3,0.5,0.5,0.9,0.8,1.3c0.3,0.4,0.6,0.9,0.8,1.2c0.3,0.4,0.6,0.8,0.8,1.1c0.3,0.3,0.6,0.7,0.8,1c0.3,0.3,0.5,0.5,0.7,0.8
		c0.2,0.2,0.4,0.4,0.6,0.6c0.3,0.3,0.5,0.5,0.5,0.5s-0.2-0.1-0.6-0.3c-0.2-0.1-0.5-0.2-0.7-0.4c-0.3-0.2-0.6-0.4-0.9-0.6
		c-0.6-0.5-1.3-1.2-1.9-1.9c-0.3-0.4-0.6-0.8-0.9-1.2c-0.3-0.4-0.6-0.9-0.9-1.4c-0.3-0.5-0.5-0.9-0.8-1.4c-0.2-0.5-0.5-1-0.7-1.4
		c-0.4-0.9-0.7-1.8-1-2.6c-0.2-0.8-0.4-1.5-0.5-1.9C3.8,102.6,3.8,102.4,3.8,102.4z"/>
	<path class="st9" d="M5.2,72.9c0,0-0.2,0.7-0.4,1.9c-0.3,1.2-0.6,3-0.8,5.2c-0.3,2.1-0.4,4.7-0.3,7.3c0,1.3,0.1,2.7,0.3,4.1
		c0.1,1.4,0.4,2.8,0.7,4.2c0.1,0.7,0.3,1.4,0.5,2.1c0.2,0.7,0.4,1.4,0.6,2c0.4,1.3,0.9,2.6,1.5,3.8c0.5,1.2,1.1,2.3,1.7,3.4
		c0.6,1,1.2,2,1.8,2.9c0.6,0.8,1.2,1.6,1.7,2.3c0.6,0.6,1,1.2,1.4,1.7c0.8,0.9,1.3,1.4,1.3,1.4s-0.5-0.4-1.4-1.2
		c-0.5-0.4-1-0.9-1.6-1.5c-0.6-0.6-1.2-1.3-1.9-2.2c-0.6-0.8-1.3-1.8-2-2.8c-0.7-1-1.3-2.2-1.9-3.4c-0.6-1.2-1.1-2.5-1.6-3.9
		c-0.2-0.7-0.4-1.4-0.6-2.1c-0.2-0.7-0.4-1.4-0.5-2.1c-0.3-1.4-0.5-2.9-0.7-4.3c-0.2-1.4-0.2-2.9-0.2-4.2c0-2.8,0.3-5.3,0.6-7.5
		c0.3-2.2,0.8-3.9,1.2-5.1C4.9,73.6,5.2,72.9,5.2,72.9z"/>
</g>
</svg>
