<svg id="Layer_1" data-name="Layer 1" xmlns="http://www.w3.org/2000/svg" viewBox="0 0 577.78 319.93">
  <defs>
    <style>
      .cls-1 {
        fill: #231f20;
      }

      .cls-2 {
        fill: #fff;
      }
    </style>
  </defs>
  <title>cloud_suqare-left_bottom</title>
  <g>
    <path class="cls-1" d="M481.52,314H97.22A92.07,92.07,0,0,1,5.15,221.9V184.09A92.07,92.07,0,0,1,97.22,92H270.49C283.7,55.35,312.71,19.52,373,2.61A200,200,0,0,0,329.91,92H481.54a92.07,92.07,0,0,1,92.09,92.06V221.9A92.09,92.09,0,0,1,481.52,314Z" transform="translate(0.37 -2.61)"/>
    <path class="cls-2" d="M456.47,307.76H102.14a84.91,84.91,0,0,1-84.88-85V187.88a84.92,84.92,0,0,1,84.88-84.94l171.08-2.11c12.17-33.84,27.44-69.77,83-85.37-22.37,26.6-33.94,60.43-39.53,87.48H456.47a84.93,84.93,0,0,1,84.91,84.94v34.91A84.93,84.93,0,0,1,456.47,307.76Z" transform="translate(0.37 -2.61)"/>
    <path class="cls-1" d="M-.37,266.62a24.63,24.63,0,0,0,.44,3.9,44.44,44.44,0,0,0,1,4.39A44,44,0,0,0,3,280.47a52.41,52.41,0,0,0,3,6.32,56.26,56.26,0,0,0,4.24,6.55c.84,1.09,1.68,2.17,2.52,3.3s1.91,2.08,2.92,3.1a70.27,70.27,0,0,0,6.45,5.82c2.31,1.75,4.82,3.25,7.18,4.84,2.53,1.34,5.07,2.52,7.52,3.71,2.53.94,5,1.77,7.35,2.56s4.68,1.09,6.77,1.56a33.22,33.22,0,0,0,5.75.87c1.73.16,3.23.23,4.47.31,2.48.13,3.89.14,3.89.14s-1.34-.47-3.71-1.19l-4.23-1.24a45,45,0,0,1-5.38-1.82c-1.95-.77-4.09-1.41-6.25-2.34s-4.37-2.07-6.72-3.07c-2.23-1.24-4.48-2.63-6.84-3.85-2.16-1.55-4.46-3-6.57-4.66a66.84,66.84,0,0,1-6.1-5.25c-.94-.94-1.88-1.86-2.82-2.74s-1.72-2-2.55-2.92a30.19,30.19,0,0,1-2.37-2.91l-2.19-2.85c-1.24-2-2.6-3.78-3.58-5.58a80.34,80.34,0,0,1-4.63-8.92c-.46-1.12-.88-2-1.1-2.62A8.72,8.72,0,0,1-.37,266.62Z" transform="translate(0.37 -2.61)"/>
    <polygon class="cls-1" points="354.42 319.93 355.2 315.36 392.92 315.73 354.42 319.93"/>
    <polygon class="cls-1" points="160.36 80.92 204.15 82.98 202.1 78.74 160.36 80.92"/>
    <path class="cls-1" d="M525.11,85.91s1.25.34,3.35,1.08c1,.32,2.29.88,3.73,1.37,1.42.64,3,1.2,4.71,2,.84.42,1.71.83,2.62,1.26l2.72,1.47c1.91.93,3.69,2.3,5.66,3.44a67.51,67.51,0,0,1,5.53,4.31c.9.78,1.82,1.56,2.72,2.35l2.45,2.66a46.33,46.33,0,0,1,4.53,5.59c1.42,1.92,2.48,4,3.71,5.92,1.08,2,1.89,4.1,2.83,6,.23.48.44.94.66,1.42s.3,1,.45,1.45c.34.94.65,1.86,1,2.75a43.38,43.38,0,0,1,1.51,4.88c.35,1.5.69,2.79,1,3.87.56,2.17.93,3.42.93,3.42s.07-1.27.1-3.53c0-1.13,0-2.5,0-4.09a28.4,28.4,0,0,0-.59-5.27c-.15-1-.31-2-.49-3-.09-.51-.19-1.05-.29-1.59s-.34-1-.51-1.59a64.65,64.65,0,0,0-2.37-6.72c-.56-1.11-1.14-2.24-1.73-3.38a17.3,17.3,0,0,0-1.93-3.36,50,50,0,0,0-4.88-6.29l-2.76-2.86-3.06-2.54-1.5-1.23c-.54-.39-1.09-.7-1.63-1.06-1.06-.67-2.14-1.37-3.19-2a56.27,56.27,0,0,0-6.41-3.06l-3.08-1.15c-1-.3-2-.59-2.93-.85a46.13,46.13,0,0,0-5.21-1.14c-1.57-.2-2.92-.4-4.05-.45A23.36,23.36,0,0,0,526,85.9Z" transform="translate(0.37 -2.61)"/>
    <path class="cls-1" d="M557.6,87.19s1.31,1.82,3.31,4.16L568,99.73c.62.75,1.2,1.51,1.81,2.27s1.21,1.46,1.69,2.22,1.09,1.43,1.52,2.14,1,1.34,1.35,2,.74,1.22,1.1,1.76.57,1,.8,1.44c.47.82.78,1.29.78,1.29a12.56,12.56,0,0,0,.26-1.49,14.75,14.75,0,0,0-.09-4,16.76,16.76,0,0,0-.6-2.64,17.06,17.06,0,0,0-1.08-2.81A21.4,21.4,0,0,0,574,99.06c-.57-1-1.28-1.79-1.93-2.68a30.27,30.27,0,0,0-4.62-4.46,25.57,25.57,0,0,0-4.7-2.94A18.89,18.89,0,0,0,557.6,87.19Z" transform="translate(0.37 -2.61)"/>
  </g>
</svg>
