<svg id="Layer_1" data-name="Layer 1" xmlns="http://www.w3.org/2000/svg" viewBox="0 0 577.78 319.93">
  <defs>
    <style>
      .cls-1 {
        fill: #231f20;
      }

      .cls-2 {
        fill: #fff;
      }
    </style>
  </defs>
  <title>cloud_suqare-right_bottom</title>
  <g>
    <path class="cls-1" d="M95.51,314h384.3a92.07,92.07,0,0,0,92.08-92.09V184.09A92.07,92.07,0,0,0,479.81,92H306.54C293.33,55.35,264.32,19.52,204.05,2.61A199.88,199.88,0,0,1,247.12,92H95.49A92.07,92.07,0,0,0,3.4,184.09V221.9A92.09,92.09,0,0,0,95.51,314Z" transform="translate(0.37 -2.61)"/>
    <path class="cls-2" d="M120.56,307.76H474.89a84.92,84.92,0,0,0,84.89-85V187.88a84.92,84.92,0,0,0-84.89-84.94l-171.07-2.11c-12.18-33.84-27.44-69.77-83-85.37,22.38,26.6,34,60.43,39.53,87.48H120.56a84.93,84.93,0,0,0-84.9,84.94v34.91A84.93,84.93,0,0,0,120.56,307.76Z" transform="translate(0.37 -2.61)"/>
    <path class="cls-1" d="M577.41,266.62a24.63,24.63,0,0,1-.44,3.9c-.24,1.22-.54,2.72-1,4.39a44.11,44.11,0,0,1-1.92,5.56,52.41,52.41,0,0,1-2.95,6.32,55,55,0,0,1-4.24,6.55c-.84,1.09-1.68,2.17-2.52,3.3s-1.91,2.08-2.92,3.1a70.15,70.15,0,0,1-6.44,5.82c-2.31,1.75-4.82,3.25-7.18,4.84-2.53,1.34-5.08,2.52-7.52,3.71-2.54.94-5,1.77-7.36,2.56s-4.68,1.09-6.76,1.56a33.47,33.47,0,0,1-5.76.87c-1.72.16-3.23.23-4.47.31-2.48.13-3.89.14-3.89.14s1.35-.47,3.71-1.19l4.24-1.24a44.88,44.88,0,0,0,5.37-1.82c1.95-.77,4.09-1.41,6.26-2.34s4.36-2.07,6.72-3.07c2.23-1.24,4.47-2.63,6.84-3.85,2.16-1.55,4.46-3,6.57-4.66a68.22,68.22,0,0,0,6.1-5.25c.94-.94,1.87-1.86,2.81-2.74l2.56-2.92a31.77,31.77,0,0,0,2.37-2.91l2.18-2.85c1.24-2,2.6-3.78,3.59-5.58a80,80,0,0,0,4.62-8.92c.47-1.12.88-2,1.11-2.62A8.72,8.72,0,0,0,577.41,266.62Z" transform="translate(0.37 -2.61)"/>
    <polygon class="cls-1" points="223.36 319.93 222.58 315.36 184.87 315.73 223.36 319.93"/>
    <polygon class="cls-1" points="417.43 80.92 373.64 82.98 375.68 78.74 417.43 80.92"/>
    <path class="cls-1" d="M51.92,85.91s-1.25.34-3.35,1.08c-1,.32-2.29.88-3.72,1.37-1.42.64-3,1.2-4.72,2-.83.42-1.71.83-2.61,1.26l-2.73,1.47c-1.9.93-3.69,2.3-5.65,3.44a67.64,67.64,0,0,0-5.54,4.31c-.9.78-1.82,1.56-2.71,2.35l-2.46,2.66a47.31,47.31,0,0,0-4.53,5.59c-1.41,1.92-2.48,4-3.7,5.92s-1.9,4.1-2.84,6c-.22.48-.43.94-.66,1.42s-.29,1-.45,1.45l-1,2.75a43.57,43.57,0,0,0-1.52,4.88c-.34,1.5-.69,2.79-1,3.87-.56,2.17-.93,3.42-.93,3.42s-.08-1.27-.1-3.53c0-1.13,0-2.5,0-4.09a29.2,29.2,0,0,1,.58-5.27c.16-1,.32-2,.49-3,.09-.51.19-1.05.3-1.59s.33-1,.5-1.59A62.53,62.53,0,0,1,6,115.36c.56-1.11,1.13-2.24,1.72-3.38a17.83,17.83,0,0,1,1.93-3.36,50,50,0,0,1,4.88-6.29l2.76-2.86,3.06-2.54,1.5-1.23c.54-.39,1.09-.7,1.63-1.06,1.07-.67,2.14-1.37,3.19-2a56.39,56.39,0,0,1,6.42-3.06l3.07-1.15c1-.3,2-.59,2.94-.85a45.53,45.53,0,0,1,5.2-1.14c1.57-.2,2.93-.4,4-.45A23.49,23.49,0,0,1,51,85.9Z" transform="translate(0.37 -2.61)"/>
    <path class="cls-1" d="M19.44,87.19S18.13,89,16.12,91.35L9,99.73c-.61.75-1.2,1.51-1.8,2.27S6,103.46,5.54,104.22,4.45,105.65,4,106.36s-1,1.34-1.34,2-.75,1.22-1.1,1.76l-.8,1.44c-.47.82-.79,1.29-.79,1.29a14.47,14.47,0,0,1-.25-1.49,14,14,0,0,1,.09-4,15.64,15.64,0,0,1,.59-2.64,17.12,17.12,0,0,1,1.09-2.81A20.21,20.21,0,0,1,3,99.06c.57-1,1.28-1.79,1.93-2.68a31.22,31.22,0,0,1,4.62-4.46A25.91,25.91,0,0,1,14.27,89,19,19,0,0,1,19.44,87.19Z" transform="translate(0.37 -2.61)"/>
  </g>
</svg>
