<svg id="Layer_4" data-name="Layer 4" xmlns="http://www.w3.org/2000/svg" viewBox="0 0 167.91 143.16">
  <defs>
    <style>
      .cls-1 {
        fill: #fff;
      }
    </style>
  </defs>
  <title>cloud2left</title>
  <g>
    <path d="M182.35,70.7a20.73,20.73,0,0,0-13.5-19.21,20,20,0,0,0-17.63,1.94,24.52,24.52,0,0,0-4.8-22.52c-6.87-8.19-18.61-10.41-28.18-6.21A27,27,0,0,0,67.61,20,16,16,0,1,0,39.28,34a24.38,24.38,0,0,0-23.4,15.87c-4.1,10.91.89,23.37,10.77,29.09a22,22,0,0,0,30.46,28,25.58,25.58,0,0,0,22,19.35c10.61,1.25,20.68-4.85,25.3-14.16a19,19,0,0,0,19.24,8.65c7.38-1.18,13-7,14.82-14a15.83,15.83,0,0,0,26.08-15.79A20.66,20.66,0,0,0,182.35,70.7Z" transform="translate(-14.44 -4.48)"/>
    <path class="cls-1" d="M44.14,102.66s-7.74,10.79-10,20.06a102.9,102.9,0,0,0-2.73,14.73s9.16-18.87,16.8-25.85,10.9-7.42,10.9-7.42-6.65,1.64-9,1.64S44.14,102.66,44.14,102.66Z" transform="translate(-14.44 -4.48)"/>
    <path class="cls-1" d="M177.32,70.49A18.09,18.09,0,0,0,144,60.79l0-.07a21.61,21.61,0,0,0-27.54-32.17,24.49,24.49,0,0,0-48.27.65l-.3,0a13.49,13.49,0,0,0,.32-2.93A13.93,13.93,0,1,0,45.49,37.16a22.06,22.06,0,0,0-4.41-.45,21.62,21.62,0,0,0-9.54,41A19.69,19.69,0,0,0,59.89,102.9a22.73,22.73,0,0,0,44.1,3.8,16.49,16.49,0,0,0,31.83-4.9,13.76,13.76,0,0,0,24-13.23A18.09,18.09,0,0,0,177.32,70.49Z" transform="translate(-14.44 -4.48)"/>
    <path d="M52,96.31S38,105.79,33.11,132.23c0,0,5.29-19.13,26.25-29.71s36.48-8.15,36.48-8.15-20.43,1-30.36,7S48.15,111.87,40,124.67s-10.42,23-10.42,23,0-15.13,2.82-25,6.4-15.75,10.33-20A30,30,0,0,1,52,96.31Z" transform="translate(-14.44 -4.48)"/>
  </g>
</svg>
