<svg id="Layer_5" data-name="Layer 5" xmlns="http://www.w3.org/2000/svg" viewBox="0 0 183 144.51">
  <defs>
    <style>
      .cls-1, .cls-3 {
        fill: #fff;
      }

      .cls-2, .cls-3 {
        fill-rule: evenodd;
      }
    </style>
  </defs>
  <title>cloud1right</title>
  <path d="M93.08,3.27c24.83,0,47.35,6.08,64,16.2s27.53,24.56,27.53,41-10.89,30.93-27.5,41-39.16,16.2-64,16.2-47.38-6.08-64-16.2S1.57,76.92,1.57,60.47s10.93-30.89,27.55-41,39.13-16.2,64-16.2Z" transform="translate(-1.57 -3.27)"/>
  <path class="cls-1" d="M5.19,63.28c0,28.6,36.83,51.81,82.21,51.81s82.21-23.21,82.21-51.81S132.78,11.47,87.4,11.47,5.19,34.68,5.19,63.28Z" transform="translate(-1.57 -3.27)"/>
  <path d="M90.26,114.5C44.88,114.5,8,91.47,8,63.16S44.88,11.81,90.26,11.81s82.33,23,82.33,51.35S135.66,114.5,90.26,114.5Zm0-104.22C43.24,10.28,5,34,5,63.16S43.24,116,90.26,116s85.3-23.73,85.3-52.87S137.3,10.28,90.26,10.28Z" transform="translate(-1.57 -3.27)"/>
  <path class="cls-2" d="M81.79,114c10.65,25.77,31.53,28.31,51.11,33.8-12.17-10.19-20.36-22-20.49-37.27" transform="translate(-1.57 -3.27)"/>
  <path class="cls-3" d="M75,103.92c8.24,18,24.81,29.41,46.36,36.25C110.16,129.52,110,110,114.5,101.37L75,103.92Z" transform="translate(-1.57 -3.27)"/>
</svg>
