<svg id="Layer_1" data-name="Layer 1" xmlns="http://www.w3.org/2000/svg" viewBox="0 0 577.78 319.93">
  <defs>
    <style>
      .cls-1 {
        fill: #231f20;
      }

      .cls-2 {
        fill: #fff;
      }
    </style>
  </defs>
  <title>cloud_suqare-left_top</title>
  <g>
    <path class="cls-1" d="M481.52,11.17H97.22A92.07,92.07,0,0,0,5.15,103.25v37.81a92.07,92.07,0,0,0,92.07,92.07H270.49c13.21,36.68,42.22,72.51,102.49,89.41a199.9,199.9,0,0,1-43.07-89.41H481.54a92.07,92.07,0,0,0,92.09-92.07V103.25A92.09,92.09,0,0,0,481.52,11.17Z" transform="translate(0.37 -2.61)"/>
    <path class="cls-2" d="M456.47,17.39H102.14a84.92,84.92,0,0,0-84.88,85v34.9a84.92,84.92,0,0,0,84.88,84.95l171.08,2.11c12.17,33.84,27.44,69.77,83,85.36-22.37-26.59-33.94-60.43-39.53-87.47H456.47a84.94,84.94,0,0,0,84.91-84.95v-34.9A84.94,84.94,0,0,0,456.47,17.39Z" transform="translate(0.37 -2.61)"/>
    <path class="cls-1" d="M-.37,58.53a24.74,24.74,0,0,1,.44-3.9c.23-1.21.53-2.71,1-4.38A43.51,43.51,0,0,1,3,44.68a52.41,52.41,0,0,1,3-6.32,57.11,57.11,0,0,1,4.24-6.55c.84-1.09,1.68-2.17,2.52-3.3s1.91-2.07,2.92-3.09a68.85,68.85,0,0,1,6.45-5.82c2.31-1.75,4.82-3.25,7.18-4.84,2.53-1.34,5.07-2.53,7.52-3.72,2.53-.94,5-1.77,7.35-2.55S48.81,7.4,50.9,6.93a34.3,34.3,0,0,1,5.75-.88c1.73-.15,3.23-.22,4.47-.31C63.6,5.62,65,5.6,65,5.6s-1.34.47-3.71,1.19L57.07,8a45,45,0,0,0-5.38,1.82c-1.95.77-4.09,1.41-6.25,2.34s-4.37,2.06-6.72,3.06c-2.23,1.24-4.48,2.63-6.84,3.86-2.16,1.54-4.46,3-6.57,4.65A66.94,66.94,0,0,0,19.21,29c-.94.93-1.88,1.85-2.82,2.74l-2.55,2.91a30.3,30.3,0,0,0-2.37,2.92c-.74.95-1.49,1.92-2.19,2.85C8,42.44,6.68,44.22,5.7,46a80.34,80.34,0,0,0-4.63,8.91c-.46,1.13-.88,2-1.1,2.63A9.15,9.15,0,0,0-.37,58.53Z" transform="translate(0.37 -2.61)"/>
    <polygon class="cls-1" points="354.42 0 355.2 4.57 392.92 4.2 354.42 0"/>
    <polygon class="cls-1" points="160.36 239 204.15 236.95 202.1 241.19 160.36 239"/>
    <path class="cls-1" d="M525.11,239.24s1.25-.34,3.35-1.08c1-.31,2.29-.87,3.73-1.37s3-1.2,4.71-2l2.62-1.25,2.72-1.47c1.91-.93,3.69-2.31,5.66-3.44a67.64,67.64,0,0,0,5.53-4.32l2.72-2.34,2.45-2.66a46.42,46.42,0,0,0,4.53-5.6c1.42-1.91,2.48-4,3.71-5.92,1.08-2,1.89-4.09,2.83-6,.23-.48.44-.94.66-1.42s.3-1,.45-1.45c.34-.94.65-1.86,1-2.74a44,44,0,0,0,1.51-4.88c.35-1.5.69-2.79,1-3.87.56-2.17.93-3.42.93-3.42s.07,1.27.1,3.52c0,1.13,0,2.5,0,4.09a28.22,28.22,0,0,1-.59,5.27c-.15,1-.31,2-.49,3-.09.52-.19,1.05-.29,1.59s-.34,1.05-.51,1.59a64.65,64.65,0,0,1-2.37,6.72c-.56,1.11-1.14,2.25-1.73,3.39a17.52,17.52,0,0,1-1.93,3.35,50,50,0,0,1-4.88,6.29l-2.76,2.86-3.06,2.55-1.5,1.22c-.54.39-1.09.71-1.63,1.06-1.06.68-2.14,1.37-3.19,2a54.62,54.62,0,0,1-6.41,3.06c-1.07.41-2.09.79-3.08,1.15s-2,.59-2.93.85a44,44,0,0,1-5.21,1.14c-1.57.21-2.92.41-4.05.45a23.36,23.36,0,0,1-2.62.07Z" transform="translate(0.37 -2.61)"/>
    <path class="cls-1" d="M557.6,238s1.31-1.82,3.31-4.16l7.09-8.38c.62-.75,1.2-1.51,1.81-2.26s1.21-1.47,1.69-2.22,1.09-1.44,1.52-2.14,1-1.35,1.35-2,.74-1.21,1.1-1.76.57-1,.8-1.44c.47-.81.78-1.29.78-1.29a12.54,12.54,0,0,1,.26,1.5,14.68,14.68,0,0,1-.09,4,16.62,16.62,0,0,1-.6,2.65,17,17,0,0,1-1.08,2.8A20.89,20.89,0,0,1,574,226.1c-.57.94-1.28,1.78-1.93,2.68a30.2,30.2,0,0,1-4.62,4.45,25.66,25.66,0,0,1-4.7,3A18.62,18.62,0,0,1,557.6,238Z" transform="translate(0.37 -2.61)"/>
  </g>
</svg>
