<svg id="Layer_6" data-name="Layer 6" xmlns="http://www.w3.org/2000/svg" viewBox="0 0 183 136.43">
  <defs>
    <style>
      .cls-1, .cls-3 {
        fill: #fff;
      }

      .cls-2, .cls-3 {
        fill-rule: evenodd;
      }
    </style>
  </defs>
  <title>cloud3left</title>
  <g>
    <path d="M93.22,6.79c24.83,0,47.35,6.09,64,16.2s27.54,24.57,27.54,41-10.9,30.92-27.51,41-39.16,16.2-64,16.2-47.39-6.09-64-16.2S1.72,80.44,1.72,64,12.65,33.1,29.26,23s39.13-16.2,64-16.2Z" transform="translate(-1.72 -6.79)"/>
    <path class="cls-1" d="M5.34,66.8c0,28.61,36.83,51.82,82.21,51.82s82.2-23.21,82.2-51.82S132.92,15,87.55,15,5.34,38.2,5.34,66.8Z" transform="translate(-1.72 -6.79)"/>
    <path d="M90.41,118C45,118,8.1,95,8.1,66.68S45,15.34,90.41,15.34s82.32,23,82.32,51.34S135.81,118,90.41,118Zm0-104.22c-47,0-85.29,23.72-85.29,52.87s38.26,52.87,85.29,52.87,85.3-23.72,85.3-52.87S137.44,13.81,90.41,13.81Z" transform="translate(-1.72 -6.79)"/>
    <path class="cls-2" d="M31.91,82.21c-17.76,21.51-10.22,41.14-5.88,61,3.3-15.53,9.92-28.32,23.31-35.58" transform="translate(-1.72 -6.79)"/>
    <path class="cls-3" d="M37.61,71.51c-12,15.75-14.33,35.72-10.27,58,4.14-14.9,21.28-24.22,31.05-24.28L37.61,71.51Z" transform="translate(-1.72 -6.79)"/>
  </g>
</svg>
