<svg id="Layer_8" data-name="Layer 8" xmlns="http://www.w3.org/2000/svg" viewBox="0 0 165.85 148.53">
  <defs>
    <style>
      .cls-1 {
        fill: #fff;
      }
    </style>
  </defs>
  <title>cloud4left</title>
  <g>
    <path d="M21,86.87a38.34,38.34,0,0,1-9.49-20C7.38,37.23,41,8,86.58,1.62s86,12.39,90.12,42-29.44,58.81-75,65.22a120.35,120.35,0,0,1-40.15-.91c-14.56,8.89-37.72,23.57-39,41C22.46,148.9,15,117.66,21,86.87Z" transform="translate(-11.2 -0.37)"/>
    <path class="cls-1" d="M24.16,82.14a34.4,34.4,0,0,1-8.94-18.38C11.4,36.55,43.45,9.57,86.82,3.46s81.63,11,85.46,38.21-28.23,54.2-71.6,60.3a117.78,117.78,0,0,1-38.15-.67C48.64,109.55,23.36,122.7,22,138.72,22,138.72,18.32,110.48,24.16,82.14Z" transform="translate(-11.2 -0.37)"/>
  </g>
</svg>
