<svg id="Layer_1" data-name="Layer 1" xmlns="http://www.w3.org/2000/svg" viewBox="0 0 100 114">
  <defs>
    <style>
      .cls-1 {
        fill: #fff;
      }

      .cls-2 {
        fill: #1a171b;
      }
    </style>
  </defs>
  <title>cloud-tail-thought-left</title>
  <g>
    <path class="cls-1" d="M33.1,47c15.59,0,28.26-9.8,28.26-21.85S48.69,3.27,33.1,3.27,4.82,13.06,4.82,25.11,17.5,47,33.1,47Z"/>
    <path class="cls-2" d="M33.09.69c17,0,30.85,10.93,30.85,24.42S50.13,49.53,33.09,49.53,2.25,38.61,2.25,25.11,16.06.69,33.09.69m0,5.14c-14.17,0-25.7,8.66-25.7,19.28s11.53,19.28,25.7,19.28S58.8,35.74,58.8,25.11,47.27,5.83,33.09,5.83Z"/>
  </g>
  <g>
    <path class="cls-1" d="M54.94,87.3c10.55,0,19.15-6.57,19.15-14.63S65.49,58,54.94,58,35.79,64.6,35.79,72.67,44.39,87.3,54.94,87.3Z"/>
    <path class="cls-2" d="M54.94,55.47c12,0,21.72,7.71,21.72,17.2S66.94,89.86,54.94,89.86,33.23,82.17,33.23,72.67,43,55.47,54.94,55.47m0,5.15c-9,0-16.57,5.52-16.57,12.05s7.59,12,16.57,12,16.58-5.51,16.58-12S63.93,60.62,54.94,60.62Z"/>
  </g>
  <g>
    <path class="cls-1" d="M83.22,110.43c6.08,0,11-3.68,11-8.2s-5-8.2-11-8.2-11,3.68-11,8.2,4.94,8.2,11,8.2Z"/>
    <path class="cls-2" d="M83.22,91.46c7.51,0,13.6,4.82,13.6,10.77S90.73,113,83.22,113s-13.59-4.82-13.59-10.77,6.09-10.77,13.59-10.77m0,5.15c-4.5,0-8.45,2.63-8.45,5.62s4,5.62,8.45,5.62,8.46-2.62,8.46-5.62-4-5.62-8.46-5.62Z"/>
  </g>
</svg>
