<svg id="Layer_8" data-name="Layer 8" xmlns="http://www.w3.org/2000/svg" viewBox="0 0 165.85 148.53">
  <defs>
    <style>
      .cls-1 {
        fill: #fff;
      }
    </style>
  </defs>
  <title>cloud4right</title>
  <g>
    <path d="M167.2,86.87a38.35,38.35,0,0,0,9.5-20c4.16-29.6-29.43-58.8-75-65.21S15.71,14,11.55,43.61s29.43,58.81,75,65.22a120.3,120.3,0,0,0,40.14-.91c14.56,8.89,37.72,23.57,39.05,41C165.78,148.9,173.21,117.66,167.2,86.87Z" transform="translate(-11.2 -0.37)"/>
    <path class="cls-1" d="M164.08,82.14A34.4,34.4,0,0,0,173,63.76c3.83-27.21-28.23-54.19-71.6-60.3S19.79,14.47,16,41.67s28.23,54.2,71.6,60.3a117.85,117.85,0,0,0,38.16-.67c13.88,8.25,39.16,21.4,40.51,37.42C166.23,138.72,169.92,110.48,164.08,82.14Z" transform="translate(-11.2 -0.37)"/>
  </g>
</svg>
