<svg id="Layer_5" data-name="Layer 5" xmlns="http://www.w3.org/2000/svg" viewBox="0 0 183 144.51">
  <defs>
    <style>
      .cls-1, .cls-3 {
        fill: #fff;
      }

      .cls-2, .cls-3 {
        fill-rule: evenodd;
      }
    </style>
  </defs>
  <title>cloud1left</title>
  <path d="M93.07,3.27c-24.83,0-47.35,6.08-64,16.2S1.57,44,1.57,60.47s10.9,30.93,27.51,41,39.16,16.2,64,16.2,47.38-6.08,64-16.2,27.51-24.59,27.51-41-10.92-30.89-27.54-41-39.13-16.2-64-16.2Z" transform="translate(-1.57 -3.27)"/>
  <path class="cls-1" d="M181,63.28c0,28.6-36.83,51.81-82.2,51.81S16.54,91.88,16.54,63.28,53.37,11.47,98.75,11.47,181,34.68,181,63.28Z" transform="translate(-1.57 -3.27)"/>
  <path d="M13.56,63.16c0-28.31,36.92-51.35,82.32-51.35s82.31,23,82.31,51.35S141.27,114.5,95.88,114.5,13.56,91.47,13.56,63.16Zm-3,0C10.58,92.3,48.84,116,95.88,116s85.28-23.73,85.28-52.87S142.91,10.28,95.88,10.28,10.58,34,10.58,63.16Z" transform="translate(-1.57 -3.27)"/>
  <path class="cls-2" d="M104.36,114c-10.66,25.77-31.53,28.31-51.11,33.8,12.17-10.19,20.36-22,20.49-37.27" transform="translate(-1.57 -3.27)"/>
  <path class="cls-3" d="M111.14,103.92c-8.25,18-24.82,29.41-46.36,36.25C76,129.52,76.19,110,71.65,101.37l39.49,2.55Z" transform="translate(-1.57 -3.27)"/>
</svg>
