<svg id="Layer_1" data-name="Layer 1" xmlns="http://www.w3.org/2000/svg" viewBox="0 0 578.92 575.12">
  <defs>
    <style>
      .cls-1 {
        fill: #fff;
      }

      .cls-2 {
        fill: none;
      }

      .cls-3 {
        fill: #231f20;
      }
    </style>
  </defs>
  <title>dont-suck</title>
  <g>
    <path d="M264.41,127.92a88.19,88.19,0,0,1,104.11,13.21,74.2,74.2,0,0,0-122.55.55A88.89,88.89,0,0,1,264.41,127.92Z" transform="translate(-10.46 -12.33)"/>
    <path class="cls-1" d="M451.15,436.84q-3.12,1.65-6.32,3a74.18,74.18,0,0,1-82,30.21,119.63,119.63,0,0,1-172.16-25.87,70.79,70.79,0,0,1-85.5-89c-.34-.78-.64-1.55-.94-2.35a74,74,0,0,1,4.11-61.17,70.86,70.86,0,0,1,35-87.67,88.55,88.55,0,0,1-.76-11.7,89.6,89.6,0,0,1,135.13-77.15,74.19,74.19,0,0,1,79.5,13.4,87.18,87.18,0,0,1,15.62-.46,85,85,0,0,1,79.54,90.06,83.25,83.25,0,0,1-2.27,15,75.42,75.42,0,0,1,12.43,5.49,74.21,74.21,0,0,1,32.24,93.49A89,89,0,0,1,451.15,436.84Z" transform="translate(-10.46 -12.33)"/>
    <path d="M146.36,201.23A93.54,93.54,0,0,1,282,117.76a89.6,89.6,0,0,0-130.22,115A93,93,0,0,1,146.36,201.23Z" transform="translate(-10.46 -12.33)"/>
    <path d="M112,360.91A88.21,88.21,0,0,1,140.79,260a74.22,74.22,0,0,0-18,121.22A88.89,88.89,0,0,1,112,360.91Z" transform="translate(-10.46 -12.33)"/>
    <path d="M106.94,274.87a73.9,73.9,0,0,1,107.21-66,70.81,70.81,0,0,0-102.91,90.86A73.59,73.59,0,0,1,106.94,274.87Z" transform="translate(-10.46 -12.33)"/>
    <path d="M198.18,438.69a73.94,73.94,0,0,1-93-84.91,70.83,70.83,0,0,0,115.7,73.92A73.83,73.83,0,0,1,198.18,438.69Z" transform="translate(-10.46 -12.33)"/>
    <path d="M335.09,481.85c-65.49,21.39-132.48-3.75-149.61-56.16a83.69,83.69,0,0,1-1.25-47c-7.75,18.7-9.29,38.75-3.06,57.79,16.42,50.22,80.58,74.32,143.34,53.82a143.87,143.87,0,0,0,48.73-27A153.23,153.23,0,0,1,335.09,481.85Z" transform="translate(-10.46 -12.33)"/>
    <path d="M363.88,131.74A88.72,88.72,0,0,1,435,265.06a85,85,0,0,0-101.22-130A88.42,88.42,0,0,1,363.88,131.74Z" transform="translate(-10.46 -12.33)"/>
    <path d="M451.3,237.78a88.2,88.2,0,0,1,43.22,95.62,74.16,74.16,0,0,0-64.59-104.12A88.24,88.24,0,0,1,451.3,237.78Z" transform="translate(-10.46 -12.33)"/>
    <path d="M430.08,451.71a88.18,88.18,0,0,1-104.76-6.26,74.16,74.16,0,0,0,122.21-8.7A88.36,88.36,0,0,1,430.08,451.71Z" transform="translate(-10.46 -12.33)"/>
    <path d="M480.32,310.3a92.92,92.92,0,0,1-80.47,136.25,89,89,0,0,0,61.08-161.4A92.41,92.41,0,0,1,480.32,310.3Z" transform="translate(-10.46 -12.33)"/>
    <path class="cls-2" d="M175.85,338.19a119.43,119.43,0,0,0-6,42.89c.82.78,3.05,2.81,6.36,5.63A124.29,124.29,0,0,1,175.85,338.19Z" transform="translate(-10.46 -12.33)"/>
    <path d="M147.31,410.41a2.17,2.17,0,0,0-1.4,0c-.77.34-.64,1.38.32,2.62a12.49,12.49,0,0,0,3.91,3.26c3.17,1.71,6.32,1.41,6-.92-.27-2.5-4-6.58-8.21-8.8-4-2.22-7.58-2.2-8.62-.46-.7,1.08-.4,2.91.87,5a27.62,27.62,0,0,0,5.44,6A37.6,37.6,0,0,0,153,422a27.24,27.24,0,0,0,7.51,2.46,27.58,27.58,0,0,1-8.68-3.09,37.42,37.42,0,0,1-8-5.86c-2.28-2.26-4.19-4.79-4.7-6.76-.61-2.17.34-3.71,2.67-3.83,2.5-.25,6.46,1.35,9.76,4.16s5.21,6,4.23,7.43c-.75,1.38-3.91,1-6.56-.82a11.22,11.22,0,0,1-3.15-3c-.69-1-.69-1.85-.06-2.12-.43.27-.48,1,0,1.82a10.69,10.69,0,0,0,2.91,2.94,8.55,8.55,0,0,0,4.71,1.7c1.36-.05,2.11-.83,1.86-2.12-.55-2.84-5.22-7.27-9.44-8.84,0,0,0-.14-.06-.18-2.88-1.12-5.2-1-6.18.11s-.79,2.71.28,4.65c2,3.67,6.93,8.08,11.75,10.63,5.09,2.75,10.72,3.91,14.06,2.81a4.81,4.81,0,0,0,3.55-3.92c.37-2.12-.56-5-2.41-8.18.47.92.12.37,0,.18L167,412l.1.19c-.16-.18-.07-.07.69,1.49-.76-1.56-.85-1.67-.69-1.49,3.55,6,2.82,10.5-1.22,11.76-3.21,1.12-8.65.06-13.62-2.53-4.7-2.43-9.56-6.66-11.73-10.29-1.17-1.91-1.46-3.66-.74-4.71s2.8-1.46,5.44-.65c-4.11-1.28-6.42.23-5.67,3.05.56,2.49,3.48,6,6.81,8.66a32.21,32.21,0,0,0,11.11,6c4,1.17,7.65,1.13,9.75-.33,5.63-3.56-.63-15.66-13-24.69-6.13-4.56-12.71-7.58-17.93-8.26-4.62-.55-8,.46-9.72,2.61a6.54,6.54,0,0,0-1.3,3.11c-.59,3.05.88,7.24,3.68,11.44-.41-.53-.07.15-.23,0s-.31-.39-.84-1.19a24.21,24.21,0,0,1-2.16-4.1.7.7,0,0,1-.17-.09,42.39,42.39,0,0,0,4.31,7.56c.23.35.05.22-.55-.52a37.92,37.92,0,0,1-3-4.34c-3.25-5.3-4.88-11.86-1.34-15.35,2.15-2.14,6-3.29,11.57-2.32,6.31,1.09,14,4.93,20.92,10.34,10,7.84,16.15,17.29,15.51,23.48-.5,5-6.3,6.4-13.1,4.56A32.86,32.86,0,0,1,153.3,423a39.29,39.29,0,0,1-6.41-4c-4-3-7.67-6.94-9.11-10.28-1.63-3.77.3-6.33,5-5.49a21.12,21.12,0,0,1,8.79,4.24,19.8,19.8,0,0,1,6.1,7.09c.72,1.55.69,3.14-.55,3.82s-3.19.55-5.51-.4a17.86,17.86,0,0,1-5.85-4,7.49,7.49,0,0,1-2.08-3.28c-.16-.94.17-1.16.29-1.26s.19,0,.17.12c-.46.58-.2,1.71.6,2.85a14.06,14.06,0,0,0,3.22,3.3,15.65,15.65,0,0,0,4.18,2.31,8,8,0,0,0,3.6.51c2.1-.28,2.67-2.21,1.18-4.76a22.58,22.58,0,0,0-7.89-7.65c-4.14-2.54-7.89-3.06-9.82-2.17s-2.09,2.82-1,5.27c2,4.41,8.11,10,14,13.1-5.76-3-11.81-8.5-13.91-12.94-1.16-2.46-.92-4.54.82-5.38,1.91-.94,5.65-.46,9.88,2.12a22.57,22.57,0,0,1,7.84,7.61c1.48,2.52.94,4.43-1.1,4.74-1.76.34-4.91-.63-7.57-2.62s-4.78-4.75-4-6.06c0,.28.08.55.29.3a1.09,1.09,0,0,1,.78-.62,4.55,4.55,0,0,1,2.74.42,8.68,8.68,0,0,1,3.34,2.7c.42.59.4.79.34.78a13.06,13.06,0,0,0-2.18-2A5.57,5.57,0,0,0,147.31,410.41Z" transform="translate(-10.46 -12.33)"/>
    <path d="M280,385.38l11.9-6.91,2.23,13,15.36,8.86-15.32,5.05-3,19.4-13.78-16.52-22.09.8,13.53-14.71-4.92-12-.91-2.24,17,5.21Zm-14.59-3.26-.53,1.08.53-1.08Zm2.45,2,4.67,10.81-9.3,10.59,15.73-.42,9.91,11.63,2.46-13.62,11.78-3.69-11.6-6.73L290,382.45,280.79,388l-12.89-3.92Z" transform="translate(-10.46 -12.33)"/>
    <path d="M389.56,223.73l-.78-3.32,3.24.41,3.21-3,.08,4,4.36,2.1L394.78,226l-1.4,5.27L390.87,227l-3.18.29-.59.05,2.46-3.64ZM387.72,227l.23.19-.23-.19Zm.65-.44,2.9-.33,1.83,3,1-3.75,3.47-1.5-3.05-1.57v-3.05l-2.42,2.25-2.54-.36.65,2.58-1.86,2.76Z" transform="translate(-10.46 -12.33)"/>
    <path d="M210.25,138.88l-2-8.66,8.46,1.08,8.39-7.83.24,10.44,11.41,5.51-12.8,5.4-3.68,13.81-6.55-11.14-8.32.76-1.55.16,6.41-9.53Zm-4.75,8.4.56.53-.56-.53Zm1.68-1.12,7.57-.85,4.77,7.75,2.74-9.81,9.05-3.95-7.95-4.08-.06-8L217,133.15l-6.61-1,1.71,6.75-4.87,7.23Z" transform="translate(-10.46 -12.33)"/>
    <path d="M434.2,412c1.46-5,1.82-10.71,2.68-15.88,3.14.51,6.25,1.12,9.42,1.79.44.1,1.32.28,1.76.39a15.27,15.27,0,0,1,5.45.58c-.21-1,2.1-2.42-1.59-3,.06-.19.14-.56.19-.74,3.81,0,6-2.15,2.49-3.9-4-1.87-9.81-2.33-14.92-3.52-.79-.18-1.57-.34-2.37-.48,0-.88-.07-1.75-.11-2.62-.4-5.23,0-11.05-1.21-15.29-1.19-3.74-3.66-1.91-4.22,1.87l-.76.06c0-3.71-1.72-1.65-2.72-2a15.73,15.73,0,0,1-.24,5.46c0,.45.07,1.36.11,1.81.17,3.28.3,6.52.32,9.74,0,0-.1,0-.15,0-5.25.07-10.94-.46-16.16.21-1.89.16-5.21-.43-6.17.19a.84.84,0,0,0-.57,1.14c3.1-.14,6.18-.12,9.23-.11,3.74-.1,7.5-.11,11.28-.16-3.71.21-7.47.18-11.28.16-3.05.09-6.09.2-9.13.47a1.66,1.66,0,0,1,.05,1.18l-1.41,0c-1.82,1-1.24,2.33-.34,3.25l.79.61.67-.12c4.08-.66,8.24-.42,12.83-.57a62,62,0,0,1,10.09.57c-7.6-.42-15.68-.88-22.89.59a5.11,5.11,0,0,0,2.62.77c2.44-.18,4.86-.26,7.27-.26,0-.21,0-.57,0-.78,4.43.55,8.77.3,13.1.61,0,.2,0,.4,0,.6a111.46,111.46,0,0,0-12.85-.43,121.08,121.08,0,0,1,12.83.73,125.57,125.57,0,0,1-1.23,12.59,116.36,116.36,0,0,0,1.51-12.57l.6.07c-.38,4.27-1.24,8.45-1.41,12.85l-.75-.09c-.36,2.39-.81,4.77-1.37,7.16a5.1,5.1,0,0,0,.35,2.7c2.57-6.9,3.34-14.94,4.1-22.51h0a61.54,61.54,0,0,1-1,10c-.88,4.51-1.25,8.65-2.53,12.6l-.22.62c.15.33.33.63.47.88.77,1.05,2,1.82,3.27.16l.26-1.38a1.63,1.63,0,0,1,1.15.23c.72-3,1.31-5.95,1.85-8.95.56-3.77,1.13-7.48,1.9-11.1-.63,3.71-1.21,7.42-1.9,11.1-.46,3-.9,6.06-1.49,9.11a.83.83,0,0,0,1.2-.41C433.81,417.18,433.77,413.81,434.2,412Zm-5.59-17.31c0-.2,0-.4,0-.61l.63.06c0,.19,0,.4,0,.6A4.07,4.07,0,0,1,428.61,394.65Z" transform="translate(-10.46 -12.33)"/>
    <path d="M416.63,115.59S467,128.18,483.56,176C483.56,176,476.74,126.05,416.63,115.59Z" transform="translate(-10.46 -12.33)"/>
    <path d="M432.26,104s49.58,18.67,56.84,64.86C489.1,168.83,489.77,123.78,432.26,104Z" transform="translate(-10.46 -12.33)"/>
    <path d="M206.78,482.48s31.82,30.22,73.1,17.31C279.88,499.79,236.85,515.48,206.78,482.48Z" transform="translate(-10.46 -12.33)"/>
    <path d="M211.4,497.27s31.52,21.67,62.08,12C273.48,509.3,240.12,524.12,211.4,497.27Z" transform="translate(-10.46 -12.33)"/>
    <path d="M254.42,451.85a75.78,75.78,0,0,0,4,7.87c-1.55.79-3.12,1.55-4.74,2.31l-.89.41a8.77,8.77,0,0,1-2.6,1.53c.43.38-.12,1.74,1.68.8,0,.08.12.28.17.38-1.7,1.24-1.94,2.91.18,2.53,2.39-.49,5.08-2.19,7.73-3.36.4-.18.8-.36,1.19-.56.29.38.61.76.92,1.12,1.89,2.17,3.6,4.86,5.54,6.33,1.76,1.24,2.24-.37,1.25-2.22a2.73,2.73,0,0,0,.31-.27c1.22,1.63,1.31.16,1.86,0a8.32,8.32,0,0,1-1.69-2.48c-.15-.17-.48-.56-.63-.75-1.17-1.38-2.28-2.77-3.35-4.2,0,0,.05,0,.06,0a83.66,83.66,0,0,0,7.05-5.39c.77-.68,2.42-1.54,2.65-2.1a.46.46,0,0,0-.14-.7c-1.32,1.06-2.67,2.07-4,3.07-1.62,1.29-3.26,2.52-4.89,3.78,1.55-1.31,3.21-2.52,4.89-3.78,1.32-1,2.61-2.09,3.87-3.19a1,1,0,0,1-.41-.5s.39-.33.6-.48c.47-1.06-.21-1.45-.91-1.55a4.87,4.87,0,0,0-.55,0l-.24.3a58.61,58.61,0,0,1-5.48,4.44,33.44,33.44,0,0,1-4.62,3.08c3.49-2.32,7.19-4.77,9.9-7.78a2.69,2.69,0,0,0-1.42.52c-1,.88-2.06,1.71-3.13,2.51.08.09.2.26.26.34-2.14,1.22-4,2.75-6,4a2.33,2.33,0,0,0-.17-.26,66.83,66.83,0,0,0,5.79-4c-1.92,1.41-3.87,2.7-5.88,3.89a65.74,65.74,0,0,1-3.6-5.95,58.19,58.19,0,0,0,3.47,6,3.18,3.18,0,0,1-.3.17c-1.23-2-2.23-4.12-3.6-6.11l.34-.21c-.6-1.16-1.18-2.36-1.72-3.6a3,3,0,0,0-1-1.07c1.12,3.87,3.44,7.67,5.59,11.25h0a35.12,35.12,0,0,1-2.88-4.75,58.44,58.44,0,0,1-3-6.36l-.12-.36-.49-.23c-.67-.21-1.47-.13-1.48,1,.11.24.34.69.34.69a.82.82,0,0,1-.59.27c.66,1.54,1.38,3.05,2.14,4.56,1,1.83,2,3.65,2.8,5.51-.93-1.86-1.91-3.68-2.8-5.51-.8-1.49-1.6-3-2.33-4.52a.48.48,0,0,0-.41.59C252.87,449.43,254,450.9,254.42,451.85Zm8.15,5.79.18.27-.29.18c0-.1-.12-.18-.18-.28Z" transform="translate(-10.46 -12.33)"/>
    <path d="M319,124.92a53.18,53.18,0,0,0,2.95,5.71c-1.13.58-2.27,1.14-3.46,1.68l-.64.3a6.35,6.35,0,0,1-1.87,1.1c.31.28-.09,1.27,1.21.57l.12.3c-1.22.9-1.4,2.1.14,1.82,1.72-.36,3.69-1.59,5.6-2.42.3-.14.58-.27.87-.42q.33.42.66.81c1.38,1.58,2.62,3.54,4,4.6,1.27.9,1.63-.27.9-1.61l.23-.19c.9,1.18,1,.1,1.35,0a6.57,6.57,0,0,1-1.22-1.8c-.12-.15-.36-.42-.46-.56-.85-1-1.67-2-2.44-3,0,0,0,0,.05-.05a60.22,60.22,0,0,0,5.12-3.91c.57-.51,1.75-1.1,1.91-1.53a.34.34,0,0,0-.08-.51c-1,.78-1.94,1.51-2.93,2.24-1.17.92-2.37,1.83-3.56,2.75,1.15-1,2.35-1.84,3.56-2.75.95-.75,1.9-1.52,2.82-2.32-.14-.11-.28-.2-.3-.38,0,0,.28-.22.44-.33.33-.78-.16-1.06-.67-1.13H333l-.18.2a44.62,44.62,0,0,1-4,3.24,24.27,24.27,0,0,1-3.37,2.23,37.73,37.73,0,0,0,7.18-5.64,2,2,0,0,0-1,.37c-.74.65-1.48,1.25-2.25,1.83l.17.23c-1.55.9-2.88,2-4.33,3-.06-.07-.08-.14-.14-.2a50.35,50.35,0,0,0,4.21-2.92c-1.38,1-2.81,2-4.27,2.82-.93-1.39-1.81-2.82-2.61-4.32a41.86,41.86,0,0,0,2.52,4.38l-.22.11c-.88-1.45-1.62-3-2.62-4.43a1.51,1.51,0,0,1,.28-.15c-.47-.86-.89-1.73-1.29-2.62a2.17,2.17,0,0,0-.75-.78,36.49,36.49,0,0,0,4.08,8.17h0a22.79,22.79,0,0,1-2.09-3.45,40,40,0,0,1-2.2-4.62L320,121c-.12-.07-.25-.12-.35-.17-.49-.15-1.07-.11-1.09.73.09.17.25.5.25.5a.56.56,0,0,1-.42.19c.48,1.15,1,2.23,1.55,3.31.72,1.34,1.42,2.66,2,4-.68-1.35-1.38-2.67-2-4-.59-1.07-1.16-2.16-1.7-3.26a.34.34,0,0,0-.3.4C317.94,123.17,318.74,124.22,319,124.92Zm5.92,4.2a2.07,2.07,0,0,1,.15.2l-.21.12c-.06-.07-.09-.14-.15-.21A1,1,0,0,0,325,129.12Z" transform="translate(-10.46 -12.33)"/>
    <path d="M320.33,230.67a58,58,0,0,0,3,5.82c-1.14.59-2.3,1.16-3.49,1.7-.17.09-.52.25-.69.32a6,6,0,0,1-1.9,1.12c.32.29-.09,1.29,1.23.59a1.36,1.36,0,0,1,.13.3c-1.24.9-1.44,2.14.15,1.85s3.74-1.61,5.69-2.48l.91-.41.66.83c1.4,1.6,2.67,3.6,4.11,4.67s1.64-.26.92-1.62a2.39,2.39,0,0,1,.23-.22c.91,1.22,1,.13,1.37,0a6.43,6.43,0,0,1-1.25-1.84c-.1-.13-.35-.41-.48-.56-.85-1-1.68-2.05-2.47-3.09l.05,0a54.77,54.77,0,0,0,5.2-4c.59-.49,1.8-1.12,2-1.54a.35.35,0,0,0-.08-.52c-1,.8-2,1.54-3,2.27-1.2.93-2.42,1.86-3.62,2.8,1.15-1,2.38-1.87,3.62-2.8,1-.76,1.94-1.55,2.85-2.36a.62.62,0,0,1-.29-.37l.44-.35c.36-.79-.15-1.07-.68-1.15h-.4l-.18.2a45.27,45.27,0,0,1-4,3.3,25.5,25.5,0,0,1-3.41,2.26,36.83,36.83,0,0,0,7.29-5.75,2.24,2.24,0,0,0-1,.38,27.24,27.24,0,0,1-2.31,1.86c.06.07.15.2.19.26-1.57.9-2.93,2-4.41,3a2.43,2.43,0,0,1-.14-.2,48.33,48.33,0,0,0,4.28-3,49,49,0,0,1-4.36,2.88,51.21,51.21,0,0,1-2.64-4.4,41.85,41.85,0,0,0,2.55,4.45l-.21.14c-.91-1.49-1.65-3.07-2.67-4.53l.27-.15c-.45-.87-.89-1.74-1.29-2.68a2.27,2.27,0,0,0-.78-.79,37.62,37.62,0,0,0,4.14,8.33h0a25.42,25.42,0,0,1-2.11-3.52,43.18,43.18,0,0,1-2.24-4.7l-.08-.26a1.62,1.62,0,0,0-.36-.17c-.51-.16-1.09-.12-1.11.75l.26.51a.72.72,0,0,1-.44.2c.5,1.14,1,2.25,1.58,3.36.73,1.37,1.44,2.7,2.07,4.08-.69-1.38-1.39-2.71-2.07-4.08-.59-1.09-1.19-2.2-1.72-3.33a.34.34,0,0,0-.3.42C319.18,228.88,320,230,320.33,230.67Zm6,4.28.13.21-.2.12a.77.77,0,0,1-.14-.21Z" transform="translate(-10.46 -12.33)"/>
    <polygon class="cls-3" points="4.32 57.06 0 62.12 170.82 205.14 4.32 57.06"/>
    <polygon class="cls-3" points="92.82 24.92 97.52 21.3 217.78 197.55 92.82 24.92"/>
    <polygon class="cls-3" points="175.87 6.15 180.58 4.7 240.16 167.21 175.87 6.15"/>
    <polygon class="cls-3" points="299.39 0 306.97 0 299.39 170.83 299.39 0"/>
    <polygon class="cls-3" points="343.81 23.48 351.4 23.48 322.5 167.21 343.81 23.48"/>
    <polygon class="cls-3" points="435.9 21.3 441.86 23.48 366.02 167.21 435.9 21.3"/>
    <polygon class="cls-3" points="425.06 197.55 556.7 79.45 561.58 85.41 425.06 197.55"/>
    <polygon class="cls-3" points="434.82 210.55 529.08 138.51 532.34 145.54 434.82 210.55"/>
    <polygon class="cls-3" points="451.07 228.97 557.25 167.21 559.41 174.53 451.07 228.97"/>
    <polygon class="cls-3" points="470.04 297.76 571.33 286.94 567.54 297.76 470.04 297.76"/>
    <polygon class="cls-3" points="470.04 309.7 545.33 309.7 545.33 313.48 470.04 309.7"/>
    <polygon class="cls-3" points="470.04 362.77 578.92 391.47 575.67 397.45 470.04 362.77"/>
    <polygon class="cls-3" points="467.31 370.36 568.08 403.4 561.58 409.91 467.31 370.36"/>
    <path class="cls-3" d="M393.82,422.24c2.71,3.78,134.34,161.43,134.34,161.43l6.78-8.12Z" transform="translate(-10.46 -12.33)"/>
    <polygon class="cls-3" points="342.19 417.49 407.19 575.12 413.15 575.12 342.19 417.49"/>
    <polygon class="cls-3" points="328.1 417.49 367.1 565.37 374.14 562.67 328.1 417.49"/>
    <polygon class="cls-3" points="312.02 421.81 328.1 560.49 335.14 558.69 312.02 421.81"/>
    <polygon class="cls-3" points="185.09 565.37 192.12 571.34 237.64 451.07 185.09 565.37"/>
    <polygon class="cls-3" points="57.77 550.76 62.38 556.71 165.58 446.2 57.77 550.76"/>
    <polygon class="cls-3" points="18.77 560.49 24.21 565.37 159.62 435.9 18.77 560.49"/>
    <polygon class="cls-3" points="18.77 449.63 24.92 460.11 122.06 403.77 18.77 449.63"/>
    <polygon class="cls-3" points="39.38 283.79 39.38 293.43 153.13 298.31 39.38 283.79"/>
    <polygon class="cls-3" points="18.77 254.97 18.77 263.64 150.4 286.39 18.77 254.97"/>
    <g>
      <polygon class="cls-1" points="393.06 464.6 404.71 468.14 412.93 463.28 414.4 472.36 424.9 478.41 414.33 481.82 412.19 494.59 403.01 483.71 388.35 484.15 397.17 474.35 393.06 464.6"/>
      <path d="M414.87,479.45l9.26-5.36,1.73,10.14,12,6.88-11.92,3.94-2.34,15.08-10.71-12.84-17.18.62,10.52-11.46-3.8-9.29-.73-1.74,13.21,4Zm-11.35-2.52-.4.84.4-.84Zm1.93,1.54,3.61,8.41-7.23,8.24,12.23-.33,7.72,9,1.91-10.6,9.17-2.87-9-5.22-1.19-8-7.17,4.34-10-3Z" transform="translate(-10.46 -12.33)"/>
    </g>
    <g>
      <polygon class="cls-1" points="558.33 431.8 546.13 438.59 543.6 449.26 534.94 443.24 521.59 447.1 527.19 435.65 518.34 423.71 534.64 424.79 545.93 412.34 547.02 427.44 558.33 431.8"/>
      <path d="M557.67,451.48l-2.94,11.92L545,456.77l-15.19,4.4,6.23-13-10.6-13.94,19.13,1.37,13.18-14.69,1.07,17.82L569.51,443l2,.8-13.86,7.69Zm11.12-7.35-.37-1,.37,1Zm-2.8.35-9.83-3.69-1-12.54-9.49,10.36L532,437.77l7.23,10-4.94,9.87,11.52-3.31,7.53,5.35,2.12-9.36,10.5-5.85Z" transform="translate(-10.46 -12.33)"/>
    </g>
    <g>
      <polygon class="cls-1" points="70.44 381.75 65.35 394.73 70.2 404.6 59.69 405.46 51.84 416.94 48.87 404.55 34.45 400.97 47.73 391.42 48.48 374.63 58.94 385.57 70.44 381.75"/>
      <path d="M77,406.83l5.32,11.05L70.58,419l-8.92,13.07-3.44-14-17.07-4,15.63-11.13.82-19.7,12.16,13,11-3.54,2.05-.67L77,406.83Zm3.88-12.75-.93-.55.93.55Zm-1.93,2L69,399.53l-8.78-9-.71,14-11,8,12,3.1,2.48,10.74,6.77-9.86,9.23-.66-4.33-8.58L79,396.12Z" transform="translate(-10.46 -12.33)"/>
    </g>
    <path d="M381.48,86.92a7.49,7.49,0,0,0-.11-3c-.53-1.9-2.11-2.26-3.94-.8a16.33,16.33,0,0,0-4.75,7.17c-2.19,6.13-.9,12.27,2.63,11.92,3.47-.17,8.42-5.72,11.07-12.52s3-14.27.83-18.09c-1.44-2.75-4.14-3.74-7.36-2.28s-6.84,4.8-10,9.39a53.9,53.9,0,0,0-7.33,15.79,46.48,46.48,0,0,0-1.74,15.15A47.23,47.23,0,0,1,363.41,92a50.81,50.81,0,0,1,9.2-16.69c3.7-4.28,7.83-7,10.91-6.43s5.06,4.14,5.08,9.48a32.22,32.22,0,0,1-5.25,17.13c-3.22,5-7.53,7.92-9.81,6.05-2.38-1.61-2.47-7.89,0-13A12.87,12.87,0,0,1,377.94,83c1.53-1,2.76-.49,3.24,1.09a1.81,1.81,0,0,0-2.79-1,11.62,11.62,0,0,0-4.29,5,16.42,16.42,0,0,0-1.85,9.27c.38,2.62,1.74,4.12,3.65,3.84,3.87-.52,9.16-7.6,11.1-14.8l.23,0c1.44-5.18,1.39-10.29.1-13.35s-3.78-4.41-6.76-3.41c-6.11,2-13.49,11.79-17,22.5s-3.27,21.31.16,26.46a7.63,7.63,0,0,0,7.14,3.8c2.93-.11,6.34-2,9.77-4.73-1,.71-.4.17-.21,0l.21-.15-.21.15c.21-.21.09-.08-1.62,1.13,1.71-1.21,1.83-1.34,1.62-1.13-6.73,5.58-13.11,6-16.43.77-3.4-4.94-3.76-15.22-.51-25.54s10.24-20.23,16.33-22.73c3-1.28,5.55-.4,7,2.35s1.7,7.36.59,12.32c1.75-7.85,0-14.41-4-15.08-3.9-.88-9.65,3.85-14,10.63a51.57,51.57,0,0,0-7.94,23.41c-.57,7.59,1,13.66,4.3,16.41,6.54,6,19.39-3.83,28-19a85.47,85.47,0,0,0,9.49-24.94c1.66-8.43,1.94-16.57.74-23a29.09,29.09,0,0,0-2.48-7.71c-3.12-6.87-8.91-9.71-15.8-7.72.91-.48-.3-.55,0-.89a4.44,4.44,0,0,1,2-.81,12,12,0,0,1,6.48.24c0-.11.11-.3.17-.42-6-2-11.37.6-12.67.77-.67.12-.43-.25,1-1.12a19,19,0,0,1,7.58-2.59c8-1,15.53,5.61,17,20.08a75.4,75.4,0,0,1-2,25.19,97.77,97.77,0,0,1-11.1,27c-7,11.63-16,20.13-23.53,21.44s-12.58-6.23-12.22-18.33a56,56,0,0,1,2.09-13.59,65.54,65.54,0,0,1,5.86-14.09c5-8.74,11.67-15.22,17.1-15.61s8.38,6.68,6.92,16.24a40.61,40.61,0,0,1-5.16,14.52c-2.55,4.37-5.71,7.66-8.55,9-2.12,1.1-4.51,1-5.9-1.23s-1.78-6.21-.74-10.8a26.33,26.33,0,0,1,5.75-11.42c2.23-2.38,4.11-3,5-2.75a2.33,2.33,0,0,1,1.86,1.53c.13.4,0,.42-.17.34-.87-1.48-2.54-1.64-4.28-.53a15.92,15.92,0,0,0-5,5.62A26.34,26.34,0,0,0,370.24,94a17.07,17.07,0,0,0,.09,7.11c1,3.84,4,4.9,7.42,2.62,3.31-2,6.79-6.61,9.16-11.87,3-6.59,3.94-13.75,3.08-18.6s-3.53-7.73-7.17-7.31c-7.4.93-17,13.2-21.22,26.67,4.15-13.16,13.54-25.4,21-26.58,3.68-.57,6.47,2.11,7.35,7s.06,12.06-3,18.78c-2.37,5.25-5.83,9.79-9.11,11.8-3.34,2.26-6.36,1.27-7.38-2.47-1.07-3.52-.24-9.89,2.7-15,2.7-5,7.12-8.34,9.1-5.72-.4-.15-.79-.14-.41.5a3.7,3.7,0,0,1,.92,2.1,12.25,12.25,0,0,1-.48,5.5,11.49,11.49,0,0,1-3.46,5.55c-.83.62-1.11.53-1.09.42,0-.31,1.41-1.18,2.59-3.58A11,11,0,0,0,381.48,86.92Z" transform="translate(-10.46 -12.33)"/>
    <path d="M216.3,545.22a3.55,3.55,0,0,0-2,.85c-.92.93-.14,2.38,2,3.63a19.81,19.81,0,0,0,7.59,2.48c5.61.64,10-1.63,8.16-4.82-1.83-3.49-9.64-7.26-17.05-8.05-7.18-.85-12.32,1.22-12.83,4.36-.39,2,1.12,4.47,4.2,6.72a42,42,0,0,0,11.4,5.63,56.81,56.81,0,0,0,13.6,2.78,44,44,0,0,0,12.36-.75,44.09,44.09,0,0,1-14.45.52,57.89,57.89,0,0,1-15-3.9c-4.64-1.94-8.87-4.55-10.78-7.11-2.14-2.81-1.63-5.58,1.68-7.12,3.46-1.8,10.19-1.77,16.61.4,6.26,2,11.09,5.71,10.48,8.35-.29,2.42-5.14,3.66-10,2.63a17.53,17.53,0,0,1-6.3-2.52c-1.62-1.1-2.1-2.31-1.34-3.08-.49.68-.16,1.68,1.13,2.65a16.34,16.34,0,0,0,5.93,2.56,13.26,13.26,0,0,0,7.83-.25c2-.86,2.62-2.43,1.49-4.16-2.46-3.83-11.83-7.54-18.89-7.38l-.19-.25c-4.84.06-8.14,1.66-8.94,3.77s.44,4.41,3.13,6.61c5.07,4.17,14.79,7.73,23.29,8.65,9,1,17.87-.55,22.08-4.1a7.47,7.47,0,0,0,2.88-7.76c-.67-3.31-3.73-7-8.22-10.51,1.2,1.06.35.48,0,.28l-.27-.21.27.21c-.35-.16-.15-.06,1.89,1.77-2-1.83-2.24-1.93-1.89-1.77,8.71,6.73,10.19,13.64,5.06,17.82-4,3.5-12.55,5.11-21.31,4.24-8.25-.8-17.78-4.13-23-8.14-2.81-2.11-4.27-4.48-3.83-6.43.44-2.13,3.23-3.75,7.55-4.11-6.75.53-9.22,4.07-6.5,7.75,2.29,3.26,8.56,6.67,15,8.65a50.72,50.72,0,0,0,19.67,2.26c6.51-.62,11.78-2.79,14-6.13,6.12-8.44-10-22.43-33.26-28.4-11.56-3.06-22.88-3.61-30.88-1.57-7.06,1.87-11.43,5.33-12.63,9.42a10,10,0,0,0-.07,5.3c.88,4.77,5.49,10,12,14.51-.9-.53,0,.27-.32.14a14.91,14.91,0,0,1-1.9-1.2,40.74,40.74,0,0,1-5.55-4.73l-.29,0a66.26,66.26,0,0,0,10.67,8.48c.52.38.22.29-1.13-.44a61,61,0,0,1-6.92-4.52c-7.81-5.82-14-14.44-10.89-21.57,1.88-4.37,6.76-8.25,15.5-10.11,9.83-2.08,23.31-1,36.46,2.89,19.07,5.62,33.56,15.75,36.25,25.14,2.14,7.51-5.47,13-16.42,14.27a53,53,0,0,1-10.94.22,66.33,66.33,0,0,1-11.63-2c-7.63-2-15.2-5.65-19.24-9.68-4.55-4.54-3.26-9.4,4.13-10.9,4-.91,9.76-.51,15.25,1.06s10.33,4.09,13,6.76c1.95,1.85,2.82,4.18,1.42,5.89-1.23,1.63-4.33,2.64-8.25,2.61a28.32,28.32,0,0,1-10.88-2.45c-2.86-1.32-4.47-2.75-4.94-3.6-.76-1.25-.42-1.77-.3-2s.26-.11.34.08c-.34,1.14.68,2.59,2.51,3.82a22.08,22.08,0,0,0,6.59,2.91,24.69,24.69,0,0,0,7.43.93,12.26,12.26,0,0,0,5.53-1.36c2.89-1.62,2.61-4.75-1-7.59-3.6-3-9.85-5.56-16-6.55-7.51-1.27-13.25.12-15.52,2.54-2.15,2.2-1.39,5.33,1.62,8.25,5.5,5.26,17.63,9.82,28,10.93-10.16-1.08-22.14-5.52-27.78-10.76-3.13-2.91-4-6-1.92-8.31,2.2-2.46,7.94-3.93,15.59-2.65,6.09,1,12.29,3.52,15.87,6.52,3.6,2.81,3.92,5.88,1.14,7.52-2.39,1.53-7.5,1.95-12.56.6-4.84-1.22-9.7-4.13-9.39-6.46.17.4.46.75.61.26a1.69,1.69,0,0,1,.76-1.36,7.06,7.06,0,0,1,4.25-1,14,14,0,0,1,6.42,2c.95.64,1.06.94.95,1a24.24,24.24,0,0,0-4.32-1.6A8.64,8.64,0,0,0,216.3,545.22Z" transform="translate(-10.46 -12.33)"/>
    <polygon class="cls-3" points="419.34 91.41 416.69 80.04 427.82 81.47 438.8 71.18 439.12 84.88 454.11 92.14 437.3 99.22 432.47 117.35 423.88 102.71 412.96 103.73 410.91 103.93 419.34 91.41 419.34 91.41"/>
    <polygon class="cls-1" points="415.3 100.97 425.23 99.85 431.54 110.04 435.09 97.15 447 91.98 436.54 86.62 436.46 76.12 428.13 83.88 419.44 82.61 421.66 91.47 415.3 100.97 415.3 100.97"/>
    <polygon class="cls-3" points="118.13 135.74 107.93 130.03 116.5 122.77 116.3 107.72 126.63 116.71 142.1 110.54 136 127.73 146.12 143.53 129.52 140 122.91 148.75 121.67 150.4 118.13 135.74 118.13 135.74"/>
    <polygon class="cls-1" points="122.43 145.15 128.32 137.07 140.09 139.28 132.96 127.98 137.18 115.69 126.18 119.78 118.39 112.77 118.5 124.16 111.67 129.72 119.72 134.04 122.43 145.15 122.43 145.15"/>
  </g>
  <g>
    <path d="M202.17,251.22l-.32,9.81q-3.69.21-7,.53a203.44,203.44,0,0,0-4.7,26.84l-8.91,2.32,4.85-28.06c-1,.15-1.9.3-2.85.48l-2.79.53-.63-9.87Z" transform="translate(-10.46 -12.33)"/>
    <path d="M202,253.44l9.75-1.69q-2.62,10.1-4.26,18.38l4.37-.92,2.69-15.77,9.75-1.69q-5.58,21.57-7.06,36.65l-9.07,2.32,2.42-14.34-4.48.94q-1,6.49-1.42,11.08l-9.07,2.32Z" transform="translate(-10.46 -12.33)"/>
    <path d="M214.77,291.35a340.55,340.55,0,0,0,12.55-38.13l16-2.68q-2.74,16-2.48,37.81l-11.18,2.58.79-6.59L227,285l-1.11,4.64Zm16.56-14.11,2.42-19.9h-.05l-5,20.41Z" transform="translate(-10.46 -12.33)"/>
    <path d="M266.24,251.22l-.32,9.81q-3.69.21-7,.53a203.44,203.44,0,0,0-4.7,26.84l-8.91,2.32,4.85-28.06c-.94.15-1.89.3-2.84.48l-2.8.53-.63-9.87Z" transform="translate(-10.46 -12.33)"/>
    <path d="M283.48,261.27c-.24,1-.45,2-.63,2.89l-.63,2.85,9.23-1.93-.48,7.39q-5.42.86-10.2,2-1.27,7.06-2,14l-9,2.33,6.17-37.81,18-2.53-.63,9.72Q288,260.58,283.48,261.27Z" transform="translate(-10.46 -12.33)"/>
    <path d="M297.09,253.44l9.07-1.69A261,261,0,0,0,299,288.4l-8.39,2.32Z" transform="translate(-10.46 -12.33)"/>
    <path d="M308.32,253.59l9.12-1.84c-.07,1.09-.1,2.63-.1,4.64q0,7.17.47,12.6a28.67,28.67,0,0,0,.79,5l3.59-20.56,9.07-1.69a261,261,0,0,0-7.17,36.65l-8.33,2.32c0-.07-.27-.69-.69-1.85l-2.74-7.8a23,23,0,0,1-.79-2.43q-1.11,6.23-1.74,12.08l-8.44,2.53Z" transform="translate(-10.46 -12.33)"/>
    <path d="M321.82,291.35a340.55,340.55,0,0,0,12.55-38.13l16-2.68q-2.75,16-2.48,37.81l-11.18,2.58.8-6.59L334,285l-1.11,4.64Zm16.56-14.11,2.42-19.9h-.05l-5,20.41Z" transform="translate(-10.46 -12.33)"/>
    <path d="M354,253.44l9.07-1.69q-3.8,14.61-5.85,26.95l9.28-1.43-.79,9.81a107.42,107.42,0,0,0-18.2,3.64Z" transform="translate(-10.46 -12.33)"/>
    <path d="M371.6,253.44l9.07-1.69q-3.8,14.61-5.85,26.95l9.28-1.43-.79,9.81a107.34,107.34,0,0,0-18.19,3.64Z" transform="translate(-10.46 -12.33)"/>
    <path d="M402.66,252.64l8.49,1.48a319.27,319.27,0,0,0-18,36.18l-8.12-.53L390.59,278l-4.43-21.2,10.28-4.75q-.17,2.43-.21,6.07a55.57,55.57,0,0,0,.37,7.28Z" transform="translate(-10.46 -12.33)"/>
    <path d="M175.57,322.77a39.38,39.38,0,0,1,12-2.34q5.53,0,8.43,2.89a13.85,13.85,0,0,1,4,10,20.16,20.16,0,0,1-.55,4.55,35.6,35.6,0,0,1-11.32,18.92,36.06,36.06,0,0,1-19.88,9.51q.13-1.35,1.3-8.06l4.92-28.3C175.16,325.74,175.52,323.34,175.57,322.77Zm8.79,10.15q-2.82,12.06-4.3,22.83a41.71,41.71,0,0,0,6.58-8.13q3.57-5.65,3.57-9.72Q190.21,332.68,184.36,332.92Z" transform="translate(-10.46 -12.33)"/>
    <path d="M219.31,318.15c4.35,0,7.42,2.43,9.23,7.26a23.35,23.35,0,0,1,1.41,8.25,37.89,37.89,0,0,1-1.29,9.35,44.4,44.4,0,0,1-7.87,15.87q-6.84,8.87-14.46,8.86-6.59,0-9.35-7.26a22.23,22.23,0,0,1-1.36-8A36.84,36.84,0,0,1,197,343a44.69,44.69,0,0,1,7.81-15.93Q211.62,318.15,219.31,318.15Zm-2.22,15.26q-3.37,0-6.89,5.54a29.79,29.79,0,0,0-3.93,8.55,16.67,16.67,0,0,0-.56,4,6.56,6.56,0,0,0,1.23,4.12,4.76,4.76,0,0,0,3.94,1.79q3.45,0,6.21-3.63a18.34,18.34,0,0,0,3.2-6.83,22.9,22.9,0,0,0,.5-9.11Q220,333.42,217.09,333.41Z" transform="translate(-10.46 -12.33)"/>
    <path d="M233.58,323l10.65-2.15c-.09,1.27-.13,3.08-.13,5.42,0,5.57.19,10.48.56,14.7a32.43,32.43,0,0,0,.92,5.84l4.18-24,10.59-2q-6.41,24.67-8.37,42.76l-9.72,2.71c0-.08-.31-.8-.8-2.16l-3.2-9.1a25.33,25.33,0,0,1-.92-2.83q-1.31,7.26-2,14.09l-9.85,2.95Z" transform="translate(-10.46 -12.33)"/>
    <path d="M276.53,316.62a114.31,114.31,0,0,0-5.48,19.44l-11.87,1.84,6-20.42Z" transform="translate(-10.46 -12.33)"/>
    <path d="M299.47,320.25l-.37,11.44c-2.87.16-5.59.37-8.18.61a238,238,0,0,0-5.47,31.32l-10.4,2.71,5.66-32.73c-1.11.16-2.22.35-3.32.55l-3.26.62-.74-11.51Z" transform="translate(-10.46 -12.33)"/>
    <path d="M333.43,333.72l-4.67,1.78-4.62,1.79c0-1.93-.53-2.89-1.6-2.89q-2.27,0-4.55,2.58a4.7,4.7,0,0,0-1.35,3.69q.18,1.17,2.34,1.17a16.68,16.68,0,0,0,3.07-.37,23.18,23.18,0,0,1,4.68-.55q5.16,0,6,3.57a10.89,10.89,0,0,1,.24,2.33,15.78,15.78,0,0,1-2.95,8.49,31.1,31.1,0,0,1-10.7,10,13.94,13.94,0,0,1-7.14,2.16,12.4,12.4,0,0,1-6.28-1.79q1.54-3.69,4.93-10.89a7.26,7.26,0,0,0,4.18,1.36,7.42,7.42,0,0,0,2-.31,16.2,16.2,0,0,0,3.63-1.42c1.64-.9,2.46-1.82,2.46-2.77s-.84-1.53-2.52-1.53a26.07,26.07,0,0,0-5,.7,25.3,25.3,0,0,1-5,.71,6,6,0,0,1-3.51-.86c-1.6-1.07-2.25-2.73-2-5q.81-6.84,8.8-15.81,8.19-9.24,14.09-9.66,5.72-.37,5.72,8.61A42.25,42.25,0,0,1,333.43,333.72Z" transform="translate(-10.46 -12.33)"/>
    <path d="M339.22,322.83l10.52-2q-4.25,16.13-6.28,28.92l5.85-2.46,4.31-24.49,10.52-2q-6.4,25.23-8.31,42.76L346,366.33l1.23-6.83q-5.18,2.28-15.63,6.83Z" transform="translate(-10.46 -12.33)"/>
    <path d="M380.56,319.82q6.4,0,9.41,6.95l-7,7.63a4.37,4.37,0,0,0-3.26-1.48q-3.25,0-6.77,5.6a27.66,27.66,0,0,0-3.75,8.61,15.61,15.61,0,0,0-.43,3.45c0,2.75,1,4.63,3,5.66a4.56,4.56,0,0,0,2.09.49c2.13,0,4.37-1.58,6.7-4.74l2,7.32q-6.09,6.78-12.36,6.77t-9.36-6.77a21,21,0,0,1-1.78-8.79A34,34,0,0,1,360,343,38.13,38.13,0,0,1,367,328Q373.24,319.81,380.56,319.82Z" transform="translate(-10.46 -12.33)"/>
    <path d="M390.34,322.83l10.59-2c-.95,3.61-1.64,6.46-2.1,8.55q5.35-4.67,9.79-9l7.71,5-12.09,10.77,6.84,25.06-11.14,5.91L395.63,344q-1.92,9.93-3,19.67l-9.77,2.71Z" transform="translate(-10.46 -12.33)"/>
  </g>
</svg>
