<svg id="svg2985" xmlns="http://www.w3.org/2000/svg" viewBox="0 0 436 435">
  <defs>
    <style>
      .cls-1 {
        fill: #1966cc;
      }

      .cls-2 {
        fill: #318bff;
      }
    </style>
  </defs>
  <title>prezi</title>
  <g id="g3216">
    <g id="g5003">
      <path id="path3854" class="cls-1" d="M118.85,217.43c-.72,54.32,45.61,99.64,99.81,99.64s98.57-45.31,98.57-99.64-44.36-98.34-98.57-98.34c-71.77,0-99.29,58.68-99.81,98.34Zm99.81-87.68c48.31,0,86.21,39.25,86.21,87.68s-37.9,86.86-86.21,86.86-87.45-38.43-87.45-86.86A87.55,87.55,0,0,1,218.66,129.75Z"/>
      <path id="path3857" class="cls-1" d="M94.54,217.42c0,70.27,58.76,122.75,124.11,122.75s122.46-54,122.46-122.75S283.51,94.09,218.65,94.09,94.54,144.17,94.54,217.42Zm124.11-112.2c56,0,110.68,48.16,110.68,112.2,0,64.48-49.56,111-110.68,111-63.9,0-111.27-49.06-111.27-111,0-64.26,50.15-112.2,111.27-112.2Z"/>
      <path id="path3859" class="cls-1" d="M70.51,217.48c0,84.77,69.34,147.23,148.18,147.23S366,300.4,366,217.48,297.42,69.6,218.69,69.6,70.51,129.88,70.51,217.48ZM218.69,81.81c71.33,0,134.85,58.41,134.85,135.67,0,77.78-62.82,135.44-136.54,135.44-73.27,0-135-60.75-135-135.44C82,140,145,81.81,218.69,81.81Z"/>
    </g>
    <g id="g5008">
      <path id="path3819" class="cls-2" d="M211,146h15.62V288.45H211Z"/>
      <path id="path3821" class="cls-2" d="M178.38,157.2c6.27-5,15.62-7.42,15.62-7.42v134.5A45.54,45.54,0,0,1,178.49,277Z"/>
      <path id="path3834" class="cls-2" d="M259.37,156.9c-6.27-5-15.61-7.42-15.61-7.42V284a45.76,45.76,0,0,0,15.5-7.24Z"/>
      <path id="path3836" class="cls-2" d="M161.19,173.49v86.66s-14.37-14.06-14.37-43.1S161.19,173.49,161.19,173.49Z"/>
      <path id="path3838" class="cls-2" d="M275.39,172.89v86.65s14.36-14.06,14.36-43.1S275.39,172.89,275.39,172.89Z"/>
    </g>
    <g id="g3386">
      <path id="path4983" class="cls-2" d="M291.8,71.34l20.64-39.57-19.18-9.23L276.84,64.35Z"/>
      <path id="path3039" class="cls-2" d="M259.65,59.16l11.92-43-20.69-5-7.32,44.32Z"/>
      <path id="path3041" class="cls-2" d="M226.34,54l2.88-44.53-21.28-.7,1.9,44.89Z"/>
      <path id="path3043" class="cls-2" d="M191.87,55.87l-6.52-44.14L164.4,15.51,175.66,59Z"/>
      <path id="path3045" class="cls-2" d="M158.64,64.9,143,23.1l-19.7,8.07,20.1,40.18Z"/>
      <path id="path3047" class="cls-2" d="M128.07,80.65,104.09,43,86.51,55l28.05,35.09Z"/>
      <path id="path3049" class="cls-2" d="M102,102,70.78,70,56,85.38,90.66,114Z"/>
      <path id="path3051" class="cls-2" d="M80.29,128.83,43.12,104.15l-11.21,18.1L71.77,143Z"/>
      <path id="path3053" class="cls-2" d="M65,159,23.57,142.42l-7.26,20,43.26,12.11Z"/>
      <path id="path3055" class="cls-2" d="M56.14,192.18l-44-7.53L9.24,205.74l44.83,2.81Z"/>
      <path id="path3057" class="cls-2" d="M54.36,225.83l-44.6,1.63,1.46,21.24,44.47-6.42Z"/>
      <path id="path3059" class="cls-2" d="M59.71,259.94,16.45,270.88l5.88,20.46,42.13-15.59Z"/>
      <path id="path3061" class="cls-2" d="M72.05,292.09,32,311.83l10,18.78L80,306.56Z"/>
      <path id="path3063" class="cls-2" d="M90.81,320.91l-35,27.66,13.73,16.27L101.6,333.4Z"/>
      <path id="path3065" class="cls-2" d="M114.63,344.74,86,379l16.77,13.13,25-37.35Z"/>
      <path id="path3067" class="cls-2" d="M143.56,363.58l-20.81,39.48,19.15,9.32,16.59-41.75Z"/>
      <path id="path3069" class="cls-2" d="M176,376l-12,43L184.61,424l7.43-44.3Z"/>
      <path id="path3071" class="cls-2" d="M209.94,381.27l-2.79,44.53,21.28.65-2-44.87Z"/>
      <path id="path3073" class="cls-2" d="M243.6,379.45,250,423.62l21-3.72-11.12-43.52Z"/>
      <path id="path3075" class="cls-2" d="M276.94,370.5l15.49,41.84,19.72-8-20-40.23Z"/>
      <path id="path3077" class="cls-2" d="M307.59,354.8l23.89,37.69,17.61-12-28-35.16Z"/>
      <path id="path3079" class="cls-2" d="M334.25,333.08,365.48,365l14.72-15.38L345.52,321Z"/>
      <path id="path3081" class="cls-2" d="M355.41,306.85l37.09,24.81,11.27-18.07L364,292.74Z"/>
      <path id="path3083" class="cls-2" d="M371.06,276.08l41.47,16.48,7.22-20-43.27-12Z"/>
      <path id="path3089" class="cls-2" d="M379.93,242.6l44,7.4,2.86-21.1L382,226.22Z"/>
      <path id="path3091" class="cls-2" d="M381.57,208.12l44.57-2-1.62-21.23-44.41,6.77Z"/>
      <path id="path3093" class="cls-2" d="M376,174.14l43.18-11.26-6-20.42-42,15.9Z"/>
      <path id="path3095" class="cls-2" d="M363.41,142.12l39.88-20-10.16-18.71-37.77,24.32Z"/>
      <path id="path3097" class="cls-2" d="M344.89,114l34.94-27.76L366.06,70l-32,31.54Z"/>
      <path id="path3099" class="cls-2" d="M320.36,89.68,348.7,55.22l-16.87-13L307.16,79.77Z"/>
    </g>
  </g>
</svg>
