<svg id="Layer_1" data-name="Layer 1" xmlns="http://www.w3.org/2000/svg" viewBox="0 0 590.25 529.53">
  <defs>
    <style>
      .cls-1 {
        fill: #fff;
      }
    </style>
  </defs>
  <title>thought</title>
  <g>
    <g>
      <path d="M402.54,85.72c-7.43-16-20.83-27.71-40-35q-23.43-8.65-54.13-7.82c-34.78,3.16-57.1,12.84-66.58,28.65a106.58,106.58,0,0,0-51-19.16q-28.74-3.07-53.57,8.37C110.69,72.52,97.48,88.33,97.48,108c-19.15-.18-36.45,5.77-51.89,18-16.19,12.83-25.11,28.46-27,47.06-1.67,15.07,6,28.27,22.7,39.81-9.49,11.91-14,22.13-13.39,30.88.74,16.55,9.11,31.06,24.92,43.89C75,306.71,97.3,312.85,120.18,306c-.56,13.39,1.49,22.5,5.95,27.52,12.65,15.26,34,25.49,64.36,30.88,30.88,3.72,51.9-1.67,63.24-16,8.75,16,23.63,26.23,44.28,30.88,16.56,3.72,35.15,3.54,55.81-.37,37.2-8.37,58.59-22.51,64.35-42.41,16.37,8,34.42,9.67,54.32,4.84,18.79-4.66,34.79-13.77,47.62-27.53,10-9.86,12.84-23.44,8.18-40.92q29.87-3.64,44.65-17.86c13.39-13,19.53-29.95,18.6-50.79-.93-20.46-8.56-36.82-22.7-49.29-5.39-5.39-15.44-8.74-29.76-9.67,6-18.79,5.4-33.48-1.86-43.9-12.27-18.23-34-29.58-65.47-33.85-32.37-3.91-55.44,2-69.21,18.22Z" transform="translate(-5.02 -27.08)"/>
      <path d="M282.76,426.87c-2.61-9.86-12.1-13.95-28.65-12.28-4.65-9.85-13.21-15.44-25.3-17.11-12.65-1.67-21.39,2.42-26,12.65-12.84-8-23.06-10.05-30.88-6.32-3.53,1.3-7.62,7.07-12.28,17.49A27.66,27.66,0,0,0,146,427.43c-4.28,3.72-6.15,8.19-5.77,13.21q-.28,7.8,15.62,13.4c-1.11,7.8-1.67,11.71-1.67,11.89-.19,4.47,1.3,7.82,4.28,10.05,3.54,2.79,7.81,3.35,13.2,2a88.17,88.17,0,0,0,13.58-5c5.77,9.29,14.7,13.76,27,13.57q18.13-.27,27.35-13.94c14.13,3.9,23.81,3.53,29-1.49,3.16-2.24,4.65-5.77,4.46-10.42-.93-5.76-1.3-9.86-1.49-12.28,10.24-6.88,14-14.13,11.17-21.58Z" transform="translate(-5.02 -27.08)"/>
      <path d="M117.2,505.75c-3.91,2.23-7.07,6.5-9.67,12.65-3.53,8.73-6,13.76-7.07,15.25,3.54,5,10.6,10.22,21.58,16,6.88,5.39,14.88,4.27,24.18-3.36.38-.19,4.28-1.67,11.9-4.27,5-1.68,7.63-4.65,7.82-8.74-.56-1.68-2-10.24-4.84-26-5.77-5-12.09-5.77-18.6-2.6-2.79,1.67-7.07,1.86-12.83.74-5.77-1.3-9.86-1.11-12.47.38Z" transform="translate(-5.02 -27.08)"/>
      <g>
        <path d="M257.4,413c-5.11-10.84-14.57-17.29-28.09-19.16-18.05-2.38-26.2,6.71-29.86,14.75A3.66,3.66,0,0,1,204.7,407c-14-8.73-25.27-10.86-34.38-6.51-4.32,1.57-8.88,7.74-14,19.29A3.65,3.65,0,0,1,159,417.7a31.13,31.13,0,0,0-15.32,6.95c-5.09,4.42-7.51,10-7.05,16.26,0-.14,0-.27,0-.41-.37,10.5,13.51,15.37,18.07,17a3.63,3.63,0,0,1-2.4-4l-.16,1.12c-1.56,10.86-1.56,10.86-1.56,11.29-.22,5.45,1.76,10,5.75,13,4.28,3.38,9.61,4.27,16.24,2.68a90.92,90.92,0,0,0,14.18-5.24,3.64,3.64,0,0,1-4.56-1.41c6.43,10.35,16.57,15.5,30.13,15.3,13.29-.21,23.49-5.44,30.31-15.56a3.65,3.65,0,0,1-4,1.48c15.72,4.34,26.35,3.56,32.52-2.38a4.82,4.82,0,0,1-.43.36c2.91-2.05,6.3-6.06,6-13.55a2.09,2.09,0,0,0,0-.43c-.9-5.57-1.26-9.5-1.45-12a3.66,3.66,0,0,1-1.6,3.31c14.68-9.88,14.92-19.53,12.54-25.89-3-11.45-14-16.49-32.43-14.63A3.65,3.65,0,0,1,257.4,413Zm-2.93,5.19c21.65-2.19,24,6.67,24.77,9.58.9,2.46,3.3,8.89-9.68,17.63a3.65,3.65,0,0,0-1.6,3.31c.2,2.6.59,6.74,1.53,12.57a3.29,3.29,0,0,1-.05-.44c.14,3.43-.82,5.81-2.92,7.29a3,3,0,0,0-.43.36c-4.09,4-12.68,4.15-25.52.6a3.65,3.65,0,0,0-4,1.48c-5.49,8.13-13.46,12.17-24.38,12.34s-18.76-3.71-23.82-11.86a3.64,3.64,0,0,0-4.56-1.41,84.86,84.86,0,0,1-13,4.81c-4.44,1.07-7.55.65-10.1-1.36-2.11-1.58-3-3.86-2.9-7,0-.33.62-4.35,1.48-10.42l.16-1.12a3.63,3.63,0,0,0-2.4-3.95c-8.62-3-13.31-6.52-13.19-9.83a2.64,2.64,0,0,0,0-.4c-.29-4,1.19-7.29,4.53-10.19a23.93,23.93,0,0,1,11.8-5.29,3.65,3.65,0,0,0,2.71-2.11c5.85-13.1,9.29-15.22,10.21-15.55,6.91-3.28,16.12-1.22,27.69,6a3.65,3.65,0,0,0,5.25-1.58c3.94-8.68,11-12,22.24-10.55,11.07,1.53,18.42,6.46,22.48,15.06A3.66,3.66,0,0,0,254.47,418.22Z" transform="translate(-5.02 -27.08)"/>
        <path d="M104.15,517c-4.79,11.85-6.44,14.2-6.61,14.43a3.65,3.65,0,0,0-.06,4.28c3.9,5.54,11.16,11,22.87,17.13a4,4,0,0,1-.56-.35c5.74,4.49,15.38,7.54,28.74-3.41a3.3,3.3,0,0,1-.66.44c.41-.18,4.08-1.57,11.43-4.08,8.6-2.88,10.13-8.77,10.28-12a3.65,3.65,0,0,0-.18-1.31c-.43-1.28-1.94-9.85-4-21.69l-.68-3.84a3.6,3.6,0,0,0-1.19-2.12c-6.81-5.92-14.62-7-22.59-3.13-1.59.94-4.44,1.63-10.55.44-6.52-1.47-11.45-1.22-15,.79C110.84,505.18,107.17,509.89,104.15,517Zm6.74,2.79c2.32-5.49,5-9.15,8.12-10.91,1-.59,3.69-1.38,9.85,0,6.92,1.35,12,1,15.51-1.16,5-2.42,9.79-1.75,14.34,2.22a3.6,3.6,0,0,1-1.19-2.11l.68,3.84c2.73,15.54,3.71,21,4.28,22.71a3.41,3.41,0,0,1-.18-1.31c-.05,1-.17,3.73-5.33,5.45-6.22,2.12-11.54,4.05-12.4,4.48a3.61,3.61,0,0,0-.66.44c-10.44,8.55-16.2,6-19.62,3.29a4,4,0,0,0-.56-.35c-10.49-5.52-17.13-10.38-20.29-14.87a3.65,3.65,0,0,1-.06,4.28C105.23,533.35,108.5,525.72,110.89,519.82Z" transform="translate(-5.02 -27.08)"/>
        <path d="M363.82,47.34c-16-5.91-34.67-8.61-55.5-8-36.12,3.28-59.47,13.51-69.61,30.42a3.61,3.61,0,0,1,2.38-1.7,3.65,3.65,0,0,1,2.85.59A111.05,111.05,0,0,0,191.26,48.8c-19.74-2.1-38.41.82-55.49,8.69C108,69.74,93.84,86.76,93.84,108a3.64,3.64,0,0,1,3.68-3.64c-20-.19-38.24,6.15-54.2,18.84-16.84,13.35-26.38,30-28.33,49.55-1.81,16.3,6.35,30.83,24.25,43.17a3.63,3.63,0,0,1-.78-5.27c-10.16,12.75-14.8,23.67-14.18,33.38.78,17.31,9.62,33,26.26,46.5,23,19.7,46.8,26.07,70.69,18.89a3.64,3.64,0,0,1-4.69-3.65c-.6,14.38,1.64,24.22,6.87,30.1,13.2,15.94,35,26.45,66.45,32,32.18,3.88,54.56-2,66.73-17.32a3.65,3.65,0,0,1-6-.52c9.17,16.78,24.87,27.78,46.67,32.69,16.82,3.78,36.09,3.66,57.28-.35,38.48-8.65,61-23.77,67.18-45a3.64,3.64,0,0,1-5.1,2.26c17.14,8.38,36.24,10.1,56.78,5.11,19.65-4.87,36.27-14.48,49.43-28.59,10.93-10.72,14-25.68,9-44.34a3.63,3.63,0,0,1-3.08,4.55c20.61-2.5,36.33-8.84,46.73-18.85,14.07-13.67,20.7-31.69,19.72-53.57-1-21.27-9-38.72-23.93-51.86-6-6-16.77-9.6-31.93-10.58a3.64,3.64,0,0,1,3.23,4.74c6.33-19.94,5.54-35.78-2.34-47.09-12.84-19.07-35.73-31-68-35.38-33.66-4.06-58,2.5-72.47,19.48a3.64,3.64,0,0,1,6.08.83C398,67.33,383.89,54.94,363.82,47.34Zm-2.56,6.82c18.2,6.9,31,18,38,33.1a3.64,3.64,0,0,0,2.81,2.08,3.69,3.69,0,0,0,3.27-1.25c12.94-15.22,34.53-20.77,66-17,30.05,4.08,51.22,14.94,62.89,32.26,6.54,9.4,7,23.1,1.4,40.77a3.66,3.66,0,0,0,3.24,4.74c13.16.85,22.65,3.83,27.42,8.61C580,169.61,587,184.89,587.9,204.38c.89,20-4.83,35.69-17.5,48-9.22,8.87-23.54,14.55-42.55,16.86a3.63,3.63,0,0,0-3.08,4.55c4.3,16.17,2,28.39-7.21,37.39-12.29,13.17-27.71,22.07-45.95,26.59-19.09,4.64-36.05,3.14-51.84-4.58a3.66,3.66,0,0,0-5.1,2.27c-5.34,18.45-26.09,31.86-61.66,39.86-20.08,3.8-38.36,3.94-54.2.37-19.66-4.42-33.76-14.2-41.88-29.06a3.64,3.64,0,0,0-6.05-.52c-10.49,13.25-30.66,18.17-59.95,14.64-29.09-5.18-50-15.14-62-29.58-3.88-4.37-5.62-13-5.12-25.05a3.65,3.65,0,0,0-4.69-3.64C97.47,309,76.56,303.26,55.21,285c-15.24-12.38-23-25.87-23.65-41.3-.5-7.78,3.74-17.33,12.6-28.44a3.63,3.63,0,0,0-.78-5.27c-15.74-10.85-22.66-22.76-21.15-36.41C24,155.78,32.4,141.2,47.85,129a76.7,76.7,0,0,1,49.6-17.26,3.65,3.65,0,0,0,3.68-3.65c0-18.13,12.66-32.9,37.63-43.91,15.93-7.33,33.31-10,51.71-8.08a102.33,102.33,0,0,1,49.26,18.52,3.67,3.67,0,0,0,2.86.59,3.62,3.62,0,0,0,2.37-1.7c8.88-14.8,30.34-23.85,63.8-26.89C328.42,46,346.17,48.6,361.26,54.16Z" transform="translate(-5.02 -27.08)"/>
      </g>
    </g>
    <g>
      <path class="cls-1" d="M392.82,73.57c-7.43-16-20.83-27.71-40-35Q329.4,30,298.7,30.79C263.92,34,241.6,43.63,232.12,59.44a106.58,106.58,0,0,0-51-19.16q-28.74-3.08-53.57,8.37C101,60.37,87.76,76.18,87.76,95.89c-19.15-.18-36.45,5.77-51.89,18C19.68,126.77,10.76,142.4,8.89,161c-1.67,15.07,6,28.27,22.7,39.81-9.49,11.91-13.95,22.13-13.39,30.88.74,16.55,9.11,31.06,24.92,43.89,22.14,19,44.46,25.12,67.34,18.24-.56,13.39,1.49,22.5,6,27.52,12.65,15.26,34,25.49,64.36,30.88,30.88,3.72,51.9-1.67,63.24-16,8.75,16,23.63,26.23,44.28,30.88,16.56,3.72,35.15,3.54,55.81-.37,37.2-8.37,58.59-22.51,64.35-42.41,16.37,8,34.42,9.67,54.32,4.84,18.79-4.66,34.79-13.77,47.62-27.53,10-9.86,12.84-23.44,8.18-40.92q29.86-3.65,44.65-17.86c13.39-13,19.53-29.95,18.6-50.79-.93-20.46-8.56-36.82-22.7-49.29-5.39-5.39-15.44-8.74-29.76-9.67,6-18.79,5.4-33.48-1.86-43.9C515.23,71,493.46,59.62,462,55.35c-32.37-3.91-55.44,2-69.21,18.22Z" transform="translate(-5.02 -27.08)"/>
      <path class="cls-1" d="M273,414.72c-2.61-9.86-12.1-14-28.65-12.28-4.65-9.85-13.21-15.44-25.3-17.11-12.65-1.67-21.39,2.42-26,12.65-12.84-8-23.06-10.05-30.88-6.32-3.53,1.3-7.62,7.07-12.28,17.49a27.66,27.66,0,0,0-13.57,6.13c-4.28,3.72-6.15,8.19-5.77,13.21q-.28,7.8,15.62,13.4c-1.11,7.8-1.67,11.71-1.67,11.89-.19,4.47,1.3,7.82,4.28,10.05,3.54,2.79,7.81,3.35,13.2,2.05a88.17,88.17,0,0,0,13.58-5c5.77,9.29,14.7,13.76,27,13.57q18.14-.27,27.35-13.94c14.13,3.9,23.81,3.53,29-1.49,3.16-2.24,4.65-5.77,4.46-10.42-.93-5.76-1.3-9.86-1.49-12.28,10.24-6.88,14-14.13,11.17-21.58Z" transform="translate(-5.02 -27.08)"/>
      <path class="cls-1" d="M107.48,493.6c-3.91,2.23-7.07,6.5-9.67,12.65-3.53,8.73-6,13.76-7.07,15.25,3.54,5,10.6,10.22,21.58,16,6.88,5.39,14.88,4.27,24.18-3.36.38-.19,4.28-1.67,11.9-4.27,5-1.68,7.63-4.65,7.82-8.74-.56-1.68-2-10.24-4.84-26.05-5.77-5-12.09-5.77-18.6-2.6-2.79,1.67-7.07,1.86-12.83.74-5.77-1.3-9.86-1.11-12.47.38Z" transform="translate(-5.02 -27.08)"/>
      <g>
        <path d="M247.68,400.88c-5.11-10.84-14.57-17.29-28.09-19.16-18.05-2.38-26.2,6.71-29.86,14.75a3.66,3.66,0,0,1,5.25-1.59c-14-8.73-25.27-10.86-34.38-6.51-4.32,1.57-8.88,7.74-14,19.29a3.65,3.65,0,0,1,2.71-2.11A31.13,31.13,0,0,0,134,412.5c-5.09,4.42-7.51,10-7.05,16.26,0-.14,0-.27,0-.41-.37,10.5,13.51,15.37,18.07,17a3.63,3.63,0,0,1-2.4-3.95l-.16,1.12c-1.56,10.86-1.56,10.86-1.56,11.29-.22,5.45,1.76,10,5.75,13,4.28,3.38,9.61,4.27,16.24,2.68A90.92,90.92,0,0,0,177,464.19a3.64,3.64,0,0,1-4.56-1.41c6.43,10.35,16.57,15.5,30.13,15.3,13.29-.21,23.49-5.44,30.31-15.56a3.65,3.65,0,0,1-4,1.48c15.72,4.34,26.35,3.56,32.52-2.38a4.82,4.82,0,0,1-.43.36c2.91-2.05,6.3-6.06,6-13.55a2.09,2.09,0,0,0,0-.43c-.9-5.57-1.26-9.5-1.45-12a3.66,3.66,0,0,1-1.6,3.31c14.68-9.88,14.92-19.53,12.54-25.89-3-11.45-14-16.49-32.43-14.63A3.65,3.65,0,0,1,247.68,400.88Zm-2.93,5.19c21.65-2.19,24,6.67,24.77,9.58.9,2.46,3.3,8.89-9.68,17.63a3.65,3.65,0,0,0-1.6,3.31c.2,2.6.59,6.74,1.53,12.57a3.29,3.29,0,0,1,0-.44c.14,3.43-.82,5.81-2.92,7.29a3,3,0,0,0-.43.36c-4.09,3.95-12.68,4.15-25.52.6a3.65,3.65,0,0,0-4,1.48c-5.49,8.13-13.46,12.17-24.38,12.34s-18.76-3.71-23.82-11.86a3.64,3.64,0,0,0-4.56-1.41,84.86,84.86,0,0,1-13,4.81c-4.44,1.07-7.55.65-10.1-1.36-2.11-1.58-3-3.86-2.9-7,0-.33.62-4.35,1.48-10.42l.16-1.12a3.63,3.63,0,0,0-2.4-3.95c-8.62-3-13.31-6.52-13.19-9.83a2.64,2.64,0,0,0,0-.4c-.29-4,1.19-7.29,4.53-10.19a23.93,23.93,0,0,1,11.8-5.29,3.65,3.65,0,0,0,2.71-2.11c5.85-13.1,9.29-15.22,10.21-15.55,6.91-3.28,16.12-1.22,27.69,6a3.65,3.65,0,0,0,5.25-1.58c3.94-8.68,11-12,22.24-10.55,11.07,1.53,18.42,6.46,22.48,15.06A3.66,3.66,0,0,0,244.75,406.07Z" transform="translate(-5.02 -27.08)"/>
        <path d="M94.43,504.88c-4.79,11.85-6.44,14.2-6.61,14.43a3.65,3.65,0,0,0-.06,4.28c3.9,5.54,11.16,11,22.87,17.13a4,4,0,0,1-.56-.35c5.74,4.49,15.38,7.54,28.74-3.41a3.3,3.3,0,0,1-.66.44c.41-.18,4.08-1.57,11.43-4.08,8.6-2.88,10.13-8.77,10.28-12a3.65,3.65,0,0,0-.18-1.31c-.43-1.28-1.94-9.85-4-21.69l-.68-3.84a3.6,3.6,0,0,0-1.19-2.12c-6.81-5.92-14.62-7-22.59-3.13-1.59.94-4.44,1.63-10.55.44-6.52-1.47-11.45-1.22-15,.79C101.12,493,97.45,497.74,94.43,504.88Zm6.74,2.79c2.32-5.49,5-9.15,8.12-10.91,1-.59,3.69-1.38,9.85,0,6.92,1.35,12,1,15.51-1.16,5-2.42,9.79-1.75,14.34,2.22a3.6,3.6,0,0,1-1.19-2.11l.68,3.84c2.73,15.54,3.71,21,4.28,22.71a3.41,3.41,0,0,1-.18-1.31c-.05,1-.17,3.73-5.33,5.45-6.22,2.12-11.54,4.05-12.4,4.48a3.61,3.61,0,0,0-.66.44c-10.44,8.55-16.2,6-19.62,3.29a4,4,0,0,0-.56-.35c-10.49-5.52-17.13-10.38-20.29-14.87a3.65,3.65,0,0,1-.06,4.28C95.51,521.2,98.78,513.57,101.17,507.67Z" transform="translate(-5.02 -27.08)"/>
        <path d="M354.1,35.19c-16-5.91-34.67-8.61-55.5-8C262.48,30.43,239.13,40.66,229,57.57a3.61,3.61,0,0,1,2.38-1.7,3.65,3.65,0,0,1,2.85.59,111.05,111.05,0,0,0-52.68-19.81c-19.74-2.1-38.41.82-55.49,8.69C98.24,57.59,84.12,74.61,84.12,95.89a3.64,3.64,0,0,1,3.68-3.64c-20-.19-38.24,6.15-54.2,18.84-16.84,13.35-26.38,30-28.33,49.55-1.81,16.3,6.35,30.83,24.25,43.17a3.63,3.63,0,0,1-.78-5.27c-10.16,12.75-14.8,23.67-14.18,33.38.78,17.31,9.62,33,26.26,46.5,23,19.7,46.8,26.07,70.69,18.89a3.64,3.64,0,0,1-4.69-3.65c-.6,14.38,1.64,24.22,6.87,30.1,13.2,15.94,35,26.45,66.45,32.05,32.18,3.88,54.56-2,66.73-17.32a3.65,3.65,0,0,1-6.05-.52c9.17,16.78,24.87,27.78,46.67,32.69,16.82,3.78,36.09,3.66,57.28-.35,38.48-8.65,61-23.77,67.18-45a3.64,3.64,0,0,1-5.1,2.26c17.14,8.38,36.24,10.1,56.78,5.11,19.65-4.87,36.27-14.48,49.43-28.59,10.93-10.72,14-25.68,9-44.34a3.63,3.63,0,0,1-3.08,4.55c20.61-2.5,36.33-8.84,46.73-18.85,14.07-13.67,20.7-31.69,19.72-53.57-1-21.27-9-38.72-23.93-51.86-6-6-16.77-9.6-31.93-10.58a3.64,3.64,0,0,1,3.23,4.74c6.33-19.94,5.54-35.78-2.34-47.09-12.84-19.07-35.73-31-68-35.38-33.66-4.06-58,2.5-72.47,19.48a3.64,3.64,0,0,1,6.08.83C388.3,55.18,374.17,42.79,354.1,35.19ZM351.54,42c18.2,6.9,31,18,38,33.1a3.64,3.64,0,0,0,2.81,2.08,3.69,3.69,0,0,0,3.27-1.25c12.94-15.22,34.53-20.77,66-17,30.05,4.08,51.22,14.94,62.89,32.26,6.54,9.4,7,23.1,1.4,40.77a3.66,3.66,0,0,0,3.24,4.74c13.16.85,22.65,3.83,27.42,8.61,13.73,12.11,20.75,27.39,21.64,46.88.89,20-4.83,35.69-17.5,48-9.22,8.87-23.54,14.55-42.55,16.86a3.63,3.63,0,0,0-3.08,4.55c4.3,16.17,2,28.39-7.21,37.39-12.29,13.17-27.71,22.07-45.95,26.59-19.09,4.64-36.05,3.14-51.84-4.58a3.66,3.66,0,0,0-5.1,2.27c-5.34,18.45-26.09,31.86-61.66,39.86-20.08,3.8-38.36,3.94-54.2.37-19.66-4.42-33.76-14.2-41.88-29.06a3.64,3.64,0,0,0-6.05-.52c-10.49,13.25-30.66,18.17-59.95,14.64-29.09-5.18-50-15.14-62-29.58-3.88-4.37-5.62-13-5.12-25a3.65,3.65,0,0,0-4.69-3.64c-21.66,6.51-42.57.78-63.92-17.51-15.24-12.38-23-25.87-23.65-41.3-.5-7.78,3.74-17.33,12.6-28.44a3.63,3.63,0,0,0-.78-5.27C17.92,187,11,175.05,12.51,161.4c1.79-17.77,10.17-32.35,25.62-44.6a76.7,76.7,0,0,1,49.6-17.26,3.65,3.65,0,0,0,3.68-3.65C91.41,77.76,104.07,63,129,52c15.93-7.33,33.31-10,51.71-8.08A102.33,102.33,0,0,1,230,62.42a3.67,3.67,0,0,0,2.86.59,3.62,3.62,0,0,0,2.37-1.7c8.88-14.8,30.34-23.85,63.8-26.89C318.7,33.89,336.45,36.45,351.54,42Z" transform="translate(-5.02 -27.08)"/>
      </g>
    </g>
  </g>
</svg>
