<svg id="Layer_2" data-name="Layer 2" xmlns="http://www.w3.org/2000/svg" viewBox="0 0 186.44 150">
  <defs>
    <style>
      .cls-1 {
        fill: #fff;
      }

      .cls-1, .cls-2 {
        fill-rule: evenodd;
      }
    </style>
  </defs>
  <title>thunderleft</title>
  <g>
    <path class="cls-1" d="M33.71,84.27a8.18,8.18,0,0,1-4.11-3.82L16,80.18l3.72,4.76L4.06,81.83l10.35-.33-3.12-3.93,17.44-1.13A8.16,8.16,0,0,1,29.22,74c-13.87-8.84-4.95-32.07,11.42-28.61C45.45,30.65,61,31.16,65.79,34.88a15.06,15.06,0,0,1,5.53-12.83L61.91,10.71l4-.35L60.4,4.1l10.52,7.46L66.06,12l8.11,8.25a16.1,16.1,0,0,1,7-1.52A15.89,15.89,0,0,1,95.94,28.89a9.44,9.44,0,0,1,15.12-5.49,13.53,13.53,0,0,1,25.5,6.28,12.77,12.77,0,0,1,9.92,2.41l11-12-6.66-.4L164.86,9l-7.3,8.81,5.54.29-13.47,17.4a13,13,0,0,1,1.69,4.1,25.33,25.33,0,0,1,9.76-2c14,0,25.36,12.18,25.36,25.36s-8.86,22.65-20.56,24.91l-2.16.41c.34,7.75-4.35,14.46-10.78,17.82l4.92,8.7,1.52-3.9,3.67,10.44-3.85-6.06L158,118.59l-7.69-11.27a18.46,18.46,0,0,1-14.42-.69,26,26,0,0,1-50.11,5.22,17.62,17.62,0,0,1-9.46,2.92L66,134.68l-5.22-5.14-8,16.78,4.48-28.74,4.47,3.83L64.65,110a16.7,16.7,0,0,1-4.15-7.29c-11.27,7.16-27.1-1.52-27.1-15.2a17.49,17.49,0,0,1,.31-3.26Z"/>
    <path class="cls-2" d="M33.71,84.27a17.49,17.49,0,0,0-.31,3.26c0,13.68,15.83,22.36,27.1,15.2A16.7,16.7,0,0,0,64.65,110l-2.86,11.39-4.47-3.83-4.48,28.74,8-16.78L66,134.68l10.24-19.91a17.62,17.62,0,0,0,9.46-2.92,26,26,0,0,0,50.11-5.22,18.46,18.46,0,0,0,14.42.69L158,118.59l1.24-3.25,3.85,6.06L159.38,111l-1.52,3.9-4.92-8.7c6.43-3.36,11.12-10.07,10.78-17.82l2.16-.41c11.71-2.26,20.56-11.72,20.56-24.91s-11.36-25.36-25.36-25.36a25.33,25.33,0,0,0-9.76,2,13,13,0,0,0-1.69-4.1l13.47-17.4-5.54-.29L164.86,9l-14,10.69,6.66.4-11,12a12.77,12.77,0,0,0-9.92-2.41,13.53,13.53,0,0,0-25.5-6.28,9.44,9.44,0,0,0-15.12,5.49A15.89,15.89,0,0,0,81.12,18.75a16.1,16.1,0,0,0-7,1.52L66.06,12l4.86-.45L60.4,4.1,66,10.36l-4,.35,9.41,11.34a15.06,15.06,0,0,0-5.53,12.83C61,31.16,45.45,30.65,40.64,45.35,24.27,41.89,15.35,65.12,29.22,74a8.16,8.16,0,0,0-.49,2.49L11.29,77.57l3.12,3.93-10.35.33,15.65,3.11L16,80.18l13.61.27a8.18,8.18,0,0,0,4.11,3.82ZM63,126.77l5.63-18.52a15.75,15.75,0,0,1-5.44-7.52c3.37-2.76,6-6.31,6.41-11.28a15.64,15.64,0,0,1-7.82,11C50.29,106.68,36,96.67,38.59,83.26a7.56,7.56,0,0,1-4.18-9.6C22.23,65.89,28.73,47.13,42.3,47.9a8.71,8.71,0,0,1,2.5.32c1.73-10.07,13.13-15.09,23.14-10.34A14.8,14.8,0,0,1,96.52,31.7a8.79,8.79,0,0,1,14.08-5.11c2.11-4,5.25-6.72,11.14-6.72s12.62,5,12.6,12.56c0,2.66-2.37,7.66-4.1,9.18a13.85,13.85,0,0,0,6.11-9.34,12,12,0,0,1,11.72,9.41,23.52,23.52,0,0,1,9.09-1.81c13,0,23.61,11.34,23.61,23.61a23,23,0,0,1-19.14,23.19,16.29,16.29,0,0,1-8.39-.73,24.94,24.94,0,0,0,6.3,2.56A18,18,0,0,1,136,105a24.47,24.47,0,0,0-12-23.82,24.4,24.4,0,0,1,9.81,19.58A24.19,24.19,0,0,1,87,108.94a15.9,15.9,0,0,1-13.38,1.86L64.83,130l-5.13-4.73-4.24,12.34,2.88-15.86,4.65,5Z"/>
  </g>
</svg>
