<svg id="Layer_2" data-name="Layer 2" xmlns="http://www.w3.org/2000/svg" viewBox="0 0 186.44 150">
  <defs>
    <style>
      .cls-1 {
        fill: #fff;
      }

      .cls-1, .cls-2 {
        fill-rule: evenodd;
      }
    </style>
  </defs>
  <title>thunder</title>
  <g>
    <path class="cls-1" d="M156.79,84.27a8.18,8.18,0,0,0,4.11-3.82l13.61-.27-3.72,4.76,15.65-3.11L176.1,81.5l3.11-3.93-17.44-1.13a7.87,7.87,0,0,0-.49-2.48c13.87-8.84,4.95-32.07-11.42-28.61-4.81-14.7-20.34-14.19-25.15-10.47a15.06,15.06,0,0,0-5.53-12.83l9.41-11.34-4-.35L130.1,4.1l-10.52,7.46,4.87.46-8.12,8.25a16.1,16.1,0,0,0-7-1.52A15.89,15.89,0,0,0,94.56,28.89,9.44,9.44,0,0,0,79.44,23.4a13.53,13.53,0,0,0-25.5,6.28A12.77,12.77,0,0,0,44,32.09l-11-12,6.66-.4L25.64,9l7.3,8.81-5.54.29,13.47,17.4a12.76,12.76,0,0,0-1.68,4.1,25.42,25.42,0,0,0-9.77-2c-14,0-25.36,12.18-25.36,25.36s8.86,22.65,20.56,24.91l2.17.41c-.35,7.75,4.34,14.46,10.77,17.82l-4.92,8.7L31.12,111,27.45,121.4l3.85-6.06,1.24,3.25,7.69-11.27a18.46,18.46,0,0,0,14.42-.69,26,26,0,0,0,50.11,5.22,17.62,17.62,0,0,0,9.46,2.92l10.24,19.91,5.22-5.14,8,16.78-4.48-28.74-4.47,3.83L125.85,110a16.6,16.6,0,0,0,4.15-7.29c11.27,7.16,27.1-1.52,27.1-15.2a17.49,17.49,0,0,0-.31-3.26Z"/>
    <path class="cls-2" d="M156.79,84.27a8.18,8.18,0,0,0,4.11-3.82l13.61-.27-3.72,4.76,15.65-3.11L176.1,81.5l3.11-3.93-17.44-1.12a7.87,7.87,0,0,0-.49-2.49c13.87-8.84,4.95-32.07-11.42-28.61-4.81-14.7-20.34-14.19-25.15-10.47a15.06,15.06,0,0,0-5.53-12.83l9.41-11.34-4-.35L130.1,4.1l-10.52,7.47,4.87.45-8.12,8.25a16.1,16.1,0,0,0-7-1.52A15.89,15.89,0,0,0,94.56,28.89,9.44,9.44,0,0,0,79.44,23.4a13.53,13.53,0,0,0-25.5,6.28A12.77,12.77,0,0,0,44,32.09l-11-12,6.66-.4L25.64,9l7.3,8.81-5.54.29,13.47,17.4a12.76,12.76,0,0,0-1.68,4.1,25.42,25.42,0,0,0-9.77-2c-14,0-25.36,12.18-25.36,25.36s8.86,22.65,20.56,24.91l2.17.41c-.35,7.75,4.34,14.46,10.77,17.82l-4.92,8.7L31.12,111,27.45,121.4l3.85-6.06,1.24,3.25,7.69-11.27a18.46,18.46,0,0,0,14.42-.69,26,26,0,0,0,50.11,5.22,17.62,17.62,0,0,0,9.46,2.92l10.24,19.91,5.22-5.14,8,16.78-4.48-28.74-4.47,3.83L125.85,110a16.6,16.6,0,0,0,4.15-7.29c11.27,7.16,27.1-1.52,27.1-15.2a17.49,17.49,0,0,0-.31-3.26Zm-29.28,42.5,4.65-5,2.89,15.86-4.25-12.34L125.67,130l-8.82-19.18a15.91,15.91,0,0,1-13.38-1.86,24.17,24.17,0,1,1-37-27.74,24.42,24.42,0,0,0-12.1,21.1,27,27,0,0,0,.15,2.72A18,18,0,0,1,31,88.5a24.8,24.8,0,0,0,6.3-2.56,16.29,16.29,0,0,1-8.39.73A23,23,0,0,1,9.73,63.48c0-12.27,10.57-23.61,23.61-23.61a23.52,23.52,0,0,1,9.09,1.81,12,12,0,0,1,11.72-9.41,13.88,13.88,0,0,0,6.11,9.34c-1.73-1.52-4.09-6.52-4.1-9.18,0-7.53,6.71-12.56,12.6-12.56s9,2.72,11.14,6.72A8.79,8.79,0,0,1,94,31.7a14.8,14.8,0,0,1,28.58,6.18c10-4.75,21.41.27,23.14,10.34a8.71,8.71,0,0,1,2.5-.32c13.57-.77,20.08,18,7.89,25.76a7.56,7.56,0,0,1-4.18,9.6c2.57,13.41-11.7,23.42-23.18,17.2a15.64,15.64,0,0,1-7.82-11c.38,5,3,8.52,6.41,11.28a15.75,15.75,0,0,1-5.44,7.52l5.63,18.52Z"/>
  </g>
</svg>
