<svg id="Layer_1" data-name="Layer 1" xmlns="http://www.w3.org/2000/svg" viewBox="0 0 695 439"><defs><style>.cls-1{fill:#f6faff;}.cls-1,.cls-10,.cls-11,.cls-12,.cls-13,.cls-14,.cls-15,.cls-2,.cls-3,.cls-4,.cls-5,.cls-6,.cls-7,.cls-8,.cls-9{stroke:gray;stroke-opacity:0.25;stroke-width:0.5px;}.cls-2{fill:#f7fbff;}.cls-3{fill:#f4f9fe;}.cls-4{fill:#f5fafe;}.cls-5{fill:#f3f9fe;}.cls-6{fill:#9ec7e3;}.cls-7{fill:#e5f1f9;}.cls-8{fill:#f1f8fd;}.cls-9{fill:#f0f7fd;}.cls-10{fill:#abcfe7;}.cls-11{fill:#e3f0f9;}.cls-12{fill:#75b0d6;}.cls-13{fill:#ebf4fb;}.cls-14{fill:#e9f3fb;}.cls-15{fill:#f1f7fd;}.cls-16{fill:#f1f2f2;stroke:#636363;stroke-width:0.75px;}</style></defs><title>nm-outbound</title><path class="cls-1" d="M656.25,104l-2.1-2.5L652,100.25l-6.39-20.82-3.4-10.23,2.54.52,1.27-3-.19-3.66,2.35-2.83.7-2.87-1.34-2.61,0-4.51,1.29-1.86-.59-4.61,5-14.49,2.26.23.72,2.58,1.85.52,2.95-2.66,3.57-2.05,6,2.94L676,48.53l1,4.26,4.65.28L684,59.62l3.48-.26,3,4.35L688.91,67l-1.41.2-2.27,2.93L682,71.24,680.78,75l-3.6,2.44-6.6.88-1.1,6.17-2.77,1-1.63,3.46-2.4.94-2.34-.25-1.63,3,1.16,1.71L657,99Z"/><path class="cls-2" d="M627.69,116.74l9.53-2,13.73-3,1.35-2.5,3.45-1.8,1.27,2.54,1.89,1.59-2.37,1.27-.78,2.32.61,2.53,2.64-.4,2.24,2.16,3.42,4.71,2.72.07,3.38-2.59.67,2.22-4.88,2-2.82,2.38-.83-2.46-3,2.27-1.78,2.41-1.65-2.62-.5-.48-1.52-.8-1.65-3.67-4.88,1.47-.08-.24-20.06,4.58-.39-.53Z"/><path class="cls-3" d="M453.83,106.08l-1.91-1.52.88-2.44-2.63-.31.61-5.06L447,95.21,446.74,93,438.89,92l-3.76-1.75-12-2.47-1.27-2.65-2.36-.92,4.33-2,1.91-2.12,4.62-1,9.25-7.39,1.58-2.19,2.55-1.64,4.24-.61,0,1.46-4.22,3.25-2.3,4.1,6.23.52,3.16,1.34L454,82.36l1.54.46,2.67-1L460,83.24l4.17-1.86,3.8-2.84,7.41-.92,2.42-1.48,2.69.62v2.83l3.06,1,1.84-.86,5.85-1L491,80.12l1.52,5.23-.21,1.92-2.94,1.14L486,86.82l-.61,3.68-3.26-2.45-4-1-2.11.26-1.41,2.21-2.93.9-3.15-.19-1.63,3L462,92.62,461.56,95l-3.75,1.36Zm55.28,50.06-16.36,2.67-.12-1.06-12,1.38-12.59,1.26,2.29-2.46,2.59-6.29.9-3.87.11-4-1.19-6-4.28-8.49.95-3.41L468,122l2.41-5-.19-6,1.74-1.24-.15-2.25,2.93-1,.53-1.74,2.11-.11-.66,2.9,1.64,1.92,1.2-3.18-.35-5.62L481,99l2-.3-1.39-3.3,2.06-3.25,1.5-.83L489,93.11l2.86-.06,1.48,2,8.37,2.49.49,5.59,1.58,1,.92,2.67.13,6.22-2.28,2.2,0,2.86-2.74,1.49-.84,1.61.56,3.72,3,1,2.34-3.17,1.64-3.77,3.83-2.15,2.27,1,1.6,2.42,2,6.32.69,3.46,1.9,3.9-.45,6.27-1.77,1.09L515,139.87l-.5,4.37-2.52,3,0,3.76-1.67,1.74Zm-10.36-68.6h-2.61l-.87-1.43,2.87-1.44Z"/><path class="cls-4" d="M261.94,108.05l-25.64-2.42L213,102.75l-9.62-1.38-18.53-2.51-4-.78-1.31,8.64-1.76-2.08-.76-2.53-3.47,2.14-6.16-.33-1.94-1.14-2.42,1.07-6.23-.62-.53-5.51-3.44-2.2.62-3.15L152.27,91l-1.76-6.94.56-1.26-1.72-2.05L147.2,82.8,144.64,84l-2.16-2.54.52-3.08L145.36,77l-.65-2.9,3.69-8.75-3.18-1.11-.08-1.58-2.77-2.29L142,58l-2.68-5.31-2-1.22-1.58-4.56.73-2.22-2.6-5.26L137.34,23l9,1.92,16.33,3.24,16.75,3,12.34,2.06,21.84,3.21,14.05,1.83,18,2.09,21.89,2.08-1.37,16.77-1.6,18.68-1.23,14.55Z"/><path class="cls-3" d="M121.27,222.88l-2.49,13.23-1.94,2.52-2.45-2.5-4.85-.3-.66,4.94.13,3.35L108.3,246l.23,6-1.23,2.08L95.65,236.64l-8.08-12.17-8.38-12.6-8.64-13-6.79-10.24L53.7,173.49l4-15.45,5.09-19.83,3.38-13.07,15.41,3.91,19.87,4.51,7.82,1.79,16,3.36,11.84,2.38-2.43,12.66-3.91,20L126,198.3Z"/><path class="cls-1" d="M612.21,172.66l.75-2.14,2.95-2,0-1.29,3.22-3.61.24-1.55-4.22-2.49-2.26-2.23-.46-3.34,1.08-1.88-.27-2.78,1.39-4.37,1.42-1.7,10.89,3.64-.37,5-1.85,1.77-.1,2.87,3.41.13.68,1.75.59,9.05-2.36,7.44-2.06,2.47L623.59,182l-1.78-2.45-3.79-.45-5.34-2.68-.76-2.32-.13-.38Z"/><path class="cls-5" d="M629.92,146.37l5.47,0,2-1.47,5.37-1.94,2.19-2.9,3.71,1.5-3.09,2.94-8.85,6.25-4.21,2L628,153.89l-1.42-2,.37-5L616,143.24l-2.62-.78-2.52-2.5-1.66-3.48-1.88,0-1.61-1.84L594,137.14l-17.8,3.58-12.5,2.37L553.06,145l-.78-4.44,6.51-5.94.79-2.43,2-2-2.69-4.25-1.3-3.11,6.51-3.09,6-1,2.68,0,2.41,1.12,2.09-1,5.17-1,2.73-1.8,2.76-3.61,2.24-1.35-1.08-3.66.86-1.77L586.57,103l.29-1.73,4-3.72,1.17-2.76,4.77-7,2.65-2.57,9.37-2.28,9-2.49,1,6.46,1.57,2,.67,3.29-.56,4.05,4.24,7.84,2.86,12.64-.28,11.37.39.53L630,141l1.14,1.14-2.51,2.52Z"/><path class="cls-4" d="M543.53,238l18.08-2.13,10.18-1.69,13-2.35,20.57-4.05,13.49-2.94-1.38,2.15,2,3.49-1.83,1.62L613.42,234l1.09,2.09,3.73-1.65,3.82.16,1.78,4.9-2,1.33-2.38,4.67-6.08.28,2.06,1.72-.77,2.95,4.63.7-2.64,6-3.29.43-5.5,2.67-4.29,4.33-2.52,4.53-.78,4.4-5.82,1.28-2,1.22L574.61,263l-14.94,2.24-.11-1.94-2.48-2.5-1.55-.47L539.1,262l-2.41.72-8.2,4.14L521.71,268l-9.35,1.16-.07-4,2.52-.68.68-2.72,3-3,3.61-.48,3-3.17,3.17-1.22,2.23-3.92,1.83-1.56,1.32,1.52,3-3.33,3.39-.24,1.19-3.24L543.6,240Z"/><path class="cls-4" d="M527.31,209.39,523.69,207l-1-2.59L519.88,207l-1.86.73-3.11-1.38-1.7,1.49-2.7-1.82-4.58-.24-1.57-3.18-2.77-1.13-3.94.27L496.34,190l-1.79-16.36-1.8-14.82,16.36-2.67,5,1.64,1.79,1.11,2.58-.4,3.25,1.82,5.39-3.05h3.31l3.2-3.63,4.76-3.79,5.59-3,3.63,22-.57,2.74.44,2.71-.86,2.9,0,3.1-1,3.83.16,2.22-3.67,4.54-3,.07-3.17,4.4.2,3.56-3.34-.52-1.73,4.13.84,3.26-1.36,2.66Z"/><path class="cls-3" d="M613,170.52l-2.6,0-1.71,2.29-20.73,4.31-24.87,4.62L550.1,184l-2.48-15.11-3.63-22,8.29-6.33.78,4.44,10.65-1.86,12.5-2.37,17.8-3.58,11.73-2.55,1.61,1.84,1.88,0,1.66,3.48,2.52,2.5,2.62.78-1.42,1.7-1.39,4.37.27,2.78L612.41,154l.46,3.34,2.26,2.23,4.22,2.49-.24,1.55-3.22,3.61,0,1.29Z"/><path class="cls-2" d="M658.14,130.4l-2.24.94.59-3.56ZM656,127.3l-2,1.36.7,3.08-.88,1.89-3.74,2,.35-1.75-2.5-9.53,4.88-1.47,1.65,3.67Z"/><path class="cls-4" d="M543.53,238l.07,2-2.36,3.15-1.19,3.24-3.39.24-3,3.33-1.32-1.52L530.51,250l-2.23,3.92-3.17,1.22-3,3.17-3.61.48-3,3-.68,2.72-2.52.68.07,4-17.11,2.06-16.81,1.61-17.9,1.54L444,275.67l-11.72.73,1.7-2.15.26-5.43,2.72-3.11,1.13-2.45.81-4.08,1.7-2.23-.44-3,.74-3.22.71,0,.89-.08,17.91-1.34-.48-3,2.91.5,19.87-2.12,6.59-.24,8.31-1,8.57-.52,11.15-1.17.16-.33,10.28-1.26Z"/><path class="cls-6" d="M208.89,324l-1.34-1.52.5-2.19,16.5,1.74L237,323.21l20.41,1.67,1.23-16.57,1.53-16.64L261.73,271l1.55-20.81.52,0L289,251.81l14.27.67-.93,22-.43,10.36,1.52.26,2.46,2.9,1.6-.54,4.3.38.87,3.18,5.71,1.48,5.46-.2,2.62.78L329.1,297l1.81.45,2.25-2.19,4,2.93,2.23-1.58.49,3,3.45-3.66.74,1.78,2.64-1,3.4,2.29,3.75-1,4.36,0,3.6-1.62,3.67.93,2.22-1.05,4.13,3.24,4.73,1.63,1.21,1.36,3.23-.62,1.64.58.19,8.87.35,16.95,3.16,3.68.13,3.63,1.32.82L391,344.3l-.44,3.31-2.36,4.22-.37,3.1,1,3.86-.29,1.66-2.8,3.94,1.27,2.1-4.22.82-6.59,3.06-2.12-.93.61-3.27-4.44,1.11L371.6,370l.26,3.12L370,375.74l-4.7,4.16-6.65,3.88L353,385.07l-1.53-1L349,385.28l1,2.16-3.93,1.74-5.54,5.12-2.07,3.24-3.07-.82.39,2.14,1.67.76-2.31,6L334,411l-1.3,2.56L334,415l.82,5.13,2,5.94,1.84,2.17-5.65,1.06L331.18,427l-3.54-.8-5.42-.23L319,423.49l-3.05-.32-2.25-2.26-4.25-1.05-2.11-6.92-2.54-3,.39-2.51-1.06-2.7.45-2.42-1.72-2.63-1.47-.27L299,396.89l-.17-1.65-2.61-4.15-3-2.44-.5-2.43-2.21-3.93-2-4.75-.21-2.6-1.65-2.51-3-2.17-.63-1.52-2.82-1.45-2.84-4.2H274l-5.72-.77-3.14-1.48-4.95,1.84L258,366.12l-.69,2.67-1.81,2.88-5,2.84-3.78-3.16L242.94,369l-2.82-.93-6.27-5.84-2-4.92.28-4.21L230,349.38l-.28-3-3.83-4.06L223.12,341l-2.53-4-2.24-1.64-2.19-3.52-3.34-2-2-4.66Z"/><path class="cls-7" d="M121.27,222.88,126,198.3l4.76-24.53,3.91-20,2.43-12.66,22.44,4,13.57,2.16-2.64,16.51,6.67,1.1,17.78,2.5L192.34,186l-1.72,12.38-2.05,14.05,0,1.86-2.71,19.27-18.44-2.67-12.08-2-20.11-3.44Z"/><path class="cls-8" d="M117.26,69.17,94.09,63.65l-1.82.68-5.66-.95-4.16.32-3.14.86-3.41-.45L74.65,63l-5.44.22L64.56,60.6l-3.19-.54-5.58,1.16-5.23-3.38.84-5L51,50.63,49.1,48.34l-2,.1L44.7,45.77,43,44.52l-2.3.27L39.36,43l1.07-2,1.8-.73-.55-5.86,1.6-1.45-1.46-2.39-.28-4.6.7-6.5-1.4-2.86.61-4.9,2.09-2.74L49,14.35l3,.86,7.39,3.4,2.3-.14L62,23.29l1.38.15L62,29.35,60.61,32.7l2.45-.27.26-5.23L64.4,25l2.72-3-1-1.92.43-3.29-1.38-2.15,2.43-2.2-.38-3.11L65.07,6.81l.83-1.76L76.51,8.14l18.58,4.95,21.32,5.24,10.37,2.41-4.28,18.5L118.88,55.5,117,63.18l.84,3.14Z"/><path class="cls-4" d="M420.78,151.53l-1.08-2.15L415.62,148l-1.3-2.81-.56-3.62,1.33-2.15-1.8-1.49-.32-2.51-.54-4.53-2.51-3.64-1.71-.35-3.58-2.72-.69-2.17-3.48-1.6-1.64-1.91-2-.22-3.5-2.8.56-3.1-.29-5.84,1.21-2.54-2.73-4.47,1.77-3,4.64-3.14-.36-9.75,3.13-.79,2.23.17,3.46-1.27,7.47-3.67L414,81.42l1.57,1.73,3.91,1.1,2.36.92,1.27,2.65,12,2.47L438.89,92l7.85.93.29,2.24,3.75,1.54-.61,5.06,2.63.31-.88,2.44,1.91,1.52-.29,2-2.17.62-1.59,4v3l2.66-1.94,1.53-3.4,2.28-1.31,1.56-4.51,2.32,1.09-1.45,2.14-2.75,7.85-.44,3.2.51,2.32-1.38,1.37-.74,3.8.65,3.29-1.83,7.32.64,4.11,1.89,3.52-.12,4.82-11.91,1Z"/><path class="cls-9" d="M616.39,201.4l-2.81-.44.11-1.76-4-2.09-2-.13-1.58-2.63,1.87-2.86-2.81-1.73,1.35-4.15-1.93-2.09.7-3.33,2-2.39L607,176l-4.6,7.15,1.23,2.88-1.06,2.75,1.19,5.45,2.08,2,1.46,5.3-3.42-1.93-4.42-.41-1.71-2.28-2.12,1.89-1.24-1.83,1.31-2.87.63-2.79-1.49-2.13-5.77-2.46-1-2.52-1.94.12-2.75-3.59-4-1.47L576.44,181l-.21,1.79-4.4-.65-1.52,2.71-1.77.34-4.13,5.08-1.36-8.49,24.87-4.62,20.73-4.31,5.63,20.32,8.1-1.63L621.5,199l-4.7,1.6Z"/><path class="cls-4" d="M510.94,336.16l-21.3,2.43L474.45,340l-.31,2.22,3.5,2.86.08,4.46-1.07,2.2-1.93.68L471,350l-.78-4.06-2.12,2.64.09,2.19-4.07.46L461,326.15l.4-19.7.34-16,.34-14.46-1.51-1.6,17.9-1.54,16.81-1.61,3,10.68,6.63,23.83,2.14,4.47,3,4.9L508,317.59l-.56,4.65.51,2.67,1.47,2.41-.48,4.68Z"/><path class="cls-1" d="M20.35,429.25,22,430l.17.95-1.57.57-.27.53L19,432.2l-2.56.68-.63-.51,1.49-.44,1.28-.17.36-1-.14-.78.51-.59Zm-5.86,3.19-1.24,1-.86-.4.14-.63,1.18-.22.33-.83,1.53-.54.66.52-.33.61Zm-62.85-20.82.08-1.12,1.45.84.56,1.27-1.83-.44Zm164.78-9.76,1.09-.16.37-.61,1.32.53,1.08,0,.75.44-.11.61,1.16,2-.71.42-1.82-.65.43,1.13-.93.53-2.06-2-.77-.39-.17-.85Zm5.18-1.18,1.16-.29,1.52,1.69-.48.63.72.46.64,1.36-.67.52.08.58-.73,1.29-.77-.95.11-.44-.47-1.18-.72-1.06-.78-2ZM58.15,422.2l.52.08-.2,1.2-.87-.16-.09-.52ZM42,424.59l.1.88-1.21-.19.54-1.1Zm93.93-11,.68.21.42.73-.79.2Zm-5,.8-1.47-.83.52-1.21-.89-.51-1.36.32.51-1.24-.61-1.12,1.48-.23.67,1,1.66.69.77.6,2,2.35.46,0,1,2.52-.39.74-2-1,0-.8-1.34-.39-1.14.09Zm-62.63-3.17-.11,1.21.38,1.06-1.84,1,.11.76-2,.79-.54.83-.78.61-.35-.54-1.42-.88,0-1.19-.47-.51.2-1.31,1.26-.87.75.08.14-1,1.48-.88,2.77.32Zm62.16-3.85-.62.88-.87.11-1.61,1-.82-2.05-.5.05-.49-1.38h1.73l.77-.24.84.84Zm-1,1.35.7-.35.55.94-.59.4-.75-.32Zm-9.56-3.56.3-.42,1.29.5.66-.14.29.89,1.49,2.71.2,1.07.57,1.5-.48.32-1.86-2.12-.93-.53-.08-1.4-1.64-1.47Zm6.71,6.71-.93-1.06v-.67l-1.3-2.25.86-.83,1.69,1.44-.37.84.51,1.46ZM24.25,374.68l1.4.62L25,376l-1.31-.33-1.15.77-.1-.63-1.07-1.5-1.07-1-.57-.2-1.09.41-.59-.52-.1-.74.55-.94,1.93,1.08,1.22-.43.86.71-.05.72Zm57.39,19.69-.32,2.5-.6-.37.33-1.47ZM30,394.68l.14,1.58H28.86l-.28.47L27.13,396l-1.8-1.69.27-.91,1,.4.61-.5,1.74-.21.17.48,1,.27Zm49.14,3.56-.93.22-1.39-.76-.28.94-1,.6-.27.81-1.4,1.79-.91-.12-.54,1.15-.64.2-.83-.26-.89.58-.7-.53.24-1,1.21-.34.56-.5-1.78-1.23.43-1.49.77-1.08.37-1.94-.45-1,1-.43,1.84-1.55,1,.63.77-.65-1-.71.4-.65-2.19.2-.85.46-.36.78-.87.24-.86.95-.11.7-1.27,1.36.23.64-1.09,1.05.18.85-.38.92-.85.18-.13,1.13-1.42.37-.64.51.1.63-.93.27-.5,1.38.45.46h1.09l1.07.88-.19,1-.82.77-.66,0-.3,1.34-1,1.65-2.1.51-.23.78-1.39.43-.57.87-1.95,1.2,0,1.36-.66.76-.7.1-1.47,1.43-.53-.57-.63.88-.92.78-1.58.35-.59.56.86.7-.14.4-1.17.8-.21.51-2.77.38-.2,1.09-.82-1.18-1.22,1-2.38.56-1.3.85-.9-.13.66-1.35-.74-.16-.47,1.18-1.1,1.63-.91.34-.81-.24-1.08.56-.86-.17-2.09,1.63-1.64-.29-1,.75-1,.27-.66-.27-.2-.95.88-.36.73-1.22.69.08,1.6-.6,1.19.12,3.6-1.44-.11-.53,1.17-1.17,1.55-.95,1.76-.35.66.31.39.78,1.35-.59-.07-.38.83-1.52,1.83-1.37,1.66-.6,1.23-1,.91.43.19-1.57.89-1.12,1.19-.72,1-.88.06-.92,1-4.5,1.18-1.12-.08-.93L51,406.28l-1.78-1.57L49,406.07l.31.86-1.1.26-.83-2-.52-.84-1,.65-.95-.81-.23-1-1.51,1.09-1.58.45-.15.43-1,.48-.71-.61.66-.93-.09-1.31-.47-1.25L41,400.27l-.84-2.75-.82-1.59L39,397.06l-2,.63-1.14.09-1.56-.44-.06-1.11-.5-.39-.69-1.4-.7-.37-1-1.15,1-.9.29-1.21-1.34-1.45.08-1-.64-.45.51-.87-.9-.95L32,385l-.25-.83.37-.73,2-2,.78-.18-.1-1.15.92-1.69.65-.56.77-.16,1,.42.93,1.16.74,0,1.1-.83,1.2-1.36,1.88.44,1-.19,1.11-1.46L46,373.11l-1-1.19,1.62-.92-.21-1.25-.64-.43-.47.59-.7-.17-1.3.48-1,.74-1.81.12-.77-.66-2-.21-1.57.4-2.84-1.38-.44-1,.32-.75-.54-.78.27-.7.87-.79-.27-.37-2.25-.93L30,362.72l.07-.64,1.47-.48,1.91-1,2.66-1.15,2.7-.77,1.45-.06L41,359l-.68,2,.23.79,2.39.16.79.46,1.3.2.82-1.17.79.26.24-.7-.88-.45-.93.19.2-.94-.56-1.1-.71-.4-.19-.66.77-.4.55,1.1-.21.63,1,1.32.59-.16-1.08-1.44.6-1.42-.24-.54-1.49.18-1.42-.5-1.37-.71.07-.73-.43-2-2.63-3.18-.79-.46-.36-.78-1.11-1,.75-.16.46-.74.37-1.76,1.82.45,2.3-.05,1.67-1,1.06-1.19.63-1.79-.14-.35,1.23-1.08,1.33-1.65,1.3.35,1.1-.56,2.34-2.17,1.92.18,1.23-.17,1.06-.6,1.42-1.84.53,0,1.78.75.06.63-.92.91,1,.23.5-1.24.44-.36.88.89-.16.69.9.57.57-.66,1.26-.22,1.9.42-.28,1.33,1.2.32.53.61,1.55-.42,1.3.31.46-.48,2.51.32,1.63.69.31.41,3.79-.12,1.3.71h1.17l1.27-1.11.81-.19,1.58.3,3,1.47.91.11,1.28,6.43,3,15,4.19,21.12.5,2.54,1.56,7.82,1.4.2.07-.52,1.5.42.63-1.05,1.68-.48,0,1.58,1.64.7.41.74,3.62,2.27.93,1.76,1.42-1.86.69-.22.14-.76-.29-1,.37-1.06.81-.47,1.09-1.13,1.64,1,.12.83.53.7.79,0,.83.48,1.11,1.3,1.39.36,1.85,1.24-.16.31,1.24,1,3,3,1.44,1.28-.13.78,1-.08.11,1.05h.66l.72,1.18.74-.33,1.89.61,1-.12,1.21.34.32.5,1-.24.65,1-.08.95.45,1,1.06,1.44-.38,2.39-.71,1.51-1-.3-.59-1.28-.58-.55-1.62,0L134.8,413l.29-1-.68-.23-.17,1.08-.78-.27-.34-.58.26-1.7-.83-.38v.92l-1.88-1.16.35-.86.57-.21-.53-1.37-.89-.69-.79-.23-.77-.7-2.07-.45-.13-1.05-.55-1.18-2.95-2.85-1.49.16-.27-.71-1.23-1.05-.92-1-.39-.9-.57.33,1.29,1.77.77,1.63-.54.62-1.31-.8-.76.5-.82-1.77-1.84-.26,1.46,1,.81,1.15-1.36,1.35-1.68-.53-2.09-.92-.94-.71-.14-.49-1.33-.81-1.06-.18-1-.48-1.6-.42-1.09-.49.49-1.32-1.08-.49-1.19,1-1.88.1-1.56-.47-.08-.75-.9.43-2.39-.28-1.06.14-2.19.72-.52.33-.71-.56-1.64-.38-.69-1.3-.51,0-.83.76-1.45-.89-.21-.5-1.13-.59-.85-.14-.74-1-1.11,0-.61.67-2.12.48-.64.71.93.63.46,1-.7.6.53,1-.17.65ZM-7.63,432.39l1-.37.11.61-.82.77-.67-.15ZM-20.4,431l-.38.46-.85-1.41,1,0Zm3.69.8,1.6.54-.24.71-2.06-.38Zm85.49-23.07-1.66,1.49-.56.05-1.33-.48,1.11-1.39L67,408l.51-1.12.48.78,1,.4Zm12.47-9.59-.12-.6.46-.77.77.66Zm52.21,19.06-.55-.05-1.24-1.05L131,416h.78l.73,1.07.64.33Z"/><path class="cls-10" d="M185.84,233.56l-2.57,18.51-3.09,22.42-3.34,24-2.24,16.13-1.74,12.44L162,325.48l-17.32-2.63-17.19-9.93-9.35-5.4L96.71,294.6l2-3.41,2.73-.1,1.07-1.28,0-2.91-2.46-1.85,2.12-5.19,2.66-4,.24-3.84,2.16-2.66,2.36-.66,2-1.82-2.25-2.95-.87-4.61-1.6-2.93.41-2.22,1.23-2.08-.23-6,.71-1.91-.13-3.35.66-4.94,4.85.3,2.45,2.5,1.94-2.52,2.49-13.23,13.94,2.6,20.11,3.44,12.08,2Z"/><path class="cls-1" d="M438.9,259.18l-.81,4.08L437,265.71l-2.72,3.11-.26,5.43-1.7,2.15L431,279.21l-2.26,7.49-6,7.26.33,5.29-1.89,1.64,2.28,5.6-1,3.67-22.45.78-17.16.39-.19-8.87-1.64-.58-3.23.62-1.21-1.36.12-16.75.14-12.53-2.76-18.4,19.64-.41,22.64-.88,16.44-.9L434,255l-1.71,1.57-1.89,3.28Z"/><path class="cls-11" d="M16.76,111.14l10.09,3,11.41,3.13L54,121.93l12.23,3.21-3.38,13.07L57.73,158l-4,15.45,10.06,15.12,6.79,10.24,8.64,13,8.38,12.6,8.08,12.17,11.65,17.49-.41,2.22,1.6,2.93.87,4.61,2.25,2.95-2,1.82-2.36.66L105.13,272l-.24,3.84-2.66,4-2.12,5.19,2.46,1.85,0,2.91-1.07,1.28-2.73.1L80.41,289l-14.9-1.76-1.15-3.09.69-2.82-.12-4.25-1.58-4-6.28-8.24-4.23-1.21.64-1.54-1-3.43-3.88-.49-4.85-3.69-.28-1.9-3.14-3.55-4.15-1L33,246.16l-4.43-.72-1.71-2.75,1.59-4.09.67-3.6-.42-2-2.23-1.92,1-2.41L26,227.28l-1.34-3.38L23.44,223,20.09,213l-1.71-2.6,1.05-5.2,2.48-2.24-.37-2.31-3-1.26-2.66-4.91.8-2.61-.71-3,1.22-4.16,1.48-.11-.42,3.69L21,190.47l.09-2.76-1.57-2.45,2-3.95L19,179.48,17.54,184l-4.42-4.92.63-3.48-1-3.91-2-2.58-.71-2.54-2.42-4.52L8.71,160l-.11-5.46,1.61-2.73.31-4.77-1.79-5.28-2.26-3.44.32-3,5.13-6.07.92-2.81,2.94-5.83.36-4.58-1-1.58Z"/><path class="cls-12" d="M276.94,242.84l-12.52-1L247,240.57l-8.62-.79-24.32-2.54L196.16,235l-10.32-1.39,2.71-19.27,0-1.86,2.05-14.05L192.34,186l2.58-18.6,17.48,2.26,17.3,2.07,16.78,1.68,9.89.83L271,175.38l10.05.68L280,192.69l-1.18,19.82-.81,12.8Z"/><path class="cls-1" d="M629.92,146.37l-1.3-1.67,2.51-2.52L630,141l-2.19-12.4,20.06-4.58.08.24,2.5,9.53-.35,1.75-1.08,0-5,2.58-6.33,1.22-2.11,2.86-2.74,1.4Z"/><path class="cls-2" d="M612.21,172.66l-.18,3.89,2.38,2,1.45,4,3.46,3.53,1.48.26,1.58,5.14-8.1,1.63-5.63-20.32,1.71-2.29,2.6,0Z"/><path class="cls-3" d="M476.65,351.69l1.07-2.2-.08-4.46-3.5-2.86.31-2.22,15.19-1.36,21.3-2.43,2.5,4.54L538,339l13-.91,1.13,3.34,1.71-.32-.06-3.85-.76-2.47,1.07-1.5,7.38.86,1.92,7,3.07,7.72,5.77,9.74,7.09,8.27.45,5.4,1,2.55,3.6,5.34,2.86,5.53,3.32,5.47,1.52,3.44.51,3.69.28,8,.59,5.13-1.58,1.18-.83,3.75-.16,4.11-3.71,1.74L581,424.32l-1.64-1.45.48-2.27-2.5-3.89L574,413h-3.35l-2.8-2.73-1-3.27-1.49-2-3.84-2.92.8-1.86-.66-3.48L559.25,400l-5.6-7.72-2.12-2.12,3.42-7-2.75.74-1.58,2.19-2-1.78.06-6.61.71-6.29-3.79-8.93h-2.46l-2.73-1.5-1-2-2.81-1.23-.51-2.46-1.89-.66-1.78-2.48-5.94-2.86-4.65,1.33.54,2.58-2.76.16-3.8,3-6.07,2-2.54-4L500,350.47l-6.22-1.81-4.79-.07Z"/><path class="cls-4" d="M561.5,334.19l-7.38-.86-1.07,1.5.76,2.47.06,3.85-1.71.32L551,338.13,538,339l-24.57,1.66-2.5-4.54L508.89,332l.48-4.68-1.47-2.41-.51-2.67.56-4.65,2.07-2.47-3-4.9-2.14-4.47-6.63-23.83-3-10.68,17.11-2.06,9.35-1.16,6.78-1.14-2.4,3.87,0,1.81,5,2.85,1.31-.41,2.6,3.33.66,1.86,2.64,3.08,4.51,2.47,1.1,2,4.29,2.56-.23,1.33,3.87,3.58,3.18,1.34,1.39,2.7.68,3.54,1.95.74,2.91,4.07.47,2.79,3.41.85-2.57,5.65-.12,3.48-2.1,8.73Z"/><path class="cls-4" d="M163.27,379.64l2.06,1.76-.6,2.5L163,385.35l-4.81-1.84.41-2.65,2.33-1.35Zm21,9.59,1.53-1.12,4.86,6.75-7.12,0-2.18-4.62Zm12.54,6.87,6,1-.15,1.9-3.14-.93H196Zm3.83,4.89,3.12,2-2.46,1.22Zm6.18-1.57,2.14,2.14,2.33-.92,5,2.53-.77,2.32-5,1.27-1.35-3.34-2.61-.65-1.06-1.63Zm13,12.78,3.07,2,4.87,1.77,2.92,2.69,1.6,3.42,2.66,1.82-2.58,3L230,428.11l-2.55.18-3.25,2.14-2.59,3.66-3.29-2-.63-1.39.52-3.56-1.33-4.11-1.47-2.37,3.67-5L218,412.37Z"/><path class="cls-1" d="M173.11,147.29l-13.57-2.16-22.44-4-11.84-2.38-16-3.36-7.82-1.79,3.74-16.64,2.94-13.09L110.84,99l-3.11-4.82L111.28,89l1.39-.35L114.52,85l1.75-1.6,1.31-2.79L121,76.42l-.88-3-2-1.23-.89-3.07.54-2.85L117,63.18l1.92-7.68,3.62-16.26,4.28-18.5L137.34,23l-3.51,16.38,2.6,5.26-.73,2.22,1.58,4.56,2,1.22L142,58l.37,2.36,2.77,2.29.08,1.58,3.18,1.11-3.69,8.75.65,2.9L143,78.33l-.52,3.08L144.64,84l2.56-1.15,2.15-2.06,1.72,2.05-.56,1.26L152.27,91l1.2,1.38-.62,3.15,3.44,2.2.53,5.51,6.23.62,2.42-1.07,1.94,1.14,6.16.33,3.47-2.14.76,2.53,1.76,2.08-3,19Z"/><path class="cls-4" d="M458.92,227.57,457.43,230l1.18,3.15-4.93,1.81-.37,1.75,1.36,2.1-1.47,1.49-5-2.2-1.45.33-1.78,3,.72.87-2.09,0-3.29-4.68,1.12-1.94L440,233.43l-.11-2.5-4.54-3.38-.7.64-6.17-5.37-.11-2.74,1.8-3.81-.38-1.86,1.12-2.37-4.41-1.72-2.64.87-1.13-5.39-4.4-3.4-4.14-4.2-1.81-5-.3-3.32,1-2.42.69-3.9,2.75-1.13.21-2.39,1.56-2,.05-2.87-2.19-2.3.67-2.87,4.76-1.11,3.72-2.31.19-2.46,1.49-1.24v-5.23l-2.89-1.64-1.19-2.57-2.1-1.95,22.42-1.22,11.91-1-.14,3.19,2.17,3.58,2.47,5.93,1.81,20.69,1.6,18.53-1.11,3.13,1.94,3.39.29,4.28-1.44,3.23-3.79,5.39Z"/><path class="cls-4" d="M458.92,227.57v-6.88l3.79-5.39,1.44-3.23-.29-4.28-1.94-3.39,1.11-3.13-1.6-18.53-1.81-20.69,3.13,1.2,5.31-2.86,12.59-1.26,12-1.38.12,1.06,1.8,14.82L496.34,190l1.31,11.75.72,5.17-2.09.47-2.51,1.83-3.37,0,.59,3.05-2.2,1.94L485.57,219l-.27,2.64-2.93.21-2.72-1.72L478,221.74l-.75,3L474.5,223l-2.93,1.66-.32,1.79-4.19-1.86-5.7,1.5Z"/><path class="cls-4" d="M358.83,185.39,357.29,183l.95-2.54-1.42-5.19-.09-4.47-1.92-1.13.25-4.53-1.13-1.64-3.39-9.79-2.35-4.13,2.44-6.26-1.37-1.88,1.24-4.54h11.2l18.43-.24,14.09-.39,18.75-.81.32,2.51,1.8,1.49-1.33,2.15.56,3.62,1.3,2.81,4.08,1.38,1.08,2.15,2.1,1.95,1.19,2.57,2.89,1.64v5.23l-1.49,1.24-.19,2.46-3.72,2.31L416.81,170l-.67,2.87,2.19,2.3-.05,2.87-1.56,2-.21,2.39-2.75,1.13-.69,3.9-1.34-.48-2.7-3.26L390,185l-15.28.51Z"/><path class="cls-13" d="M374,245.14l-24.61.1-24.25-.35-16.92-.56L294,243.71l-17.08-.87L278,225.31l.81-12.8L280,192.69l19.83,1.12,19.24.74,23.65.51,21.86.07,2.87,2.28,2.45.45-2.67,5,2.3,2.46,1.29,2.9,2.78,1.48.19,22.47Z"/><path class="cls-2" d="M517.49,241.41l-.16.33-11.15,1.17-8.57.52-8.31,1-6.59.24-19.87,2.12-2.91-.5.48,3L442.5,250.6l2.41-1.35,1.06-5.39-.31-1.57-.72-.87,1.78-3,1.45-.33,5,2.2,1.47-1.49-1.36-2.1.37-1.75,4.93-1.81L457.43,230l1.49-2.38,2.44-1.5,5.7-1.5,4.19,1.86.32-1.79L474.5,223l2.73,1.77.75-3,1.67-1.65,2.72,1.72,2.93-.21.27-2.64,3.22-4.74,2.2-1.94-.59-3.05,3.37,0,2.51-1.83,2.09-.47-.72-5.17,3.94-.27,2.77,1.13,1.57,3.18,4.58.24,2.7,1.82,1.7-1.49,3.11,1.38,1.86-.73,2.85-2.61,1,2.59,3.62,2.41,1.37,5.73,4.17,5.88,2.56,1.88,2,0L533.15,228l-4.44,3.11-1.51,4.11-2.43.91-1.32,2.12Z"/><path class="cls-5" d="M387,366.49l-1.27-2.1,2.8-3.94.29-1.66-1-3.86.37-3.1,2.36-4.22.44-3.31-3.15-7.89-1.32-.82-.13-3.63-3.16-3.68-.35-16.95,17.16-.39,22.45-.78.5,6,.94,3,2.62,2.45-3.35,1.95,1.38,2.92-3.52,2.94-.63,3.47-1.6,2,.17,4.24-1.39,2.69.1,1.95,17.56-.93,8.85-.59-1,5.58,2.56,3.45,1.19,3.65,1.37.68-4.55,3.23,2.51,2.08,2.63-3,2.69,1.77-1.65,3.76-2.42.93-.88,2.52,2.8,1.84,4.47.32,2.62,1.91-1.44,3-3.79-.87-1.3-1.54-3.6-1.24-2-2.75-2.57,1-.75,4.63-1.65,1.18-1.77-3.07-3.36.06-1,1.87-2.77,1.95-1.79-1.78-4.63-.87v-3.72l-3.66-.77-1.66-3.33-5-1.25-2.57,2.21.59,1.22L409,368.41l-5-.72-4.67-1.93-3.66-.94-7.36.88Z"/><path class="cls-2" d="M350.5,136.85l.09-15.93.05-13.87L348,105.17l-2-3.25,3.24-3.6.2-1.81L349,90l-1.53-2.46-.69-3.08-.47-15.21-3.2-9.58-.11-6.1.74-2.34-1.37-5.13,22.79.07-.05-6.29,3.6,1.43L370.4,48l1.09,2.7,3.8,1,4.43.3.59,1.84,3.61-.57,1.29-1.36,4-.08,7.87,4.32,3.21.23,3.35,3.24,3.19.94,6.41-3.46,1,2.26,7-.63,3,1.87-1,2.62-6.17,2.47-2.15,1.42-4.65,4.49L407,75.69l-6.73,5.87.95,1.3-3.13.79.36,9.75-4.64,3.14-1.77,3,2.73,4.47-1.21,2.54.29,5.84-.56,3.1,3.5,2.8,2,.22,1.64,1.91,3.48,1.6.69,2.17,3.58,2.72,1.71.35,2.51,3.64.54,4.53-18.75.81-14.09.39-18.43.24Z"/><path class="cls-1" d="M464.08,351.27l-.78.73-8.06-.29-5.57,2.55-1.42,1.32-1.37-.68-1.19-3.65-2.56-3.45,1-5.58-8.85.59-17.56.93-.1-1.95L419,339.1l-.17-4.24,1.6-2,.63-3.47,3.52-2.94-1.38-2.92,3.35-1.95-2.62-2.45-.94-3-.5-6,1-3.67-2.28-5.6,1.89-1.64-.33-5.29,6-7.26,2.26-7.49,1.25-2.81,11.72-.73,16.54-1.28,1.51,1.6-.34,14.46-.34,16-.4,19.7Z"/><path class="cls-1" d="M440.9,250.72l-.74,3.22.44,3-1.7,2.23-8.52.62,1.89-3.28L434,255l-1.16-3.68-16.44.9-22.64.88-19.64.41-.12-8.32-.18-12.94-.19-22.47-2.78-1.48-1.29-2.9-2.3-2.46,2.67-5-2.45-.45-2.87-2.28-1.43-1-.62-2.81-1.76-1.43-1.95-4.52,15.89.1L390,185l19-1.25,2.7,3.26,1.34.48-1,2.42.3,3.32,1.81,5,4.14,4.2,4.4,3.4,1.13,5.39,2.64-.87,4.41,1.72-1.12,2.37.38,1.86-1.8,3.81.11,2.74,6.17,5.37.7-.64,4.54,3.38.11,2.5,1.38,2.22-1.12,1.94,3.29,4.68,2.09,0,.31,1.57-1.06,5.39-2.41,1.35-.89.08Z"/><path class="cls-3" d="M358.83,185.39l1.95,4.52,1.76,1.43.62,2.81,1.43,1-21.86-.07-23.65-.51-19.24-.74L280,192.69l1.06-16.63L271,175.38l-14.65-1.14,1.25-14.68,1.57-18.49,11,.88,18.07,1.29,11.93.61,13.94.6,11.7.36.35.86,6.16,3.1,1.3-1.61,1.9.46,4.59-.35,7.43,3.65,2.94,2.74,3.39,9.79,1.13,1.64-.25,4.53,1.92,1.13.09,4.47,1.42,5.19-.95,2.54Z"/><path class="cls-2" d="M637.22,114.7l-1.32-1.06.32-3.55-.7-2.16-.79-7.22L636,96.54l.6-4.86-1-3.88L638,86.54l1.89-2.69-.05-2.4-1.33-1.65.79-3.06-.53-1.62.26-3.53,1-1.74,2.23-.65,3.4,10.23L652,100.25l2.18,1.23,2.1,2.5-.5,3.37-3.45,1.8-1.35,2.5Z"/><path class="cls-1" d="M349.42,96.51l-14.06-.18-16.95-.52-10.5-.45-14.36-.75-17.23-1.14-12.91-1,1.23-14.55,1.6-18.68,1.37-16.77L287.67,44l12,.7,13.29.63,11.47.4,18,.38,1.37,5.13L343,53.56l.11,6.1,3.2,9.58.47,15.21.69,3.08L349,90Z"/><path class="cls-14" d="M374.1,253.46l2.76,18.4-.14,12.53-.12,16.75-4.73-1.63-4.13-3.24-2.22,1.05-3.67-.93-3.6,1.62-4.36,0-3.75,1-3.4-2.29-2.64,1-.74-1.78-3.45,3.66-.49-3-2.23,1.58-4-2.93-2.25,2.19L329.1,297,326.44,293l-2.62-.78-5.46.2L312.65,291l-.87-3.18-4.3-.38-1.6.54-2.46-2.9-1.52-.26.43-10.36.93-22L289,251.81l-25.19-1.63.62-8.32,12.52,1,17.08.87,14.18.62,16.92.56,24.25.35,24.61-.1Z"/><path class="cls-15" d="M101.48,133.56l-19.87-4.51L66.2,125.14,54,121.93l-15.71-4.64-11.41-3.13-10.09-3-1.12-2.38.68-5.45,1.18-2-.57-4.8,1.88-2.2,2.18-4,3.1-4,2-3.77L31.4,69.39l.74-2.76L34.67,62l2.88-8.05.86-4,2.44-3.57,3.85-.59,2.41,2.67,2-.1L51,50.63l.43,2.23-.84,5,5.23,3.38,5.58-1.16,3.19.54,4.65,2.62L74.65,63l1.25,1.11,3.41.45,3.14-.86,4.16-.32,5.66.95,1.82-.68,23.17,5.52.89,3.07,2,1.23.88,3-3.42,4.23-1.31,2.79L114.52,85l-1.85,3.63-1.39.35-3.55,5.12L110.84,99l-2.68,4.87-2.94,13.09Z"/><path class="cls-1" d="M592.54,276l-2.17,1.27-2.52,3.17-2.05,4.8.05,3.45-3.51,3.53-4.56,6.14-5.54,4.42-1.4,2.91-2.32,1.4-2.68,4.2-3.41-.85-.47-2.79-2.91-4.07-1.95-.74-.68-3.54-1.39-2.7-3.18-1.34L548,291.64l.23-1.33-4.29-2.56-1.1-2-4.51-2.47-2.64-3.08-.66-1.86-2.6-3.33-1.31.41-5-2.85,0-1.81,2.4-3.87,8.2-4.14,2.41-.72,16.43-1.65,1.55.47,2.48,2.5.11,1.94L574.61,263Z"/><path class="cls-1" d="M350.54,153.66l-2.94-2.74-7.43-3.65-4.59.35-1.9-.46-1.3,1.61-6.16-3.1-.35-.86-11.7-.36-13.94-.6-11.93-.61L270.23,142l-11-.88L260.36,127l1.58-18.9,1.47-15.6,12.91,1,17.23,1.14,14.36.75,10.5.45,16.95.52,14.06.18-.2,1.81-3.24,3.6,2,3.25,2.63,1.88-.05,13.87-.09,15.93-1.24,4.54,1.37,1.88-2.44,6.26Z"/><path class="cls-2" d="M637.22,114.7l-9.53,2-2.86-12.64-4.24-7.84.56-4.05-.67-3.29-1.57-2-1-6.46,11.73-2.8,9.09-2.52.53,1.62-.79,3.06,1.33,1.65.05,2.4L638,86.54l-2.36,1.26,1,3.88-.6,4.86-1.25,4.17.79,7.22.7,2.16-.32,3.55Z"/><path class="cls-4" d="M621.5,199l-.68,2.44-1.94,2-.18,4-1.31,6.64-2.74.45-.46-2.06.32-5,1.94-4.5-.06-1.51.41-.83Zm-84.08,23.87,1,2.85,3.62,2.14,1.5-.32,2.22-2.55,2,1.42,3.41-1.57,4.61-3.76,3.14-1.1-.46-3,1.21-3.31,1.7-2.28.76-3.52,1.18-1.56.85-5.54,2.56,1.83,2.21.38,1-1.56,1.67-6.36,4.58-2.78,1.85-3.79-.21-5,7.5,4.24.76-3.36,1.94-.12,1,2.52,5.77,2.46,1.49,2.13-.63,2.79-1.85,3.54,1.46,1.7,2.7-.2,2.92,1.93,2.88-.34,1.64,1.74,4,1.51-.63,1.44,1,4.08,1.3,2.71-1.38,2,2.09,3-1.62,2.29,5.7-.39,3,5.71-13.49,2.94-20.57,4.05-13,2.35-10.18,1.69L543.53,238l-15.76,2.2-10.28,1.26,6-3.13,1.32-2.12,2.43-.91,1.51-4.11,4.44-3.11Z"/><path class="cls-2" d="M537.42,222.84l-2,0L532.85,221l-4.17-5.88-1.37-5.73,3.36-.94,1.36-2.66-.84-3.26,1.73-4.13,3.34.52-.2-3.56,3.17-4.4,3-.07,3.67-4.54-.16-2.22,1-3.83,0-3.1.86-2.9-.44-2.71.57-2.74L550.1,184l12.95-2.2,1.36,8.49,4.13-5.08,1.77-.34,1.52-2.71,4.4.65.21-1.79,2.87-1.76,4,1.47,2.75,3.59-.76,3.36-7.5-4.24.21,5-1.85,3.79L571.62,195,570,201.36l-1,1.56-2.21-.38-2.56-1.83-.85,5.54-1.18,1.56-.76,3.52-1.7,2.28-1.21,3.31.46,3-3.14,1.1-4.61,3.76-3.41,1.57-2-1.42-2.22,2.55-1.5.32-3.62-2.14Z"/><path class="cls-4" d="M194.92,167.4l-17.78-2.5-6.67-1.1,2.64-16.51,3.47-21.58,3-19,1.31-8.64,4,.78,18.53,2.51,9.62,1.38,23.27,2.88,25.64,2.42L260.36,127l-1.17,14.12-1.57,18.49-1.25,14.68-9.89-.83-16.78-1.68-17.3-2.07Z"/><path class="cls-16" d="M172.86,327.05l1.74-12.44,2.24-16.13,3.34-24,3.09-22.42,2.57-18.51L196.16,235l17.89,2.29,24.32,2.54,8.62.79,17.43,1.29-.62,8.32-.52,0L261.73,271l-1.55,20.72-1.53,16.64-1.23,16.57L237,323.21,224.55,322l-16.5-1.74-.5,2.19,1.34,1.52-23.33-2.8-1,7.41Z"/></svg>