<svg id="Layer_1" data-name="Layer 1" xmlns="http://www.w3.org/2000/svg" xmlns:xlink="http://www.w3.org/1999/xlink" viewBox="0 0 1280 568"><defs><style>.cls-1,.cls-11,.cls-2,.cls-4,.cls-5,.cls-6,.cls-7{fill:none;}.cls-2{stroke:#d9d9d9;stroke-width:0.72px;}.cls-2,.cls-4,.cls-5,.cls-6,.cls-7{stroke-linejoin:round;}.cls-3{clip-path:url(#clip-path);}.cls-4{stroke:#0085bb;}.cls-4,.cls-5,.cls-6,.cls-7{stroke-linecap:round;stroke-width:3px;}.cls-5{stroke:#fec35a;}.cls-6{stroke:#414143;}.cls-7{stroke:#6ab23f;}.cls-8{font-size:13.47px;}.cls-13,.cls-27,.cls-34,.cls-8{fill:#414143;}.cls-13,.cls-16,.cls-21,.cls-25,.cls-27,.cls-29,.cls-34,.cls-8{font-family:ArialMT, Arial;}.cls-9{letter-spacing:-0.01em;}.cls-10{letter-spacing:0.01em;}.cls-11{fill-rule:evenodd;}.cls-12{letter-spacing:0em;}.cls-13{font-size:13.52px;letter-spacing:-0.01em;}.cls-14{letter-spacing:0.01em;}.cls-15{letter-spacing:0em;}.cls-16,.cls-21,.cls-25,.cls-27,.cls-29{font-size:17.42px;}.cls-16{fill:#595959;}.cls-17{letter-spacing:0em;}.cls-18{letter-spacing:-0.01em;}.cls-19{letter-spacing:-0.01em;}.cls-20{letter-spacing:0em;}.cls-21{fill:#0085bb;}.cls-22{letter-spacing:-0.01em;}.cls-23{letter-spacing:0em;}.cls-24{letter-spacing:0em;}.cls-25{fill:#fec35a;}.cls-25,.cls-28{letter-spacing:0em;}.cls-26{letter-spacing:0em;}.cls-29{fill:#6ab23f;}.cls-30{letter-spacing:0em;}.cls-31{letter-spacing:-0.01em;}.cls-32{letter-spacing:0em;}.cls-33{clip-path:url(#clip-path-2);}.cls-34{font-size:23.22px;}.cls-35{letter-spacing:0em;}.cls-36{letter-spacing:0em;}.cls-37{letter-spacing:0em;}.cls-38{letter-spacing:0em;}.cls-39{letter-spacing:0em;}.cls-40{letter-spacing:0.01em;}.cls-41{letter-spacing:-0.01em;}.cls-42{letter-spacing:0em;}.cls-43{letter-spacing:-0.01em;}.cls-44{letter-spacing:-0.01em;}.cls-45{letter-spacing:0em;}.cls-46{letter-spacing:-0.01em;}.cls-47{letter-spacing:-0.01em;}.cls-48{letter-spacing:0.01em;}.cls-49{letter-spacing:0em;}.cls-50{letter-spacing:-0.01em;}.cls-51{letter-spacing:0.01em;}.cls-52{letter-spacing:0em;}.cls-53{letter-spacing:-0.01em;}.cls-54{letter-spacing:-0.01em;}.cls-55{letter-spacing:0em;}.cls-56{letter-spacing:-0.02em;}.cls-57{letter-spacing:0.01em;}.cls-58{letter-spacing:-0.01em;}.cls-59{letter-spacing:-0.01em;}.cls-60{letter-spacing:-0.03em;}.cls-61{letter-spacing:0em;}.cls-62{letter-spacing:0em;}.cls-63{letter-spacing:0em;}.cls-64{letter-spacing:-0.01em;}.cls-65{letter-spacing:0em;}.cls-66{letter-spacing:-0.01em;}.cls-67{letter-spacing:0.01em;}.cls-68{letter-spacing:0em;}.cls-69{letter-spacing:0em;}.cls-70{letter-spacing:-0.01em;}.cls-71{letter-spacing:0em;}.cls-72{letter-spacing:0em;}.cls-73{letter-spacing:-0.06em;}.cls-74{letter-spacing:-0.03em;}.cls-75{letter-spacing:-0.01em;}.cls-76{letter-spacing:-0.01em;}.cls-77{letter-spacing:-0.03em;}.cls-78{letter-spacing:-0.08em;}.cls-79{letter-spacing:0em;}.cls-80{letter-spacing:-0.02em;}.cls-81{letter-spacing:0em;}.cls-82{letter-spacing:-0.03em;}.cls-83{letter-spacing:-0.02em;}.cls-84{letter-spacing:-0.01em;}.cls-85{letter-spacing:-0.02em;}.cls-86{letter-spacing:0.01em;}.cls-87{letter-spacing:0em;}.cls-88{letter-spacing:-0.01em;}</style><clipPath id="clip-path"><rect class="cls-1" x="87.49" y="23.65" width="1184.67" height="456.82"/></clipPath><clipPath id="clip-path-2"><rect class="cls-1" x="393.13" y="52.92" width="894.83" height="192.53"/></clipPath></defs><title>policy</title><line class="cls-2" x1="87.49" y1="433.56" x2="1270.77" y2="433.56"/><g class="cls-3"><polyline class="cls-4" points="124.54 263.91 198.62 26.09 272.48 276.91 346.33 321.74 420.41 356.81 494.27 394.66 568.35 400.7 642.21 386.3 716.06 327.54 790.14 367.72 864 437.39 937.85 475.25 1011.94 432.29 1085.79 359.82 1159.88 351.7 1233.73 316.4"/></g><polyline class="cls-5" points="124.54 414.4 198.62 307.11 272.48 355.41 346.33 383.98 420.41 401.86 494.27 377.48 568.35 389.55 642.21 361.22 716.06 342.64 790.14 383.28 864 418.58 937.85 454.35 1011.94 411.62 1085.79 430.66 1159.88 430.19"/><polyline class="cls-6" points="124.54 375.15 198.62 428.34 272.48 455.05 346.33 445.52 420.41 433.91 494.27 404.18 568.35 369.81 642.21 363.77 716.06 407.44 790.14 390.95 864 381.66 937.85 367.95 1011.94 359.82 1085.79 342.18 1159.88 369.12"/><polyline class="cls-7" points="124.54 393.96 198.62 309.66 272.48 356.11 346.33 414.17 420.41 394.66 494.27 410.22 568.35 379.57 642.21 370.97 716.06 380.03 790.14 372.6 864 388.62 937.85 417.89 1011.94 409.52 1085.79 386.53 1159.88 377.01"/><text class="cls-8" transform="translate(51.87 483.63)"><tspan class="cls-9">-</tspan><tspan class="cls-10" x="4.42" y="0">5</tspan><tspan x="12.06" y="0">%</tspan></text><polyline class="cls-11" points="1287.73 608.21 1287.73 -5.84 -13.53 -5.84 -13.53 608.21"/><text class="cls-8" transform="translate(56.37 438.07)"><tspan class="cls-12">0</tspan><tspan x="7.44" y="0">%</tspan></text><polyline class="cls-11" points="1287.73 608.21 1287.73 -5.84 -13.53 -5.84 -13.53 608.21"/><text class="cls-8" transform="translate(56.37 392.55)"><tspan class="cls-12">5</tspan><tspan x="7.44" y="0">%</tspan></text><polyline class="cls-11" points="1287.73 608.21 1287.73 -5.84 -13.53 -5.84 -13.53 608.21"/><text class="cls-8" transform="translate(48.85 346.97)"><tspan class="cls-12">1</tspan><tspan class="cls-10" x="7.44" y="0">0</tspan><tspan x="15.08" y="0">%</tspan></text><polyline class="cls-11" points="1287.73 608.21 1287.73 -5.84 -13.53 -5.84 -13.53 608.21"/><text class="cls-8" transform="translate(48.85 301.45)"><tspan class="cls-12">1</tspan><tspan class="cls-10" x="7.44" y="0">5</tspan><tspan x="15.08" y="0">%</tspan></text><polyline class="cls-11" points="1287.73 608.21 1287.73 -5.84 -13.53 -5.84 -13.53 608.21"/><text class="cls-8" transform="translate(48.85 255.9)"><tspan class="cls-12">2</tspan><tspan class="cls-10" x="7.44" y="0">0</tspan><tspan x="15.08" y="0">%</tspan></text><polyline class="cls-11" points="1287.73 608.21 1287.73 -5.84 -13.53 -5.84 -13.53 608.21"/><text class="cls-8" transform="translate(48.85 210.38)"><tspan class="cls-12">2</tspan><tspan class="cls-10" x="7.44" y="0">5</tspan><tspan x="15.08" y="0">%</tspan></text><polyline class="cls-11" points="1287.73 608.21 1287.73 -5.84 -13.53 -5.84 -13.53 608.21"/><text class="cls-8" transform="translate(48.85 164.82)"><tspan class="cls-12">3</tspan><tspan class="cls-10" x="7.44" y="0">0</tspan><tspan x="15.08" y="0">%</tspan></text><polyline class="cls-11" points="1287.73 608.21 1287.73 -5.84 -13.53 -5.84 -13.53 608.21"/><text class="cls-8" transform="translate(48.85 119.3)"><tspan class="cls-12">3</tspan><tspan class="cls-10" x="7.44" y="0">5</tspan><tspan x="15.08" y="0">%</tspan></text><polyline class="cls-11" points="1287.73 608.21 1287.73 -5.84 -13.53 -5.84 -13.53 608.21"/><text class="cls-8" transform="translate(48.85 73.72)"><tspan class="cls-12">4</tspan><tspan class="cls-10" x="7.44" y="0">0</tspan><tspan x="15.08" y="0">%</tspan></text><polyline class="cls-11" points="1287.73 608.21 1287.73 -5.84 -13.53 -5.84 -13.53 608.21"/><text class="cls-13" transform="translate(48.85 28.16)">4<tspan class="cls-14" x="7.44" y="0">5</tspan><tspan class="cls-15" x="15.08" y="0">%</tspan></text><polyline class="cls-11" points="1287.73 608.21 1287.73 -5.84 -13.53 -5.84 -13.53 608.21"/><text class="cls-16" transform="translate(105.24 460.04)"><tspan class="cls-17">2</tspan><tspan class="cls-18" x="9.72" y="0">0</tspan><tspan class="cls-17" x="19.25" y="0">0</tspan><tspan x="28.97" y="0">1</tspan></text><polyline class="cls-11" points="1287.73 608.21 1287.73 -5.84 -13.53 -5.84 -13.53 608.21"/><text class="cls-16" transform="translate(179.19 460.04)"><tspan class="cls-17">2</tspan><tspan class="cls-18" x="9.72" y="0">0</tspan><tspan class="cls-17" x="19.25" y="0">0</tspan><tspan x="28.97" y="0">2</tspan></text><polyline class="cls-11" points="1287.73 608.21 1287.73 -5.84 -13.53 -5.84 -13.53 608.21"/><text class="cls-16" transform="translate(253.12 460.04)"><tspan class="cls-17">2</tspan><tspan class="cls-18" x="9.72" y="0">0</tspan><tspan class="cls-17" x="19.25" y="0">0</tspan><tspan x="28.97" y="0">3</tspan></text><polyline class="cls-11" points="1287.73 608.21 1287.73 -5.84 -13.53 -5.84 -13.53 608.21"/><text class="cls-16" transform="translate(327.07 460.04)"><tspan class="cls-17">2</tspan><tspan class="cls-18" x="9.72" y="0">0</tspan><tspan class="cls-17" x="19.25" y="0">0</tspan><tspan x="28.97" y="0">4</tspan></text><polyline class="cls-11" points="1287.73 608.21 1287.73 -5.84 -13.53 -5.84 -13.53 608.21"/><text class="cls-16" transform="translate(401.06 460.04)"><tspan class="cls-17">2</tspan><tspan class="cls-18" x="9.72" y="0">0</tspan><tspan class="cls-17" x="19.25" y="0">0</tspan><tspan x="28.97" y="0">5</tspan></text><polyline class="cls-11" points="1287.73 608.21 1287.73 -5.84 -13.53 -5.84 -13.53 608.21"/><text class="cls-16" transform="translate(475.01 460.04)"><tspan class="cls-17">2</tspan><tspan class="cls-18" x="9.72" y="0">0</tspan><tspan class="cls-17" x="19.25" y="0">0</tspan><tspan x="28.97" y="0">6</tspan></text><polyline class="cls-11" points="1287.73 608.21 1287.73 -5.84 -13.53 -5.84 -13.53 608.21"/><text class="cls-16" transform="translate(548.96 460.04)"><tspan class="cls-17">2</tspan><tspan class="cls-18" x="9.72" y="0">0</tspan><tspan class="cls-17" x="19.25" y="0">0</tspan><tspan x="28.97" y="0">7</tspan></text><polyline class="cls-11" points="1287.73 608.21 1287.73 -5.84 -13.53 -5.84 -13.53 608.21"/><text class="cls-16" transform="translate(622.91 460.04)"><tspan class="cls-17">2</tspan><tspan class="cls-19" x="9.72" y="0">0</tspan><tspan class="cls-20" x="19.25" y="0">0</tspan><tspan x="28.97" y="0">8</tspan></text><polyline class="cls-11" points="1287.73 608.21 1287.73 -5.84 -13.53 -5.84 -13.53 608.21"/><text class="cls-16" transform="translate(696.9 460.04)"><tspan class="cls-20">2</tspan><tspan class="cls-19" x="9.72" y="0">0</tspan><tspan class="cls-20" x="19.25" y="0">0</tspan><tspan x="28.97" y="0">9</tspan></text><polyline class="cls-11" points="1287.73 608.21 1287.73 -5.84 -13.53 -5.84 -13.53 608.21"/><text class="cls-16" transform="translate(770.85 460.04)"><tspan class="cls-20">2</tspan><tspan class="cls-19" x="9.72" y="0">0</tspan><tspan class="cls-20" x="19.25" y="0">1</tspan><tspan x="28.97" y="0">0</tspan></text><polyline class="cls-11" points="1287.73 608.21 1287.73 -5.84 -13.53 -5.84 -13.53 608.21"/><text class="cls-16" transform="translate(844.8 460.04)"><tspan class="cls-20">2</tspan><tspan class="cls-19" x="9.72" y="0">0</tspan><tspan class="cls-20" x="19.25" y="0">1</tspan><tspan x="28.97" y="0">1</tspan></text><polyline class="cls-11" points="1287.73 608.21 1287.73 -5.84 -13.53 -5.84 -13.53 608.21"/><text class="cls-16" transform="translate(918.79 460.04)"><tspan class="cls-20">2</tspan><tspan class="cls-19" x="9.72" y="0">0</tspan><tspan class="cls-20" x="19.25" y="0">1</tspan><tspan x="28.97" y="0">2</tspan></text><polyline class="cls-11" points="1287.73 608.21 1287.73 -5.84 -13.53 -5.84 -13.53 608.21"/><text class="cls-16" transform="translate(992.74 460.04)"><tspan class="cls-20">2</tspan><tspan class="cls-19" x="9.72" y="0">0</tspan><tspan class="cls-20" x="19.25" y="0">1</tspan><tspan x="28.97" y="0">3</tspan></text><polyline class="cls-11" points="1287.73 608.21 1287.73 -5.84 -13.53 -5.84 -13.53 608.21"/><text class="cls-16" transform="translate(1066.67 460.04)"><tspan class="cls-20">2</tspan><tspan class="cls-19" x="9.72" y="0">0</tspan><tspan class="cls-20" x="19.25" y="0">1</tspan><tspan x="28.97" y="0">4</tspan></text><polyline class="cls-11" points="1287.73 608.21 1287.73 -5.84 -13.53 -5.84 -13.53 608.21"/><text class="cls-16" transform="translate(1140.62 460.04)"><tspan class="cls-20">2</tspan><tspan class="cls-19" x="9.72" y="0">0</tspan><tspan class="cls-20" x="19.25" y="0">1</tspan><tspan x="28.97" y="0">5</tspan></text><polyline class="cls-11" points="1287.73 608.21 1287.73 -5.84 -13.53 -5.84 -13.53 608.21"/><text class="cls-16" transform="translate(1214.61 460.04)"><tspan class="cls-20">2</tspan><tspan class="cls-19" x="9.72" y="0">0</tspan><tspan class="cls-20" x="19.25" y="0">1</tspan><tspan x="28.97" y="0">6</tspan></text><polyline class="cls-11" points="1287.73 608.21 1287.73 -5.84 -13.53 -5.84 -13.53 608.21"/><line class="cls-4" x1="413.68" y1="545.39" x2="450.84" y2="545.39"/><text class="cls-21" transform="translate(454.86 551.12)">A<tspan class="cls-17" x="11.62" y="0">u</tspan><tspan class="cls-22" x="21.34" y="0">s</tspan><tspan x="29.94" y="0">tr</tspan><tspan class="cls-23" x="40.58" y="0">a</tspan><tspan class="cls-18" x="50.34" y="0">l</tspan><tspan class="cls-24" x="54.05" y="0">i</tspan><tspan x="57.98" y="0">a</tspan></text><polyline class="cls-11" points="1287.73 608.21 1287.73 -5.84 -13.53 -5.84 -13.53 608.21"/><line class="cls-5" x1="565.57" y1="545.39" x2="602.72" y2="545.39"/><text class="cls-25" transform="translate(606.69 551.12)">U<tspan class="cls-26" x="12.54" y="0">K</tspan></text><polyline class="cls-11" points="1287.73 608.21 1287.73 -5.84 -13.53 -5.84 -13.53 608.21"/><line class="cls-6" x1="673.79" y1="545.39" x2="710.95" y2="545.39"/><text class="cls-27" transform="translate(714.98 551.12)"><tspan class="cls-28">U</tspan><tspan x="12.54" y="0">S</tspan></text><polyline class="cls-11" points="1287.73 608.21 1287.73 -5.84 -13.53 -5.84 -13.53 608.21"/><line class="cls-7" x1="782.02" y1="545.39" x2="819.18" y2="545.39"/><text class="cls-29" transform="translate(823.24 551.12)">W<tspan class="cls-30" x="16.44" y="0">o</tspan><tspan class="cls-31" x="26.21" y="0">r</tspan><tspan class="cls-32" x="31.79" y="0">l</tspan><tspan x="35.71" y="0">d</tspan></text><polyline class="cls-11" points="1287.73 608.21 1287.73 -5.84 -13.53 -5.84 -13.53 608.21"/><g class="cls-33"><text class="cls-34" transform="translate(988.63 82.51)"><tspan class="cls-35">Au</tspan><tspan class="cls-36" x="28.5" y="0">str</tspan><tspan class="cls-37" x="54.3" y="0">a</tspan><tspan x="67.24" y="0">l</tspan><tspan class="cls-38" x="72.4" y="0">i</tspan><tspan x="77.46" y="0">a</tspan></text></g><text class="cls-34" transform="translate(977.49 110.42)">i<tspan class="cls-39" x="5.16" y="0">m</tspan><tspan class="cls-35" x="24.58" y="0">p</tspan><tspan x="37.54" y="0">le</tspan><tspan class="cls-40" x="55.61" y="0">m</tspan><tspan class="cls-41" x="75.12" y="0">en</tspan><tspan x="100.68" y="0">ts</tspan></text><polyline class="cls-11" points="1287.96 608.44 1287.96 -5.84 -13.53 -5.84 -13.53 608.44"/><text class="cls-34" transform="translate(987.71 138.28)">t<tspan class="cls-42" x="6.45" y="0">h</tspan><tspan class="cls-35" x="19.46" y="0">e</tspan><tspan class="cls-43" x="32.42" y="0"> </tspan><tspan class="cls-35" x="38.71" y="0">Kn</tspan><tspan class="cls-36" x="67.21" y="0">i</tspan><tspan class="cls-44" x="72.37" y="0">g</tspan><tspan class="cls-35" x="85.1" y="0">h</tspan><tspan class="cls-45" x="98.07" y="0">t</tspan></text><polyline class="cls-11" points="1287.96 608.44 1287.96 -5.84 -13.53 -5.84 -13.53 608.44"/><text class="cls-34" transform="translate(1000.25 166.15)">re<tspan class="cls-46" x="20.65" y="0">v</tspan><tspan x="32.08" y="0">ie</tspan><tspan class="cls-47" x="50.15" y="0">w</tspan><tspan x="66.69" y="0"> </tspan></text><polyline class="cls-11" points="1287.96 608.44 1287.96 -5.84 -13.53 -5.84 -13.53 608.44"/><text class="cls-34" transform="translate(944.51 194.02)">rec<tspan class="cls-39" x="32.26" y="0">o</tspan><tspan class="cls-48" x="45.25" y="0">mm</tspan><tspan class="cls-49" x="84.17" y="0">e</tspan><tspan class="cls-50" x="97.13" y="0">nda</tspan><tspan x="135.47" y="0">ti</tspan><tspan class="cls-50" x="147.08" y="0">o</tspan><tspan class="cls-49" x="159.86" y="0">n</tspan><tspan x="172.82" y="0">s</tspan></text><polyline class="cls-11" points="1287.96 608.44 1287.96 -5.84 -13.53 -5.84 -13.53 608.44"/><text class="cls-34" transform="translate(640.1 61.14)"><tspan class="cls-51">T</tspan><tspan x="14.37" y="0">i</tspan><tspan class="cls-44" x="19.53" y="0">g</tspan><tspan class="cls-49" x="32.26" y="0">h</tspan><tspan class="cls-45" x="45.22" y="0">t</tspan><tspan class="cls-52" x="51.68" y="0">e</tspan><tspan class="cls-45" x="64.69" y="0">r</tspan><tspan class="cls-53" x="72.42" y="0"> </tspan><tspan x="78.64" y="0">st</tspan><tspan class="cls-42" x="96.71" y="0">u</tspan><tspan class="cls-49" x="109.71" y="0">de</tspan><tspan class="cls-50" x="135.64" y="0">n</tspan><tspan x="148.42" y="0">t </tspan></text><polyline class="cls-11" points="1287.96 608.44 1287.96 -5.84 -13.53 -5.84 -13.53 608.44"/><text class="cls-34" transform="translate(628.02 89.01)"><tspan class="cls-54">v</tspan><tspan class="cls-36" x="11.4" y="0">isas</tspan><tspan class="cls-55" x="52.7" y="0"> </tspan><tspan class="cls-35" x="59.23" y="0">and</tspan><tspan class="cls-56" x="98.11" y="0"> </tspan><tspan x="104.17" y="0">clos</tspan><tspan class="cls-52" x="145.47" y="0">u</tspan><tspan class="cls-45" x="158.48" y="0">re </tspan></text><polyline class="cls-11" points="1287.96 608.44 1287.96 -5.84 -13.53 -5.84 -13.53 608.44"/><text class="cls-34" transform="translate(654.26 116.88)"><tspan class="cls-35">o</tspan><tspan class="cls-57" x="12.96" y="0">f</tspan><tspan class="cls-56" x="19.67" y="0"> </tspan><tspan class="cls-35" x="25.73" y="0">edu</tspan><tspan x="64.62" y="0">c</tspan><tspan class="cls-35" x="76.23" y="0">a</tspan><tspan x="89.19" y="0">ti</tspan><tspan class="cls-41" x="100.8" y="0">o</tspan><tspan class="cls-35" x="113.58" y="0">n</tspan><tspan x="126.54" y="0"> </tspan></text><polyline class="cls-11" points="1287.96 608.44 1287.96 -5.84 -13.53 -5.84 -13.53 608.44"/><text class="cls-34" transform="translate(669.82 144.75)"><tspan class="cls-35">p</tspan><tspan x="12.96" y="0">ro</tspan><tspan class="cls-58" x="33.61" y="0">v</tspan><tspan x="45.02" y="0">id</tspan><tspan class="cls-42" x="63.09" y="0">e</tspan><tspan x="76.1" y="0">rs </tspan></text><polyline class="cls-11" points="1287.96 608.44 1287.96 -5.84 -13.53 -5.84 -13.53 608.44"/><text class="cls-34" transform="translate(660.07 172.62)">in<tspan class="cls-59" x="18.08" y="0"> </tspan><tspan class="cls-35" x="24.41" y="0">Au</tspan><tspan x="52.91" y="0">str</tspan><tspan class="cls-37" x="78.71" y="0">a</tspan><tspan x="91.65" y="0">l</tspan><tspan class="cls-38" x="96.81" y="0">i</tspan><tspan class="cls-45" x="101.88" y="0">a</tspan></text><polyline class="cls-11" points="1287.96 608.44 1287.96 -5.84 -13.53 -5.84 -13.53 608.44"/><text class="cls-34" transform="translate(161.31 158.22)"><tspan class="cls-60">T</tspan><tspan x="13.49" y="0">i</tspan><tspan class="cls-44" x="18.65" y="0">g</tspan><tspan class="cls-61" x="31.38" y="0">h</tspan><tspan x="44.34" y="0">t</tspan><tspan class="cls-52" x="50.79" y="0">e</tspan><tspan x="63.8" y="0">r </tspan></text><text class="cls-34" transform="translate(148.07 186.09)"><tspan class="cls-53">v</tspan><tspan x="11.38" y="0">isa</tspan><tspan class="cls-62" x="41.07" y="0"> </tspan><tspan x="47.59" y="0">rul</tspan><tspan class="cls-63" x="73.4" y="0">e</tspan><tspan x="86.34" y="0">s </tspan></text><text class="cls-34" transform="translate(149.46 213.96)">in<tspan class="cls-64" x="18.08" y="0"> </tspan><tspan x="24.41" y="0">t</tspan><tspan class="cls-65" x="30.86" y="0">h</tspan><tspan class="cls-61" x="43.87" y="0">e</tspan><tspan class="cls-66" x="56.84" y="0"> </tspan><tspan x="63.13" y="0">US </tspan></text><text class="cls-34" transform="translate(152.02 241.83)"><tspan class="cls-67">f</tspan><tspan class="cls-61" x="6.71" y="0">o</tspan><tspan class="cls-68" x="19.67" y="0">l</tspan><tspan class="cls-69" x="24.83" y="0">l</tspan><tspan class="cls-35" x="29.9" y="0">o</tspan><tspan class="cls-70" x="42.86" y="0">w</tspan><tspan x="59.35" y="0">in</tspan><tspan class="cls-71" x="77.43" y="0">g</tspan><tspan class="cls-72" x="90.25" y="0"> </tspan></text><text class="cls-34" transform="translate(138.08 269.7)"><tspan class="cls-35">9</tspan><tspan class="cls-72" x="12.96" y="0">/</tspan><tspan class="cls-73" x="19.42" y="0">1</tspan><tspan class="cls-61" x="30.85" y="0">1</tspan><tspan class="cls-74" x="43.81" y="0"> </tspan><tspan class="cls-49" x="49.63" y="0">e</tspan><tspan class="cls-54" x="62.6" y="0">v</tspan><tspan class="cls-35" x="74" y="0">en</tspan><tspan x="99.92" y="0">ts</tspan></text><text class="cls-34" transform="translate(311.05 157.23)"><tspan class="cls-35">Edu</tspan><tspan class="cls-72" x="41.46" y="0">c</tspan><tspan class="cls-35" x="53.07" y="0">a</tspan><tspan x="66.04" y="0">ti</tspan><tspan class="cls-75" x="77.65" y="0">o</tspan><tspan class="cls-35" x="90.43" y="0">n</tspan><tspan class="cls-72" x="103.39" y="0"> </tspan></text><text class="cls-34" transform="translate(311.05 185.1)">c<tspan class="cls-49" x="11.61" y="0">a</tspan><tspan class="cls-48" x="24.57" y="0">m</tspan><tspan class="cls-49" x="44.04" y="0">pa</tspan><tspan x="69.96" y="0">i</tspan><tspan class="cls-76" x="75.12" y="0">g</tspan><tspan class="cls-75" x="87.85" y="0">n</tspan><tspan x="100.63" y="0">s</tspan><tspan class="cls-77" x="112.24" y="0"> </tspan><tspan x="118.07" y="0">in</tspan><tspan class="cls-39" x="136.14" y="0"> </tspan><tspan x="142.67" y="0">t</tspan><tspan class="cls-65" x="149.12" y="0">h</tspan><tspan class="cls-61" x="162.13" y="0">e</tspan><tspan x="175.09" y="0"> </tspan></text><text class="cls-34" transform="translate(311.05 212.97)">UK<tspan class="cls-61" x="32.26" y="0" xml:space="preserve"> and</tspan><tspan class="cls-78" x="77.65" y="0"> </tspan><tspan class="cls-35" x="82.31" y="0">Au</tspan><tspan x="110.81" y="0">str</tspan><tspan class="cls-79" x="136.61" y="0">a</tspan><tspan x="149.55" y="0">l</tspan><tspan class="cls-69" x="154.71" y="0">i</tspan><tspan class="cls-35" x="159.78" y="0">a</tspan><tspan x="172.74" y="0"> </tspan></text><text class="cls-34" transform="translate(311.05 240.84)"><tspan class="cls-61">and</tspan><tspan class="cls-80" x="38.89" y="0"> </tspan><tspan x="44.95" y="0">str</tspan><tspan class="cls-63" x="70.74" y="0">e</tspan><tspan class="cls-35" x="83.68" y="0">a</tspan><tspan class="cls-81" x="96.65" y="0">m</tspan><tspan x="116.11" y="0">l</tspan><tspan class="cls-71" x="121.27" y="0">i</tspan><tspan class="cls-61" x="126.33" y="0">n</tspan><tspan class="cls-75" x="139.3" y="0">ed</tspan><tspan x="164.85" y="0"> </tspan></text><text class="cls-34" transform="translate(311.05 268.71)">st<tspan class="cls-65" x="18.06" y="0">u</tspan><tspan class="cls-35" x="31.07" y="0">den</tspan><tspan x="69.96" y="0">t</tspan><tspan class="cls-82" x="76.41" y="0"> </tspan><tspan class="cls-53" x="82.29" y="0">v</tspan><tspan x="93.67" y="0">isas</tspan></text><text class="cls-34" transform="translate(790.92 230.85)"><tspan class="cls-35">S</tspan><tspan x="15.54" y="0">t</tspan><tspan class="cls-52" x="21.99" y="0">a</tspan><tspan class="cls-45" x="35" y="0">rt </tspan><tspan class="cls-39" x="55.64" y="0">o</tspan><tspan class="cls-57" x="68.62" y="0">f</tspan><tspan class="cls-56" x="75.33" y="0"> </tspan><tspan x="81.39" y="0">clos</tspan><tspan class="cls-52" x="122.69" y="0">u</tspan><tspan x="135.7" y="0">res</tspan><tspan class="cls-83" x="167.96" y="0"> </tspan><tspan class="cls-35" x="174.04" y="0">o</tspan><tspan class="cls-57" x="187" y="0">f</tspan><tspan x="193.71" y="0"> </tspan></text><text class="cls-34" transform="translate(774.66 258.72)"><tspan class="cls-35">edu</tspan><tspan x="38.89" y="0">c</tspan><tspan class="cls-35" x="50.5" y="0">a</tspan><tspan x="63.46" y="0">ti</tspan><tspan class="cls-41" x="75.08" y="0">on</tspan><tspan class="cls-74" x="100.63" y="0"> </tspan><tspan class="cls-35" x="106.45" y="0">p</tspan><tspan class="cls-45" x="119.42" y="0">ro</tspan><tspan class="cls-54" x="140.07" y="0">v</tspan><tspan class="cls-36" x="151.47" y="0">id</tspan><tspan class="cls-42" x="169.55" y="0">e</tspan><tspan x="182.56" y="0">rs</tspan><tspan class="cls-47" x="201.9" y="0"> </tspan><tspan class="cls-36" x="208.12" y="0">in </tspan></text><text class="cls-34" transform="translate(801.18 286.59)"><tspan class="cls-35">2010</tspan><tspan class="cls-74" x="51.85" y="0"> </tspan><tspan class="cls-57" x="57.68" y="0">f</tspan><tspan class="cls-35" x="64.38" y="0">o</tspan><tspan x="77.35" y="0">l</tspan><tspan class="cls-38" x="82.51" y="0">l</tspan><tspan class="cls-35" x="87.57" y="0">o</tspan><tspan class="cls-84" x="100.54" y="0">w</tspan><tspan class="cls-35" x="117.03" y="0">ed</tspan><tspan class="cls-74" x="142.96" y="0"> </tspan><tspan class="cls-35" x="148.78" y="0">b</tspan><tspan class="cls-58" x="161.74" y="0">y</tspan><tspan class="cls-45" x="173.15" y="0"> </tspan></text><text class="cls-34" transform="translate(772.34 314.46)">ti<tspan class="cls-41" x="11.61" y="0">g</tspan><tspan class="cls-35" x="24.39" y="0">h</tspan><tspan class="cls-45" x="37.35" y="0">t</tspan><tspan class="cls-52" x="43.8" y="0">e</tspan><tspan x="56.81" y="0">r</tspan><tspan class="cls-47" x="64.55" y="0"> </tspan><tspan x="70.77" y="0">st</tspan><tspan class="cls-52" x="88.83" y="0">u</tspan><tspan class="cls-35" x="101.84" y="0">den</tspan><tspan x="140.73" y="0">t</tspan><tspan class="cls-85" x="147.18" y="0"> </tspan><tspan class="cls-54" x="153.05" y="0">v</tspan><tspan class="cls-36" x="164.46" y="0">isas</tspan><tspan class="cls-86" x="205.76" y="0"> </tspan><tspan class="cls-36" x="212.51" y="0">in </tspan></text><text class="cls-34" transform="translate(807.91 342.33)"><tspan class="cls-35">2012</tspan><tspan class="cls-74" x="51.85" y="0"> </tspan><tspan x="57.68" y="0">in</tspan><tspan class="cls-87" x="75.75" y="0"> </tspan><tspan x="82.09" y="0">t</tspan><tspan class="cls-52" x="88.54" y="0">h</tspan><tspan class="cls-35" x="101.55" y="0">e</tspan><tspan class="cls-88" x="114.51" y="0"> </tspan><tspan x="120.8" y="0">UK.</tspan></text></svg>