<?xml version="1.0" standalone="no"?>
<!DOCTYPE svg PUBLIC "-//W3C//DTD SVG 1.1//EN" "http://www.w3.org/Graphics/SVG/1.1/DTD/svg11.dtd" >
<svg xmlns="http://www.w3.org/2000/svg">
<metadata>
Created by Font 20130207 at Thu May  9 20:33:34 2013
 By Yann Gouffon
Copyright (c) 2008 by Jos Buivenga. All rights reserved.
</metadata>
<defs>
<font id="ljibhodscc" >
  <font-face 
    font-family="MuseoSans-900"
    font-weight="700"
    font-stretch="normal"
    units-per-em="1000"
    panose-1="2 0 8 3 0 0 0 0 0 0"
    ascent="750"
    descent="-250"
    x-height="515"
    cap-height="715"
    bbox="-51 -210 982 918"
    underline-thickness="50"
    underline-position="-50"
    unicode-range="U+0020-02DD"
  />
    <missing-glyph />
    <glyph glyph-name="space" unicode=" " horiz-adv-x="229" 
 />
    <glyph glyph-name="exclam" unicode="!" horiz-adv-x="366" 
d="M104 0v150h158v-150h-158zM109 221l-16 494h180l-16 -494h-148z" />
    <glyph glyph-name="quotedbl" unicode="&#x22;" horiz-adv-x="413" 
d="M50 490v240h122v-240h-122zM241 490v240h122v-240h-122z" />
    <glyph glyph-name="numbersign" unicode="#" horiz-adv-x="699" 
d="M286 300h108l17 95h-108zM101 0l31 180h-101l20 120h101l17 95h-99l20 120h99l35 200h134l-35 -200h108l35 200h134l-35 -200h105l-20 -120h-105l-17 -95h103l-20 -120h-103l-31 -180h-134l31 180h-108l-31 -180h-134z" />
    <glyph glyph-name="dollar" unicode="$" horiz-adv-x="592" 
d="M302 149c50 0 75 19 75 57c-1 21 -39 48 -115 80c-32 13 -64 28 -95 45s-58 40 -81 71s-34 70 -34 117s18 90 53 129s81 63 138 73v94h109v-91c36 -4 69 -13 100 -26s52 -25 64 -36l19 -16l-74 -143c-18 16 -43 30 -74 43s-58 20 -81 20c-53 0 -80 -19 -79 -56
c-1 -15 10 -29 33 -42s50 -26 82 -38s64 -26 95 -42s58 -40 81 -71c23 -30 34 -69 34 -117s-18 -92 -54 -132s-85 -65 -146 -76v-91h-109v91c-49 7 -92 20 -127 41c-36 21 -59 37 -69 49l-8 8l92 133c22 -19 49 -37 82 -52s62 -22 89 -22z" />
    <glyph glyph-name="percent" unicode="%" horiz-adv-x="852" 
d="M582 160c0 -15 5 -27 16 -36c11 -11 24 -16 39 -16s28 5 39 16s16 23 16 36c0 15 -5 27 -16 38s-24 16 -39 15c-15 1 -28 -4 -39 -15s-16 -23 -16 -38zM456 160c0 48 18 89 53 122c35 34 78 51 128 51s93 -17 128 -51c35 -33 53 -74 53 -122s-18 -89 -53 -122
s-78 -50 -129 -50s-93 17 -128 50s-52 74 -52 122zM210 502c15 0 28 5 39 16s16 23 16 36c-1 15 -6 27 -17 38s-23 16 -38 15c-15 1 -27 -4 -38 -15s-16 -23 -17 -38c0 -15 5 -27 16 -36c11 -11 24 -16 39 -16zM69 0l552 715h152l-552 -715h-152zM210 382
c-51 0 -93 17 -128 50s-52 74 -53 122c0 48 18 89 53 122c35 34 78 51 128 51s93 -17 128 -51c35 -33 53 -74 53 -122s-18 -89 -53 -122s-77 -50 -128 -50z" />
    <glyph glyph-name="ampersand" unicode="&#x26;" horiz-adv-x="704" 
d="M218 218c0 -19 8 -36 25 -50s39 -21 67 -21s51 8 70 23c17 15 26 35 26 60v59h-98c-60 0 -90 -24 -90 -71zM39 207c-1 37 10 71 31 103s49 55 83 68v2c-2 1 -5 3 -9 5c-15 7 -32 24 -49 49s-26 59 -26 100c1 65 24 113 69 145s101 48 167 48c31 0 61 -3 89 -9l14 -3
l-40 -137c-12 3 -27 4 -46 4s-36 -6 -52 -19s-24 -30 -24 -51s7 -39 20 -53c13 -13 31 -20 53 -20h87v88h172v-88h89v-150h-89v-69c0 -67 -24 -122 -73 -166s-114 -66 -197 -66s-148 21 -196 62c-49 41 -73 94 -73 157z" />
    <glyph glyph-name="quotesingle" unicode="'" horiz-adv-x="225" 
d="M50 490v240h125v-240h-125z" />
    <glyph glyph-name="parenleft" unicode="(" horiz-adv-x="336" 
d="M58 330c0 153 41 293 124 420h142c-75 -127 -113 -263 -113 -410s38 -292 113 -435h-142c-83 131 -124 272 -124 425z" />
    <glyph glyph-name="parenright" unicode=")" horiz-adv-x="336" 
d="M125 340c0 147 -38 283 -113 410h142c83 -127 124 -267 124 -420s-41 -294 -124 -425h-142c75 143 113 288 113 435z" />
    <glyph glyph-name="asterisk" unicode="*" horiz-adv-x="462" 
d="M175 309l-122 88l75 83v2l-110 23l46 143l102 -45l-11 112h152l-12 -112l103 46l47 -143l-111 -23v-2l76 -83l-122 -89l-56 97h-2z" />
    <glyph glyph-name="plus" unicode="+" horiz-adv-x="628" 
d="M41 222v130h205v223h136v-223h205v-130h-205v-222h-136v222h-205z" />
    <glyph glyph-name="comma" unicode="," horiz-adv-x="288" 
d="M6 -111l75 277h165l-113 -277h-127z" />
    <glyph glyph-name="hyphen" unicode="-" horiz-adv-x="448" 
d="M67 212v150h314v-150h-314z" />
    <glyph glyph-name="period" unicode="." horiz-adv-x="280" 
d="M58 0v164h164v-164h-164z" />
    <glyph glyph-name="slash" unicode="/" horiz-adv-x="434" 
d="M21 -42l256 792h144l-256 -792h-144z" />
    <glyph glyph-name="zero" unicode="0" horiz-adv-x="640" 
d="M320 148c59 0 89 70 89 210s-30 210 -89 209c-59 1 -89 -69 -89 -209s30 -210 89 -210zM320 727c179 1 269 -122 269 -369s-90 -370 -269 -370s-269 123 -269 370s90 370 269 369z" />
    <glyph glyph-name="one" unicode="1" horiz-adv-x="555" 
d="M56 0v150h152v298l1 55h-2c-6 -13 -15 -26 -28 -38l-43 -39l-101 108l193 181h151v-565h153v-150h-476z" />
    <glyph glyph-name="two" unicode="2" horiz-adv-x="601" 
d="M48 92c0 31 8 65 23 100s34 64 57 87c42 42 91 81 146 116s83 65 83 92c0 26 -8 45 -23 57c-16 12 -34 18 -54 18s-39 -6 -56 -19s-30 -25 -38 -38l-12 -19l-130 87c33 66 85 112 154 137c31 11 63 16 98 17c65 -1 122 -20 171 -57s73 -94 73 -169s-34 -138 -102 -189
c-29 -21 -58 -41 -86 -60c-28 -17 -52 -35 -73 -52s-31 -34 -32 -50h304v-150h-495c-5 30 -8 61 -8 92z" />
    <glyph glyph-name="three" unicode="3" horiz-adv-x="587" 
d="M266 153c28 1 51 8 70 21s28 30 27 50c0 53 -44 79 -133 79h-50l-37 85l94 113c24 29 42 48 54 59l8 8v2c-15 -3 -38 -5 -68 -5h-171v150h451v-109l-145 -167c53 -11 95 -36 126 -74s47 -86 47 -145c1 -59 -22 -112 -69 -160s-106 -72 -178 -72s-128 10 -169 31
c-40 21 -68 38 -83 53l-10 10l84 135c16 -16 38 -31 67 -44s57 -20 85 -20z" />
    <glyph glyph-name="four" unicode="4" horiz-adv-x="644" 
d="M204 318h139v160l6 80h-2c-10 -29 -22 -54 -35 -74l-108 -164v-2zM26 173v106l276 436h214v-397h85v-145h-85v-173h-173v173h-317z" />
    <glyph glyph-name="five" unicode="5" horiz-adv-x="584" 
d="M268 153c25 -1 48 7 68 23s30 38 31 65c0 27 -11 49 -32 65s-48 24 -81 24s-61 -6 -85 -18l-12 -6l-93 35l29 374h400v-150h-248l-4 -66l-4 -28h2c17 5 34 7 52 7c81 0 144 -22 189 -66s67 -102 67 -174c0 -71 -25 -130 -74 -178s-108 -72 -177 -72
c-103 0 -185 28 -248 84l-10 10l84 135c15 -15 37 -30 66 -44c28 -13 55 -20 80 -20z" />
    <glyph glyph-name="six" unicode="6" horiz-adv-x="619" 
d="M332 148c24 0 43 8 56 24s20 36 20 61s-9 48 -27 69s-48 31 -91 31s-64 -14 -64 -43c0 -40 12 -74 35 -101s47 -41 71 -41zM346 474c71 0 127 -25 170 -74s64 -106 64 -170c0 -65 -22 -122 -66 -170s-105 -72 -182 -72c-76 0 -143 30 -200 89s-86 142 -86 247
s29 198 86 277c28 38 64 68 108 91s95 34 152 35c57 0 102 -8 136 -23l17 -8l-47 -150c-31 14 -64 21 -98 21c-77 0 -128 -39 -154 -118h2c24 17 57 25 98 25z" />
    <glyph glyph-name="seven" unicode="7" horiz-adv-x="567" 
d="M316 565h-282v150h513v-122l-300 -593h-182l251 501c13 25 28 47 46 65v2c-7 -2 -22 -3 -46 -3z" />
    <glyph glyph-name="eight" unicode="8" horiz-adv-x="623" 
d="M314 573c-43 1 -65 -19 -65 -59c0 -19 9 -35 28 -50c19 -13 48 -28 87 -45c17 31 25 58 25 82c0 48 -25 72 -75 72zM395 201c0 14 -1 23 -2 27s-4 8 -7 12s-7 8 -10 11s-7 7 -14 11s-12 7 -16 10s-10 6 -19 10s-19 9 -30 14s-23 11 -36 16c-25 -27 -38 -54 -38 -81
s8 -49 25 -65s38 -24 63 -24s46 6 61 19s23 26 23 40zM44 210c0 28 9 58 27 91s42 60 72 83c-43 37 -65 84 -65 140s20 104 61 143c41 40 98 60 172 60c74 1 134 -18 180 -55s69 -84 69 -140s-23 -114 -70 -175c56 -39 84 -88 84 -149s-23 -113 -70 -156s-111 -64 -194 -64
s-148 22 -196 66c-47 44 -70 96 -70 156z" />
    <glyph glyph-name="nine" unicode="9" horiz-adv-x="619" 
d="M329 382c43 0 64 14 64 43c0 40 -12 74 -35 101s-47 41 -71 41c-24 1 -43 -7 -56 -23s-20 -37 -20 -62s9 -48 27 -69s48 -31 91 -31zM273 241c-71 -1 -127 24 -170 73s-64 107 -64 172c1 65 23 122 67 169c44 48 104 72 180 72s143 -30 201 -89c57 -59 86 -142 86 -247
c-1 -105 -30 -198 -87 -277c-28 -39 -64 -69 -108 -92s-94 -34 -150 -34s-101 8 -136 24l-18 7l47 150c31 -14 64 -21 98 -21c77 0 128 39 154 118h-2c-20 -17 -53 -25 -98 -25z" />
    <glyph glyph-name="colon" unicode=":" horiz-adv-x="300" 
d="M68 0v164h164v-164h-164zM68 351v164h164v-164h-164z" />
    <glyph glyph-name="semicolon" unicode=";" horiz-adv-x="302" 
d="M13 -111l65 277h166l-103 -277h-128zM83 351v164h158v-164h-158z" />
    <glyph glyph-name="less" unicode="&#x3c;" horiz-adv-x="631" 
d="M60 234v107l504 223v-145l-330 -131v-2l330 -130v-145z" />
    <glyph glyph-name="equal" unicode="=" horiz-adv-x="646" 
d="M70 107v130h506v-130h-506zM70 337v130h506v-130h-506z" />
    <glyph glyph-name="greater" unicode="&#x3e;" horiz-adv-x="631" 
d="M67 11v145l330 130v2l-330 131v145l504 -223v-107z" />
    <glyph glyph-name="question" unicode="?" horiz-adv-x="501" 
d="M127 0v150h158v-150h-158zM123 221v50c0 47 18 88 55 121c15 13 30 26 46 38c37 29 56 55 56 77c0 21 -7 38 -21 49s-33 17 -58 17s-49 -11 -74 -32l-13 -11l-96 117l9 9c29 29 64 49 103 59s72 15 97 15c62 0 116 -17 163 -52s70 -82 70 -142s-20 -109 -60 -146
c-17 -16 -34 -31 -51 -44c-40 -33 -60 -62 -60 -89v-36h-166z" />
    <glyph glyph-name="at" unicode="@" horiz-adv-x="865" 
d="M470 244c0 -19 6 -35 17 -48s28 -19 49 -19h39v134h-37c-21 0 -38 -6 -50 -19s-18 -29 -18 -48zM44 239c0 106 37 195 112 267s166 108 275 109c108 -1 186 -23 233 -67s71 -102 71 -173v-198h74v-119h-283c-71 0 -126 18 -166 54s-60 78 -61 127s19 90 59 125
s96 52 168 52h49c1 20 -13 36 -41 47s-59 17 -94 17c-63 0 -117 -25 -161 -74s-66 -106 -66 -170c0 -65 22 -121 67 -167s106 -69 185 -69v-130c-129 0 -231 35 -307 105s-114 158 -114 264z" />
    <glyph glyph-name="A" unicode="A" horiz-adv-x="662" 
d="M332 552h-2c-11 -52 -20 -93 -29 -123l-41 -139h141l-40 139zM486 0l-44 150h-223l-43 -150h-180l243 715h184l243 -715h-180z" />
    <glyph glyph-name="B" unicode="B" horiz-adv-x="659" 
d="M259 150h105c24 0 43 7 56 22s20 32 20 53c0 22 -6 40 -19 53s-31 20 -56 20h-106v-148zM259 438h90c21 0 36 6 47 19s16 28 16 47s-5 33 -16 44s-27 17 -50 17h-87v-127zM84 0v715h263c74 -1 133 -17 177 -49s66 -78 66 -138c0 -31 -7 -60 -22 -88s-35 -49 -61 -64v-2
c38 -11 66 -31 85 -62s28 -64 27 -99c0 -73 -26 -126 -77 -161s-116 -52 -195 -52h-263z" />
    <glyph glyph-name="C" unicode="C" horiz-adv-x="720" 
d="M35 357c0 106 36 194 107 265s161 106 268 105c80 1 155 -21 224 -65c15 -9 27 -18 34 -26l10 -10l-81 -132c-21 19 -48 35 -83 50s-67 23 -96 23c-65 0 -115 -20 -150 -60s-52 -88 -52 -145s18 -107 54 -150s85 -64 148 -64c32 0 64 7 96 22s55 29 70 44l24 22l90 -128
c-39 -49 -101 -84 -186 -107c-33 -9 -67 -13 -102 -13c-111 0 -201 35 -270 105s-104 158 -105 264z" />
    <glyph glyph-name="D" unicode="D" horiz-adv-x="746" 
d="M259 150h72c61 0 108 18 143 54s52 87 52 154s-17 118 -52 154c-35 35 -82 53 -143 53h-72v-415zM84 0v715h254c113 -1 203 -32 270 -95s100 -150 99 -262c1 -112 -32 -199 -99 -262c-67 -64 -157 -96 -270 -96h-254z" />
    <glyph glyph-name="E" unicode="E" horiz-adv-x="588" 
d="M84 0v715h448v-150h-273v-130h218v-150h-218v-135h287v-150h-462z" />
    <glyph glyph-name="F" unicode="F" horiz-adv-x="549" 
d="M84 0v715h438v-150h-263v-150h218v-150h-218v-265h-175z" />
    <glyph glyph-name="G" unicode="G" horiz-adv-x="770" 
d="M36 353c0 109 35 198 106 269s160 106 269 105c67 0 124 -10 170 -30s78 -38 95 -55l10 -10l-84 -131c-19 17 -46 32 -79 46c-33 13 -65 20 -95 20c-71 1 -123 -18 -158 -57s-52 -89 -53 -151s19 -113 59 -152s87 -59 140 -59s98 13 134 39l17 13v55h-101v149h256v-404
h-146v20l1 30h-2c-19 -17 -47 -31 -82 -44c-35 -12 -71 -18 -106 -18c-95 0 -178 34 -247 101s-104 155 -104 264z" />
    <glyph glyph-name="H" unicode="H" horiz-adv-x="778" 
d="M84 0v715h175v-286h260v286h175v-715h-175v280h-260v-280h-175z" />
    <glyph glyph-name="I" unicode="I" horiz-adv-x="343" 
d="M84 0v715h175v-715h-175z" />
    <glyph glyph-name="J" unicode="J" horiz-adv-x="575" 
d="M196 234c0 -57 21 -86 64 -86s64 25 65 76v341h-192v150h367v-495c0 -75 -24 -132 -71 -172s-104 -60 -169 -60s-121 20 -168 61s-71 98 -71 171v52h175v-38z" />
    <glyph glyph-name="K" unicode="K" horiz-adv-x="692" 
d="M84 0v715h175v-276h72l148 276h188l-193 -342v-2l204 -371h-196l-151 290h-72v-290h-175z" />
    <glyph glyph-name="L" unicode="L" horiz-adv-x="563" 
d="M84 0v715h175v-565h292v-150h-467z" />
    <glyph glyph-name="M" unicode="M" horiz-adv-x="903" 
d="M642 376c0 20 0 36 1 48l1 18h-2c-16 -50 -29 -90 -40 -120l-75 -207h-150l-75 207l-40 120h-2c3 -44 3 -84 0 -120l-22 -322h-176l59 715h190l104 -302l36 -118h2c13 48 25 87 36 118l104 302h190l58 -715h-175l-22 322c-1 16 -2 34 -2 54z" />
    <glyph glyph-name="N" unicode="N" horiz-adv-x="772" 
d="M84 0v715h177l198 -334c16 -28 33 -62 51 -102l9 -20h2c-5 51 -8 92 -8 122v334h175v-715h-176l-199 333c-16 28 -33 62 -51 102l-9 20h-2c5 -51 8 -92 8 -122v-333h-175z" />
    <glyph glyph-name="O" unicode="O" horiz-adv-x="818" 
d="M216 360c0 -59 19 -109 56 -150s83 -62 137 -62s100 21 137 62s56 91 56 150s-19 109 -56 148s-83 59 -137 59s-100 -20 -137 -59s-56 -89 -56 -148zM35 360c1 105 36 192 107 262s160 105 267 105s196 -35 267 -105s106 -157 107 -262c-1 -104 -36 -192 -107 -264
s-160 -108 -267 -108s-196 36 -267 108s-106 160 -107 264z" />
    <glyph glyph-name="P" unicode="P" horiz-adv-x="634" 
d="M259 371h86c29 0 51 9 67 27s24 42 24 71s-8 53 -23 70s-37 26 -65 26h-89v-194zM84 0v715h297c70 0 126 -23 169 -69c43 -47 64 -106 64 -178s-21 -131 -64 -178s-99 -70 -169 -69h-122v-221h-175z" />
    <glyph glyph-name="Q" unicode="Q" horiz-adv-x="828" 
d="M216 360c0 -59 19 -109 56 -150s83 -62 137 -62c31 0 57 5 78 16l-73 64l98 111l71 -69c13 29 19 60 19 92c0 58 -19 107 -56 146s-83 59 -137 59s-100 -20 -137 -59s-56 -89 -56 -148zM35 360c1 105 36 192 107 262s160 105 267 105s196 -35 267 -105s106 -157 107 -260
c0 -74 -24 -145 -71 -212l75 -61l-99 -111l-73 69c-60 -39 -129 -59 -206 -59c-107 0 -196 36 -267 108s-106 160 -107 264z" />
    <glyph glyph-name="R" unicode="R" horiz-adv-x="685" 
d="M259 391h76c29 0 51 8 67 23s24 37 24 66s-8 50 -23 64s-44 21 -85 21h-59v-174zM84 0v715h249c63 -1 113 -8 148 -21s65 -38 88 -74s35 -77 35 -122s-9 -86 -28 -122s-45 -63 -79 -81v-2c7 -9 16 -23 27 -43l139 -250h-195l-127 241h-82v-241h-175z" />
    <glyph glyph-name="S" unicode="S" horiz-adv-x="580" 
d="M294 149c50 0 75 19 75 57c1 24 -27 46 -83 67c-111 41 -183 88 -215 142c-16 27 -24 58 -24 93c1 65 25 117 73 158s101 61 160 61c59 -1 107 -8 146 -21s65 -27 80 -40l24 -20l-74 -143c-18 16 -43 30 -74 43s-57 20 -80 20c-53 0 -80 -19 -80 -56c0 -16 11 -30 33 -43
s49 -25 81 -37s63 -26 94 -42c32 -16 59 -39 81 -70s33 -72 33 -123c0 -53 -23 -100 -68 -143s-103 -64 -173 -64s-127 11 -172 34s-75 42 -89 58l-11 10l92 133c22 -19 49 -37 82 -52s62 -22 89 -22z" />
    <glyph glyph-name="T" unicode="T" horiz-adv-x="617" 
d="M221 0v565h-217v150h609v-150h-217v-565h-175z" />
    <glyph glyph-name="U" unicode="U" horiz-adv-x="746" 
d="M74 263v452h175v-452c-1 -37 10 -65 33 -85s53 -30 91 -30s68 10 91 30s34 48 33 85v452h175v-452c0 -82 -27 -148 -82 -199s-127 -76 -216 -76s-162 25 -218 76c-55 51 -82 117 -82 199z" />
    <glyph glyph-name="V" unicode="V" horiz-adv-x="675" 
d="M247 0l-253 715h190l126 -407c9 -28 17 -60 24 -96l3 -19h2c9 47 18 85 27 115l128 407h187l-252 -715h-182z" />
    <glyph glyph-name="W" unicode="W" horiz-adv-x="998" 
d="M304 202v-9h2c1 21 5 46 12 75l110 447h141l107 -447c5 -23 9 -45 12 -66v-9h2c0 21 3 46 9 75l98 447h181l-181 -715h-195l-90 361l-14 84h-2c-2 -25 -7 -53 -14 -84l-90 -361h-197l-174 715h184l90 -447c6 -30 9 -52 9 -66z" />
    <glyph glyph-name="X" unicode="X" horiz-adv-x="675" 
d="M16 0l217 355l-218 360h199l78 -147l44 -92h2c13 31 27 61 44 92l79 147h199l-219 -360l218 -355h-195l-82 150l-44 89h-2c-13 -29 -27 -59 -44 -89l-82 -150h-194z" />
    <glyph glyph-name="Y" unicode="Y" horiz-adv-x="639" 
d="M232 0v293l-236 422h199l81 -172l43 -103h2c13 36 28 70 43 103l80 172h199l-236 -422v-293h-175z" />
    <glyph glyph-name="Z" unicode="Z" horiz-adv-x="638" 
d="M38 0v110l276 391c21 30 39 52 55 65v2c-15 -2 -34 -3 -55 -3h-263v150h540v-108l-277 -393c-15 -22 -34 -44 -55 -65v-2c15 2 34 3 55 3h282v-150h-558z" />
    <glyph glyph-name="bracketleft" unicode="[" horiz-adv-x="370" 
d="M85 -95v845h246v-120h-102v-605h102v-120h-246z" />
    <glyph glyph-name="backslash" unicode="\" horiz-adv-x="434" 
d="M269 -42l-256 792h144l256 -792h-144z" />
    <glyph glyph-name="bracketright" unicode="]" horiz-adv-x="370" 
d="M39 25h102v605h-102v120h246v-845h-246v120z" />
    <glyph glyph-name="asciicircum" unicode="^" horiz-adv-x="630" 
d="M58 241l203 474h107l203 -474h-145l-112 300l-111 -300h-145z" />
    <glyph glyph-name="underscore" unicode="_" horiz-adv-x="622" 
d="M13 0h596v-130h-596v130z" />
    <glyph glyph-name="grave" unicode="`" horiz-adv-x="484" 
d="M234 761l-118 150h171l81 -150h-134z" />
    <glyph glyph-name="a" unicode="a" horiz-adv-x="560" 
d="M199 163c0 -29 16 -43 49 -43c22 0 42 10 59 29s26 40 26 62v11h-16c-31 0 -59 -5 -83 -14s-36 -24 -35 -45zM211 -12c-57 0 -102 15 -135 46s-50 67 -51 108c-1 77 40 128 121 152c61 17 120 26 178 27h7v9c0 38 -25 57 -76 57c-36 0 -76 -12 -119 -37l-20 -12l-60 122
c21 17 52 32 95 46s84 21 121 21c72 0 129 -19 170 -56s62 -89 62 -154v-317h-158v31l2 32h-2c-33 -50 -78 -75 -135 -75z" />
    <glyph glyph-name="b" unicode="b" horiz-adv-x="637" 
d="M232 260c0 -37 9 -68 26 -92s41 -36 72 -37c31 0 56 11 75 33s29 52 29 90s-9 69 -28 92s-43 35 -72 35s-54 -11 -73 -32c-19 -22 -29 -52 -29 -89zM64 0v715h173v-199l-2 -44h2c11 13 31 26 58 38c27 11 54 17 81 17c69 -1 125 -26 168 -75s64 -114 64 -195
s-23 -146 -68 -195s-103 -74 -172 -74c-28 0 -54 5 -78 14s-40 19 -49 30l-14 14h-2c1 -9 1 -18 1 -29v-17h-162z" />
    <glyph glyph-name="c" unicode="c" horiz-adv-x="551" 
d="M445 333c-33 33 -78 50 -134 50c-30 -1 -56 -13 -77 -37s-32 -53 -33 -86c0 -33 11 -63 34 -90c23 -25 54 -38 95 -38s81 15 122 46l19 16l63 -121l-9 -9c-31 -31 -67 -51 -109 -61s-76 -15 -103 -15c-87 0 -157 26 -209 79s-78 116 -78 190s26 138 78 191s122 80 209 79
c52 0 95 -9 129 -26s57 -32 68 -44l8 -8z" />
    <glyph glyph-name="d" unicode="d" horiz-adv-x="637" 
d="M203 258c0 -38 9 -69 28 -92s43 -35 72 -35s54 11 73 32c19 22 29 52 29 89c-1 37 -10 68 -27 92s-41 36 -72 37c-31 0 -55 -11 -74 -33s-29 -52 -29 -90zM258 -12c-68 0 -123 25 -166 74s-64 115 -63 196c-1 81 21 146 65 195s101 74 170 74c31 -1 57 -4 80 -11
s37 -13 44 -20l11 -10h2c-1 7 -1 14 -1 23v206h173v-715h-162v34l1 29h-2c-33 -50 -84 -75 -152 -75z" />
    <glyph glyph-name="e" unicode="e" horiz-adv-x="563" 
d="M359 323c0 20 -6 37 -19 52s-29 22 -49 22c-43 0 -71 -25 -83 -74h151zM27 261c0 75 24 138 73 189s113 76 190 77s137 -22 180 -69s64 -107 63 -180l-4 -54h-325c5 -29 19 -52 42 -68s52 -24 89 -24s74 13 112 39l19 13l64 -121c-21 -19 -53 -37 -96 -52
c-42 -15 -83 -23 -124 -23c-87 0 -156 27 -207 80s-76 118 -76 193z" />
    <glyph glyph-name="f" unicode="f" horiz-adv-x="384" 
d="M96 0v371h-63v135h63v21c0 88 39 146 118 173c37 13 76 19 118 19l52 -3v-146c-8 1 -17 2 -28 2c-58 0 -87 -17 -87 -50v-16h95v-135h-95v-371h-173z" />
    <glyph glyph-name="g" unicode="g" horiz-adv-x="629" 
d="M298 159c65 0 98 37 98 112s-33 112 -100 112c-29 -1 -52 -10 -68 -29s-24 -44 -24 -77s8 -60 25 -83s40 -34 69 -35zM273 -66c79 0 119 33 119 99v17l1 19h-2c-30 -36 -77 -54 -142 -54s-117 25 -158 76s-61 112 -61 183s20 131 60 180s97 74 171 73c28 -1 54 -5 77 -13
s40 -16 49 -24l14 -13h3c-1 4 -1 8 -1 12v26h162v-468c1 -127 -61 -208 -185 -243c-33 -9 -77 -14 -132 -14s-111 15 -169 46l49 131c43 -22 91 -33 145 -33z" />
    <glyph glyph-name="h" unicode="h" 
d="M64 0v715h173v-226l-2 -44h2c15 25 36 45 64 60s59 22 93 22c123 0 185 -64 185 -193v-334h-173v302c0 45 -19 68 -57 68c-52 0 -86 -25 -103 -76c-6 -17 -9 -39 -9 -66v-228h-173z" />
    <glyph glyph-name="i" unicode="i" horiz-adv-x="301" 
d="M64 0v515h173v-515h-173zM66 580v135h169v-135h-169z" />
    <glyph glyph-name="j" unicode="j" horiz-adv-x="301" 
d="M64 515h173v-528c-1 -90 -42 -149 -123 -176c-37 -13 -77 -19 -119 -19l-46 3v144c6 -1 13 -1 22 -1c62 0 93 22 93 66v511zM66 580v135h169v-135h-169z" />
    <glyph glyph-name="k" unicode="k" horiz-adv-x="599" 
d="M64 0v715h173v-370h49l102 170h188l-151 -234v-2l172 -279h-197l-109 200h-54v-200h-173z" />
    <glyph glyph-name="l" unicode="l" horiz-adv-x="323" 
d="M57 190v525h173v-502c0 -25 3 -43 10 -52s19 -14 38 -14l21 1v-150c-16 -2 -35 -3 -58 -3c-49 0 -91 12 -128 36s-56 77 -56 159z" />
    <glyph glyph-name="m" unicode="m" horiz-adv-x="918" 
d="M336 370c-66 0 -99 -52 -99 -157v-213h-173v515h166v-45l-2 -32h2c40 59 93 89 158 89s112 -29 139 -87h2c15 24 38 45 67 62s66 26 109 25c43 0 80 -15 111 -46s46 -80 45 -147v-334h-173v305c0 43 -13 65 -40 65c-66 0 -99 -52 -99 -157v-213h-173v305
c0 43 -13 65 -40 65z" />
    <glyph glyph-name="n" unicode="n" 
d="M64 0v515h166v-45l-2 -32h2c35 59 90 89 164 89c123 0 185 -64 185 -193v-334h-173v302c0 45 -19 68 -57 68c-51 0 -85 -25 -102 -74c-7 -19 -10 -42 -10 -68v-228h-173z" />
    <glyph glyph-name="o" unicode="o" 
d="M201 256c0 -37 11 -67 34 -90s50 -34 83 -34s60 11 83 34s34 53 34 90s-11 68 -34 92c-23 23 -50 35 -83 35s-60 -12 -83 -35c-23 -24 -34 -55 -34 -92zM26 256c0 79 28 144 84 195s125 76 208 76c83 1 152 -24 208 -75s84 -116 84 -196s-28 -145 -84 -194
s-125 -74 -208 -74s-152 25 -208 74s-84 114 -84 194z" />
    <glyph glyph-name="p" unicode="p" horiz-adv-x="637" 
d="M232 260c0 -37 9 -68 26 -92s41 -36 72 -37c31 0 56 11 75 33s29 52 29 90s-9 69 -28 92s-43 35 -72 35s-54 -11 -73 -32c-19 -22 -29 -52 -29 -89zM64 -200v715h156v-26l-2 -33h2c20 31 53 52 98 64c19 5 38 8 58 7c69 -1 125 -26 168 -75s64 -114 64 -195
s-23 -146 -68 -195s-103 -74 -172 -74c-25 0 -48 4 -70 12s-38 16 -47 24l-14 13h-2c1 -12 2 -27 2 -44v-193h-173z" />
    <glyph glyph-name="q" unicode="q" horiz-adv-x="637" 
d="M203 258c0 -38 9 -69 28 -92s43 -35 72 -35s54 11 73 32c19 22 29 52 29 89c-1 37 -10 68 -27 92s-41 36 -72 37c-31 0 -55 -11 -74 -33s-29 -52 -29 -90zM263 527c69 0 118 -18 148 -55h2c-1 7 -2 17 -2 28v15h162v-715h-173v202l2 44h-2c-13 -16 -33 -30 -58 -41
c-26 -11 -53 -17 -81 -17c-70 0 -126 25 -169 74s-64 115 -63 196c-1 81 21 146 65 195s100 74 169 74z" />
    <glyph glyph-name="r" unicode="r" horiz-adv-x="430" 
d="M379 355c-95 0 -142 -53 -142 -160v-195h-173v515h166v-87l-2 -32h2c11 36 31 66 62 91s65 37 102 37l20 -2v-170c-9 2 -21 3 -35 3z" />
    <glyph glyph-name="s" unicode="s" horiz-adv-x="471" 
d="M261 387c-41 0 -61 -8 -61 -25c0 -7 8 -13 25 -20l60 -24c23 -9 47 -20 71 -32s44 -30 60 -54c17 -24 25 -55 25 -92c1 -39 -18 -74 -57 -105s-83 -47 -134 -47c-89 0 -157 19 -203 57l-23 19l74 116c13 -13 32 -24 58 -35c27 -11 54 -17 82 -17s42 8 42 24
c0 8 -8 16 -25 24s-37 16 -60 24c-23 9 -47 20 -71 33s-44 31 -60 55c-17 24 -25 55 -25 94c1 39 21 73 61 102s94 43 162 43s125 -20 170 -59l-59 -123c-34 28 -71 42 -112 42z" />
    <glyph glyph-name="t" unicode="t" horiz-adv-x="415" 
d="M90 190v181h-66v135h71v148h168v-148h108v-135h-108v-158c0 -44 31 -66 92 -66l23 1v-150c-13 -2 -28 -3 -45 -3c-18 1 -34 2 -49 3s-32 4 -52 9c-36 9 -69 27 -98 56s-44 71 -44 127z" />
    <glyph glyph-name="u" unicode="u" horiz-adv-x="631" 
d="M401 77c-31 -59 -90 -89 -177 -89c-45 0 -85 15 -118 46s-50 80 -49 147v334h173v-302c0 -45 18 -68 54 -68c36 1 63 14 82 41s28 60 28 101v228h173v-515h-166v45l2 32h-2z" />
    <glyph glyph-name="v" unicode="v" horiz-adv-x="562" 
d="M176 0l-178 515h182l80 -274l19 -89h2c6 37 12 66 19 89l79 274h183l-175 -515h-211z" />
    <glyph glyph-name="w" unicode="w" horiz-adv-x="840" 
d="M157 0l-144 515h182l64 -304l6 -54h2c1 17 4 35 9 54l71 304h148l71 -304l8 -54h2c1 17 3 35 7 54l64 304h180l-144 -515h-193l-58 238l-10 55h-2c-2 -18 -5 -36 -10 -55l-58 -238h-195z" />
    <glyph glyph-name="x" unicode="x" horiz-adv-x="558" 
d="M15 0l162 255l-166 260h195l72 -149h2c7 14 12 25 16 34l56 115h195l-165 -260l162 -255h-190l-62 116l-12 26h-2c-5 -11 -9 -20 -12 -26l-61 -116h-190z" />
    <glyph glyph-name="y" unicode="y" horiz-adv-x="546" 
d="M109 -66c41 0 69 17 83 52l10 24l-219 505h196l76 -237l19 -80h2c7 33 12 58 17 77l65 240h189l-211 -570c-20 -53 -49 -92 -88 -117s-80 -38 -123 -38s-79 9 -109 27l-15 9l55 127c19 -13 36 -19 53 -19z" />
    <glyph glyph-name="z" unicode="z" horiz-adv-x="543" 
d="M34 0v86l189 237c23 27 38 42 45 47v2c-9 -1 -24 -2 -45 -2h-181v145h460v-87l-188 -237c-13 -17 -29 -32 -46 -47v-2c9 2 24 3 46 3h193v-145h-473z" />
    <glyph glyph-name="braceleft" unicode="{" horiz-adv-x="405" 
d="M268 205v-127c0 -36 24 -54 73 -54l25 2v-124c-12 -1 -27 -2 -46 -2c-43 0 -83 9 -122 26c-49 23 -74 68 -74 136v98c0 44 -18 74 -54 90c-8 4 -15 6 -22 6h-9v150c36 0 61 17 76 50c6 13 9 30 9 49v88c0 87 46 140 138 157c20 4 40 6 61 5l43 -2v-124c-7 1 -16 2 -25 2
c-49 0 -73 -18 -73 -54v-117c0 -39 -9 -68 -28 -87s-37 -33 -56 -40v-2c56 -19 84 -61 84 -126z" />
    <glyph glyph-name="bar" unicode="|" horiz-adv-x="310" 
d="M83 -165v967h144v-967h-144z" />
    <glyph glyph-name="braceright" unicode="}" horiz-adv-x="405" 
d="M137 205c0 65 28 107 84 126v2c-35 13 -60 38 -75 75c-6 16 -9 33 -9 52v117c0 36 -24 54 -73 54l-25 -2v124c13 1 28 2 47 2c43 -1 83 -10 120 -27c49 -23 74 -68 75 -135v-88c-1 -30 6 -53 21 -69s29 -25 43 -27l21 -3v-150c-35 0 -61 -17 -76 -50
c-6 -13 -9 -29 -9 -46v-98c1 -87 -45 -139 -137 -156c-20 -4 -41 -6 -62 -6l-43 2v124c7 -1 16 -2 25 -2c49 0 73 18 73 54v127z" />
    <glyph glyph-name="asciitilde" unicode="~" horiz-adv-x="625" 
d="M448 390h133c0 -135 -58 -203 -173 -203c-40 0 -74 13 -102 40c-27 27 -50 40 -68 40c-38 0 -57 -25 -57 -76h-134c0 135 58 203 174 203c39 0 73 -13 101 -40c27 -27 51 -40 71 -40c37 0 55 25 55 76z" />
    <glyph glyph-name="uni00A0" unicode="&#xa0;" horiz-adv-x="229" 
 />
    <glyph glyph-name="exclamdown" unicode="&#xa1;" horiz-adv-x="320" 
d="M70 -200l16 493h148l16 -493h-180zM81 364v150h158v-150h-158z" />
    <glyph glyph-name="cent" unicode="&#xa2;" horiz-adv-x="588" 
d="M399 409c-18 50 -49 75 -93 75c-23 0 -44 -12 -64 -36s-30 -55 -31 -93c1 -38 10 -68 29 -90s40 -33 64 -33c47 0 79 25 95 75l154 -60c-14 -40 -38 -77 -71 -111s-74 -54 -122 -61v-87h-110v87c-61 14 -111 47 -152 99s-61 113 -61 184c-1 69 20 130 61 183
s92 86 152 100v85h110v-85c45 -10 85 -30 120 -61s59 -68 73 -111z" />
    <glyph glyph-name="sterling" unicode="&#xa3;" horiz-adv-x="608" 
d="M59 299v112h43v100c0 63 23 115 69 155s104 60 175 61c35 -1 68 -8 101 -21s57 -27 72 -41l23 -21l-97 -118c-31 29 -60 44 -85 44s-45 -6 -58 -18s-20 -27 -21 -46v-95h165v-112h-165v-149h290v-150h-524v150h55v149h-43z" />
    <glyph glyph-name="yen" unicode="&#xa5;" horiz-adv-x="644" 
d="M69 340v96h92l-137 279h201l53 -143l43 -133h2c13 45 27 89 43 133l53 143h201l-138 -279h93v-96h-140l-24 -49v-28h164v-96h-164v-167h-179v167h-163v96h163v28l-24 49h-139z" />
    <glyph glyph-name="section" unicode="&#xa7;" horiz-adv-x="525" 
d="M334 169c0 21 -4 47 -13 77l-68 240h131l74 -273c7 -25 10 -50 10 -75c0 -59 -20 -107 -60 -144s-99 -56 -176 -56c-78 0 -143 23 -194 69l-8 8l69 115c43 -37 88 -55 137 -55c65 0 98 31 98 94zM286 589c-65 0 -98 -28 -98 -83c0 -20 3 -42 10 -67l72 -260h-131l-76 273
c-7 25 -10 50 -10 75c-1 59 19 108 59 145s97 56 172 55c39 1 76 -6 111 -19s59 -26 74 -39l22 -19l-74 -108c-37 31 -81 47 -131 47z" />
    <glyph glyph-name="dieresis" unicode="&#xa8;" horiz-adv-x="485" 
d="M75 771v140h126v-140h-126zM284 771v140h126v-140h-126z" />
    <glyph glyph-name="copyright" unicode="&#xa9;" horiz-adv-x="800" 
d="M345 354c1 -25 6 -45 17 -60s27 -22 48 -21c21 0 37 12 48 37l4 12l100 -39c-2 -9 -8 -21 -17 -36c-33 -53 -77 -79 -132 -79s-100 18 -134 54s-51 80 -51 133s17 97 51 133s78 54 131 54s97 -25 132 -74c8 -11 13 -21 16 -29l4 -12l-100 -39c-13 33 -30 49 -50 49
c-21 0 -37 -8 -49 -23s-18 -35 -18 -60zM152 358c0 -75 24 -138 71 -190s106 -78 176 -77c70 -1 129 25 177 77s72 115 73 190c-1 75 -25 137 -73 188s-107 77 -177 77s-129 -26 -176 -77s-71 -113 -71 -188zM39 358c0 101 35 188 105 260s155 108 255 108s185 -36 256 -108
s106 -159 106 -260c0 -103 -35 -190 -106 -262c-70 -72 -155 -108 -255 -108s-185 36 -256 108s-106 159 -105 262z" />
    <glyph glyph-name="ordfeminine" unicode="&#xaa;" horiz-adv-x="413" 
d="M54 268v85h305v-85h-305zM168 492c0 -13 7 -20 20 -20s25 5 34 14s14 20 14 31v5h-10c-39 0 -58 -10 -58 -30zM245 429c-19 -31 -50 -46 -95 -46c-23 1 -46 10 -67 29s-32 43 -32 73c0 73 60 109 181 109h5v8c0 24 -13 36 -39 36s-51 -7 -76 -20l-12 -7l-38 75
c39 26 83 39 133 39s88 -12 113 -36s38 -57 37 -99v-200h-108v39h-2z" />
    <glyph glyph-name="guillemotleft" unicode="&#xab;" horiz-adv-x="643" 
d="M192 77l-164 205l164 206h158l-164 -206l164 -205h-158zM288 282l164 206h158l-164 -206l164 -205h-158z" />
    <glyph glyph-name="logicalnot" unicode="&#xac;" horiz-adv-x="602" 
d="M36 337v130h506v-335h-135v205h-371z" />
    <glyph glyph-name="uni00AD" unicode="&#xad;" horiz-adv-x="430" 
d="M58 212v150h314v-150h-314z" />
    <glyph glyph-name="registered" unicode="&#xae;" horiz-adv-x="800" 
d="M376 377h27c27 -1 40 13 40 41s-13 42 -38 42h-29v-83zM268 187v347h163c37 0 67 -10 89 -31s33 -46 33 -76c1 -30 -6 -53 -19 -69s-26 -25 -39 -28v-2c3 -2 7 -9 13 -20l63 -121h-118l-49 118h-28v-118h-108zM152 358c0 -75 24 -138 71 -190s106 -78 176 -77
c70 -1 129 25 177 77s72 115 73 190c-1 75 -25 137 -73 188s-107 77 -177 77s-129 -26 -176 -77s-71 -113 -71 -188zM39 358c0 101 35 188 105 260s155 108 255 108s185 -36 256 -108s106 -159 106 -260c0 -103 -35 -190 -106 -262c-70 -72 -155 -108 -255 -108
s-185 36 -256 108s-106 159 -105 262z" />
    <glyph glyph-name="macron" unicode="&#xaf;" horiz-adv-x="485" 
d="M105 782v112h275v-112h-275z" />
    <glyph glyph-name="degree" unicode="&#xb0;" horiz-adv-x="418" 
d="M209 505c15 -1 28 4 39 15s16 23 16 38s-5 27 -16 36c-11 11 -24 16 -39 16s-28 -5 -39 -16s-16 -23 -16 -36c0 -15 5 -27 16 -38s24 -16 39 -15zM208 385c-51 0 -93 17 -128 50s-52 73 -52 121s18 89 53 123s78 51 128 51s93 -17 128 -51s53 -75 53 -123
s-18 -88 -53 -121s-78 -50 -129 -50z" />
    <glyph glyph-name="plusminus" unicode="&#xb1;" horiz-adv-x="626" 
d="M50 -70h526v-130h-526v130zM40 222v130h205v223h136v-223h205v-130h-205v-222h-136v222h-205z" />
    <glyph glyph-name="twosuperior" unicode="&#xb2;" horiz-adv-x="406" 
d="M238 725c0 23 -13 34 -40 34s-49 -11 -67 -34l-9 -11l-83 71c18 35 52 62 103 79c19 7 44 10 76 10s65 -12 98 -36s50 -56 49 -96c1 -39 -8 -70 -27 -94s-39 -42 -62 -54c-61 -30 -93 -51 -96 -63h191v-108h-327c-3 18 -5 39 -5 63c1 24 8 49 21 74s30 45 49 60
s39 27 59 38c47 27 70 49 70 67z" />
    <glyph glyph-name="threesuperior" unicode="&#xb3;" horiz-adv-x="406" 
d="M237 570c0 24 -21 36 -62 36h-37l-24 57l62 69l24 23v2c-14 -1 -25 -2 -34 -2h-110v109h294v-79l-83 -91c65 -16 97 -58 97 -126c0 -41 -15 -77 -46 -108s-67 -46 -110 -47c-75 0 -128 17 -161 51l-16 17l61 90c9 -11 22 -21 40 -30c17 -9 34 -13 51 -13s30 4 39 12
s14 18 15 30z" />
    <glyph glyph-name="acute" unicode="&#xb4;" horiz-adv-x="484" 
d="M116 761l81 150h171l-118 -150h-134z" />
    <glyph glyph-name="paragraph" unicode="&#xb6;" horiz-adv-x="654" 
d="M444 -50v565h120v-565h-120zM262 -50v291c-65 0 -120 23 -165 69s-68 102 -68 169s23 123 68 168s100 68 165 68h357v-150h-237v-615h-120z" />
    <glyph glyph-name="periodcentered" unicode="&#xb7;" horiz-adv-x="292" 
d="M67 213v164h158v-164h-158z" />
    <glyph glyph-name="cedilla" unicode="&#xb8;" horiz-adv-x="484" 
d="M336 -116c0 -33 -11 -57 -34 -72s-48 -22 -76 -22c-27 0 -50 2 -68 6l-10 3v87c15 -7 33 -10 53 -10s30 7 30 22s-14 22 -41 22l-26 -2l35 111l72 -17v-7l-10 -41c50 -5 75 -32 75 -80z" />
    <glyph glyph-name="onesuperior" unicode="&#xb9;" horiz-adv-x="406" 
d="M62 423v108h89v143l3 32h-2c-3 -7 -7 -12 -11 -15l-24 -22l-72 79l124 116h108v-333h90v-108h-305z" />
    <glyph glyph-name="ordmasculine" unicode="&#xba;" horiz-adv-x="455" 
d="M58 268v85h338v-85h-338zM227 488c18 0 33 6 45 18s18 28 18 48s-6 37 -18 50s-27 19 -45 19s-33 -6 -45 -19s-18 -30 -18 -50s6 -36 18 -48s27 -18 45 -18zM227 385c-51 -1 -94 15 -129 47s-52 73 -53 123c1 50 18 91 53 123s78 48 129 47c51 1 95 -15 130 -47
s53 -73 53 -123s-18 -91 -53 -123s-79 -48 -130 -47z" />
    <glyph glyph-name="guillemotright" unicode="&#xbb;" horiz-adv-x="643" 
d="M33 77l164 205l-164 206h158l164 -206l-164 -205h-158zM293 77l164 205l-164 206h158l164 -206l-164 -205h-158z" />
    <glyph glyph-name="onequarter" unicode="&#xbc;" horiz-adv-x="1007" 
d="M56 274v108h89v143l3 32h-2c-3 -7 -7 -12 -11 -15l-24 -22l-72 79l124 116h108v-333h90v-108h-305zM397 0h-119l336 715h119zM727 194h78v90l4 50h-2c-6 -18 -13 -33 -21 -46l-59 -92v-2zM805 0v87h-197v84l171 270h150v-247h53v-107h-53v-87h-124z" />
    <glyph glyph-name="onehalf" unicode="&#xbd;" horiz-adv-x="1018" 
d="M833 302c0 23 -14 34 -41 34s-49 -11 -66 -34l-9 -11l-83 71c17 36 51 63 102 80c19 7 44 10 77 9c31 -1 64 -13 97 -37s50 -55 50 -94s-9 -71 -28 -96c-19 -24 -39 -41 -60 -52c-61 -30 -94 -51 -97 -64h191v-108h-327c-3 19 -5 40 -5 64s7 48 20 73s30 44 50 59
s40 27 59 38c47 27 70 49 70 68zM50 274v108h89v143l3 32h-2c-3 -7 -7 -12 -11 -15l-24 -22l-72 79l124 116h108v-333h90v-108h-305zM395 0h-119l336 715h119z" />
    <glyph glyph-name="threequarters" unicode="&#xbe;" horiz-adv-x="1014" 
d="M722 194h78v90l4 50h-2c-6 -18 -13 -33 -21 -46l-59 -92v-2zM800 0v87h-197v84l171 270h150v-247h53v-107h-53v-87h-124zM392 0h-119l336 715h119zM232 421c0 24 -21 36 -62 36h-37l-24 57l62 69l24 23v2c-14 -1 -25 -2 -34 -2h-110v109h294v-79l-83 -91
c65 -16 97 -58 97 -126c0 -42 -15 -78 -46 -109s-68 -46 -111 -46c-75 0 -128 17 -160 51l-16 17l61 90c9 -11 22 -21 40 -30c17 -9 34 -13 51 -13s31 4 40 12s14 18 14 30z" />
    <glyph glyph-name="questiondown" unicode="&#xbf;" horiz-adv-x="468" 
d="M184 263v31h166v-45c0 -47 -18 -88 -55 -121c-15 -13 -31 -26 -47 -38c-37 -29 -56 -55 -55 -77c0 -21 7 -38 21 -49s33 -17 58 -17s49 11 74 32l13 11l96 -117l-9 -9c-29 -29 -64 -49 -103 -59s-72 -15 -97 -15c-61 0 -115 17 -162 52s-70 82 -71 142
c1 60 21 109 61 146c17 16 34 31 50 44c40 33 60 63 60 89zM188 365v150h158v-150h-158z" />
    <glyph glyph-name="Agrave" unicode="&#xc0;" horiz-adv-x="662" 
d="M269 761l-118 150h171l81 -150h-134zM332 552h-2c-11 -52 -20 -93 -29 -123l-41 -139h141l-40 139zM486 0l-44 150h-223l-43 -150h-180l243 715h184l243 -715h-180z" />
    <glyph glyph-name="Aacute" unicode="&#xc1;" horiz-adv-x="662" 
d="M259 761l81 150h171l-118 -150h-134zM332 552h-2c-11 -52 -20 -93 -29 -123l-41 -139h141l-40 139zM486 0l-44 150h-223l-43 -150h-180l243 715h184l243 -715h-180z" />
    <glyph glyph-name="Acircumflex" unicode="&#xc2;" horiz-adv-x="662" 
d="M148 761l99 150h168l99 -150h-135l-47 82h-2l-47 -82h-135zM332 552h-2c-11 -52 -20 -93 -29 -123l-41 -139h141l-40 139zM486 0l-44 150h-223l-43 -150h-180l243 715h184l243 -715h-180z" />
    <glyph glyph-name="Atilde" unicode="&#xc3;" horiz-adv-x="662" 
d="M130 761c0 102 43 153 128 153c26 0 51 -10 75 -30s41 -30 51 -30c25 0 37 19 37 57h112c0 -102 -43 -153 -128 -153c-26 0 -51 10 -75 30s-41 30 -51 30c-25 0 -37 -19 -37 -57h-112zM332 552h-2c-11 -52 -20 -93 -29 -123l-41 -139h141l-40 139zM486 0l-44 150h-223
l-43 -150h-180l243 715h184l243 -715h-180z" />
    <glyph glyph-name="Adieresis" unicode="&#xc4;" horiz-adv-x="662" 
d="M164 771v140h126v-140h-126zM373 771v140h126v-140h-126zM332 552h-2c-11 -52 -20 -93 -29 -123l-41 -139h141l-40 139zM486 0l-44 150h-223l-43 -150h-180l243 715h184l243 -715h-180z" />
    <glyph glyph-name="Aring" unicode="&#xc5;" horiz-adv-x="662" 
d="M297 832c1 -23 12 -35 35 -35c23 -1 34 11 34 35s-12 36 -35 36c-10 0 -18 -3 -25 -10s-10 -15 -9 -26zM331 747c-30 0 -56 7 -77 22s-32 36 -32 63c0 28 11 49 32 64s47 22 77 22c29 0 55 -7 77 -22s33 -36 33 -64c0 -27 -11 -48 -33 -63s-48 -22 -77 -22zM332 552h-2
c-11 -52 -20 -93 -29 -123l-41 -139h141l-40 139zM486 0l-44 150h-223l-43 -150h-180l243 715h184l243 -715h-180z" />
    <glyph glyph-name="AE" unicode="&#xc6;" horiz-adv-x="955" 
d="M451 428v137h-61l-53 -137h114zM899 715v-150h-273v-130h218v-150h-218v-135h286v-150h-461v288h-168l-111 -288h-182l299 715h610z" />
    <glyph glyph-name="Ccedilla" unicode="&#xc7;" horiz-adv-x="722" 
d="M37 364c0 101 36 187 107 258s161 106 268 105c80 1 155 -21 224 -65c15 -9 27 -18 34 -26l10 -10l-81 -132c-21 19 -48 35 -83 50s-67 23 -96 23c-65 0 -115 -20 -150 -60s-52 -88 -52 -145s18 -107 54 -150s85 -64 148 -64c32 0 64 7 96 22s55 29 70 44l24 22l90 -128
c-3 -3 -6 -7 -11 -12c-19 -20 -50 -42 -93 -65c-43 -24 -96 -38 -159 -42l-6 -25c50 -5 75 -32 75 -80c0 -33 -11 -57 -34 -72s-48 -22 -75 -22s-50 2 -69 6l-10 3v87c15 -7 33 -10 53 -10s30 7 30 22s-14 22 -41 22l-26 -2l23 73c-97 12 -174 52 -233 120
c-59 67 -88 152 -87 253z" />
    <glyph glyph-name="Egrave" unicode="&#xc8;" horiz-adv-x="588" 
d="M254 761l-118 150h171l81 -150h-134zM84 0v715h448v-150h-273v-130h218v-150h-218v-135h287v-150h-462z" />
    <glyph glyph-name="Eacute" unicode="&#xc9;" horiz-adv-x="588" 
d="M244 761l81 150h171l-118 -150h-134zM84 0v715h448v-150h-273v-130h218v-150h-218v-135h287v-150h-462z" />
    <glyph glyph-name="Ecircumflex" unicode="&#xca;" horiz-adv-x="588" 
d="M133 761l99 150h168l99 -150h-135l-47 82h-2l-47 -82h-135zM84 0v715h448v-150h-273v-130h218v-150h-218v-135h287v-150h-462z" />
    <glyph glyph-name="Edieresis" unicode="&#xcb;" horiz-adv-x="588" 
d="M149 771v140h126v-140h-126zM358 771v140h126v-140h-126zM84 0v715h448v-150h-273v-130h218v-150h-218v-135h287v-150h-462z" />
    <glyph glyph-name="Igrave" unicode="&#xcc;" horiz-adv-x="343" 
d="M110 761l-118 150h171l81 -150h-134zM84 0v715h175v-715h-175z" />
    <glyph glyph-name="Iacute" unicode="&#xcd;" horiz-adv-x="343" 
d="M100 761l81 150h171l-118 -150h-134zM84 0v715h175v-715h-175z" />
    <glyph glyph-name="Icircumflex" unicode="&#xce;" horiz-adv-x="343" 
d="M-11 761l99 150h168l99 -150h-135l-47 82h-2l-47 -82h-135zM84 0v715h175v-715h-175z" />
    <glyph glyph-name="Idieresis" unicode="&#xcf;" horiz-adv-x="343" 
d="M5 771v140h126v-140h-126zM214 771v140h126v-140h-126zM84 0v715h175v-715h-175z" />
    <glyph glyph-name="Eth" unicode="&#xd0;" horiz-adv-x="767" 
d="M280 150h72c61 0 109 18 144 54s52 87 51 154c0 67 -17 118 -52 154c-35 35 -82 53 -143 53h-72v-141h104v-140h-104v-134zM48 284v140h57v291h254c113 -1 202 -32 269 -95s100 -150 100 -262s-33 -199 -100 -262c-67 -64 -156 -96 -269 -96h-254v284h-57z" />
    <glyph glyph-name="Ntilde" unicode="&#xd1;" horiz-adv-x="772" 
d="M185 761c0 102 43 153 128 153c26 0 51 -10 75 -30s41 -30 51 -30c25 0 37 19 37 57h112c0 -102 -43 -153 -128 -153c-26 0 -51 10 -75 30s-41 30 -51 30c-25 0 -37 -19 -37 -57h-112zM84 0v715h177l198 -334c16 -28 33 -62 51 -102l9 -20h2c-5 51 -8 92 -8 122v334h175
v-715h-176l-199 333c-16 28 -33 62 -51 102l-9 20h-2c5 -51 8 -92 8 -122v-333h-175z" />
    <glyph glyph-name="Ograve" unicode="&#xd2;" horiz-adv-x="818" 
d="M347 761l-118 150h171l81 -150h-134zM216 360c0 -59 19 -109 56 -150s83 -62 137 -62s100 21 137 62s56 91 56 150s-19 109 -56 148s-83 59 -137 59s-100 -20 -137 -59s-56 -89 -56 -148zM35 360c1 105 36 192 107 262s160 105 267 105s196 -35 267 -105
s106 -157 107 -262c-1 -104 -36 -192 -107 -264s-160 -108 -267 -108s-196 36 -267 108s-106 160 -107 264z" />
    <glyph glyph-name="Oacute" unicode="&#xd3;" horiz-adv-x="818" 
d="M337 761l81 150h171l-118 -150h-134zM216 360c0 -59 19 -109 56 -150s83 -62 137 -62s100 21 137 62s56 91 56 150s-19 109 -56 148s-83 59 -137 59s-100 -20 -137 -59s-56 -89 -56 -148zM35 360c1 105 36 192 107 262s160 105 267 105s196 -35 267 -105
s106 -157 107 -262c-1 -104 -36 -192 -107 -264s-160 -108 -267 -108s-196 36 -267 108s-106 160 -107 264z" />
    <glyph glyph-name="Ocircumflex" unicode="&#xd4;" horiz-adv-x="818" 
d="M226 761l99 150h168l99 -150h-135l-47 82h-2l-47 -82h-135zM216 360c0 -59 19 -109 56 -150s83 -62 137 -62s100 21 137 62s56 91 56 150s-19 109 -56 148s-83 59 -137 59s-100 -20 -137 -59s-56 -89 -56 -148zM35 360c1 105 36 192 107 262s160 105 267 105
s196 -35 267 -105s106 -157 107 -262c-1 -104 -36 -192 -107 -264s-160 -108 -267 -108s-196 36 -267 108s-106 160 -107 264z" />
    <glyph glyph-name="Otilde" unicode="&#xd5;" horiz-adv-x="818" 
d="M208 761c0 102 43 153 128 153c26 0 51 -10 75 -30s41 -30 51 -30c25 0 37 19 37 57h112c0 -102 -43 -153 -128 -153c-26 0 -51 10 -75 30s-41 30 -51 30c-25 0 -37 -19 -37 -57h-112zM216 360c0 -59 19 -109 56 -150s83 -62 137 -62s100 21 137 62s56 91 56 150
s-19 109 -56 148s-83 59 -137 59s-100 -20 -137 -59s-56 -89 -56 -148zM35 360c1 105 36 192 107 262s160 105 267 105s196 -35 267 -105s106 -157 107 -262c-1 -104 -36 -192 -107 -264s-160 -108 -267 -108s-196 36 -267 108s-106 160 -107 264z" />
    <glyph glyph-name="Odieresis" unicode="&#xd6;" horiz-adv-x="818" 
d="M242 771v140h126v-140h-126zM451 771v140h126v-140h-126zM216 360c0 -59 19 -109 56 -150s83 -62 137 -62s100 21 137 62s56 91 56 150s-19 109 -56 148s-83 59 -137 59s-100 -20 -137 -59s-56 -89 -56 -148zM35 360c1 105 36 192 107 262s160 105 267 105
s196 -35 267 -105s106 -157 107 -262c-1 -104 -36 -192 -107 -264s-160 -108 -267 -108s-196 36 -267 108s-106 160 -107 264z" />
    <glyph glyph-name="multiply" unicode="&#xd7;" horiz-adv-x="623" 
d="M40 92l182 195l-182 196l92 92l179 -192l180 192l92 -92l-183 -196l183 -195l-92 -92l-180 192l-179 -192z" />
    <glyph glyph-name="Oslash" unicode="&#xd8;" horiz-adv-x="820" 
d="M217 368c0 -55 13 -101 39 -138l232 320c-25 11 -51 17 -78 17c-54 -1 -100 -20 -137 -59s-56 -85 -56 -140zM603 356c0 57 -16 105 -48 143l-237 -327c29 -16 59 -24 92 -24c54 0 100 20 137 61s56 90 56 147zM36 356c0 108 35 197 106 266c71 70 160 105 268 105
c65 0 124 -13 176 -40l41 56l70 -47l-40 -55c85 -72 127 -163 127 -273c0 -109 -35 -200 -106 -272s-160 -108 -268 -108c-70 0 -133 16 -190 48l-46 -64l-70 48l48 66c-77 72 -116 162 -116 270z" />
    <glyph glyph-name="Ugrave" unicode="&#xd9;" horiz-adv-x="746" 
d="M311 761l-118 150h171l81 -150h-134zM74 263v452h175v-452c-1 -37 10 -65 33 -85s53 -30 91 -30s68 10 91 30s34 48 33 85v452h175v-452c0 -82 -27 -148 -82 -199s-127 -76 -216 -76s-162 25 -218 76c-55 51 -82 117 -82 199z" />
    <glyph glyph-name="Uacute" unicode="&#xda;" horiz-adv-x="746" 
d="M301 761l81 150h171l-118 -150h-134zM74 263v452h175v-452c-1 -37 10 -65 33 -85s53 -30 91 -30s68 10 91 30s34 48 33 85v452h175v-452c0 -82 -27 -148 -82 -199s-127 -76 -216 -76s-162 25 -218 76c-55 51 -82 117 -82 199z" />
    <glyph glyph-name="Ucircumflex" unicode="&#xdb;" horiz-adv-x="746" 
d="M190 761l99 150h168l99 -150h-135l-47 82h-2l-47 -82h-135zM74 263v452h175v-452c-1 -37 10 -65 33 -85s53 -30 91 -30s68 10 91 30s34 48 33 85v452h175v-452c0 -82 -27 -148 -82 -199s-127 -76 -216 -76s-162 25 -218 76c-55 51 -82 117 -82 199z" />
    <glyph glyph-name="Udieresis" unicode="&#xdc;" horiz-adv-x="746" 
d="M206 771v140h126v-140h-126zM415 771v140h126v-140h-126zM74 263v452h175v-452c-1 -37 10 -65 33 -85s53 -30 91 -30s68 10 91 30s34 48 33 85v452h175v-452c0 -82 -27 -148 -82 -199s-127 -76 -216 -76s-162 25 -218 76c-55 51 -82 117 -82 199z" />
    <glyph glyph-name="Yacute" unicode="&#xdd;" horiz-adv-x="639" 
d="M248 761l81 150h171l-118 -150h-134zM232 0v293l-236 422h199l81 -172l43 -103h2c13 36 28 70 43 103l80 172h199l-236 -422v-293h-175z" />
    <glyph glyph-name="Thorn" unicode="&#xde;" horiz-adv-x="635" 
d="M259 265h86c29 0 51 9 67 27s24 42 24 71s-8 53 -23 70s-37 26 -65 26h-89v-194zM84 0v715h175v-106h122c70 0 126 -23 169 -69c43 -47 64 -106 64 -178s-21 -131 -64 -178s-99 -70 -169 -69h-122v-115h-175z" />
    <glyph glyph-name="germandbls" unicode="&#xdf;" horiz-adv-x="638" 
d="M64 0v527c0 63 25 112 75 147s108 53 175 53c67 -1 123 -19 168 -55s68 -82 68 -138c0 -23 -6 -43 -18 -62s-24 -36 -36 -52s-18 -30 -18 -43s7 -26 21 -39s29 -26 46 -38s32 -30 46 -54s21 -50 21 -78c0 -56 -19 -99 -56 -130s-83 -46 -136 -45c-53 0 -91 5 -114 15
l-12 6v142c31 -13 63 -19 96 -19s50 14 49 42c1 15 -22 39 -67 71c-17 12 -33 29 -47 50s-21 43 -21 66s6 44 18 64c12 19 24 37 36 54s18 33 18 48s-5 27 -16 36s-26 14 -46 15c-51 0 -77 -23 -77 -68v-515h-173z" />
    <glyph glyph-name="agrave" unicode="&#xe0;" horiz-adv-x="560" 
d="M218 565l-118 150h171l81 -150h-134zM199 163c0 -29 16 -43 49 -43c22 0 42 10 59 29s26 40 26 62v11h-16c-31 0 -59 -5 -83 -14s-36 -24 -35 -45zM211 -12c-57 0 -102 15 -135 46s-50 67 -51 108c-1 77 40 128 121 152c61 17 120 26 178 27h7v9c0 38 -25 57 -76 57
c-36 0 -76 -12 -119 -37l-20 -12l-60 122c21 17 52 32 95 46s84 21 121 21c72 0 129 -19 170 -56s62 -89 62 -154v-317h-158v31l2 32h-2c-33 -50 -78 -75 -135 -75z" />
    <glyph glyph-name="aacute" unicode="&#xe1;" horiz-adv-x="560" 
d="M207 565l81 150h171l-118 -150h-134zM199 163c0 -29 16 -43 49 -43c22 0 42 10 59 29s26 40 26 62v11h-16c-31 0 -59 -5 -83 -14s-36 -24 -35 -45zM211 -12c-57 0 -102 15 -135 46s-50 67 -51 108c-1 77 40 128 121 152c61 17 120 26 178 27h7v9c0 38 -25 57 -76 57
c-36 0 -76 -12 -119 -37l-20 -12l-60 122c21 17 52 32 95 46s84 21 121 21c72 0 129 -19 170 -56s62 -89 62 -154v-317h-158v31l2 32h-2c-33 -50 -78 -75 -135 -75z" />
    <glyph glyph-name="acircumflex" unicode="&#xe2;" horiz-adv-x="560" 
d="M96 565l99 150h168l99 -150h-135l-47 82h-2l-47 -82h-135zM199 163c0 -29 16 -43 49 -43c22 0 42 10 59 29s26 40 26 62v11h-16c-31 0 -59 -5 -83 -14s-36 -24 -35 -45zM211 -12c-57 0 -102 15 -135 46s-50 67 -51 108c-1 77 40 128 121 152c61 17 120 26 178 27h7v9
c0 38 -25 57 -76 57c-36 0 -76 -12 -119 -37l-20 -12l-60 122c21 17 52 32 95 46s84 21 121 21c72 0 129 -19 170 -56s62 -89 62 -154v-317h-158v31l2 32h-2c-33 -50 -78 -75 -135 -75z" />
    <glyph glyph-name="atilde" unicode="&#xe3;" horiz-adv-x="560" 
d="M78 565c0 102 43 153 128 153c26 0 51 -10 75 -30s41 -30 51 -30c25 0 37 19 37 57h112c0 -102 -43 -153 -128 -153c-26 0 -51 10 -75 30s-41 30 -51 30c-25 0 -37 -19 -37 -57h-112zM199 163c0 -29 16 -43 49 -43c22 0 42 10 59 29s26 40 26 62v11h-16
c-31 0 -59 -5 -83 -14s-36 -24 -35 -45zM211 -12c-57 0 -102 15 -135 46s-50 67 -51 108c-1 77 40 128 121 152c61 17 120 26 178 27h7v9c0 38 -25 57 -76 57c-36 0 -76 -12 -119 -37l-20 -12l-60 122c21 17 52 32 95 46s84 21 121 21c72 0 129 -19 170 -56s62 -89 62 -154
v-317h-158v31l2 32h-2c-33 -50 -78 -75 -135 -75z" />
    <glyph glyph-name="adieresis" unicode="&#xe4;" horiz-adv-x="560" 
d="M112 575v140h126v-140h-126zM321 575v140h126v-140h-126zM199 163c0 -29 16 -43 49 -43c22 0 42 10 59 29s26 40 26 62v11h-16c-31 0 -59 -5 -83 -14s-36 -24 -35 -45zM211 -12c-57 0 -102 15 -135 46s-50 67 -51 108c-1 77 40 128 121 152c61 17 120 26 178 27h7v9
c0 38 -25 57 -76 57c-36 0 -76 -12 -119 -37l-20 -12l-60 122c21 17 52 32 95 46s84 21 121 21c72 0 129 -19 170 -56s62 -89 62 -154v-317h-158v31l2 32h-2c-33 -50 -78 -75 -135 -75z" />
    <glyph glyph-name="aring" unicode="&#xe5;" horiz-adv-x="560" 
d="M245 636c1 -23 12 -35 35 -35c23 -1 34 11 34 35s-12 36 -35 36c-10 0 -18 -3 -25 -10s-10 -15 -9 -26zM279 551c-30 0 -56 7 -77 22s-32 36 -32 63c0 28 11 49 32 64s47 22 77 22c29 0 55 -7 77 -22s33 -36 33 -64c0 -27 -11 -48 -33 -63s-48 -22 -77 -22zM199 163
c0 -29 16 -43 49 -43c22 0 42 10 59 29s26 40 26 62v11h-16c-31 0 -59 -5 -83 -14s-36 -24 -35 -45zM211 -12c-57 0 -102 15 -135 46s-50 67 -51 108c-1 77 40 128 121 152c61 17 120 26 178 27h7v9c0 38 -25 57 -76 57c-36 0 -76 -12 -119 -37l-20 -12l-60 122
c21 17 52 32 95 46s84 21 121 21c72 0 129 -19 170 -56s62 -89 62 -154v-317h-158v31l2 32h-2c-33 -50 -78 -75 -135 -75z" />
    <glyph glyph-name="ae" unicode="&#xe6;" horiz-adv-x="855" 
d="M200 163c0 -29 17 -43 51 -43c23 0 42 10 59 30s25 41 25 62v12h-17c-31 0 -58 -5 -82 -16s-36 -26 -36 -45zM652 323c0 19 -6 36 -18 51s-27 22 -46 23c-45 0 -74 -25 -87 -74h151zM26 139c0 39 8 70 24 91c45 61 138 92 278 93h4v7c0 38 -25 57 -76 57
c-37 0 -77 -12 -120 -37l-20 -12l-60 121c21 17 53 33 94 47c42 14 82 21 119 21c71 0 125 -17 163 -51h2c41 34 95 51 162 51c67 1 122 -23 165 -71s65 -109 65 -183l-4 -49h-325c6 -31 20 -54 43 -69s51 -23 86 -23s73 13 114 38l19 13l64 -120c-21 -19 -53 -37 -96 -52
c-42 -15 -83 -23 -124 -23c-89 0 -158 30 -207 90h-2c-11 -19 -32 -39 -65 -59s-74 -30 -125 -30c-51 -1 -93 14 -128 45c-33 31 -50 66 -50 105z" />
    <glyph glyph-name="ccedilla" unicode="&#xe7;" horiz-adv-x="553" 
d="M447 333c-33 33 -78 50 -134 50c-30 -1 -56 -13 -77 -37s-32 -53 -33 -86c0 -33 11 -63 34 -90c23 -25 54 -38 95 -38s81 15 122 46l19 16l63 -121c-51 -51 -118 -79 -199 -84l-6 -25c50 -5 75 -32 75 -80c0 -33 -11 -57 -34 -72s-48 -22 -75 -22s-50 2 -69 6l-10 3v87
c15 -7 33 -10 53 -10s30 7 30 22s-14 22 -41 22l-26 -2l23 75c-71 11 -127 42 -168 91s-61 109 -61 180c0 69 26 131 78 184s122 80 209 79c52 0 95 -9 129 -26s57 -32 68 -44l8 -8z" />
    <glyph glyph-name="egrave" unicode="&#xe8;" horiz-adv-x="563" 
d="M230 565l-118 150h171l81 -150h-134zM359 323c0 20 -6 37 -19 52s-29 22 -49 22c-43 0 -71 -25 -83 -74h151zM27 261c0 75 24 138 73 189s113 76 190 77s137 -22 180 -69s64 -107 63 -180l-4 -54h-325c5 -29 19 -52 42 -68s52 -24 89 -24s74 13 112 39l19 13l64 -121
c-21 -19 -53 -37 -96 -52c-42 -15 -83 -23 -124 -23c-87 0 -156 27 -207 80s-76 118 -76 193z" />
    <glyph glyph-name="eacute" unicode="&#xe9;" horiz-adv-x="563" 
d="M219 565l81 150h171l-118 -150h-134zM359 323c0 20 -6 37 -19 52s-29 22 -49 22c-43 0 -71 -25 -83 -74h151zM27 261c0 75 24 138 73 189s113 76 190 77s137 -22 180 -69s64 -107 63 -180l-4 -54h-325c5 -29 19 -52 42 -68s52 -24 89 -24s74 13 112 39l19 13l64 -121
c-21 -19 -53 -37 -96 -52c-42 -15 -83 -23 -124 -23c-87 0 -156 27 -207 80s-76 118 -76 193z" />
    <glyph glyph-name="ecircumflex" unicode="&#xea;" horiz-adv-x="563" 
d="M108 565l99 150h168l99 -150h-135l-47 82h-2l-47 -82h-135zM359 323c0 20 -6 37 -19 52s-29 22 -49 22c-43 0 -71 -25 -83 -74h151zM27 261c0 75 24 138 73 189s113 76 190 77s137 -22 180 -69s64 -107 63 -180l-4 -54h-325c5 -29 19 -52 42 -68s52 -24 89 -24
s74 13 112 39l19 13l64 -121c-21 -19 -53 -37 -96 -52c-42 -15 -83 -23 -124 -23c-87 0 -156 27 -207 80s-76 118 -76 193z" />
    <glyph glyph-name="edieresis" unicode="&#xeb;" horiz-adv-x="563" 
d="M124 575v140h126v-140h-126zM333 575v140h126v-140h-126zM359 323c0 20 -6 37 -19 52s-29 22 -49 22c-43 0 -71 -25 -83 -74h151zM27 261c0 75 24 138 73 189s113 76 190 77s137 -22 180 -69s64 -107 63 -180l-4 -54h-325c5 -29 19 -52 42 -68s52 -24 89 -24
s74 13 112 39l19 13l64 -121c-21 -19 -53 -37 -96 -52c-42 -15 -83 -23 -124 -23c-87 0 -156 27 -207 80s-76 118 -76 193z" />
    <glyph glyph-name="igrave" unicode="&#xec;" horiz-adv-x="301" 
d="M88 565l-118 150h171l81 -150h-134zM64 0v515h173v-515h-173z" />
    <glyph glyph-name="iacute" unicode="&#xed;" horiz-adv-x="301" 
d="M78 565l81 150h171l-118 -150h-134zM64 0v515h173v-515h-173z" />
    <glyph glyph-name="icircumflex" unicode="&#xee;" horiz-adv-x="301" 
d="M-33 565l99 150h168l99 -150h-135l-47 82h-2l-47 -82h-135zM64 0v515h173v-515h-173z" />
    <glyph glyph-name="idieresis" unicode="&#xef;" horiz-adv-x="301" 
d="M-17 575v140h126v-140h-126zM192 575v140h126v-140h-126zM64 0v515h173v-515h-173z" />
    <glyph glyph-name="eth" unicode="&#xf0;" horiz-adv-x="596" 
d="M380 244c0 59 -29 88 -86 88c-28 0 -50 -9 -66 -28s-24 -42 -24 -70s7 -52 20 -72s35 -30 66 -30s53 11 68 34s22 49 22 78zM261 464c30 0 53 -3 69 -9h2c-17 25 -40 46 -70 63l-192 -79v95l92 39c-35 15 -66 25 -95 30l48 135c88 -19 165 -48 232 -89l161 67v-95
l-81 -34c85 -81 127 -183 127 -304c0 -97 -29 -174 -88 -231c-44 -43 -105 -64 -182 -64s-139 25 -185 75s-69 107 -69 172s21 119 64 163s98 66 167 66z" />
    <glyph glyph-name="ntilde" unicode="&#xf1;" 
d="M124 565c0 102 43 153 128 153c26 0 51 -10 75 -30s41 -30 51 -30c25 0 37 19 37 57h112c0 -102 -43 -153 -128 -153c-26 0 -51 10 -75 30s-41 30 -51 30c-25 0 -37 -19 -37 -57h-112zM64 0v515h166v-45l-2 -32h2c35 59 90 89 164 89c123 0 185 -64 185 -193v-334h-173
v302c0 45 -19 68 -57 68c-51 0 -85 -25 -102 -74c-7 -19 -10 -42 -10 -68v-228h-173z" />
    <glyph glyph-name="ograve" unicode="&#xf2;" 
d="M256 565l-118 150h171l81 -150h-134zM201 256c0 -37 11 -67 34 -90s50 -34 83 -34s60 11 83 34s34 53 34 90s-11 68 -34 92c-23 23 -50 35 -83 35s-60 -12 -83 -35c-23 -24 -34 -55 -34 -92zM26 256c0 79 28 144 84 195s125 76 208 76c83 1 152 -24 208 -75
s84 -116 84 -196s-28 -145 -84 -194s-125 -74 -208 -74s-152 25 -208 74s-84 114 -84 194z" />
    <glyph glyph-name="oacute" unicode="&#xf3;" 
d="M246 565l81 150h171l-118 -150h-134zM201 256c0 -37 11 -67 34 -90s50 -34 83 -34s60 11 83 34s34 53 34 90s-11 68 -34 92c-23 23 -50 35 -83 35s-60 -12 -83 -35c-23 -24 -34 -55 -34 -92zM26 256c0 79 28 144 84 195s125 76 208 76c83 1 152 -24 208 -75
s84 -116 84 -196s-28 -145 -84 -194s-125 -74 -208 -74s-152 25 -208 74s-84 114 -84 194z" />
    <glyph glyph-name="ocircumflex" unicode="&#xf4;" 
d="M135 565l99 150h168l99 -150h-135l-47 82h-2l-47 -82h-135zM201 256c0 -37 11 -67 34 -90s50 -34 83 -34s60 11 83 34s34 53 34 90s-11 68 -34 92c-23 23 -50 35 -83 35s-60 -12 -83 -35c-23 -24 -34 -55 -34 -92zM26 256c0 79 28 144 84 195s125 76 208 76
c83 1 152 -24 208 -75s84 -116 84 -196s-28 -145 -84 -194s-125 -74 -208 -74s-152 25 -208 74s-84 114 -84 194z" />
    <glyph glyph-name="otilde" unicode="&#xf5;" 
d="M117 565c0 102 43 153 128 153c26 0 51 -10 75 -30s41 -30 51 -30c25 0 37 19 37 57h112c0 -102 -43 -153 -128 -153c-26 0 -51 10 -75 30s-41 30 -51 30c-25 0 -37 -19 -37 -57h-112zM201 256c0 -37 11 -67 34 -90s50 -34 83 -34s60 11 83 34s34 53 34 90s-11 68 -34 92
c-23 23 -50 35 -83 35s-60 -12 -83 -35c-23 -24 -34 -55 -34 -92zM26 256c0 79 28 144 84 195s125 76 208 76c83 1 152 -24 208 -75s84 -116 84 -196s-28 -145 -84 -194s-125 -74 -208 -74s-152 25 -208 74s-84 114 -84 194z" />
    <glyph glyph-name="odieresis" unicode="&#xf6;" 
d="M151 575v140h126v-140h-126zM360 575v140h126v-140h-126zM201 256c0 -37 11 -67 34 -90s50 -34 83 -34s60 11 83 34s34 53 34 90s-11 68 -34 92c-23 23 -50 35 -83 35s-60 -12 -83 -35c-23 -24 -34 -55 -34 -92zM26 256c0 79 28 144 84 195s125 76 208 76
c83 1 152 -24 208 -75s84 -116 84 -196s-28 -145 -84 -194s-125 -74 -208 -74s-152 25 -208 74s-84 114 -84 194z" />
    <glyph glyph-name="divide" unicode="&#xf7;" horiz-adv-x="712" 
d="M283 0v135h146v-135h-146zM83 222v130h546v-130h-546zM283 440v135h146v-135h-146z" />
    <glyph glyph-name="oslash" unicode="&#xf8;" horiz-adv-x="635" 
d="M434 246c0 31 -5 56 -16 77l-135 -187c10 -3 26 -4 49 -4s45 11 68 34s34 49 34 80zM200 264c0 -33 6 -59 19 -79l138 191c-15 5 -29 7 -40 7c-33 0 -60 -12 -83 -35s-34 -51 -34 -84zM25 251c0 83 28 149 84 200s125 76 207 76c47 0 90 -9 131 -26l42 58l66 -45l-40 -55
c63 -52 94 -119 94 -200c0 -82 -28 -148 -84 -197s-125 -74 -208 -74c-45 0 -86 8 -124 23l-44 -61l-66 46l39 55c-65 51 -97 117 -97 200z" />
    <glyph glyph-name="ugrave" unicode="&#xf9;" horiz-adv-x="631" 
d="M250 565l-118 150h171l81 -150h-134zM401 77c-31 -59 -90 -89 -177 -89c-45 0 -85 15 -118 46s-50 80 -49 147v334h173v-302c0 -45 18 -68 54 -68c36 1 63 14 82 41s28 60 28 101v228h173v-515h-166v45l2 32h-2z" />
    <glyph glyph-name="uacute" unicode="&#xfa;" horiz-adv-x="631" 
d="M240 565l81 150h171l-118 -150h-134zM401 77c-31 -59 -90 -89 -177 -89c-45 0 -85 15 -118 46s-50 80 -49 147v334h173v-302c0 -45 18 -68 54 -68c36 1 63 14 82 41s28 60 28 101v228h173v-515h-166v45l2 32h-2z" />
    <glyph glyph-name="ucircumflex" unicode="&#xfb;" horiz-adv-x="631" 
d="M129 565l99 150h168l99 -150h-135l-47 82h-2l-47 -82h-135zM401 77c-31 -59 -90 -89 -177 -89c-45 0 -85 15 -118 46s-50 80 -49 147v334h173v-302c0 -45 18 -68 54 -68c36 1 63 14 82 41s28 60 28 101v228h173v-515h-166v45l2 32h-2z" />
    <glyph glyph-name="udieresis" unicode="&#xfc;" horiz-adv-x="631" 
d="M145 575v140h126v-140h-126zM354 575v140h126v-140h-126zM401 77c-31 -59 -90 -89 -177 -89c-45 0 -85 15 -118 46s-50 80 -49 147v334h173v-302c0 -45 18 -68 54 -68c36 1 63 14 82 41s28 60 28 101v228h173v-515h-166v45l2 32h-2z" />
    <glyph glyph-name="yacute" unicode="&#xfd;" horiz-adv-x="546" 
d="M203 564l81 150h171l-118 -150h-134zM109 -66c41 0 69 17 83 52l10 24l-219 505h196l76 -237l19 -80h2c7 33 12 58 17 77l65 240h189l-211 -570c-20 -53 -49 -92 -88 -117s-80 -38 -123 -38s-79 9 -109 27l-15 9l55 127c19 -13 36 -19 53 -19z" />
    <glyph glyph-name="thorn" unicode="&#xfe;" horiz-adv-x="635" 
d="M336 383c-69 1 -104 -41 -104 -125s35 -126 104 -126c29 0 53 12 70 36s26 54 27 90c-1 35 -10 65 -27 89s-41 36 -70 36zM64 -200v915h173v-197l-2 -44h2c31 35 79 53 143 53c64 -1 118 -26 162 -77s66 -115 65 -192c1 -77 -21 -142 -65 -193s-101 -77 -171 -77
c-29 0 -54 4 -77 12s-38 16 -45 24l-12 12h-2c1 -12 2 -27 2 -44v-192h-173z" />
    <glyph glyph-name="ydieresis" unicode="&#xff;" horiz-adv-x="546" 
d="M108 574v140h126v-140h-126zM317 574v140h126v-140h-126zM109 -66c41 0 69 17 83 52l10 24l-219 505h196l76 -237l19 -80h2c7 33 12 58 17 77l65 240h189l-211 -570c-20 -53 -49 -92 -88 -117s-80 -38 -123 -38s-79 9 -109 27l-15 9l55 127c19 -13 36 -19 53 -19z" />
    <glyph glyph-name="circumflex" unicode="&#x2c6;" horiz-adv-x="486" 
d="M60 761l99 150h168l99 -150h-135l-47 82h-2l-47 -82h-135z" />
    <glyph glyph-name="caron" unicode="&#x2c7;" horiz-adv-x="486" 
d="M159 761l-99 150h135l47 -82h2l47 82h135l-99 -150h-168z" />
    <glyph glyph-name="breve" unicode="&#x2d8;" horiz-adv-x="484" 
d="M242 756c-49 0 -91 13 -124 39s-50 61 -50 106v10h117v-11c0 -19 6 -33 17 -43s25 -15 40 -15s29 5 40 15s17 24 17 43v11h117v-10c0 -45 -17 -80 -50 -106s-75 -39 -124 -39z" />
    <glyph glyph-name="dotaccent" unicode="&#x2d9;" horiz-adv-x="485" 
d="M171 779v132h143v-132h-143z" />
    <glyph glyph-name="ring" unicode="&#x2da;" horiz-adv-x="485" 
d="M208 832c0 -23 11 -35 34 -35c23 -1 34 11 35 35c0 24 -12 36 -35 36c-9 0 -17 -3 -24 -10s-10 -15 -10 -26zM242 747c-29 0 -55 7 -76 22s-32 36 -33 63c1 28 12 49 33 64s47 22 76 22s55 -7 77 -22s33 -36 33 -64c0 -27 -11 -48 -33 -63s-48 -22 -77 -22z" />
    <glyph glyph-name="ogonek" unicode="&#x2db;" horiz-adv-x="486" 
d="M279 -210c-89 18 -133 49 -133 94c0 28 9 53 26 76s35 40 52 51l26 17l90 -14c-38 -33 -57 -58 -57 -75c0 -11 13 -20 38 -25z" />
    <glyph glyph-name="tilde" unicode="&#x2dc;" horiz-adv-x="485" 
d="M41 761c0 102 43 153 128 153c26 0 51 -10 75 -30s41 -30 51 -30c25 0 37 19 37 57h112c0 -102 -43 -153 -128 -153c-26 0 -51 10 -75 30s-41 30 -51 30c-25 0 -37 -19 -37 -57h-112z" />
    <glyph glyph-name="hungarumlaut" unicode="&#x2dd;" horiz-adv-x="485" 
d="M17 761l76 150h139l-79 -150h-136zM225 761l81 150h163l-118 -150h-126z" />
  </font>
</defs>
</svg>
